<svg width="9" height="9" viewBox="0 0 9 9" fill="none" xmlns="http://www.w3.org/2000/svg">
<path d="M1.08 3.46245C0.879338 3.4631 0.682566 3.4071 0.512308 3.30091C0.355665 3.20309 0.226464 3.06706 0.136847 2.90558C0.0472294 2.74411 0.000138868 2.5625 0 2.37783V1.08552C0.000138868 0.900848 0.0472294 0.719241 0.136847 0.557769C0.226464 0.396296 0.355665 0.26026 0.512308 0.162445C0.668863 0.064719 0.848019 0.00911524 1.03239 0.00102858C1.21677 -0.00705808 1.40011 0.0326469 1.56462 0.116292L2.86154 0.762445C3.11526 0.894313 3.30633 1.12142 3.39285 1.39396C3.47937 1.6665 3.45428 1.96223 3.32308 2.21629C3.22152 2.41479 3.06004 2.57627 2.86154 2.67783L1.56462 3.32398C1.41661 3.40854 1.25034 3.45605 1.08 3.46245ZM1.08 0.693215C1.00774 0.691817 0.936819 0.712772 0.876924 0.753215C0.820206 0.78809 0.773426 0.836985 0.741091 0.895188C0.708756 0.953391 0.691955 1.01894 0.692308 1.08552V2.37783C0.691955 2.44441 0.708756 2.50996 0.741091 2.56816C0.773426 2.62637 0.820206 2.67526 0.876924 2.71014C0.934888 2.74206 0.999984 2.75879 1.06615 2.75879C1.13233 2.75879 1.19742 2.74206 1.25539 2.71014L2.55231 2.07783C2.59986 2.05825 2.64299 2.02929 2.67911 1.99269C2.71523 1.95608 2.74362 1.91258 2.76257 1.86477C2.78152 1.81696 2.79065 1.76583 2.78941 1.71442C2.78818 1.663 2.77661 1.61237 2.75539 1.56552C2.71797 1.48654 2.65437 1.42294 2.57539 1.38552L1.26923 0.734753C1.2098 0.707675 1.14531 0.693517 1.08 0.693215Z" fill="#038F94"/>
<path d="M8.6537 0.693284H4.96139C4.86958 0.693284 4.78154 0.656815 4.71662 0.591898C4.6517 0.526982 4.61523 0.438936 4.61523 0.34713C4.61523 0.255325 4.6517 0.167279 4.71662 0.102363C4.78154 0.0374462 4.86958 0.000976563 4.96139 0.000976562H8.6537C8.7455 0.000976562 8.83355 0.0374462 8.89847 0.102363C8.96338 0.167279 8.99985 0.255325 8.99985 0.34713C8.99985 0.438936 8.96338 0.526982 8.89847 0.591898C8.83355 0.656815 8.7455 0.693284 8.6537 0.693284Z" fill="#038F94"/>
<path d="M8.6537 3.46257H4.96139C4.86958 3.46257 4.78154 3.4261 4.71662 3.36119C4.6517 3.29627 4.61523 3.20822 4.61523 3.11642C4.61523 3.02461 4.6517 2.93657 4.71662 2.87165C4.78154 2.80673 4.86958 2.77026 4.96139 2.77026H8.6537C8.7455 2.77026 8.83355 2.80673 8.89847 2.87165C8.96338 2.93657 8.99985 3.02461 8.99985 3.11642C8.99985 3.20822 8.96338 3.29627 8.89847 3.36119C8.83355 3.4261 8.7455 3.46257 8.6537 3.46257Z" fill="#038F94"/>
<path d="M8.65385 6.23161H0.346154C0.254348 6.23161 0.166302 6.19514 0.101386 6.13023C0.0364694 6.06531 0 5.97727 0 5.88546C0 5.79365 0.0364694 5.70561 0.101386 5.64069C0.166302 5.57578 0.254348 5.53931 0.346154 5.53931H8.65385C8.74565 5.53931 8.8337 5.57578 8.89862 5.64069C8.96353 5.70561 9 5.79365 9 5.88546C9 5.97727 8.96353 6.06531 8.89862 6.13023C8.8337 6.19514 8.74565 6.23161 8.65385 6.23161Z" fill="#038F94"/>
<path d="M8.65385 9.0009H0.346154C0.254348 9.0009 0.166302 8.96443 0.101386 8.89952C0.0364694 8.8346 0 8.74655 0 8.65475C0 8.56294 0.0364694 8.4749 0.101386 8.40998C0.166302 8.34506 0.254348 8.30859 0.346154 8.30859H8.65385C8.74565 8.30859 8.8337 8.34506 8.89862 8.40998C8.96353 8.4749 9 8.56294 9 8.65475C9 8.74655 8.96353 8.8346 8.89862 8.89952C8.8337 8.96443 8.74565 9.0009 8.65385 9.0009Z" fill="#038F94"/>
</svg>
