<svg width="9" height="9" viewBox="0 0 9 9" fill="none" xmlns="http://www.w3.org/2000/svg">
<g clip-path="url(#clip0_470_9442)">
<path d="M6.26057 3.19694C6.26625 3.15984 6.26427 3.12197 6.25477 3.08566C6.24527 3.04935 6.22844 3.01537 6.20532 2.9858C6.1822 2.95624 6.15327 2.93171 6.12032 2.91374C6.08737 2.89577 6.05109 2.88473 6.01372 2.8813C5.90578 2.86835 5.8006 2.8383 5.70212 2.79227C5.48768 2.68515 5.31323 2.51212 5.20437 2.29856C5.17508 2.24527 5.12919 2.20299 5.07368 2.17815C5.01817 2.15332 4.95606 2.14729 4.89681 2.16097C4.83761 2.17478 4.78489 2.20838 4.74737 2.2562C4.70984 2.30403 4.68976 2.36323 4.69043 2.42401V4.57284C4.48565 4.42813 4.24109 4.35038 3.99034 4.35027C3.74285 4.34947 3.50069 4.42213 3.29452 4.55904C3.08836 4.69595 2.92745 4.89097 2.83219 5.11938C2.73693 5.3478 2.71159 5.59935 2.75938 5.84218C2.80717 6.08501 2.92594 6.3082 3.10066 6.48348C3.27537 6.65876 3.49817 6.77826 3.74085 6.82684C3.98352 6.87542 4.23515 6.85089 4.46388 6.75637C4.6926 6.66184 4.88814 6.50157 5.02572 6.29585C5.1633 6.09013 5.23674 5.84821 5.23674 5.60072V3.14434C5.31786 3.19937 5.40309 3.24807 5.49168 3.29002C5.63979 3.3607 5.79828 3.40715 5.96111 3.42761C5.99592 3.43215 6.03129 3.42979 6.06519 3.42065C6.09909 3.41152 6.13085 3.39579 6.15866 3.37436C6.18648 3.35294 6.20979 3.32624 6.22728 3.2958C6.24476 3.26535 6.25608 3.23176 6.26057 3.19694ZM3.99034 6.30486C3.85107 6.30486 3.71493 6.26356 3.59914 6.18619C3.48335 6.10882 3.39309 5.99885 3.3398 5.87018C3.2865 5.74152 3.27256 5.59994 3.29973 5.46335C3.3269 5.32676 3.39396 5.2013 3.49244 5.10282C3.59091 5.00434 3.71638 4.93728 3.85297 4.91011C3.98956 4.88294 4.13113 4.89689 4.2598 4.95018C4.38846 5.00348 4.49843 5.09373 4.5758 5.20952C4.65318 5.32532 4.69447 5.46145 4.69447 5.60072C4.69447 5.78747 4.62029 5.96657 4.48824 6.09862C4.35619 6.23067 4.17709 6.30486 3.99034 6.30486Z" fill="#038F94"/>
<path d="M6.85926 -0.000148508H2.14074C1.57331 0.000921109 1.02942 0.226806 0.628188 0.62804C0.226954 1.02927 0.00106962 1.57316 0 2.14059V6.85911C0.00106962 7.42654 0.226954 7.97043 0.628188 8.37166C1.02942 8.7729 1.57331 8.99878 2.14074 8.99985H5.65333C5.68893 8.99985 5.72419 8.99284 5.75709 8.97921C5.78998 8.96559 5.81987 8.94561 5.84505 8.92044C5.87023 8.89526 5.89019 8.86537 5.90382 8.83248C5.91745 8.79958 5.92446 8.76432 5.92446 8.72872C5.92447 8.65643 5.89603 8.58705 5.8453 8.53555C5.79456 8.48406 5.72561 8.4546 5.65333 8.45354H2.14074C1.71982 8.44727 1.31791 8.27728 1.02024 7.97961C0.722578 7.68195 0.55258 7.28003 0.546312 6.85911V2.14059C0.551536 1.71897 0.721072 1.31603 1.01885 1.0175C1.31662 0.718966 1.71913 0.54841 2.14074 0.542118H6.85926C7.28857 0.542118 7.70029 0.712659 8.00386 1.01623C8.30743 1.31979 8.47797 1.73152 8.47797 2.16082V5.66937C8.47797 5.74127 8.50653 5.81024 8.55738 5.86109C8.60823 5.91193 8.67719 5.9405 8.7491 5.9405C8.82101 5.9405 8.88997 5.91193 8.94082 5.86109C8.99167 5.81024 9.02023 5.74127 9.02023 5.66937V2.14059C9.02025 1.85775 8.96421 1.57772 8.85536 1.31666C8.74652 1.05561 8.58702 0.818713 8.38609 0.61966C8.18516 0.420607 7.94677 0.263346 7.6847 0.156961C7.42264 0.0505764 7.14209 -0.00282182 6.85926 -0.000148508Z" fill="#038F94"/>
<path d="M8.32848 7.05351H7.60006V6.32509C7.60006 6.25318 7.5715 6.18422 7.52065 6.13337C7.4698 6.08252 7.40084 6.05396 7.32893 6.05396C7.25664 6.05395 7.18726 6.08238 7.13576 6.13312C7.08427 6.18385 7.05481 6.25281 7.05375 6.32509V7.05351H6.32533C6.25342 7.05351 6.18446 7.08207 6.13361 7.13292C6.08277 7.18377 6.0542 7.25273 6.0542 7.32464C6.0542 7.39655 6.08277 7.46551 6.13361 7.51636C6.18446 7.56721 6.25342 7.59577 6.32533 7.59577H7.05375V8.32824C7.05481 8.40051 7.08427 8.46947 7.13576 8.52021C7.18726 8.57094 7.25664 8.59938 7.32893 8.59937C7.40084 8.59937 7.4698 8.5708 7.52065 8.51996C7.5715 8.46911 7.60006 8.40014 7.60006 8.32824V7.59577H8.32848C8.40039 7.59577 8.46935 7.56721 8.5202 7.51636C8.57105 7.46551 8.59961 7.39655 8.59961 7.32464C8.59961 7.25273 8.57105 7.18377 8.5202 7.13292C8.46935 7.08207 8.40039 7.05351 8.32848 7.05351Z" fill="#038F94"/>
</g>
<defs>
<clipPath id="clip0_470_9442">
<rect width="9" height="9" fill="white"/>
</clipPath>
</defs>
</svg>
