<svg width="51" height="50" viewBox="0 0 51 50" fill="none" xmlns="http://www.w3.org/2000/svg">
<path d="M24.9187 0C25.1814 0 25.4441 0 25.7068 0C26.4948 0.394035 27.1516 0.78807 27.9396 1.18211C34.9009 4.99111 41.8622 8.66877 48.8235 12.4778C49.2175 12.7405 49.6116 13.0032 49.8743 13.3972C50.3996 14.3166 50.0056 15.236 48.9548 15.8927C46.8533 17.0749 44.7518 18.1256 42.7816 19.3077C42.6503 19.4391 42.5189 19.4391 42.2562 19.5704C42.5189 19.7018 42.6503 19.8331 42.7816 19.8331C44.8831 20.8839 46.8533 22.066 48.9548 23.1167C49.2175 23.2481 49.4802 23.5108 49.7429 23.6421C50.531 24.5615 50.2683 25.7436 49.0862 26.4004C46.9847 27.5825 44.8831 28.6332 42.7816 29.8153C42.6503 29.9467 42.5189 29.9467 42.2562 30.078C42.5189 30.2094 42.6503 30.3407 42.7816 30.3407C44.8831 31.3915 46.8533 32.5736 48.9548 33.6243C49.4802 33.887 49.8743 34.1497 50.0056 34.8064C50.2683 35.7258 49.8743 36.5139 48.9548 37.0393C41.4682 41.111 34.1129 45.0513 26.6262 49.123C25.7068 49.6484 24.9187 49.6484 24.1306 49.123C16.644 45.1827 9.28864 41.2423 1.93332 37.302C1.2766 36.908 0.751215 36.5139 0.488525 35.8572C0.488525 35.5945 0.488525 35.3318 0.488525 35.0691C0.751215 34.4124 1.2766 33.887 1.93332 33.6243C3.9035 32.5736 5.87367 31.5228 7.97519 30.3407C8.10654 30.2094 8.23788 30.2094 8.50057 30.078C8.23788 29.9467 8.10654 29.8153 7.97519 29.8153C6.00502 28.7646 4.03484 27.7138 2.06467 26.663C1.40794 26.269 0.88256 25.875 0.61987 25.2182C0.61987 24.9556 0.61987 24.6929 0.61987 24.4302C0.88256 23.7735 1.40794 23.2481 2.06467 22.9854C2.4587 22.854 2.85274 22.5913 3.24677 22.3287C4.95426 21.4092 6.79309 20.4898 8.63192 19.4391C8.50057 19.3077 8.23788 19.1764 8.10654 19.1764C6.13636 18.1256 4.03484 16.9435 2.06467 15.8927C1.40794 15.4987 0.88256 15.1047 0.751215 14.448C0.751215 14.1853 0.751215 13.9226 0.751215 13.6599C1.01391 13.1345 1.2766 12.7405 1.93332 12.3464C9.41999 8.27474 17.1693 4.20304 24.9187 0ZM44.6205 14.1853C44.4891 14.0539 44.3578 14.0539 44.2264 13.9226C38.0532 10.6389 31.88 7.35532 25.8381 3.94035C25.5754 3.80901 25.3127 3.80901 25.05 3.94035C18.8768 7.22398 12.7036 10.6389 6.5304 13.9226C6.39905 13.9226 6.26771 14.0539 6.13636 14.1853C6.26771 14.1853 6.26771 14.3166 6.39905 14.3166C12.5723 17.7316 18.8768 21.0152 25.05 24.4302C25.3127 24.5615 25.5754 24.5615 25.8381 24.4302C31.6173 21.2779 37.3965 18.257 43.0443 15.1047C43.5697 14.842 43.9637 14.448 44.6205 14.1853ZM6.00502 24.8242C6.13636 24.9556 6.26771 24.9556 6.26771 25.0869C12.4409 28.3705 18.7455 31.7855 24.9187 35.0691C25.1814 35.2005 25.3127 35.2005 25.5754 35.0691C31.7486 31.7855 37.9219 28.3705 44.0951 25.0869C44.2264 25.0869 44.3578 24.9556 44.4891 24.8242C42.5189 23.7735 40.6801 22.7227 38.8413 21.8033C38.5786 21.6719 38.3159 21.6719 38.0532 21.8033C34.2442 23.9048 30.4352 25.875 26.4948 27.9765C25.5754 28.5019 24.9187 28.5019 23.9993 27.9765C20.1903 25.875 16.2499 23.7735 12.4409 21.8033C12.3096 21.5406 12.0469 21.5406 11.7842 21.6719C10.0767 22.5913 8.23788 23.6421 6.39905 24.5615C6.39905 24.6929 6.26771 24.6929 6.00502 24.8242ZM6.00502 35.4632C6.13636 35.5945 6.26771 35.5945 6.26771 35.5945C12.4409 39.0095 18.7455 42.2931 24.9187 45.7081C25.1814 45.8394 25.4441 45.8394 25.5754 45.7081C31.7486 42.4245 37.9219 39.1408 43.9637 35.7258C44.0951 35.5945 44.2264 35.5945 44.3578 35.4632C42.3876 34.4124 40.5488 33.3616 38.5786 32.3109C38.3159 32.1795 38.0532 32.1795 37.7905 32.3109C33.9815 34.4124 30.1725 36.3826 26.2322 38.4841C25.3127 39.0095 24.5247 39.0095 23.7366 38.4841C19.9276 36.3826 16.1186 34.2811 12.1782 32.3109C12.0469 32.1795 11.7842 32.1795 11.5215 32.1795C9.94537 33.3616 7.97519 34.4124 6.00502 35.4632Z" fill="#2E3456"/>
</svg>
