<svg width="34" height="34" viewBox="0 0 34 34" fill="none" xmlns="http://www.w3.org/2000/svg">
<g filter="url(#filter0_d_179_2129)">
<circle cx="15" cy="15" r="12" fill="white"/>
</g>
<path d="M11.9126 21.6798C11.6399 21.4984 11.3982 21.2742 11.1968 21.0159C10.9753 20.7492 10.7701 20.4695 10.5822 20.1782C10.1413 19.5323 9.79561 18.8265 9.55561 18.0822C9.2673 17.2177 9.12769 16.3891 9.12769 15.5787C9.12769 14.6735 9.32349 13.8834 9.70646 13.2195C9.99035 12.7005 10.4077 12.2669 10.9154 11.9634C11.4075 11.6578 11.9728 11.4905 12.5519 11.4793C12.7547 11.4793 12.9729 11.5086 13.2046 11.5648C13.371 11.612 13.5738 11.6863 13.8214 11.7788C14.1365 11.9003 14.3099 11.9746 14.3687 11.9928C14.5532 12.0602 14.7084 12.0896 14.8303 12.0896C14.9228 12.0896 15.0533 12.0602 15.2016 12.0152C15.285 11.9858 15.4423 11.934 15.6675 11.8376C15.8906 11.7563 16.0661 11.6867 16.2057 11.6349C16.4197 11.5718 16.6267 11.5134 16.8113 11.484C17.0301 11.4495 17.2521 11.4404 17.473 11.4568C17.8558 11.4818 18.2329 11.5629 18.5921 11.6975C19.1795 11.934 19.6546 12.3031 20.0082 12.8279C19.8587 12.92 19.7184 13.0262 19.5893 13.1451C19.3082 13.3943 19.0687 13.6869 18.88 14.0118C18.6333 14.4557 18.5054 14.9558 18.5087 15.4637C18.5178 16.0874 18.6777 16.6368 18.9928 17.1118C19.2245 17.4639 19.5255 17.765 19.8776 17.9966C20.0579 18.1181 20.213 18.2015 20.3617 18.2577C20.2921 18.4738 20.2178 18.683 20.13 18.8905C19.931 19.3558 19.6898 19.8019 19.4095 20.2231C19.1597 20.5858 18.9638 20.8559 18.8152 21.0358C18.5835 21.3102 18.3604 21.5199 18.1352 21.666C17.8876 21.8302 17.5949 21.918 17.2975 21.918C17.0961 21.9257 16.8948 21.9013 16.701 21.8458C16.5346 21.7896 16.3699 21.7286 16.2079 21.6591C16.0393 21.5816 15.8656 21.5162 15.6879 21.4632C15.2486 21.3504 14.788 21.3497 14.3483 21.4611C14.1681 21.513 13.9948 21.5735 13.8236 21.6478C13.5828 21.749 13.4229 21.8168 13.3304 21.8458C13.1458 21.8998 12.9543 21.9335 12.7607 21.9448C12.4612 21.9448 12.1819 21.8592 11.9053 21.6859L11.9126 21.6798ZM15.8634 11.0401C15.4717 11.2359 15.0979 11.3193 14.7266 11.2921C14.6682 10.9182 14.7266 10.5357 14.8817 10.1168C15.0138 9.76197 15.209 9.43395 15.4579 9.14859C15.7207 8.84819 16.0396 8.60196 16.3967 8.42371C16.7771 8.22791 17.1398 8.12201 17.4864 8.10645C17.5314 8.49806 17.4864 8.88319 17.3425 9.29944C17.2093 9.6674 17.0145 10.01 16.7663 10.3126C16.513 10.6134 16.2022 10.8606 15.8521 11.0397L15.8634 11.0401Z" fill="black"/>
<defs>
<filter id="filter0_d_179_2129" x="0" y="0" width="34" height="34" filterUnits="userSpaceOnUse" color-interpolation-filters="sRGB">
<feFlood flood-opacity="0" result="BackgroundImageFix"/>
<feColorMatrix in="SourceAlpha" type="matrix" values="0 0 0 0 0 0 0 0 0 0 0 0 0 0 0 0 0 0 127 0" result="hardAlpha"/>
<feOffset dx="2" dy="2"/>
<feGaussianBlur stdDeviation="2.5"/>
<feComposite in2="hardAlpha" operator="out"/>
<feColorMatrix type="matrix" values="0 0 0 0 0 0 0 0 0 0 0 0 0 0 0 0 0 0 0.05 0"/>
<feBlend mode="normal" in2="BackgroundImageFix" result="effect1_dropShadow_179_2129"/>
<feBlend mode="normal" in="SourceGraphic" in2="effect1_dropShadow_179_2129" result="shape"/>
</filter>
</defs>
</svg>
