<svg width="19" height="19" viewBox="0 0 19 19" fill="none" xmlns="http://www.w3.org/2000/svg">
<path d="M14.2115 2.29097C14.1196 2.19882 14.0104 2.1257 13.8902 2.07581C13.7699 2.02592 13.6411 2.00024 13.5109 2.00024C13.3807 2.00024 13.2518 2.02592 13.1316 2.07581C13.0114 2.1257 12.9022 2.19882 12.8103 2.29097L6.23152 8.86972C6.15813 8.94296 6.0999 9.02996 6.06018 9.12573C6.02045 9.2215 6 9.32416 6 9.42785C6 9.53153 6.02045 9.63419 6.06018 9.72997C6.0999 9.82574 6.15813 9.91273 6.23152 9.98597L12.8103 16.5647C13.1982 16.9526 13.8236 16.9526 14.2115 16.5647C14.5994 16.1768 14.5994 15.5514 14.2115 15.1635L8.47985 9.42389L14.2194 3.6843C14.5994 3.3043 14.5994 2.67097 14.2115 2.29097Z" fill="#1E232C" stroke="#1E232C" stroke-width="0.2"/>
</svg>
