<svg width="153" height="151" viewBox="0 0 153 151" fill="none" xmlns="http://www.w3.org/2000/svg">
<g clip-path="url(#clip0_229_32570)">
<path d="M69.9349 135.844C107.426 135.844 137.819 105.451 137.819 67.9591C137.819 30.4676 107.426 0.074707 69.9349 0.074707C32.4434 0.074707 2.05054 30.4676 2.05054 67.9591C2.05054 105.451 32.4434 135.844 69.9349 135.844Z" fill="#A2C3F2"/>
<path d="M55.2794 41.5606L15.8523 47.0743C14.2668 47.2954 12.6584 46.8778 11.3808 45.9132C10.1031 44.9487 9.26089 43.5162 9.03921 41.9308L5.96183 19.9394C5.74096 18.354 6.15868 16.7457 7.12317 15.4681C8.08766 14.1905 9.51999 13.3482 11.1053 13.1263L50.5324 7.61351C51.3174 7.5038 52.1164 7.5498 52.8836 7.74887C53.6509 7.94794 54.3714 8.29619 55.0041 8.77373C55.6367 9.25127 56.1691 9.84875 56.5709 10.5321C56.9726 11.2154 57.2358 11.9711 57.3455 12.7561L60.4204 34.7476C60.642 36.3328 60.2249 37.941 59.2608 39.2187C58.2967 40.4964 56.8646 41.3388 55.2794 41.5606Z" fill="#3E8EDD"/>
<path d="M19.5949 22.2988L13.7279 23.1191C12.4492 23.2979 11.5575 24.4795 11.7363 25.7581L12.1507 28.7213C12.3295 30 13.511 30.8916 14.7897 30.7128L20.6567 29.8924C21.9354 29.7137 22.827 28.5321 22.6482 27.2534L22.2339 24.2903C22.0551 23.0116 20.8736 22.12 19.5949 22.2988Z" fill="#FFB12A"/>
<path d="M54.4565 27.5576L12.8021 33.3821L13.3487 37.2907L55.003 31.4662L54.4565 27.5576Z" fill="#F1F3F2"/>
<path d="M55.3305 33.8117L13.6761 39.6362L13.9728 41.758L55.6272 35.9335L55.3305 33.8117Z" fill="#F1F3F2"/>
<path d="M44.6116 16.8866C44.5134 16.3675 44.2634 15.8892 43.8933 15.5122C43.5233 15.1353 43.0496 14.8765 42.5325 14.7688C42.0153 14.661 41.4778 14.7091 40.9879 14.907C40.4981 15.1048 40.0779 15.4435 39.7806 15.8802C39.4833 16.3169 39.3222 16.832 39.3177 17.3602C39.3132 17.8885 39.4656 18.4062 39.7554 18.8479C40.0453 19.2896 40.4596 19.6354 40.946 19.8415C41.4325 20.0476 41.9691 20.1048 42.488 20.0058C43.1827 19.8727 43.7963 19.4697 44.1943 18.885C44.5923 18.3003 44.7424 17.5817 44.6116 16.8866ZM42.1901 18.4257C41.9843 18.4647 41.7717 18.4418 41.579 18.36C41.3862 18.2781 41.2221 18.141 41.1073 17.9658C40.9925 17.7907 40.9322 17.5855 40.9341 17.3762C40.9359 17.1668 40.9997 16.9626 41.1175 16.7895C41.2353 16.6164 41.4018 16.4822 41.5959 16.4037C41.79 16.3252 42.003 16.306 42.2081 16.3485C42.4131 16.3911 42.6009 16.4934 42.7477 16.6427C42.8946 16.7919 42.9939 16.9814 43.0331 17.187C43.0855 17.4631 43.0261 17.7486 42.868 17.9809C42.7099 18.2132 42.4661 18.3732 42.1901 18.4257Z" fill="white"/>
<path d="M51.4567 21.5433C51.3584 21.0245 51.1084 20.5465 50.7384 20.1698C50.3684 19.793 49.8949 19.5345 49.378 19.4269C48.861 19.3193 48.3237 19.3674 47.8341 19.5652C47.3445 19.763 46.9245 20.1015 46.6274 20.538C46.3302 20.9745 46.1692 21.4894 46.1646 22.0174C46.1601 22.5454 46.3123 23.063 46.602 23.5045C46.8916 23.946 47.3057 24.2917 47.7919 24.4979C48.278 24.704 48.8144 24.7613 49.3332 24.6626C50.0278 24.5294 50.6414 24.1264 51.0394 23.5417C51.4375 22.957 51.5875 22.2384 51.4567 21.5433ZM48.6363 21.0016C48.7627 20.9785 48.8923 20.9785 49.0188 21.0016C49.2786 21.0493 49.5113 21.1924 49.671 21.4029C49.8307 21.6134 49.906 21.876 49.882 22.1391C49.8581 22.4022 49.7366 22.6469 49.5415 22.825C49.3464 23.0032 49.0917 23.102 48.8275 23.102C48.5633 23.102 48.3086 23.0032 48.1135 22.825C47.9184 22.6469 47.7969 22.4022 47.773 22.1391C47.749 21.876 47.8243 21.6134 47.984 21.4029C48.1438 21.1924 48.3764 21.0493 48.6363 21.0016Z" fill="white"/>
<path d="M49.38 13.8816C49.2033 13.7619 48.9863 13.717 48.7766 13.7569C48.5669 13.7967 48.3816 13.918 48.2611 14.0942L41.2314 24.4279C41.1254 24.6044 41.091 24.8147 41.1353 25.0158C41.1796 25.2168 41.2992 25.3932 41.4696 25.5088C41.6399 25.6244 41.848 25.6704 42.0512 25.6373C42.2544 25.6042 42.4371 25.4945 42.562 25.3309L49.5926 14.9972C49.7113 14.8207 49.7555 14.6046 49.7157 14.3957C49.6759 14.1868 49.5553 14.002 49.38 13.8816Z" fill="white"/>
<path d="M112.821 86.2149L73.394 91.7286C71.8085 91.9497 70.2001 91.532 68.9225 90.5675C67.6448 89.603 66.8026 88.1705 66.5809 86.5851L64.7832 73.7306L63.8647 67.1638L63.5052 64.5962C63.2843 63.0107 63.702 61.4024 64.6665 60.1248C65.631 58.8473 67.0633 58.005 68.6486 57.7831L108.076 52.2702C108.861 52.1605 109.66 52.2065 110.427 52.4056C111.194 52.6047 111.915 52.9529 112.547 53.4305C113.18 53.908 113.712 54.5055 114.114 55.1888C114.516 55.8721 114.779 56.6278 114.889 57.4129L115.248 59.9805L116.166 66.5473L117.964 79.4018C118.073 80.1869 118.027 80.9858 117.828 81.7531C117.629 82.5203 117.281 83.2408 116.804 83.8735C116.326 84.5062 115.728 85.0386 115.045 85.4403C114.362 85.842 113.606 86.1053 112.821 86.2149Z" fill="#3E8EDD"/>
<path d="M115.248 59.9758L63.8632 67.1609L64.7817 73.7303L116.166 66.5452L115.248 59.9758Z" fill="#305777"/>
<path d="M103.764 83.3397C105.904 82.7839 107.188 80.5985 106.632 78.4586C106.077 76.3186 103.891 75.0345 101.751 75.5903C99.6114 76.1461 98.3272 78.3314 98.883 80.4714C99.4388 82.6113 101.624 83.8955 103.764 83.3397Z" fill="#F1F3F2"/>
<path d="M109.818 82.4522C111.925 81.7833 113.091 79.5327 112.422 77.4254C111.753 75.318 109.503 74.1519 107.395 74.8208C105.288 75.4897 104.122 77.7403 104.791 79.8477C105.46 81.955 107.71 83.1211 109.818 82.4522Z" fill="#F1F3F2"/>
<path d="M139.289 19.8105L135.097 20.1479C134.882 19.3759 134.613 18.6204 134.29 17.8873L137.751 15.5003C138.148 15.2267 138.42 14.8067 138.507 14.3328C138.594 13.8588 138.489 13.3696 138.216 12.9729L136.651 10.704C136.378 10.3074 135.958 10.0358 135.484 9.94885C135.01 9.86188 134.521 9.96669 134.124 10.2402L130.66 12.6289C130.089 12.0684 129.479 11.5489 128.835 11.0742L130.641 7.27286C130.743 7.05738 130.802 6.82384 130.815 6.58556C130.827 6.34728 130.792 6.10894 130.712 5.88416C130.632 5.65937 130.508 5.45253 130.349 5.27546C130.189 5.09839 129.995 4.95456 129.78 4.85217L127.29 3.67015C127.075 3.56771 126.841 3.50873 126.603 3.49657C126.365 3.4844 126.126 3.5193 125.902 3.59926C125.677 3.67922 125.47 3.80268 125.293 3.96259C125.116 4.1225 124.972 4.31572 124.87 4.53122L123.064 8.3293C122.288 8.1289 121.499 7.9846 120.702 7.89753L120.365 3.7038C120.346 3.466 120.28 3.23429 120.171 3.02189C120.063 2.80949 119.913 2.62056 119.732 2.46591C119.55 2.31125 119.34 2.19388 119.113 2.12051C118.886 2.04714 118.646 2.01921 118.409 2.0383L115.662 2.2591C115.182 2.29762 114.736 2.52533 114.424 2.89214C114.111 3.25896 113.957 3.73485 113.996 4.21519L114.333 8.40892C113.56 8.62197 112.804 8.89025 112.07 9.21171L109.683 5.75101C109.548 5.55449 109.375 5.38658 109.174 5.25687C108.974 5.12716 108.75 5.03819 108.516 4.99504C108.281 4.9519 108.04 4.95542 107.807 5.00541C107.573 5.05541 107.352 5.15089 107.156 5.2864L104.887 6.85094C104.49 7.12466 104.219 7.54468 104.132 8.01862C104.045 8.49257 104.149 8.98166 104.423 9.37835L106.812 12.8423C106.249 13.4137 105.728 14.0243 105.252 14.6696L101.451 12.8637C101.235 12.7612 101.002 12.7023 100.763 12.6901C100.525 12.6779 100.287 12.7128 100.062 12.7928C99.8372 12.8728 99.6304 12.9962 99.4533 13.1561C99.2762 13.316 99.1324 13.5093 99.03 13.7248L97.8479 16.2144C97.7455 16.4298 97.6866 16.6633 97.6744 16.9015C97.6623 17.1397 97.6972 17.378 97.7771 17.6027C97.8571 17.8275 97.9805 18.0342 98.1404 18.2112C98.3003 18.3882 98.4936 18.532 98.709 18.6343L102.507 20.4401C102.307 21.2162 102.162 22.0057 102.075 22.8026L97.8816 23.1391C97.4014 23.178 96.9562 23.406 96.6439 23.7729C96.3316 24.1398 96.1778 24.6157 96.2161 25.096L96.4369 27.8426C96.456 28.0804 96.5217 28.3121 96.6303 28.5245C96.739 28.7369 96.8884 28.9258 97.07 29.0805C97.2517 29.2351 97.462 29.3525 97.689 29.4259C97.916 29.4992 98.1552 29.5272 98.393 29.5081L102.587 29.1715C102.8 29.9443 103.068 30.7006 103.39 31.4346L99.9288 33.8217C99.7323 33.9571 99.5644 34.1298 99.4347 34.3302C99.305 34.5305 99.216 34.7544 99.1728 34.9891C99.1297 35.2238 99.1332 35.4647 99.1832 35.6981C99.2332 35.9314 99.3287 36.1526 99.4642 36.3491L101.029 38.6171C101.164 38.8136 101.337 38.9815 101.537 39.1112C101.738 39.2409 101.961 39.3299 102.196 39.373C102.431 39.4162 102.672 39.4127 102.905 39.3627C103.139 39.3127 103.36 39.2172 103.556 39.0817L107.02 36.6922C107.592 37.2544 108.202 37.7756 108.847 38.2518L107.041 42.0532C106.939 42.2686 106.88 42.5021 106.868 42.7403C106.856 42.9785 106.891 43.2168 106.971 43.4415C107.051 43.6662 107.174 43.873 107.334 44.05C107.494 44.227 107.687 44.3707 107.903 44.473L110.403 45.6485C110.618 45.7509 110.852 45.8098 111.09 45.8219C111.329 45.834 111.567 45.7991 111.792 45.719C112.017 45.639 112.223 45.5155 112.4 45.3555C112.577 45.1955 112.721 45.0022 112.824 44.7866L114.629 40.9893C115.405 41.1895 116.195 41.3338 116.991 41.4211L117.328 45.614C117.347 45.8519 117.412 46.0837 117.521 46.2961C117.63 46.5086 117.779 46.6975 117.961 46.8522C118.143 47.0069 118.353 47.1242 118.58 47.1975C118.807 47.2709 119.047 47.2987 119.285 47.2795L122.031 47.0595C122.269 47.0405 122.501 46.9747 122.713 46.866C122.926 46.7574 123.115 46.6079 123.269 46.4261C123.424 46.2444 123.541 46.034 123.615 45.8069C123.688 45.5798 123.716 45.3405 123.697 45.1026L123.36 40.9097C124.133 40.6968 124.889 40.4282 125.623 40.1061L128.01 43.5676C128.284 43.9643 128.704 44.2361 129.178 44.3233C129.652 44.4104 130.141 44.3057 130.538 44.0322L132.806 42.4677C133.002 42.3323 133.17 42.1595 133.3 41.9592C133.429 41.7589 133.518 41.535 133.562 41.3002C133.605 41.0655 133.601 40.8246 133.551 40.5913C133.501 40.3579 133.406 40.1367 133.27 39.9403L130.881 36.4763C131.443 35.9044 131.964 35.2936 132.44 34.6483L136.242 36.4541C136.457 36.5566 136.691 36.6155 136.929 36.6277C137.167 36.6399 137.406 36.605 137.63 36.525C137.855 36.4451 138.062 36.3216 138.239 36.1617C138.416 36.0018 138.56 35.8086 138.662 35.5931L139.844 33.1034C139.947 32.8879 140.006 32.6544 140.018 32.4161C140.03 32.1778 139.995 31.9395 139.915 31.7147C139.835 31.4899 139.712 31.2831 139.552 31.106C139.392 30.9289 139.199 30.7851 138.983 30.6827L135.185 28.8768C135.386 28.101 135.53 27.3118 135.617 26.5153L139.81 26.1779C140.048 26.1589 140.279 26.0933 140.492 25.9847C140.704 25.8761 140.893 25.7267 141.048 25.545C141.203 25.3634 141.32 25.153 141.393 24.9259C141.467 24.6989 141.495 24.4596 141.475 24.2218L141.255 21.4744C141.236 21.2359 141.17 21.0036 141.06 20.7908C140.951 20.5781 140.8 20.389 140.618 20.2344C140.435 20.0798 140.224 19.9628 139.996 19.8901C139.768 19.8173 139.528 19.7903 139.289 19.8105ZM119.421 31.8418C118 31.9557 116.578 31.6459 115.333 30.9514C114.089 30.257 113.078 29.2092 112.43 27.9404C111.781 26.6717 111.523 25.239 111.688 23.8236C111.853 22.4082 112.435 21.0735 113.358 19.9884C114.282 18.9034 115.507 18.1166 116.878 17.7276C118.249 17.3386 119.704 17.3649 121.06 17.8031C122.416 18.2412 123.612 19.0717 124.496 20.1894C125.38 21.3071 125.913 22.6618 126.027 24.0823C126.103 25.0255 125.992 25.9745 125.701 26.875C125.41 27.7755 124.945 28.6098 124.331 29.3303C123.718 30.0509 122.968 30.6436 122.126 31.0745C121.283 31.5054 120.364 31.7661 119.421 31.8418Z" fill="#FF593A"/>
<path d="M47.3353 66.6999C55.3583 57.3175 63.7228 48.2381 72.5272 39.5773C75.4823 36.6994 78.5047 33.8748 81.6247 31.1291C82.4149 30.4321 83.4446 30.0687 84.4972 30.1153C85.5499 30.1619 86.5434 30.6148 87.269 31.3789C87.9945 32.1429 88.3956 33.1586 88.3878 34.2122C88.3799 35.2658 87.9639 36.2754 87.227 37.0285C84.4944 39.8925 81.834 42.85 79.2286 45.8708C71.7589 54.6112 64.6996 63.7399 57.9743 73.0655C53.4153 81.4834 41.7133 74.4076 47.3353 66.6999Z" fill="#F69D85"/>
<path d="M18.6884 104.802C18.6884 104.802 46.2238 95.6745 76.1668 115.62C76.1668 115.62 39.9008 129.523 18.6884 104.802Z" fill="#2B822B"/>
<path d="M76.2063 95.4577C76.0454 95.9059 75.8859 96.362 75.7277 96.8261C74.1451 101.444 72.6544 106.712 71.2803 112.318L71.2188 112.564C70.9167 113.804 70.6201 115.059 70.329 116.329C70.2469 116.692 70.1648 117.057 70.0827 117.422C66.998 131.124 16.2529 130.047 16.2529 130.047C18.9568 123.48 21.7526 116.921 24.6076 110.465C24.8949 109.811 25.1835 109.16 25.4736 108.511C25.7576 107.873 26.0421 107.237 26.3272 106.601C26.8586 105.416 27.3913 104.236 27.9254 103.061C28.2932 102.249 28.6631 101.438 29.0352 100.631C30.6342 97.1495 31.7588 94.783 32.248 93.7594C32.1659 82.4013 32.01 61.4351 32.01 61.4351C31.964 56.9779 37.646 55.9165 39.7662 58.8781C40.1719 59.4589 40.4259 60.1319 40.505 60.8358C40.505 60.8358 43.3033 81.7002 44.9286 93.8291L46.9807 93.9359L62.3577 94.7329C65.1962 94.8798 67.8328 95.0161 69.9005 95.1244H69.9046L70.4406 95.1515L76.2063 95.4577Z" fill="#F69D85"/>
<path d="M32.9967 68.349C32.8768 68.3654 32.7504 68.3769 32.6273 68.3827C32.577 68.3852 32.5267 68.3777 32.4793 68.3608C32.4318 68.3438 32.3882 68.3177 32.3509 68.2838C32.3137 68.25 32.2834 68.2091 32.262 68.1635C32.2405 68.1179 32.2283 68.0686 32.226 68.0183C32.2237 67.968 32.2313 67.9177 32.2485 67.8703C32.2656 67.823 32.2919 67.7795 32.326 67.7423C32.36 67.7052 32.401 67.6751 32.4466 67.6539C32.4923 67.6326 32.5417 67.6206 32.592 67.6184C34.2764 67.5413 35.3148 66.2164 35.2368 64.2447L34.9905 57.9242C34.9886 57.874 34.9966 57.8238 35.014 57.7767C35.0314 57.7295 35.058 57.6863 35.0921 57.6494C35.1262 57.6125 35.1673 57.5827 35.213 57.5617C35.2587 57.5407 35.308 57.5288 35.3583 57.5269C35.4085 57.525 35.4586 57.5329 35.5058 57.5504C35.5529 57.5678 35.5962 57.5943 35.6331 57.6285C35.67 57.6626 35.6997 57.7037 35.7208 57.7494C35.7418 57.795 35.7536 57.8444 35.7556 57.8946L36.0018 64.2103C36.0864 66.4676 34.8928 68.083 32.9967 68.349Z" fill="#EA8973"/>
<path d="M76.1668 115.619C75.2376 126.466 74.361 138.32 73.3678 150.044H-0.00158691C7.2219 132.467 16.6683 109.682 18.3592 105.593C18.516 105.213 18.6268 104.946 18.6875 104.802C19.2704 105.163 19.8581 105.515 20.4507 105.859C22.0842 106.806 23.7577 107.691 25.4711 108.515C39.0693 115.06 54.9577 117.695 70.3273 116.333C72.2848 116.16 74.2313 115.923 76.1668 115.619Z" fill="#60BF60"/>
<path d="M59.3919 106.403C59.2859 106.417 59.1779 106.402 59.0802 106.359C58.9825 106.315 58.8988 106.245 58.8387 106.157C57.0328 103.53 53.7839 100.278 53.7494 100.246C53.6468 100.138 53.5906 99.9935 53.5926 99.8442C53.5946 99.6948 53.6547 99.5521 53.7602 99.4463C53.8657 99.3405 54.0082 99.2799 54.1576 99.2774C54.307 99.2749 54.4514 99.3308 54.5604 99.433C54.6966 99.5693 57.9168 102.793 59.7835 105.507C59.8697 105.633 59.9026 105.787 59.8749 105.937C59.8472 106.087 59.7611 106.22 59.6357 106.306C59.5629 106.356 59.4795 106.39 59.3919 106.403Z" fill="#EA8973"/>
<path d="M44.7947 94.851L36.4622 35.2572C36.3485 34.4455 36.3958 33.6193 36.6015 32.8258C36.8072 32.0324 37.1673 31.2873 37.6611 30.633C38.155 29.9788 38.7729 29.4283 39.4796 29.013C40.1863 28.5977 40.9679 28.3258 41.7797 28.2127L71.0201 24.1257C72.6585 23.8968 74.3207 24.3281 75.6411 25.3247C76.9616 26.3213 77.8321 27.8015 78.0613 29.4399L86.3946 89.0337C86.5082 89.8452 86.4609 90.6712 86.2552 91.4645C86.0495 92.2578 85.6896 93.0027 85.1959 93.6568C84.7023 94.3109 84.0846 94.8614 83.3782 95.2767C82.6717 95.692 81.8904 95.9641 81.0788 96.0774L51.8359 100.166C50.1974 100.395 48.5351 99.9635 47.2146 98.9667C45.8942 97.97 45.0237 96.4895 44.7947 94.851Z" fill="#30313C"/>
<path d="M80.6545 92.2408L51.03 96.2785C50.0106 96.4172 48.9778 96.1454 48.1589 95.5227C47.34 94.9 46.8019 93.9775 46.663 92.9582L38.961 36.4212C38.8223 35.4018 39.0941 34.3691 39.7168 33.5501C40.3395 32.7312 41.262 32.1931 42.2813 32.0543L71.905 28.0173C72.4098 27.9484 72.9231 27.9796 73.4158 28.1092C73.9084 28.2387 74.3707 28.4641 74.7762 28.7723C75.1818 29.0806 75.5226 29.4658 75.7792 29.9058C76.0359 30.3458 76.2033 30.8321 76.272 31.3369L83.9715 87.8738C84.1103 88.8927 83.8389 89.925 83.2169 90.7439C82.5949 91.5627 81.6732 92.1011 80.6545 92.2408Z" fill="#F1F3F2"/>
<path d="M56.4326 34.0912L41.6287 36.1533L44.0821 53.7662L58.886 51.7041L56.4326 34.0912Z" fill="#A2C3F2"/>
<path d="M73.6 31.6998L58.796 33.762L61.2494 51.3748L76.0534 49.3127L73.6 31.6998Z" fill="#A2C3F2"/>
<path d="M59.1173 53.5814L44.3134 55.6436L46.7667 73.2564L61.5707 71.1943L59.1173 53.5814Z" fill="#A2C3F2"/>
<path d="M76.2837 51.1908L61.4797 53.2529L63.9331 70.8658L78.7371 68.8037L76.2837 51.1908Z" fill="#A2C3F2"/>
<path d="M61.8314 73.068L47.0275 75.1301L49.4809 92.743L64.2848 90.6809L61.8314 73.068Z" fill="#A2C3F2"/>
<path d="M80.9672 88.5042C80.9457 88.5057 80.9241 88.5029 80.9036 88.496C80.8831 88.4891 80.8642 88.4782 80.8479 88.464C80.8316 88.4498 80.8183 88.4325 80.8087 88.4131C80.7991 88.3938 80.7935 88.3727 80.792 88.3511C80.7905 88.3296 80.7934 88.3079 80.8003 88.2875C80.8072 88.267 80.818 88.2481 80.8322 88.2318C80.8465 88.2155 80.8637 88.2022 80.8831 88.1926C80.9025 88.183 80.9235 88.1773 80.9451 88.1759L81.2734 88.1299L81.2283 87.8016C81.2223 87.758 81.2338 87.7139 81.2604 87.6789C81.2869 87.6439 81.3263 87.6208 81.3699 87.6148C81.4134 87.6088 81.4575 87.6204 81.4926 87.647C81.5276 87.6735 81.5506 87.7129 81.5566 87.7564L81.6248 88.244C81.6308 88.2871 81.6195 88.3309 81.5934 88.3657C81.5672 88.4005 81.5283 88.4234 81.4852 88.4295L80.9968 88.4977L80.9672 88.5042Z" fill="#A2C3F2"/>
<path d="M68.0609 90.3028C68.0173 90.3057 67.9744 90.2913 67.9416 90.2626C67.9087 90.2339 67.8886 90.1933 67.8856 90.1497C67.8827 90.1062 67.8972 90.0633 67.9259 90.0304C67.9546 89.9975 67.9952 89.9774 68.0387 89.9745L68.9605 89.8456C68.9821 89.8426 69.004 89.8439 69.0251 89.8495C69.0461 89.855 69.0659 89.8646 69.0832 89.8777C69.1006 89.8909 69.1152 89.9073 69.1261 89.9261C69.1371 89.9449 69.1443 89.9656 69.1473 89.9872C69.1503 90.0088 69.1489 90.0307 69.1434 90.0517C69.1379 90.0728 69.1283 90.0925 69.1152 90.1099C69.102 90.1272 69.0856 90.1418 69.0668 90.1528C69.048 90.1638 69.0272 90.171 69.0057 90.1739L68.0839 90.3028H68.0609ZM69.9045 90.0459C69.861 90.0488 69.8181 90.0343 69.7852 90.0056C69.7523 89.9769 69.7322 89.9363 69.7293 89.8928C69.7263 89.8493 69.7408 89.8063 69.7695 89.7735C69.7982 89.7406 69.8388 89.7205 69.8824 89.7175L70.8042 89.5887C70.8257 89.5857 70.8477 89.587 70.8687 89.5925C70.8898 89.598 70.9095 89.6076 70.9269 89.6208C70.9442 89.6339 70.9588 89.6504 70.9698 89.6692C70.9808 89.6879 70.988 89.7087 70.9909 89.7303C70.9939 89.7518 70.9926 89.7738 70.9871 89.7948C70.9816 89.8159 70.9719 89.8356 70.9588 89.853C70.9456 89.8703 70.9292 89.8849 70.9104 89.8959C70.8916 89.9069 70.8709 89.914 70.8493 89.917L69.9275 90.0459H69.9045ZM71.7482 89.789C71.7046 89.7919 71.6617 89.7774 71.6288 89.7487C71.596 89.72 71.5758 89.6794 71.5729 89.6359C71.57 89.5923 71.5844 89.5494 71.6131 89.5165C71.6419 89.4837 71.6825 89.4636 71.726 89.4606L72.6478 89.3317C72.6694 89.3288 72.6913 89.3301 72.7123 89.3356C72.7334 89.3411 72.7532 89.3507 72.7705 89.3639C72.7878 89.377 72.8024 89.3935 72.8134 89.4122C72.8244 89.431 72.8316 89.4518 72.8345 89.4733C72.8375 89.4949 72.8362 89.5168 72.8307 89.5379C72.8252 89.5589 72.8156 89.5787 72.8024 89.596C72.7893 89.6134 72.7728 89.628 72.7541 89.639C72.7353 89.6499 72.7145 89.6571 72.693 89.6601L71.7711 89.789H71.7482ZM73.5926 89.532C73.571 89.5335 73.5494 89.5308 73.5289 89.5239C73.5084 89.5171 73.4895 89.5063 73.4731 89.4921C73.4568 89.4779 73.4435 89.4606 73.4338 89.4413C73.4242 89.422 73.4184 89.4009 73.4169 89.3793C73.4154 89.3578 73.4182 89.3361 73.425 89.3157C73.4319 89.2952 73.4427 89.2762 73.4569 89.2599C73.4711 89.2436 73.4883 89.2302 73.5077 89.2206C73.527 89.2109 73.5481 89.2052 73.5696 89.2037L74.4914 89.0748C74.535 89.0687 74.5791 89.0802 74.6142 89.1066C74.6493 89.1331 74.6725 89.1725 74.6786 89.216C74.6847 89.2595 74.6732 89.3037 74.6467 89.3388C74.6203 89.3739 74.5809 89.3971 74.5374 89.4032L73.6148 89.532H73.5926ZM75.4362 89.2751C75.4147 89.2766 75.393 89.2739 75.3725 89.267C75.352 89.2601 75.3331 89.2493 75.3168 89.2351C75.3005 89.221 75.2871 89.2037 75.2775 89.1844C75.2678 89.165 75.2621 89.144 75.2606 89.1224C75.2591 89.1009 75.2618 89.0792 75.2687 89.0587C75.2755 89.0382 75.2863 89.0193 75.3005 89.003C75.3147 88.9867 75.332 88.9733 75.3513 88.9637C75.3706 88.954 75.3917 88.9483 75.4133 88.9468L76.3359 88.8179C76.3794 88.8119 76.4236 88.8235 76.4586 88.85C76.4936 88.8766 76.5166 88.9159 76.5226 88.9595C76.5286 89.003 76.5171 89.0472 76.4905 89.0822C76.464 89.1172 76.4246 89.1402 76.381 89.1462L75.4592 89.2751H75.4362ZM77.2799 89.0182C77.2583 89.0196 77.2367 89.0168 77.2162 89.0099C77.1957 89.003 77.1768 88.9921 77.1605 88.9779C77.1277 88.9492 77.1076 88.9086 77.1046 88.8651C77.1017 88.8216 77.1162 88.7786 77.1449 88.7458C77.1736 88.7129 77.2142 88.6928 77.2577 88.6898L78.1795 88.561C78.2231 88.555 78.2672 88.5665 78.3022 88.5931C78.3372 88.6196 78.3603 88.659 78.3663 88.7026C78.3722 88.7461 78.3607 88.7902 78.3341 88.8253C78.3076 88.8603 78.2682 88.8833 78.2247 88.8893L77.3028 89.0182H77.2799ZM79.1235 88.7613C79.08 88.7642 79.037 88.7497 79.0042 88.721C78.9713 88.6923 78.9512 88.6517 78.9483 88.6082C78.9453 88.5646 78.9598 88.5217 78.9885 88.4888C79.0172 88.456 79.0578 88.4359 79.1013 88.4329L80.0231 88.304C80.0667 88.298 80.1108 88.3096 80.1458 88.3362C80.1809 88.3627 80.2039 88.4021 80.2099 88.4456C80.2159 88.4892 80.2043 88.5333 80.1778 88.5683C80.1512 88.6033 80.1119 88.6264 80.0683 88.6324L79.1465 88.7613H79.1235Z" fill="#A2C3F2"/>
<path d="M66.6516 90.4988C66.6117 90.4992 66.5731 90.4851 66.5429 90.4591C66.5127 90.4331 66.493 90.397 66.4874 90.3576L66.4193 89.8692C66.4133 89.8257 66.4248 89.7815 66.4514 89.7465C66.4779 89.7115 66.5173 89.6884 66.5609 89.6825C66.6044 89.6765 66.6485 89.688 66.6836 89.7146C66.7186 89.7411 66.7416 89.7805 66.7476 89.824L66.7928 90.1524L67.1211 90.1072C67.1646 90.1013 67.2088 90.1128 67.2438 90.1394C67.2788 90.1659 67.3019 90.2053 67.3079 90.2488C67.3138 90.2924 67.3023 90.3365 67.2757 90.3715C67.2492 90.4066 67.2098 90.4296 67.1663 90.4356L66.6778 90.5037L66.6516 90.4988Z" fill="#A2C3F2"/>
<path d="M66.4471 89.0328C66.4072 89.0331 66.3684 89.0189 66.3382 88.9928C66.308 88.9666 66.2883 88.9304 66.2829 88.8908L66.1467 87.9123C66.1437 87.8907 66.145 87.8688 66.1505 87.8478C66.156 87.8267 66.1656 87.8069 66.1788 87.7896C66.1919 87.7723 66.2084 87.7577 66.2272 87.7467C66.246 87.7357 66.2667 87.7285 66.2883 87.7256C66.3098 87.7226 66.3318 87.7239 66.3528 87.7294C66.3739 87.7349 66.3936 87.7445 66.411 87.7577C66.4283 87.7708 66.4429 87.7873 66.4539 87.8061C66.4649 87.8248 66.4721 87.8456 66.475 87.8672L66.6113 88.8456C66.6174 88.8887 66.6061 88.9325 66.5799 88.9673C66.5538 89.0021 66.5148 89.025 66.4717 89.0311L66.4471 89.0328ZM66.1738 87.075C66.1339 87.0754 66.0953 87.0613 66.0651 87.0354C66.0349 87.0094 66.0152 86.9733 66.0096 86.9339L65.8725 85.9554C65.8664 85.9119 65.8779 85.8677 65.9043 85.8326C65.9308 85.7975 65.9702 85.7743 66.0137 85.7682C66.0572 85.7621 66.1014 85.7736 66.1365 85.8001C66.1716 85.8266 66.1948 85.8659 66.2009 85.9094L66.3371 86.8887C66.343 86.9318 66.3315 86.9755 66.3051 87.0101C66.2788 87.0447 66.2398 87.0675 66.1967 87.0734C66.1892 87.0748 66.1815 87.0753 66.1738 87.075ZM65.9013 85.1181C65.8613 85.1185 65.8226 85.1043 65.7923 85.0781C65.7621 85.052 65.7425 85.0157 65.7371 84.9761L65.6008 83.9977C65.5978 83.9761 65.5992 83.9542 65.6047 83.9331C65.6102 83.9121 65.6198 83.8923 65.6329 83.875C65.6461 83.8576 65.6625 83.843 65.6813 83.8321C65.7001 83.8211 65.7209 83.8139 65.7424 83.8109C65.764 83.808 65.7859 83.8093 65.8069 83.8148C65.828 83.8203 65.8478 83.8299 65.8651 83.8431C65.8824 83.8562 65.897 83.8726 65.908 83.8914C65.919 83.9102 65.9262 83.931 65.9292 83.9525L66.0662 84.931C66.0693 84.9524 66.068 84.9742 66.0626 84.9951C66.0571 85.016 66.0476 85.0356 66.0346 85.0529C66.0215 85.0701 66.0052 85.0846 65.9866 85.0955C65.9679 85.1064 65.9473 85.1136 65.9259 85.1165L65.9013 85.1181ZM65.6287 83.1604C65.5889 83.1608 65.5503 83.1467 65.5201 83.1207C65.4899 83.0947 65.4701 83.0587 65.4646 83.0192L65.3283 82.0408C65.3253 82.0192 65.3266 81.9973 65.3321 81.9762C65.3377 81.9552 65.3473 81.9354 65.3604 81.9181C65.3736 81.9007 65.39 81.8861 65.4088 81.8752C65.4276 81.8642 65.4483 81.857 65.4699 81.854C65.4914 81.8511 65.5134 81.8524 65.5344 81.8579C65.5555 81.8634 65.5753 81.873 65.5926 81.8861C65.6099 81.8993 65.6245 81.9157 65.6355 81.9345C65.6465 81.9533 65.6537 81.9741 65.6566 81.9956L65.7929 82.9741C65.7988 83.017 65.7874 83.0606 65.7612 83.0952C65.7351 83.1298 65.6963 83.1527 65.6534 83.1588C65.6452 83.1602 65.637 83.1608 65.6287 83.1604ZM65.3562 81.2035C65.3162 81.2039 65.2775 81.1896 65.2473 81.1635C65.2171 81.1373 65.1974 81.1011 65.192 81.0615L65.0558 80.083C65.0498 80.0395 65.0613 79.9954 65.0879 79.9603C65.1145 79.9253 65.1538 79.9023 65.1974 79.8963C65.2409 79.8903 65.285 79.9019 65.3201 79.9284C65.3551 79.955 65.3781 79.9943 65.3841 80.0379L65.5204 81.0163C65.5265 81.0594 65.5152 81.1032 65.489 81.138C65.4628 81.1728 65.4239 81.1957 65.3808 81.2018L65.3562 81.2035ZM65.0828 79.2458C65.043 79.2462 65.0044 79.232 64.9742 79.2061C64.944 79.1801 64.9243 79.144 64.9187 79.1046L64.7816 78.1261C64.7756 78.0826 64.7872 78.0384 64.8137 78.0034C64.8403 77.9684 64.8797 77.9454 64.9232 77.9394C64.9667 77.9334 65.0109 77.9449 65.0459 77.9715C65.0809 77.9981 65.104 78.0374 65.1099 78.081L65.2462 79.0594C65.2492 79.0808 65.248 79.1026 65.2425 79.1235C65.2371 79.1445 65.2276 79.1641 65.2146 79.1813C65.2015 79.1986 65.1852 79.2131 65.1665 79.224C65.1479 79.2349 65.1272 79.242 65.1058 79.2449L65.0828 79.2458ZM64.8103 77.2889C64.7705 77.2892 64.7319 77.2751 64.7017 77.2492C64.6715 77.2232 64.6517 77.1871 64.6462 77.1477L64.5099 76.1684C64.5039 76.1249 64.5155 76.0807 64.542 76.0457C64.5686 76.0107 64.608 75.9876 64.6515 75.9816C64.695 75.9757 64.7392 75.9872 64.7742 76.0138C64.8092 76.0403 64.8322 76.0797 64.8382 76.1232L64.9753 77.1017C64.9783 77.1231 64.9771 77.1449 64.9716 77.1658C64.9662 77.1867 64.9567 77.2064 64.9437 77.2236C64.9306 77.2408 64.9143 77.2553 64.8957 77.2662C64.877 77.2772 64.8564 77.2843 64.835 77.2872L64.8103 77.2889ZM64.5378 75.3319C64.4979 75.3323 64.4591 75.3181 64.4289 75.2919C64.3987 75.2658 64.379 75.2295 64.3736 75.1899L64.2374 74.2115C64.2344 74.1899 64.2357 74.168 64.2412 74.1469C64.2467 74.1259 64.2564 74.1061 64.2695 74.0888C64.2827 74.0714 64.2991 74.0569 64.3179 74.0459C64.3367 74.0349 64.3574 74.0277 64.379 74.0247C64.4005 74.0218 64.4225 74.0231 64.4435 74.0286C64.4646 74.0341 64.4843 74.0437 64.5017 74.0569C64.519 74.07 64.5336 74.0864 64.5446 74.1052C64.5556 74.124 64.5628 74.1448 64.5657 74.1663L64.702 75.1448C64.7081 75.1879 64.6968 75.2316 64.6706 75.2664C64.6445 75.3012 64.6055 75.3242 64.5624 75.3303L64.5378 75.3319Z" fill="#A2C3F2"/>
<path d="M64.2653 73.3768C64.2254 73.3772 64.1868 73.3631 64.1566 73.3371C64.1264 73.3112 64.1067 73.2751 64.1011 73.2357L64.033 72.7431C64.0271 72.7 64.0386 72.6564 64.0649 72.6218C64.0913 72.5871 64.1303 72.5644 64.1733 72.5585L64.6609 72.4903C64.7045 72.4843 64.7486 72.4959 64.7836 72.5224C64.8187 72.549 64.8417 72.5884 64.8477 72.6319C64.8536 72.6755 64.8421 72.7196 64.8156 72.7546C64.789 72.7896 64.7496 72.8127 64.7061 72.8187L64.3777 72.8638L64.4229 73.1921C64.4259 73.2135 64.4246 73.2353 64.4192 73.2563C64.4138 73.2772 64.4043 73.2968 64.3912 73.3141C64.3782 73.3313 64.3619 73.3458 64.3432 73.3567C64.3246 73.3676 64.3039 73.3747 64.2825 73.3777L64.2653 73.3768Z" fill="#A2C3F2"/>
<path d="M65.6065 72.6897C65.563 72.6926 65.5201 72.6781 65.4872 72.6494C65.4543 72.6207 65.4342 72.5801 65.4313 72.5366C65.4283 72.4931 65.4428 72.4501 65.4715 72.4173C65.5002 72.3844 65.5408 72.3643 65.5844 72.3613L66.5062 72.2333C66.5277 72.2303 66.5497 72.2316 66.5707 72.2371C66.5918 72.2427 66.6116 72.2523 66.6289 72.2654C66.6462 72.2786 66.6608 72.295 66.6718 72.3138C66.6828 72.3326 66.69 72.3533 66.6929 72.3749C66.6959 72.3964 66.6946 72.4184 66.6891 72.4394C66.6836 72.4605 66.674 72.4802 66.6608 72.4976C66.6477 72.5149 66.6312 72.5295 66.6124 72.5405C66.5937 72.5515 66.5729 72.5587 66.5513 72.5616L65.6295 72.6905L65.6065 72.6897ZM67.4502 72.4328C67.4066 72.4357 67.3637 72.4212 67.3308 72.3925C67.298 72.3638 67.2779 72.3232 67.2749 72.2797C67.272 72.2361 67.2864 72.1932 67.3152 72.1603C67.3439 72.1275 67.3845 72.1074 67.428 72.1044L68.3498 71.9764C68.3714 71.9734 68.3933 71.9747 68.4144 71.9802C68.4354 71.9857 68.4552 71.9953 68.4725 72.0085C68.4899 72.0216 68.5044 72.0381 68.5154 72.0568C68.5264 72.0756 68.5336 72.0964 68.5366 72.118C68.5395 72.1395 68.5382 72.1614 68.5327 72.1825C68.5272 72.2036 68.5176 72.2233 68.5044 72.2407C68.4913 72.258 68.4749 72.2726 68.4561 72.2836C68.4373 72.2946 68.4165 72.3017 68.395 72.3047L67.4732 72.4336L67.4502 72.4328ZM69.2946 72.1766C69.2511 72.1797 69.2081 72.1653 69.1752 72.1367C69.1422 72.1081 69.122 72.0675 69.119 72.024C69.1159 71.9804 69.1303 71.9375 69.1589 71.9045C69.1876 71.8716 69.2281 71.8514 69.2716 71.8483L70.1934 71.7202C70.237 71.7142 70.2812 71.7256 70.3163 71.7521C70.3514 71.7786 70.3745 71.8179 70.3806 71.8614C70.3867 71.905 70.3753 71.9492 70.3488 71.9843C70.3223 72.0194 70.283 72.0425 70.2394 72.0486L69.3168 72.1775L69.2946 72.1766ZM71.1382 71.9197C71.0947 71.9228 71.0517 71.9084 71.0188 71.8798C70.9859 71.8511 70.9656 71.8106 70.9626 71.767C70.9595 71.7235 70.9739 71.6805 71.0026 71.6476C71.0312 71.6147 71.0717 71.5944 71.1153 71.5914L72.0379 71.4633C72.0595 71.4604 72.0814 71.4617 72.1024 71.4672C72.1235 71.4727 72.1433 71.4823 72.1606 71.4954C72.1779 71.5086 72.1925 71.525 72.2035 71.5438C72.2145 71.5626 72.2217 71.5834 72.2246 71.6049C72.2276 71.6265 72.2263 71.6484 72.2208 71.6695C72.2153 71.6905 72.2057 71.7103 72.1925 71.7276C72.1794 71.745 72.163 71.7595 72.1442 71.7705C72.1254 71.7815 72.1046 71.7887 72.083 71.7917L71.1612 71.9205L71.1382 71.9197ZM72.9819 71.6628C72.9384 71.6657 72.8954 71.6513 72.8626 71.6225C72.8297 71.5938 72.8096 71.5532 72.8066 71.5097C72.8037 71.4662 72.8182 71.4232 72.8469 71.3904C72.8756 71.3575 72.9162 71.3374 72.9597 71.3345L73.8815 71.2064C73.9031 71.2034 73.925 71.2048 73.9461 71.2103C73.9671 71.2158 73.9869 71.2254 74.0042 71.2385C74.0216 71.2517 74.0361 71.2681 74.0471 71.2869C74.0581 71.3057 74.0653 71.3264 74.0683 71.348C74.0712 71.3696 74.0699 71.3915 74.0644 71.4125C74.0589 71.4336 74.0493 71.4534 74.0362 71.4707C74.023 71.488 74.0066 71.5026 73.9878 71.5136C73.969 71.5246 73.9482 71.5318 73.9267 71.5347L73.0049 71.6636L72.9819 71.6628ZM74.8255 71.4059C74.782 71.4088 74.739 71.3943 74.7062 71.3656C74.6733 71.3369 74.6532 71.2963 74.6503 71.2528C74.6473 71.2092 74.6618 71.1663 74.6905 71.1334C74.7192 71.1006 74.7598 71.0805 74.8034 71.0775L75.7252 70.9495C75.7467 70.9465 75.7687 70.9478 75.7897 70.9533C75.8108 70.9588 75.8305 70.9684 75.8479 70.9816C75.8652 70.9947 75.8798 71.0112 75.8908 71.03C75.9018 71.0487 75.9089 71.0695 75.9119 71.0911C75.9149 71.1126 75.9136 71.1346 75.9081 71.1556C75.9025 71.1767 75.8929 71.1964 75.8798 71.2138C75.8666 71.2311 75.8502 71.2457 75.8314 71.2567C75.8126 71.2677 75.7919 71.2749 75.7703 71.2778L74.8485 71.4067L74.8255 71.4059ZM76.6692 71.1489C76.6256 71.1519 76.5827 71.1374 76.5498 71.1087C76.5169 71.08 76.4968 71.0394 76.4939 70.9959C76.491 70.9523 76.5054 70.9094 76.5341 70.8765C76.5628 70.8437 76.6034 70.8235 76.647 70.8206L77.5688 70.6917C77.5904 70.6888 77.6123 70.6901 77.6333 70.6956C77.6544 70.7011 77.6741 70.7107 77.6915 70.7238C77.7088 70.737 77.7234 70.7534 77.7344 70.7722C77.7454 70.791 77.7526 70.8118 77.7555 70.8333C77.7585 70.8549 77.7572 70.8768 77.7517 70.8979C77.7462 70.9189 77.7366 70.9387 77.7234 70.956C77.7103 70.9734 77.6938 70.9879 77.6751 70.9989C77.6563 71.0099 77.6355 71.0171 77.6139 71.0201L76.6921 71.1489H76.6692Z" fill="#A2C3F2"/>
<path d="M79.0694 71.3115C79.0296 71.3119 78.9909 71.2978 78.9607 71.2718C78.9305 71.2459 78.9108 71.2098 78.9052 71.1703L78.8601 70.842L78.5318 70.888C78.4882 70.8941 78.444 70.8826 78.4089 70.8561C78.3739 70.8297 78.3507 70.7903 78.3446 70.7468C78.3385 70.7032 78.35 70.6591 78.3764 70.624C78.4029 70.5889 78.4422 70.5657 78.4858 70.5596L78.9783 70.4915C79.0213 70.4856 79.0648 70.497 79.0994 70.5232C79.134 70.5493 79.1569 70.5881 79.163 70.631L79.2311 71.1186C79.2372 71.1617 79.2259 71.2055 79.1998 71.2403C79.1736 71.2751 79.1347 71.298 79.0916 71.3041L79.0694 71.3115Z" fill="#A2C3F2"/>
<path d="M81.2511 86.9693C81.2113 86.9697 81.1727 86.9556 81.1425 86.9296C81.1123 86.9037 81.0925 86.8676 81.087 86.8281L80.9507 85.8497C80.9478 85.8281 80.9491 85.8062 80.9546 85.7851C80.9601 85.7641 80.9697 85.7443 80.9828 85.727C80.996 85.7096 81.0124 85.6951 81.0312 85.6841C81.05 85.6731 81.0707 85.6659 81.0923 85.6629C81.1139 85.66 81.1358 85.6613 81.1569 85.6668C81.1779 85.6723 81.1977 85.6819 81.215 85.6951C81.2324 85.7082 81.2469 85.7246 81.2579 85.7434C81.2689 85.7622 81.2761 85.783 81.2791 85.8045L81.4153 86.783C81.4214 86.8261 81.4101 86.8698 81.384 86.9046C81.3578 86.9394 81.3189 86.9624 81.2758 86.9685L81.2511 86.9693ZM80.9786 85.0124C80.9388 85.0128 80.9002 84.9987 80.87 84.9727C80.8398 84.9467 80.82 84.9107 80.8145 84.8712L80.6782 83.8919C80.6722 83.8484 80.6838 83.8043 80.7103 83.7692C80.7369 83.7342 80.7763 83.7112 80.8198 83.7052C80.8633 83.6992 80.9075 83.7108 80.9425 83.7373C80.9775 83.7639 81.0005 83.8033 81.0065 83.8468L81.1428 84.8253C81.1458 84.8467 81.1445 84.8684 81.1391 84.8894C81.1337 84.9103 81.1242 84.9299 81.1111 84.9472C81.0981 84.9644 81.0818 84.9789 81.0631 84.9898C81.0445 85.0007 81.0239 85.0078 81.0024 85.0108L80.9786 85.0124ZM80.7053 83.0555C80.6653 83.0559 80.6266 83.0416 80.5964 83.0155C80.5662 82.9894 80.5465 82.9531 80.5411 82.9135L80.404 81.935C80.3981 81.8915 80.4096 81.8474 80.4361 81.8123C80.4627 81.7773 80.5021 81.7543 80.5456 81.7483C80.5892 81.7423 80.6333 81.7539 80.6683 81.7804C80.7034 81.807 80.7264 81.8463 80.7324 81.8899L80.8687 82.8683C80.8717 82.8898 80.8704 82.9115 80.865 82.9325C80.8595 82.9534 80.85 82.973 80.837 82.9903C80.8239 83.0075 80.8076 83.022 80.789 83.0329C80.7703 83.0438 80.7497 83.0509 80.7283 83.0539L80.7053 83.0555ZM80.4328 81.0978C80.3929 81.0982 80.3543 81.0841 80.3241 81.0581C80.2939 81.0321 80.2742 80.996 80.2686 80.9566L80.1323 79.9781C80.1262 79.9346 80.1377 79.8904 80.1642 79.8553C80.1906 79.8202 80.23 79.7971 80.2735 79.791C80.3171 79.7849 80.3612 79.7963 80.3963 79.8228C80.4314 79.8493 80.4546 79.8886 80.4607 79.9322L80.5969 80.9114C80.6028 80.9544 80.5914 80.998 80.5652 81.0326C80.5391 81.0672 80.5003 81.09 80.4574 81.0961C80.4493 81.0976 80.441 81.0982 80.4328 81.0978ZM80.1602 79.1409C80.1203 79.1412 80.0816 79.127 80.0513 79.1009C80.0211 79.0747 80.0015 79.0384 79.9961 78.9989L79.8598 78.0204C79.8569 77.9988 79.8582 77.9769 79.8637 77.9559C79.8692 77.9348 79.8788 77.915 79.8919 77.8977C79.9051 77.8804 79.9215 77.8658 79.9403 77.8548C79.9591 77.8438 79.9798 77.8366 80.0014 77.8337C80.0229 77.8307 80.0449 77.832 80.066 77.8375C80.087 77.843 80.1068 77.8526 80.1241 77.8658C80.1415 77.8789 80.156 77.8954 80.167 77.9141C80.178 77.9329 80.1852 77.9537 80.1882 77.9753L80.3244 78.9537C80.3305 78.9968 80.3192 79.0406 80.2931 79.0754C80.2669 79.1101 80.228 79.1331 80.1849 79.1392L80.1602 79.1409ZM79.8877 77.1831C79.8479 77.1835 79.8093 77.1694 79.7791 77.1434C79.7489 77.1175 79.7291 77.0814 79.7235 77.0419L79.5873 76.0635C79.5843 76.0419 79.5855 76.02 79.591 75.9989C79.5965 75.9778 79.606 75.958 79.6191 75.9407C79.6323 75.9233 79.6486 75.9087 79.6674 75.8976C79.6862 75.8866 79.7069 75.8793 79.7285 75.8763C79.75 75.8733 79.772 75.8746 79.793 75.88C79.8141 75.8855 79.8339 75.8951 79.8513 75.9082C79.8687 75.9213 79.8833 75.9377 79.8943 75.9564C79.9054 75.9752 79.9126 75.996 79.9156 76.0175L80.0519 76.9968C80.0577 77.0399 80.0462 77.0836 80.0199 77.1182C79.9936 77.1528 79.9546 77.1756 79.9115 77.1815C79.9037 77.183 79.8957 77.1835 79.8877 77.1831ZM79.6144 75.2262C79.5744 75.2266 79.5357 75.2124 79.5055 75.1862C79.4752 75.1601 79.4556 75.1238 79.4502 75.0842L79.3139 74.1058C79.3079 74.0622 79.3195 74.0181 79.3461 73.9831C79.3726 73.948 79.412 73.925 79.4555 73.919C79.4991 73.913 79.5432 73.9246 79.5783 73.9511C79.6133 73.9777 79.6363 74.0171 79.6423 74.0606L79.7794 75.0391C79.7824 75.0605 79.7811 75.0823 79.7757 75.1032C79.7703 75.1241 79.7608 75.1437 79.7477 75.161C79.7347 75.1782 79.7184 75.1927 79.6997 75.2036C79.681 75.2145 79.6604 75.2217 79.639 75.2246L79.6144 75.2262ZM79.3419 73.2685C79.302 73.2689 79.2634 73.2548 79.2332 73.2288C79.203 73.2028 79.1833 73.1667 79.1777 73.1273L79.0463 72.1456C79.0434 72.124 79.0447 72.1021 79.0502 72.081C79.0557 72.06 79.0653 72.0402 79.0785 72.0229C79.0916 72.0055 79.108 71.9909 79.1268 71.98C79.1456 71.969 79.1664 71.9618 79.188 71.9588C79.2095 71.9559 79.2314 71.9572 79.2525 71.9627C79.2735 71.9682 79.2933 71.9778 79.3106 71.9909C79.328 72.0041 79.3426 72.0205 79.3536 72.0393C79.3646 72.0581 79.3717 72.0789 79.3747 72.1004L79.511 73.0789C79.5168 73.1218 79.5054 73.1654 79.4793 73.2C79.4531 73.2346 79.4143 73.2575 79.3714 73.2636C79.3618 73.2666 79.3519 73.2682 79.3419 73.2685Z" fill="#A2C3F2"/>
<path d="M80.6401 72.319L65.8362 74.3811L68.2896 91.994L83.0935 89.9318L80.6401 72.319Z" fill="#FF593A"/>
<path d="M78.8338 86.8002L75.0636 85.4565L71.8196 87.8008L71.9329 83.8L68.7012 81.4392L72.5403 80.3106L73.7872 76.5076L76.047 79.8099L80.0494 79.8205L77.6066 82.9907L78.8338 86.8002Z" fill="#F1F3F2"/>
<path d="M71.2277 37.7593L70.0219 37.9235C69.7757 36.1816 68.4188 34.906 66.8895 34.906V35.4535C68.1668 35.4535 69.2823 36.5502 69.4851 38.0039L64.4836 38.7008C64.3686 37.9472 64.5349 37.1776 64.9507 36.5387C65.3472 35.9444 65.9275 35.566 66.5834 35.4716C66.6848 35.4575 66.7871 35.4504 66.8895 35.4502V34.9085C66.7621 34.9083 66.6349 34.9171 66.5087 34.9347C64.8308 35.1687 63.6841 36.8867 63.9468 38.773L62.741 38.9372L63.2991 48.8047L73.3882 47.3994L71.2277 37.7593Z" fill="#F1F3F2"/>
<path d="M52.2045 60.8061C52.1132 60.3292 51.8825 59.89 51.5415 59.5442C51.2006 59.1984 50.7647 58.9614 50.2891 58.8634C49.8135 58.7653 49.3195 58.8104 48.8695 58.9931C48.4196 59.1758 48.0339 59.4878 47.7613 59.8897C47.4887 60.2916 47.3414 60.7653 47.3381 61.2509C47.3347 61.7366 47.4754 62.2123 47.7425 62.6179C48.0095 63.0235 48.3908 63.3408 48.8382 63.5297C49.2855 63.7186 49.7789 63.7706 50.2558 63.6791C50.8952 63.5564 51.4596 63.1849 51.825 62.6461C52.1905 62.1073 52.327 61.4455 52.2045 60.8061ZM49.9784 62.2221C49.7892 62.2583 49.5936 62.2376 49.4162 62.1626C49.2389 62.0876 49.0877 61.9617 48.9819 61.8008C48.8761 61.6399 48.8204 61.4512 48.8218 61.2587C48.8233 61.0661 48.8818 60.8783 48.99 60.719C49.0982 60.5596 49.2512 60.436 49.4297 60.3637C49.6081 60.2913 49.8041 60.2736 49.9926 60.3126C50.1812 60.3516 50.354 60.4457 50.4891 60.5829C50.6242 60.7202 50.7155 60.8944 50.7516 61.0836C50.7998 61.3366 50.7459 61.5984 50.6016 61.8117C50.4573 62.0251 50.2344 62.1726 49.9816 62.2221H49.9784Z" fill="#F1F3F2"/>
<path d="M58.4996 65.0804C58.4082 64.6038 58.1775 64.1649 57.8367 63.8193C57.4959 63.4737 57.0603 63.237 56.5849 63.139C56.1095 63.0409 55.6158 63.0861 55.1661 63.2686C54.7164 63.4512 54.3309 63.763 54.0583 64.1646C53.7858 64.5662 53.6385 65.0396 53.635 65.525C53.6314 66.0103 53.7719 66.4858 54.0386 66.8914C54.3053 67.2969 54.6863 67.6142 55.1333 67.8033C55.5803 67.9923 56.0734 68.0446 56.5501 67.9534C57.1896 67.8309 57.7543 67.4594 58.1199 66.9207C58.4855 66.3819 58.6221 65.7199 58.4996 65.0804ZM55.9082 64.5879C56.0972 64.5521 56.2925 64.573 56.4695 64.6482C56.6466 64.7233 56.7974 64.8492 56.9028 65.01C57.0083 65.1708 57.0638 65.3593 57.0622 65.5516C57.0606 65.7439 57.0021 65.9314 56.8939 66.0905C56.7858 66.2495 56.633 66.3729 56.4547 66.4451C56.2765 66.5173 56.0808 66.5351 55.8925 66.4961C55.7041 66.4572 55.5316 66.3632 55.3966 66.2263C55.2616 66.0893 55.1703 65.9153 55.1341 65.7264C55.1089 65.6006 55.1091 65.4709 55.1344 65.3451C55.1598 65.2192 55.21 65.0997 55.282 64.9934C55.3541 64.8872 55.4466 64.7963 55.5541 64.7261C55.6616 64.6559 55.782 64.6078 55.9082 64.5846V64.5879Z" fill="#F1F3F2"/>
<path d="M56.5871 58.0423C56.5067 57.9876 56.4164 57.9493 56.3213 57.9295C56.2261 57.9097 56.128 57.9089 56.0325 57.9272C55.937 57.9454 55.8461 57.9823 55.7649 58.0357C55.6837 58.0891 55.6139 58.1581 55.5594 58.2385L49.1067 67.7358C49.0358 67.8379 48.9919 67.9562 48.979 68.0798C48.9661 68.2034 48.9845 68.3283 49.0326 68.4428C49.0807 68.5574 49.157 68.658 49.2543 68.7353C49.3516 68.8126 49.4668 68.864 49.5893 68.885C49.6778 68.901 49.7684 68.901 49.8569 68.885C49.9524 68.8668 50.0435 68.83 50.1247 68.7766C50.206 68.7233 50.2759 68.6543 50.3305 68.5739L56.7824 59.0766C56.8382 58.9961 56.8775 58.9053 56.8979 58.8095C56.9183 58.7137 56.9194 58.6148 56.9012 58.5186C56.8831 58.4224 56.8459 58.3307 56.792 58.2489C56.738 58.1672 56.6684 58.0969 56.5871 58.0423Z" fill="#F1F3F2"/>
<path d="M64.995 66.0587C64.906 66.0584 64.819 66.0318 64.7451 65.9822C64.6711 65.9326 64.6134 65.8623 64.5792 65.7801C64.545 65.6979 64.5359 65.6074 64.5529 65.52C64.5699 65.4326 64.6124 65.3522 64.6749 65.2888L69.678 60.2537L69.5614 59.4181C69.5513 59.3442 69.5595 59.269 69.5854 59.1991C69.6114 59.1292 69.6542 59.0668 69.71 59.0175H69.7149C69.7808 58.9617 69.861 58.9256 69.9464 58.9132C70.1136 58.89 70.2724 58.8259 70.4089 58.7265C70.5453 58.6272 70.6552 58.4958 70.7287 58.3439C70.8022 58.1919 70.8371 58.0242 70.8303 57.8556C70.8235 57.687 70.7752 57.5226 70.6897 57.3771C70.6042 57.2316 70.4841 57.1094 70.3401 57.0214C70.1961 56.9334 70.0326 56.8823 69.8641 56.8726C69.6956 56.8629 69.5273 56.8949 69.3742 56.9658C69.221 57.0366 69.0877 57.1442 68.986 57.2789C68.9044 57.3862 68.845 57.5087 68.8111 57.6392C68.7773 57.7697 68.7698 57.9056 68.789 58.039C68.8056 58.1577 68.7743 58.278 68.7021 58.3736C68.6299 58.4692 68.5227 58.5322 68.404 58.5488C68.2854 58.5653 68.165 58.5341 68.0694 58.4619C67.9738 58.3897 67.9108 58.2825 67.8943 58.1638C67.8444 57.8052 67.8965 57.4397 68.0445 57.1092C68.1926 56.7788 68.4306 56.4967 68.7315 56.2952C69.0324 56.0937 69.3839 55.981 69.7458 55.9699C70.1078 55.9588 70.4655 56.0498 70.7782 56.2325C71.0908 56.4152 71.3457 56.6822 71.5137 57.003C71.6817 57.3238 71.756 57.6853 71.7282 58.0464C71.7003 58.4074 71.5714 58.7533 71.3562 59.0445C71.141 59.3357 70.8481 59.5605 70.5112 59.693L70.5727 60.1338L76.7611 63.6101C76.8434 63.6564 76.9091 63.7274 76.949 63.8129C76.9889 63.8985 77.0009 63.9945 76.9834 64.0873C76.9659 64.18 76.9198 64.265 76.8515 64.3302C76.7832 64.3954 76.6962 64.4375 76.6027 64.4507L65.0582 66.0596C65.0372 66.0605 65.0161 66.0602 64.995 66.0587ZM70.2345 60.9744L66.26 64.9752L75.1514 63.7366L70.2345 60.9744Z" fill="#F1F3F2"/>
<path d="M60.6071 80.1969L50.1536 81.6531L51.0774 88.2855L61.531 86.8294L60.6071 80.1969Z" fill="#F1F3F2"/>
<path d="M61.0702 77.4089L48.9451 79.0979L49.2152 81.0369L61.3403 79.3479L61.0702 77.4089Z" fill="#F1F3F2"/>
<path d="M56.914 28.8589C57.2927 28.7292 57.4946 28.317 57.3648 27.9383C57.2351 27.5596 56.8229 27.3578 56.4442 27.4875C56.0655 27.6172 55.8637 28.0294 55.9934 28.4081C56.1232 28.7868 56.5353 28.9886 56.914 28.8589Z" fill="#A2C3F2"/>
<path d="M70.2674 96.2876L62.2961 97.4023C62.139 97.4243 61.9797 97.3831 61.853 97.2876C61.7263 97.1922 61.6427 97.0504 61.6205 96.8934C61.6096 96.8155 61.6142 96.7363 61.6339 96.6602C61.6536 96.5842 61.6881 96.5127 61.7355 96.45C61.7828 96.3873 61.842 96.3345 61.9098 96.2946C61.9775 96.2548 62.0524 96.2287 62.1303 96.2178L70.1016 95.1031C70.2587 95.0813 70.4181 95.1227 70.5447 95.2183C70.6714 95.3139 70.7549 95.4557 70.7771 95.6128C70.788 95.6906 70.7834 95.7698 70.7637 95.8458C70.744 95.9218 70.7094 95.9932 70.6621 96.0559C70.6148 96.1185 70.5555 96.1713 70.4878 96.211C70.4201 96.2508 70.3452 96.2768 70.2674 96.2876Z" fill="#A2C3F2"/>
<path d="M83.1589 73.9095C79.1236 74.5776 76.5207 69.252 79.6292 66.4865C82.3142 64.0634 85.7971 59.4403 89.5213 63.1859C92.9754 67.1826 88.1053 70.3068 85.4868 72.8021C84.843 73.4016 84.0302 73.7882 83.1589 73.9095Z" fill="#F69D85"/>
<path d="M81.2496 65.2208C77.2143 65.8881 74.6105 60.5633 77.7199 57.797L82.5441 53.3226C86.7591 49.5466 92.4887 55.717 88.4025 59.6382C86.9184 60.7414 83.2582 65.2068 81.2496 65.2208Z" fill="#F69D85"/>
<path d="M79.0785 56.3235C75.0431 56.9909 72.4394 51.666 75.5488 48.8997L80.4156 44.385C84.6307 40.6091 90.3602 46.7795 86.2732 50.7015C84.7866 51.8055 81.0895 56.3112 79.0785 56.3235Z" fill="#F69D85"/>
<path d="M81.9301 73.6862C81.8498 73.6974 81.768 73.6829 81.6964 73.6446C81.6249 73.6063 81.5674 73.5463 81.5323 73.4732C81.4971 73.4002 81.4861 73.3178 81.5008 73.238C81.5155 73.1583 81.5551 73.0852 81.614 73.0295L84.0471 70.7311C84.3933 70.4154 84.6 69.9751 84.6216 69.5071C84.6432 69.039 84.4781 68.5816 84.1624 68.2353C83.8467 67.889 83.4064 67.6824 82.9384 67.6607C82.4703 67.6391 82.0128 67.8043 81.6666 68.12L79.2287 70.2624C79.1915 70.2991 79.1473 70.3278 79.0987 70.3468C79.05 70.3658 78.998 70.3746 78.9459 70.3728C78.8937 70.371 78.8425 70.3585 78.7953 70.3362C78.7481 70.3139 78.706 70.2821 78.6715 70.2429C78.637 70.2038 78.6109 70.1579 78.5947 70.1083C78.5786 70.0586 78.5727 70.0062 78.5776 69.9543C78.5824 69.9023 78.5978 69.8518 78.6228 69.806C78.6478 69.7602 78.6819 69.72 78.723 69.6878L81.1609 67.5454C81.6453 67.121 82.2729 66.8968 82.9165 66.9181C83.56 66.9395 84.1714 67.2048 84.6266 67.6603C84.8653 67.8999 85.0536 68.1849 85.1804 68.4985C85.3071 68.812 85.3698 69.1478 85.3647 69.486C85.3595 69.8242 85.2867 70.1579 85.1505 70.4675C85.0143 70.7771 84.8175 71.0562 84.5716 71.2885L82.1386 73.5868C82.0811 73.6408 82.0082 73.6755 81.9301 73.6862Z" fill="#EA8973"/>
<path d="M79.5742 64.8005C79.491 64.8121 79.4062 64.796 79.333 64.7547C79.2599 64.7134 79.2023 64.6491 79.1692 64.5719C79.136 64.4947 79.1292 64.4087 79.1498 64.3272C79.1703 64.2457 79.217 64.1732 79.2828 64.1209L81.6805 62.2247C82.0501 61.9396 82.2918 61.5199 82.3529 61.0572C82.414 60.5944 82.2895 60.1263 82.0066 59.7551C81.7236 59.3839 81.3053 59.1398 80.8429 59.076C80.3805 59.0123 79.9117 59.1341 79.5389 59.4149L77.2126 61.1223C77.1721 61.152 77.1262 61.1735 77.0774 61.1855C77.0286 61.1975 76.9779 61.1998 76.9283 61.1922C76.8786 61.1846 76.831 61.1673 76.788 61.1413C76.745 61.1153 76.7076 61.0811 76.6778 61.0406C76.6481 61.0001 76.6266 60.9542 76.6146 60.9054C76.6026 60.8566 76.6003 60.806 76.6079 60.7563C76.6155 60.7067 76.6328 60.659 76.6588 60.616C76.6848 60.573 76.719 60.5356 76.7595 60.5058L79.0858 58.7976C79.6208 58.4049 80.2886 58.2379 80.9455 58.3325C81.6024 58.4272 82.1959 58.7759 82.5982 59.3037C83.0006 59.8315 83.1796 60.4962 83.0969 61.1547C83.0142 61.8132 82.6762 62.4129 82.1558 62.8247L79.7581 64.7217C79.7049 64.7639 79.6414 64.7911 79.5742 64.8005Z" fill="#EA8973"/>
<path d="M77.504 55.9443C77.4208 55.9556 77.3362 55.9394 77.2632 55.898C77.1902 55.8566 77.1327 55.7924 77.0997 55.7152C77.0667 55.638 77.06 55.5521 77.0805 55.4707C77.1011 55.3893 77.1477 55.3169 77.2134 55.2646L79.6554 53.3324C79.8405 53.1861 79.9945 53.0042 80.1081 52.7974C80.2218 52.5907 80.2928 52.3632 80.3171 52.1285C80.3413 51.8938 80.3183 51.6567 80.2493 51.431C80.1804 51.2054 80.0669 50.9959 79.9156 50.8148C79.627 50.4705 79.2184 50.2487 78.7724 50.1945C78.3265 50.1402 77.8765 50.2575 77.5138 50.5226L75.0586 52.3285C75.0181 52.3582 74.9721 52.3797 74.9233 52.3917C74.8745 52.4036 74.8237 52.4059 74.774 52.3983C74.7243 52.3906 74.6766 52.3733 74.6336 52.3472C74.5906 52.3212 74.5532 52.2869 74.5234 52.2464C74.4937 52.2058 74.4722 52.1599 74.4603 52.111C74.4483 52.0622 74.446 52.0115 74.4536 51.9618C74.4613 51.9121 74.4786 51.8644 74.5047 51.8214C74.5307 51.7784 74.565 51.7409 74.6055 51.7112L77.0607 49.9053C77.5957 49.5126 78.2635 49.3456 78.9204 49.4402C79.5773 49.5348 80.1708 49.8836 80.5731 50.4114C80.9755 50.9392 81.1546 51.6039 81.0718 52.2624C80.9891 52.9209 80.6511 53.5206 80.1307 53.9324L77.6886 55.8647C77.6352 55.9072 77.5715 55.9346 77.504 55.9443Z" fill="#EA8973"/>
<path d="M55.0307 42.2255L54.0342 42.4168C53.9627 42.2373 53.8784 42.0631 53.7822 41.8955L54.5489 41.2315C54.6367 41.1553 54.6907 41.0475 54.699 40.9316C54.7073 40.8157 54.6692 40.7012 54.5932 40.6133L54.159 40.111C54.0828 40.0232 53.975 39.9692 53.8591 39.9609C53.7432 39.9526 53.6287 39.9906 53.5409 40.0667L52.7734 40.7307C52.6217 40.6099 52.4615 40.5002 52.294 40.4024L52.6223 39.4436C52.6414 39.3893 52.6495 39.3318 52.6462 39.2743C52.6429 39.2168 52.6283 39.1606 52.6032 39.1088C52.5781 39.057 52.543 39.0107 52.4999 38.9725C52.4569 38.9343 52.4067 38.905 52.3523 38.8863L51.7243 38.6679C51.6145 38.63 51.4941 38.6372 51.3895 38.688C51.285 38.7388 51.205 38.829 51.167 38.9388L50.8386 39.8967C50.6484 39.8689 50.4563 39.8549 50.264 39.8549L50.0703 38.8625C50.0595 38.8059 50.0376 38.7521 50.006 38.704C49.9743 38.6559 49.9335 38.6145 49.8859 38.5822C49.8382 38.5499 49.7847 38.5272 49.7283 38.5156C49.6719 38.504 49.6138 38.5036 49.5573 38.5144L48.9047 38.64C48.8482 38.6508 48.7943 38.6725 48.7462 38.7041C48.6982 38.7356 48.6568 38.7764 48.6244 38.824C48.5921 38.8715 48.5695 38.925 48.5579 38.9813C48.5462 39.0377 48.5458 39.0957 48.5566 39.1522L48.7479 40.1487C48.5684 40.2203 48.3942 40.3045 48.2267 40.4007L47.5634 39.6341C47.4873 39.5463 47.3795 39.4923 47.2635 39.484C47.1476 39.4756 47.0332 39.5137 46.9453 39.5897L46.443 40.024C46.355 40.1 46.3009 40.2078 46.2924 40.3237C46.2839 40.4396 46.3219 40.5541 46.3978 40.6421L47.0619 41.4096C46.9413 41.5615 46.8316 41.7217 46.7335 41.889L45.7748 41.5557C45.6649 41.5177 45.5445 41.525 45.44 41.5757C45.3355 41.6265 45.2554 41.7168 45.2174 41.8266L44.9999 42.4545C44.981 42.5088 44.9729 42.5664 44.9763 42.6238C44.9796 42.6812 44.9942 42.7374 45.0193 42.7892C45.0444 42.841 45.0795 42.8873 45.1225 42.9255C45.1655 42.9637 45.2156 42.9931 45.27 43.0119L46.2279 43.3402C46.2007 43.5305 46.187 43.7226 46.1868 43.9148L45.1903 44.1061C45.0763 44.1281 44.9756 44.1945 44.9103 44.2907C44.8451 44.3868 44.8206 44.5049 44.8423 44.6191L44.9679 45.2758C44.9787 45.3323 45.0006 45.3862 45.0322 45.4343C45.0639 45.4824 45.1047 45.5238 45.1523 45.5561C45.1999 45.5884 45.2535 45.611 45.3099 45.6226C45.3663 45.6343 45.4244 45.6347 45.4809 45.6238L46.4766 45.4326C46.5481 45.6122 46.6326 45.7865 46.7294 45.9538L45.966 46.6171C45.8784 46.6933 45.8246 46.8011 45.8163 46.917C45.8079 47.0328 45.8459 47.1472 45.9217 47.2352L46.3568 47.7375C46.4328 47.8254 46.5406 47.8796 46.6565 47.8881C46.7724 47.8965 46.8869 47.8586 46.9749 47.7827L47.7423 47.1186C47.894 47.2391 48.0539 47.3489 48.2209 47.4469L47.8885 48.4057C47.8505 48.5154 47.8576 48.6357 47.9082 48.7402C47.9589 48.8447 48.0489 48.9249 48.1585 48.963L48.7865 49.1806C48.8408 49.1995 48.8983 49.2075 48.9558 49.2042C49.0132 49.2008 49.0694 49.1862 49.1212 49.1611C49.1729 49.136 49.2192 49.101 49.2575 49.058C49.2957 49.015 49.325 48.9649 49.3438 48.9105L49.6763 47.9526C49.8666 47.9798 50.0586 47.9935 50.2509 47.9936L50.4421 48.9901C50.4642 49.1042 50.5306 49.2049 50.6268 49.2701C50.7229 49.3354 50.841 49.3598 50.9552 49.3382L51.6119 49.2126C51.7259 49.1905 51.8265 49.1241 51.8916 49.0279C51.9567 48.9317 51.981 48.8136 51.9591 48.6996L51.7678 47.7039C51.9475 47.6324 52.1217 47.5479 52.2891 47.451L52.9531 48.2177C52.9907 48.2612 53.0365 48.2969 53.0878 48.3227C53.1392 48.3485 53.1951 48.364 53.2524 48.3682C53.3097 48.3724 53.3673 48.3652 53.4219 48.3472C53.4764 48.3291 53.5269 48.3004 53.5704 48.2629L54.0736 47.8278C54.1614 47.7517 54.2154 47.6438 54.2237 47.5279C54.232 47.412 54.194 47.2976 54.1179 47.2097L53.4538 46.4422C53.5745 46.2907 53.6842 46.1308 53.7822 45.9637L54.7409 46.292C54.7953 46.3109 54.8528 46.3189 54.9102 46.3156C54.9676 46.3123 55.0239 46.2976 55.0756 46.2726C55.1274 46.2475 55.1737 46.2124 55.2119 46.1694C55.2501 46.1264 55.2795 46.0763 55.2983 46.0219L55.5166 45.394C55.5546 45.2842 55.5474 45.1637 55.4966 45.0592C55.4458 44.9547 55.3556 44.8746 55.2458 44.8366L54.2878 44.5042C54.3157 44.3139 54.3297 44.1219 54.3297 43.9296L55.3254 43.7383C55.382 43.7276 55.4359 43.7058 55.484 43.6742C55.5322 43.6426 55.5736 43.6018 55.6059 43.5541C55.6383 43.5064 55.6609 43.4528 55.6725 43.3964C55.684 43.34 55.6844 43.2818 55.6734 43.2253L55.5478 42.5727C55.537 42.5158 55.515 42.4616 55.4831 42.4132C55.4512 42.3648 55.41 42.3233 55.3619 42.291C55.3137 42.2587 55.2597 42.2363 55.2029 42.225C55.146 42.2138 55.0875 42.2139 55.0307 42.2255ZM50.585 45.632C50.2474 45.6968 49.8983 45.6601 49.5816 45.5264C49.265 45.3928 48.9951 45.1682 48.806 44.8811C48.617 44.5941 48.5174 44.2574 48.5197 43.9138C48.522 43.5701 48.6262 43.2348 48.8191 42.9503C49.0119 42.6658 49.2848 42.4449 49.6032 42.3155C49.9216 42.1861 50.2713 42.1541 50.6079 42.2234C50.9445 42.2927 51.2531 42.4603 51.4944 42.705C51.7358 42.9497 51.8992 43.2604 51.964 43.598C52.0071 43.8221 52.0056 44.0525 51.9597 44.276C51.9137 44.4996 51.8241 44.7119 51.696 44.9008C51.568 45.0897 51.4039 45.2515 51.2133 45.377C51.0226 45.5024 50.8091 45.5891 50.585 45.632Z" fill="#F1F3F2"/>
<path d="M152.02 142.878V144.177C150.568 145.851 148.989 147.411 147.296 148.841C146.834 149.234 146.343 149.634 145.825 150.043H110.321C118.401 146.038 130.277 142.059 145.182 142.417C147.397 142.47 149.677 142.619 152.02 142.878Z" fill="#2B822B"/>
<path d="M147.67 150.044H101.507C100.887 148.116 100.255 146.231 99.6186 144.416C91.7031 138.993 84.3556 132.694 78.0794 125.427C77.9152 125.225 77.7051 124.981 77.4892 124.727C77.1436 124.316 76.7767 123.883 76.5214 123.554C75.309 122.432 74.814 121.138 74.8296 119.924C74.8314 119.725 74.8473 119.527 74.8773 119.33C74.9832 118.639 75.2494 117.982 75.6546 117.411C76.9499 115.583 79.5676 114.766 82.0326 116.774C84.7072 119.314 87.5458 121.675 90.5301 123.842C87.4929 115.761 84.3679 107.66 80.9146 99.7227C80.9031 99.6956 80.8916 99.6694 80.8793 99.6406C80.3688 98.4668 79.8505 97.2968 79.3246 96.1307C79.2918 96.0585 79.2598 95.9862 79.227 95.9148C77.8961 92.9707 76.5099 90.0558 75.0685 87.1703C75.0209 87.0734 74.9717 86.9766 74.9232 86.8797C74.9109 86.8551 74.8978 86.8288 74.8863 86.8042C72.9778 82.8748 77.4859 79.5996 80.5904 81.3956C81.1512 81.7283 81.6285 82.1848 81.9858 82.7303L82.0129 82.7705C82.4053 83.3872 82.7938 84.0054 83.1785 84.6248C83.8899 85.7707 84.5898 86.9218 85.2783 88.0781C85.3398 88.1816 85.4006 88.2834 85.4613 88.3868C86.4151 89.9956 87.3501 91.6138 88.2662 93.2413C90.2543 96.7644 92.1677 100.328 94.0499 103.912C94.8609 99.575 100.925 98.5571 103.209 102.167C103.305 102.322 103.393 102.481 103.473 102.644C103.499 102.452 103.537 102.262 103.587 102.074C104.631 98.1155 110.426 97.0796 112.673 100.691C112.691 100.719 112.707 100.746 112.723 100.773C112.744 100.727 112.765 100.683 112.787 100.639C119.73 86.0868 135.301 118.342 139.005 126.804C141.256 131.894 143.34 137.121 145.186 142.413C145.721 143.945 146.235 145.484 146.73 147.03C146.923 147.632 147.112 148.234 147.298 148.836C147.421 149.24 147.545 149.643 147.67 150.044Z" fill="#F69D85"/>
<path d="M98.2494 113.049C98.1612 113.032 98.0782 112.995 98.007 112.94C97.9357 112.886 97.8781 112.816 97.839 112.735C96.3458 109.663 93.8332 104.742 93.8078 104.691C93.7455 104.556 93.7378 104.402 93.7863 104.262C93.8349 104.121 93.9359 104.005 94.0681 103.938C94.2004 103.87 94.3536 103.857 94.4958 103.9C94.6379 103.943 94.7579 104.039 94.8305 104.169C94.856 104.218 97.3752 109.148 98.8716 112.23C98.9179 112.326 98.9369 112.432 98.9263 112.538C98.9158 112.644 98.8762 112.744 98.812 112.829C98.7477 112.913 98.6612 112.978 98.5622 113.017C98.4632 113.055 98.3555 113.065 98.251 113.046L98.2494 113.049Z" fill="#EA8973"/>
<path d="M107.202 110.284C107.112 110.267 107.027 110.23 106.955 110.174C106.883 110.118 106.825 110.046 106.786 109.964C105.117 106.42 103.053 102.982 103.032 102.947C102.994 102.882 102.968 102.811 102.957 102.736C102.945 102.661 102.949 102.585 102.967 102.512C102.985 102.439 103.018 102.37 103.063 102.309C103.108 102.248 103.164 102.197 103.229 102.158C103.293 102.119 103.365 102.093 103.44 102.082C103.514 102.071 103.59 102.075 103.664 102.093C103.737 102.111 103.806 102.144 103.867 102.188C103.927 102.233 103.979 102.29 104.017 102.354C104.039 102.389 106.133 105.877 107.827 109.474C107.872 109.57 107.89 109.676 107.878 109.781C107.867 109.886 107.826 109.986 107.762 110.069C107.698 110.153 107.611 110.217 107.513 110.255C107.414 110.293 107.307 110.303 107.203 110.284H107.202Z" fill="#EA8973"/>
<path d="M116.514 107.922C116.43 107.907 116.35 107.872 116.28 107.822C116.211 107.772 116.154 107.706 116.113 107.631C114.435 104.539 112.501 101.53 112.481 101.501C112.405 101.373 112.382 101.22 112.416 101.075C112.45 100.93 112.539 100.804 112.664 100.724C112.789 100.643 112.94 100.614 113.086 100.643C113.232 100.672 113.362 100.756 113.447 100.878C113.466 100.909 115.423 103.952 117.122 107.083C117.174 107.179 117.198 107.286 117.19 107.395C117.183 107.503 117.146 107.606 117.082 107.694C117.019 107.782 116.932 107.85 116.831 107.89C116.731 107.93 116.621 107.942 116.514 107.922Z" fill="#EA8973"/>
<path d="M80.024 88.5796C79.7663 88.5316 79.5141 88.4576 79.2713 88.3588C76.5797 87.2753 75.4691 83.1653 75.4231 82.9913C75.4075 82.9419 75.402 82.8899 75.4071 82.8384C75.4122 82.7868 75.4277 82.7369 75.4527 82.6915C75.4776 82.6462 75.5115 82.6064 75.5523 82.5745C75.5931 82.5426 75.64 82.5194 75.69 82.5061C75.7401 82.4929 75.7923 82.4899 75.8435 82.4975C75.8947 82.505 75.9439 82.5229 75.988 82.55C76.0321 82.5771 76.0702 82.6128 76.1001 82.6551C76.13 82.6974 76.151 82.7453 76.1619 82.7959C76.1717 82.8345 77.2216 86.7089 79.5553 87.6488C81.7954 88.5517 83.4453 86.4823 83.515 86.3945C83.5773 86.3144 83.6688 86.2623 83.7695 86.2497C83.8702 86.2371 83.9718 86.2649 84.0519 86.3272C84.132 86.3895 84.1841 86.481 84.1967 86.5817C84.2093 86.6824 84.1814 86.7839 84.1192 86.864C84.1027 86.8879 82.4118 89.0212 80.024 88.5796Z" fill="#EA8973"/>
<path d="M78.8345 126.115C78.7647 126.102 78.6998 126.07 78.6471 126.022C78.5944 125.975 78.556 125.914 78.5362 125.845C78.5163 125.777 78.5158 125.705 78.5348 125.637C78.5537 125.568 78.5912 125.506 78.6433 125.458C80.0691 124.123 80.0494 122.044 78.594 120.401L76.0264 117.502C75.993 117.464 75.9674 117.42 75.951 117.372C75.9347 117.325 75.9278 117.274 75.9309 117.224C75.934 117.174 75.9469 117.125 75.969 117.079C75.9911 117.034 76.0219 116.994 76.0596 116.96C76.0974 116.927 76.1413 116.901 76.1889 116.885C76.2365 116.868 76.2869 116.862 76.3372 116.865C76.3875 116.868 76.4366 116.881 76.4819 116.903C76.5272 116.925 76.5676 116.956 76.601 116.993L79.1686 119.894C80.9146 121.864 80.9146 124.383 79.1686 126.017C79.1246 126.059 79.0713 126.089 79.0133 126.106C78.9552 126.123 78.894 126.126 78.8345 126.115Z" fill="#EA8973"/>
<path d="M152.02 143.679V150.044H140.812C142.822 149.134 144.799 148.133 146.728 147.036C148.543 146.003 150.312 144.887 152.02 143.679Z" fill="#60BF60"/>
<path d="M17.6328 74.8049H16.7093C16.4698 74.8049 16.2402 74.7098 16.0708 74.5405C15.9015 74.3711 15.8064 74.1415 15.8064 73.902V72.7282C15.6882 72.7003 15.5708 72.6691 15.455 72.6346L14.8689 73.6508C14.7489 73.8572 14.5519 74.0077 14.3211 74.0692C14.0904 74.1308 13.8446 74.0984 13.6377 73.9791L12.8373 73.517C12.6309 73.3969 12.4805 73.1999 12.4189 72.9692C12.3574 72.7384 12.3898 72.4927 12.509 72.2857L13.0967 71.2679C13.0086 71.1847 12.9233 71.0993 12.8406 71.0118L11.8228 71.5987C11.6158 71.7179 11.3701 71.7503 11.1393 71.6888C10.9086 71.6272 10.7116 71.4768 10.5915 71.2703L10.1294 70.47C10.0101 70.2631 9.97773 70.0173 10.0393 69.7866C10.1008 69.5558 10.2513 69.3588 10.4577 69.2387L11.4739 68.6518C11.4394 68.5361 11.4074 68.4195 11.3803 68.3013H10.2065C9.96705 68.3013 9.73737 68.2062 9.56804 68.0368C9.39871 67.8675 9.30359 67.6379 9.30359 67.3984V66.4815C9.30359 66.242 9.39871 66.0124 9.56804 65.843C9.73737 65.6737 9.96705 65.5786 10.2065 65.5786H11.3803C11.4074 65.4604 11.4394 65.3438 11.4739 65.228L10.4577 64.6411C10.2513 64.5211 10.1008 64.3241 10.0393 64.0933C9.97773 63.8625 10.0101 63.6168 10.1294 63.4099L10.5915 62.6095C10.7116 62.4031 10.9086 62.2526 11.1393 62.1911C11.3701 62.1296 11.6158 62.162 11.8228 62.2812L12.8406 62.8681C12.9238 62.7805 13.0092 62.6952 13.0967 62.612L12.509 61.5941C12.3898 61.3872 12.3574 61.1415 12.4189 60.9107C12.4805 60.6799 12.6309 60.4829 12.8373 60.3629L13.6377 59.9007C13.8446 59.7815 14.0904 59.7491 14.3211 59.8106C14.5519 59.8722 14.7489 60.0226 14.8689 60.2291L15.455 61.2453C15.5708 61.2108 15.6882 61.1796 15.8064 61.1517V59.9779C15.8064 59.7384 15.9015 59.5087 16.0708 59.3394C16.2402 59.1701 16.4698 59.075 16.7093 59.075H17.6328C17.8722 59.075 18.1019 59.1701 18.2712 59.3394C18.4406 59.5087 18.5357 59.7384 18.5357 59.9779V61.1517C18.6539 61.1796 18.7705 61.2108 18.8862 61.2453L19.4731 60.2291C19.5932 60.0226 19.7902 59.8722 20.0209 59.8106C20.2517 59.7491 20.4974 59.7815 20.7044 59.9007L21.5047 60.3629C21.7112 60.4829 21.8616 60.6799 21.9231 60.9107C21.9847 61.1415 21.9523 61.3872 21.8331 61.5941L21.2462 62.612C21.3337 62.6946 21.4191 62.78 21.5022 62.8681L22.5201 62.2812C22.7271 62.162 22.9728 62.1296 23.2036 62.1911C23.4343 62.2526 23.6313 62.4031 23.7514 62.6095L24.2135 63.4099C24.3328 63.6168 24.3651 63.8625 24.3036 64.0933C24.2421 64.3241 24.0916 64.5211 23.8852 64.6411L22.869 65.228C22.9035 65.3438 22.9346 65.4604 22.9625 65.5786H24.1314C24.3709 65.5786 24.6006 65.6737 24.7699 65.843C24.9392 66.0124 25.0344 66.242 25.0344 66.4815V67.4049C25.0344 67.6444 24.9392 67.8741 24.7699 68.0434C24.6006 68.2128 24.3709 68.3079 24.1314 68.3079H22.9576C22.9297 68.4261 22.8985 68.5427 22.864 68.6584L23.8803 69.2453C24.0867 69.3654 24.2372 69.5624 24.2987 69.7931C24.3602 70.0239 24.3278 70.2696 24.2086 70.4766L23.7465 71.2769C23.6264 71.4833 23.4294 71.6338 23.1986 71.6953C22.9679 71.7569 22.7221 71.7245 22.5152 71.6052L21.4973 71.0183C21.4141 71.1059 21.3288 71.1913 21.2412 71.2744L21.8281 72.2923C21.9474 72.4992 21.9798 72.745 21.9182 72.9757C21.8567 73.2065 21.7062 73.4035 21.4998 73.5236L20.7003 73.9857C20.4933 74.105 20.2476 74.1373 20.0168 74.0758C19.7861 74.0143 19.5891 73.8638 19.469 73.6574L18.8821 72.6412C18.7664 72.6756 18.6498 72.7068 18.5316 72.7347V73.9086C18.5299 74.1462 18.4345 74.3735 18.2663 74.5413C18.098 74.7091 17.8704 74.8039 17.6328 74.8049ZM15.3221 71.9935C15.3545 71.9937 15.3867 71.9992 15.4173 72.0099C15.6586 72.093 15.9055 72.1588 16.1561 72.2069C16.2226 72.2199 16.2825 72.2555 16.3256 72.3078C16.3687 72.36 16.3924 72.4257 16.3924 72.4934V73.9036C16.3927 73.9878 16.4262 74.0685 16.4857 74.128C16.5453 74.1875 16.6259 74.2211 16.7101 74.2213H17.6336C17.7177 74.2211 17.7983 74.1875 17.8577 74.128C17.9171 74.0684 17.9504 73.9877 17.9504 73.9036V72.4934C17.9507 72.4256 17.9745 72.36 18.0178 72.3077C18.061 72.2555 18.1211 72.2198 18.1877 72.2069C18.4383 72.1589 18.6852 72.0931 18.9264 72.0099C18.9906 71.9876 19.0605 71.9884 19.1242 72.012C19.1878 72.0357 19.2413 72.0808 19.2753 72.1396L19.9796 73.3611C20.0219 73.4336 20.0913 73.4865 20.1724 73.5082C20.2536 73.5298 20.3401 73.5186 20.413 73.4768L21.2133 73.0146C21.2494 72.9938 21.281 72.9661 21.3064 72.933C21.3318 72.9 21.3503 72.8622 21.3611 72.8219C21.3718 72.7817 21.3745 72.7397 21.369 72.6984C21.3635 72.6571 21.35 72.6173 21.3291 72.5812L20.6239 71.3598C20.59 71.301 20.5776 71.2322 20.5888 71.1653C20.6 71.0983 20.6342 71.0374 20.6855 70.9929C20.8778 70.8261 21.058 70.6459 21.2248 70.4536C21.2693 70.4023 21.3302 70.3681 21.3972 70.3569C21.4642 70.3456 21.5329 70.3581 21.5917 70.392L22.8131 71.0971C22.886 71.1391 22.9725 71.1505 23.0538 71.1288C23.135 71.1071 23.2043 71.0541 23.2466 70.9814L23.7087 70.1811C23.7506 70.1082 23.7618 70.0218 23.74 69.9406C23.7181 69.8595 23.6649 69.7904 23.5921 69.7485L22.3715 69.0434C22.3136 69.0093 22.2693 68.9564 22.2459 68.8934C22.2226 68.8304 22.2217 68.7613 22.2435 68.6978C22.3265 68.4565 22.3924 68.2096 22.4405 67.959C22.4534 67.8925 22.4891 67.8326 22.5413 67.7895C22.5936 67.7463 22.6592 67.7227 22.727 67.7226H24.1314C24.2155 67.7224 24.2961 67.6888 24.3555 67.6293C24.4149 67.5697 24.4483 67.4891 24.4483 67.4049V66.4815C24.4483 66.3974 24.4149 66.3167 24.3555 66.2571C24.2961 66.1976 24.2155 66.164 24.1314 66.1638H22.7212C22.6535 66.1637 22.5878 66.1401 22.5356 66.097C22.4833 66.0539 22.4477 65.9939 22.4347 65.9274C22.3866 65.6768 22.3208 65.4299 22.2377 65.1887C22.2155 65.1246 22.2163 65.0548 22.24 64.9913C22.2636 64.9278 22.3087 64.8745 22.3674 64.8406L23.588 64.1355C23.6608 64.0936 23.714 64.0245 23.7359 63.9433C23.7577 63.8622 23.7465 63.7757 23.7046 63.7029L23.2424 62.9026C23.2002 62.8299 23.1309 62.7768 23.0497 62.7551C22.9684 62.7334 22.8819 62.7448 22.809 62.7868L21.5876 63.4919C21.5288 63.5259 21.46 63.5383 21.3931 63.5271C21.3261 63.5159 21.2652 63.4817 21.2207 63.4304C21.0539 63.2381 20.8737 63.0579 20.6814 62.8911C20.6301 62.8466 20.5959 62.7856 20.5847 62.7187C20.5734 62.6517 20.5859 62.583 20.6198 62.5242L21.325 61.3027C21.367 61.2299 21.3784 61.1434 21.3567 61.0621C21.335 60.9809 21.2819 60.9115 21.2092 60.8693L20.4089 60.4072C20.3728 60.3864 20.333 60.3729 20.2917 60.3675C20.2505 60.3622 20.2085 60.3651 20.1684 60.376C20.128 60.3865 20.0901 60.4049 20.0569 60.4303C20.0238 60.4557 19.9961 60.4875 19.9755 60.5238L19.2712 61.7444C19.2372 61.8032 19.1837 61.8483 19.1201 61.8719C19.0564 61.8956 18.9865 61.8963 18.9223 61.8741C18.6811 61.7909 18.4342 61.725 18.1836 61.677C18.117 61.6641 18.0569 61.6285 18.0137 61.5763C17.9704 61.524 17.9466 61.4584 17.9463 61.3906V59.9804C17.9463 59.8962 17.913 59.8156 17.8536 59.756C17.7942 59.6965 17.7136 59.6629 17.6295 59.6627H16.706C16.6218 59.6629 16.5412 59.6964 16.4816 59.756C16.4221 59.8155 16.3886 59.8962 16.3883 59.9804V61.3922C16.3883 61.46 16.3646 61.5256 16.3215 61.5778C16.2784 61.6301 16.2185 61.6657 16.1519 61.6787C15.9013 61.7268 15.6545 61.7927 15.4132 61.8757C15.3491 61.8979 15.2793 61.8972 15.2158 61.8735C15.1523 61.8498 15.099 61.8047 15.0651 61.746L14.36 60.5254C14.3396 60.4891 14.312 60.4574 14.279 60.432C14.246 60.4066 14.2082 60.3881 14.168 60.3776C14.1278 60.3667 14.0858 60.3638 14.0446 60.3692C14.0033 60.3745 13.9635 60.388 13.9274 60.4088L13.1271 60.871C13.091 60.8918 13.0594 60.9195 13.034 60.9526C13.0087 60.9857 12.9901 61.0234 12.9793 61.0637C12.9686 61.1039 12.9659 61.1459 12.9714 61.1872C12.9769 61.2285 12.9905 61.2683 13.0114 61.3044L13.7165 62.5258C13.7504 62.5846 13.7629 62.6534 13.7516 62.7203C13.7404 62.7873 13.7062 62.8482 13.6549 62.8927C13.4625 63.0593 13.2822 63.2396 13.1156 63.432C13.0711 63.4833 13.0102 63.5175 12.9432 63.5288C12.8763 63.54 12.8075 63.5275 12.7487 63.4936L11.5264 62.7885C11.4905 62.7676 11.4507 62.754 11.4095 62.7485C11.3682 62.743 11.3263 62.7458 11.2861 62.7565C11.2459 62.7673 11.2082 62.7858 11.1753 62.8112C11.1423 62.8365 11.1146 62.8682 11.0939 62.9042L10.6317 63.7046C10.59 63.7773 10.5787 63.8637 10.6004 63.9447C10.6221 64.0258 10.6749 64.0949 10.7475 64.1371L11.9689 64.8423C12.0276 64.8761 12.0727 64.9294 12.0964 64.9929C12.12 65.0565 12.1208 65.1263 12.0986 65.1903C12.0151 65.4315 11.9493 65.6784 11.9016 65.9291C11.8886 65.9956 11.853 66.0555 11.8007 66.0986C11.7485 66.1418 11.6829 66.1654 11.6151 66.1655H10.2049C10.1207 66.1657 10.04 66.1992 9.98049 66.2587C9.92096 66.3183 9.88742 66.3989 9.8872 66.4831V67.4066C9.88742 67.4908 9.92096 67.5714 9.98049 67.631C10.04 67.6905 10.1207 67.724 10.2049 67.7243H11.6151C11.6829 67.7243 11.7485 67.748 11.8007 67.7911C11.853 67.8342 11.8886 67.8942 11.9016 67.9607C11.9494 68.2113 12.0152 68.4582 12.0986 68.6994C12.1208 68.7635 12.12 68.8333 12.0964 68.8968C12.0727 68.9603 12.0276 69.0136 11.9689 69.0475L10.7516 69.7485C10.6791 69.7907 10.6262 69.8599 10.6045 69.9409C10.5828 70.022 10.5941 70.1083 10.6358 70.1811L11.098 70.9814C11.14 71.0541 11.2092 71.1071 11.2903 71.1288C11.3714 71.1505 11.4578 71.1391 11.5305 71.0971L12.7528 70.392C12.8115 70.3581 12.8801 70.3457 12.9469 70.357C13.0137 70.3682 13.0746 70.4024 13.1189 70.4536C13.286 70.6459 13.4665 70.8261 13.659 70.9929C13.7103 71.0374 13.7445 71.0983 13.7557 71.1653C13.767 71.2322 13.7545 71.301 13.7206 71.3598L13.0155 72.5812C12.9946 72.6173 12.981 72.6571 12.9755 72.6984C12.97 72.7397 12.9727 72.7817 12.9834 72.8219C12.9942 72.8622 13.0128 72.9 13.0381 72.933C13.0635 72.9661 13.0951 72.9938 13.1312 73.0146L13.9315 73.4768C13.9676 73.4976 14.0074 73.5111 14.0487 73.5164C14.09 73.5218 14.1319 73.5189 14.172 73.508C14.2122 73.4975 14.2499 73.4791 14.2829 73.4539C14.3159 73.4287 14.3435 73.3971 14.3641 73.3611L15.0692 72.1396C15.0949 72.0953 15.1318 72.0585 15.1762 72.0328C15.2205 72.0072 15.2708 71.9936 15.3221 71.9935ZM17.1706 70.9223C16.3832 70.9223 15.6135 70.6888 14.9588 70.2514C14.3041 69.8139 13.7939 69.1921 13.4925 68.4647C13.1912 67.7372 13.1124 66.9367 13.266 66.1645C13.4196 65.3922 13.7988 64.6829 14.3555 64.1261C14.9123 63.5693 15.6217 63.1901 16.3939 63.0365C17.1662 62.8829 17.9667 62.9618 18.6941 63.2631C19.4216 63.5644 20.0434 64.0747 20.4808 64.7294C20.9183 65.3841 21.1517 66.1538 21.1517 66.9412C21.1507 67.9967 20.7309 69.0087 19.9845 69.755C19.2381 70.5014 18.2261 70.9212 17.1706 70.9223ZM17.1706 63.5453C16.4988 63.5453 15.842 63.7445 15.2834 64.1178C14.7248 64.4911 14.2895 65.0216 14.0324 65.6423C13.7754 66.263 13.7081 66.946 13.8393 67.605C13.9704 68.2639 14.294 68.8691 14.7691 69.3441C15.2442 69.8191 15.8495 70.1425 16.5085 70.2735C17.1674 70.4045 17.8504 70.3371 18.4711 70.0799C19.0917 69.8227 19.6221 69.3872 19.9953 68.8285C20.3684 68.2698 20.5675 67.613 20.5673 66.9412C20.5662 66.0407 20.208 65.1775 19.5712 64.5408C18.9344 63.9042 18.0711 63.5462 17.1706 63.5453Z" fill="#F1F3F2"/>
<path d="M88.8293 21.4661C88.4903 21.5843 88.1194 21.5715 87.7894 21.4302C87.4594 21.289 87.1941 21.0295 87.0456 20.7027C85.6561 17.6841 83.2567 15.2452 80.2612 13.8066C77.2658 12.368 73.8622 12.0199 70.6376 12.8225C70.2896 12.9107 69.9213 12.8657 69.6049 12.6962C69.2886 12.5267 69.047 12.245 68.9277 11.9065C68.8612 11.7178 68.8348 11.5172 68.8502 11.3177C68.8657 11.1183 68.9227 10.9242 69.0175 10.748C69.1123 10.5718 69.2429 10.4174 69.4009 10.2946C69.5589 10.1718 69.7408 10.0833 69.9349 10.0349C73.8131 9.06725 77.9074 9.48504 81.5102 11.2161C85.113 12.9471 87.9978 15.8825 89.6657 19.5149C89.7484 19.6966 89.7924 19.8934 89.7948 20.093C89.7972 20.2926 89.7581 20.4905 89.6797 20.674C89.6014 20.8576 89.4857 21.0229 89.34 21.1592C89.1943 21.2956 89.0217 21.4001 88.8334 21.4661H88.8293Z" fill="#F1F3F2"/>
<path d="M82.402 22.4108C81.4727 20.5913 79.9723 19.1269 78.1307 18.242C76.2892 17.3571 74.2083 17.1007 72.207 17.512C71.867 17.5822 71.5129 17.5265 71.2109 17.3551C70.9089 17.1837 70.6794 16.9083 70.5653 16.5803C70.4973 16.3882 70.4711 16.1838 70.4883 15.9807C70.5055 15.7776 70.5659 15.5806 70.6653 15.4027C70.7648 15.2248 70.901 15.0701 71.065 14.9491C71.2289 14.828 71.4168 14.7433 71.616 14.7006C74.2356 14.1611 76.9599 14.4962 79.3707 15.6544C81.7815 16.8127 83.7455 18.73 84.9614 21.1122C85.0526 21.2946 85.1038 21.4942 85.1117 21.6979C85.1196 21.9016 85.084 22.1046 85.0073 22.2934C84.9305 22.4822 84.8144 22.6525 84.6667 22.793C84.5189 22.9334 84.3429 23.0407 84.1505 23.1077C83.824 23.2225 83.467 23.2151 83.1456 23.087C82.8242 22.9589 82.56 22.7187 82.402 22.4108Z" fill="#F1F3F2"/>
<path d="M79.428 24.7651C79.1258 24.8706 78.7969 24.8723 78.4936 24.7699C78.1903 24.6674 77.9298 24.4667 77.7535 24.1995C77.3154 23.5445 76.7096 23.0189 75.9993 22.6776C75.2889 22.3363 74.5001 22.1918 73.7149 22.259C73.396 22.2885 73.0764 22.2107 72.8068 22.0379C72.5372 21.8651 72.333 21.6072 72.2267 21.3052C72.154 21.1 72.129 20.8809 72.1536 20.6646C72.1781 20.4483 72.2516 20.2404 72.3685 20.0567C72.4853 19.8731 72.6424 19.7184 72.8279 19.6045C73.0134 19.4905 73.2224 19.4203 73.4391 19.3992C74.7462 19.2821 76.0606 19.5203 77.2435 20.0885C78.4265 20.6568 79.4339 21.534 80.1594 22.6276C80.2775 22.8098 80.3526 23.0165 80.3792 23.2321C80.4058 23.4476 80.3831 23.6664 80.3128 23.8719C80.2426 24.0774 80.1266 24.2643 79.9736 24.4184C79.8206 24.5726 79.6346 24.69 79.4297 24.7618L79.428 24.7651Z" fill="#F1F3F2"/>
</g>
<defs>
<clipPath id="clip0_229_32570">
<rect width="152.02" height="149.97" fill="white" transform="translate(0 0.074707)"/>
</clipPath>
</defs>
</svg>
