<svg width="22" height="22" viewBox="0 0 22 22" fill="none" xmlns="http://www.w3.org/2000/svg">
<path d="M14 21C19 21 21 19 21 14V8C21 3 19 1 14 1H8C3 1 1 3 1 8V14C1 19 3 21 8 21H14Z" stroke="#039EA2" stroke-width="1.5" stroke-linecap="round" stroke-linejoin="round"/>
<path d="M11.1032 13.6403L8.51023 16.2153C8.40035 16.3157 8.27048 16.3916 8.12914 16.4381C7.98781 16.4847 7.83823 16.5008 7.69023 16.4853L6.49023 16.3253C6.28657 16.2878 6.0991 16.1893 5.95267 16.0429C5.80623 15.8965 5.70774 15.709 5.67023 15.5053L5.51023 14.3153C5.49869 14.1676 5.51662 14.019 5.56297 13.8783C5.60932 13.7375 5.68317 13.6073 5.78023 13.4953L8.36023 10.9153C8.07906 10.0265 8.10399 9.06904 8.43104 8.19604C8.75809 7.32303 9.36838 6.58487 10.1643 6.09956C10.9603 5.61424 11.896 5.40978 12.8219 5.51888C13.7477 5.62797 14.6103 6.0443 15.2716 6.70133C15.933 7.35837 16.355 8.21816 16.4702 9.14327C16.5854 10.0684 16.3871 11.0054 15.907 11.8046C15.427 12.6037 14.6928 13.2188 13.822 13.5516C12.9512 13.8844 11.9939 13.9157 11.1032 13.6403V13.6403Z" stroke="#039EA2" stroke-width="1.5" stroke-miterlimit="10" stroke-linecap="round" stroke-linejoin="round"/>
<path d="M9.4501 15.2799L8.6001 14.4199" stroke="#039EA2" stroke-width="1.5" stroke-miterlimit="10" stroke-linecap="round" stroke-linejoin="round"/>
<path d="M12.395 9.7002H12.4" stroke="#039EA2" stroke-width="2" stroke-linecap="round" stroke-linejoin="round"/>
</svg>
