<svg width="20" height="18" viewBox="0 0 20 18" fill="none" xmlns="http://www.w3.org/2000/svg">
<g clip-path="url(#clip0_470_2945)">
<path d="M10.5 18C9.75832 18 9.0333 17.7801 8.41661 17.368C7.79993 16.956 7.31928 16.3703 7.03545 15.6851C6.75163 14.9998 6.67736 14.2458 6.82206 13.5184C6.96675 12.791 7.3239 12.1228 7.84835 11.5984C8.3728 11.0739 9.04098 10.7168 9.76841 10.5721C10.4958 10.4274 11.2498 10.5016 11.9351 10.7855C12.6203 11.0693 13.206 11.5499 13.618 12.1666C14.0301 12.7833 14.25 13.5083 14.25 14.25C14.25 15.2446 13.8549 16.1984 13.1517 16.9017C12.4484 17.6049 11.4946 18 10.5 18ZM10.5 12C10.055 12 9.61998 12.132 9.24997 12.3792C8.87996 12.6264 8.59157 12.9778 8.42128 13.389C8.25098 13.8001 8.20642 14.2525 8.29323 14.689C8.38005 15.1254 8.59434 15.5263 8.90901 15.841C9.22368 16.1557 9.62459 16.37 10.061 16.4568C10.4975 16.5436 10.9499 16.499 11.361 16.3287C11.7722 16.1584 12.1236 15.87 12.3708 15.5C12.618 15.13 12.75 14.695 12.75 14.25C12.75 13.6533 12.513 13.081 12.091 12.659C11.669 12.2371 11.0967 12 10.5 12Z" fill="white"/>
<path d="M13.5 14.25C13.3011 14.25 13.1103 14.171 12.9697 14.0303C12.829 13.8897 12.75 13.6989 12.75 13.5V0H13.5C14.5902 0.0451647 15.6475 0.386777 16.558 0.988071C17.4685 1.58937 18.1979 2.42758 18.6675 3.4125C19.1678 4.40018 19.3505 5.51834 19.1908 6.61389C19.031 7.70944 18.5365 8.72884 17.775 9.5325C17.7051 9.60243 17.6221 9.6579 17.5307 9.69575C17.4393 9.73359 17.3414 9.75307 17.2425 9.75307C17.1436 9.75307 17.0457 9.73359 16.9543 9.69575C16.8629 9.6579 16.7799 9.60243 16.71 9.5325C16.6401 9.46257 16.5846 9.37956 16.5468 9.28819C16.5089 9.19682 16.4894 9.09889 16.4894 9C16.4894 8.90111 16.5089 8.80318 16.5468 8.71181C16.5846 8.62045 16.6401 8.53743 16.71 8.4675C17.2475 7.88741 17.5939 7.15634 17.7026 6.37304C17.8112 5.58974 17.6768 4.79197 17.3175 4.0875C17.0236 3.47063 16.5945 2.92785 16.0622 2.4994C15.5299 2.07094 14.9079 1.76782 14.2425 1.6125V13.5C14.2425 13.6976 14.1645 13.8873 14.0255 14.0277C13.8865 14.1681 13.6976 14.248 13.5 14.25Z" fill="white"/>
<path d="M7.5 3.75H0.75C0.551088 3.75 0.360322 3.67098 0.219669 3.53033C0.0790171 3.38968 0 3.19891 0 3C0 2.80109 0.0790171 2.61032 0.219669 2.46967C0.360322 2.32902 0.551088 2.25 0.75 2.25H7.5C7.69891 2.25 7.88968 2.32902 8.03033 2.46967C8.17098 2.61032 8.25 2.80109 8.25 3C8.25 3.19891 8.17098 3.38968 8.03033 3.53033C7.88968 3.67098 7.69891 3.75 7.5 3.75Z" fill="white"/>
<path d="M7.5 7.5H0.75C0.551088 7.5 0.360322 7.42098 0.219669 7.28033C0.0790171 7.13968 0 6.94891 0 6.75C0 6.55109 0.0790171 6.36032 0.219669 6.21967C0.360322 6.07902 0.551088 6 0.75 6H7.5C7.69891 6 7.88968 6.07902 8.03033 6.21967C8.17098 6.36032 8.25 6.55109 8.25 6.75C8.25 6.94891 8.17098 7.13968 8.03033 7.28033C7.88968 7.42098 7.69891 7.5 7.5 7.5Z" fill="white"/>
<path d="M7.5 11.25H0.75C0.551088 11.25 0.360322 11.171 0.219669 11.0303C0.0790171 10.8897 0 10.6989 0 10.5C0 10.3011 0.0790171 10.1103 0.219669 9.96967C0.360322 9.82902 0.551088 9.75 0.75 9.75H7.5C7.69891 9.75 7.88968 9.82902 8.03033 9.96967C8.17098 10.1103 8.25 10.3011 8.25 10.5C8.25 10.6989 8.17098 10.8897 8.03033 11.0303C7.88968 11.171 7.69891 11.25 7.5 11.25Z" fill="white"/>
</g>
<defs>
<clipPath id="clip0_470_2945">
<rect width="19.245" height="18" fill="white"/>
</clipPath>
</defs>
</svg>
