<svg width="124" height="119" viewBox="0 0 124 119" fill="none" xmlns="http://www.w3.org/2000/svg">
<g clip-path="url(#clip0_229_32569)">
<path d="M56.632 0.0682907C56.632 0.0682907 35.3804 1.14387 21.6805 19.1297C7.98074 37.1156 7.58754 61.6979 6.75567 81.5945C5.9238 101.491 17.5862 116.562 34.6817 118.551C51.7772 120.539 56.385 105.254 75.5634 96.6526C94.7418 88.0512 101.134 88.6686 112.607 71.0077C124.081 53.3468 116.055 26.2006 95.2552 12.2766C74.4553 -1.64743 56.632 0.0682907 56.632 0.0682907Z" fill="#C6FF00"/>
<path opacity="0.7" d="M56.632 0.0682907C56.632 0.0682907 35.3804 1.14387 21.6805 19.1297C7.98074 37.1156 7.58754 61.6979 6.75567 81.5945C5.9238 101.491 17.5862 116.562 34.6817 118.551C51.7772 120.539 56.385 105.254 75.5634 96.6526C94.7418 88.0512 101.134 88.6686 112.607 71.0077C124.081 53.3468 116.055 26.2006 95.2552 12.2766C74.4553 -1.64743 56.632 0.0682907 56.632 0.0682907Z" fill="white"/>
<path d="M87.3428 9.24487H42.6657C40.7562 9.24487 39.2083 10.7928 39.2083 12.7023V97.5917C39.2083 99.5012 40.7562 101.049 42.6657 101.049H87.3428C89.2523 101.049 90.8002 99.5012 90.8002 97.5917V12.7023C90.8002 10.7928 89.2523 9.24487 87.3428 9.24487Z" fill="#263238" stroke="#263238" stroke-linecap="round" stroke-linejoin="round"/>
<path d="M53.415 14.47H46.6398C46.3666 14.47 46.1046 14.3615 45.9114 14.1683C45.7183 13.9751 45.6097 13.7131 45.6097 13.4399C45.6097 13.3048 45.6364 13.171 45.6882 13.0462C45.74 12.9214 45.8159 12.8081 45.9116 12.7127C46.0073 12.6173 46.1209 12.5417 46.2459 12.4903C46.3708 12.4389 46.5047 12.4127 46.6398 12.4131H53.415C53.5501 12.4127 53.684 12.4389 53.8089 12.4903C53.9339 12.5417 54.0475 12.6173 54.1432 12.7127C54.2389 12.8081 54.3148 12.9214 54.3666 13.0462C54.4184 13.171 54.4451 13.3048 54.4451 13.4399C54.4451 13.7131 54.3366 13.9751 54.1434 14.1683C53.9502 14.3615 53.6882 14.47 53.415 14.47Z" stroke="white" stroke-width="0.5" stroke-miterlimit="10" stroke-linecap="round"/>
<path d="M63.4006 14.47H56.6222C56.3495 14.4692 56.0884 14.3602 55.8959 14.1672C55.7034 13.9741 55.5953 13.7126 55.5953 13.4399C55.5953 13.1676 55.7035 12.9064 55.8961 12.7138C56.0887 12.5213 56.3498 12.4131 56.6222 12.4131H63.4006C63.5357 12.4127 63.6696 12.4389 63.7945 12.4903C63.9195 12.5417 64.0331 12.6173 64.1288 12.7127C64.2245 12.8081 64.3004 12.9214 64.3522 13.0462C64.404 13.171 64.4307 13.3048 64.4307 13.4399C64.4307 13.7131 64.3221 13.9751 64.129 14.1683C63.9358 14.3615 63.6738 14.47 63.4006 14.47Z" stroke="white" stroke-width="0.5" stroke-miterlimit="10" stroke-linecap="round"/>
<path d="M73.3993 14.47H66.6078C66.3346 14.47 66.0726 14.3615 65.8795 14.1683C65.6863 13.9751 65.5778 13.7131 65.5778 13.4399C65.5778 13.3048 65.6044 13.171 65.6562 13.0462C65.708 12.9214 65.784 12.8081 65.8797 12.7127C65.9754 12.6173 66.0889 12.5417 66.2139 12.4903C66.3388 12.4389 66.4727 12.4127 66.6078 12.4131H73.3993C73.5342 12.4127 73.6679 12.4389 73.7927 12.4904C73.9175 12.5418 74.0309 12.6174 74.1263 12.7129C74.2217 12.8083 74.2973 12.9217 74.3488 13.0465C74.4002 13.1712 74.4265 13.305 74.4261 13.4399C74.4265 13.575 74.4003 13.7089 74.3489 13.8339C74.2975 13.9588 74.2219 14.0724 74.1265 14.1681C74.0311 14.2638 73.9178 14.3397 73.793 14.3915C73.6682 14.4433 73.5344 14.47 73.3993 14.47Z" stroke="white" stroke-width="0.5" stroke-miterlimit="10" stroke-linecap="round"/>
<path d="M83.3686 14.47H76.5935C76.3203 14.47 76.0583 14.3615 75.8651 14.1683C75.6719 13.9751 75.5634 13.7131 75.5634 13.4399C75.5634 13.3048 75.59 13.171 75.6418 13.0462C75.6936 12.9214 75.7696 12.8081 75.8653 12.7127C75.961 12.6173 76.0745 12.5417 76.1995 12.4903C76.3245 12.4389 76.4583 12.4127 76.5935 12.4131H83.3686C83.5037 12.4127 83.6376 12.4389 83.7626 12.4903C83.8875 12.5417 84.0011 12.6173 84.0968 12.7127C84.1925 12.8081 84.2684 12.9214 84.3202 13.0462C84.372 13.171 84.3987 13.3048 84.3987 13.4399C84.3987 13.5752 84.3721 13.7091 84.3203 13.8341C84.2685 13.9591 84.1926 14.0727 84.097 14.1683C84.0013 14.264 83.8878 14.3398 83.7628 14.3916C83.6378 14.4434 83.5039 14.47 83.3686 14.47Z" stroke="white" stroke-width="0.5" stroke-miterlimit="10" stroke-linecap="round"/>
<path d="M58.1071 57.5679V54.5588L55.4978 56.0633L58.1071 57.5679Z" fill="white"/>
<path d="M55.108 54.4841H54.6335V57.5614H55.108V54.4841Z" fill="white"/>
<path d="M71.9045 57.5679L74.5106 56.0633L71.9045 54.5588V57.5679Z" fill="white"/>
<path d="M75.3782 54.4841H74.9038V57.5614H75.3782V54.4841Z" fill="white"/>
<path d="M65.1585 51.6895C64.3657 51.6907 63.5911 51.927 62.9325 52.3684C62.274 52.8098 61.761 53.4365 61.4585 54.1693C61.156 54.9021 61.0775 55.7082 61.233 56.4856C61.3885 57.263 61.7709 57.9769 62.3319 58.537C62.8929 59.0972 63.6075 59.4784 64.3851 59.6326C65.1628 59.7868 65.9687 59.707 66.701 59.4033C67.4333 59.0996 68.0592 58.5857 68.4995 57.9264C68.9398 57.2671 69.1749 56.4921 69.1749 55.6993C69.1753 55.1721 69.0717 54.6499 68.8699 54.1628C68.6681 53.6757 68.3722 53.2332 67.9991 52.8607C67.6259 52.4881 67.183 52.1929 66.6955 51.992C66.2081 51.791 65.6858 51.6882 65.1585 51.6895ZM64.5899 57.8115H63.3973V53.5872H64.5899V57.8115ZM66.9197 57.8115H65.7272V53.5872H66.9197V57.8115Z" fill="white"/>
<path d="M67.2368 39.9678C72.7041 38.7347 76.1366 33.3029 74.9035 27.8356C73.6704 22.3682 68.2386 18.9357 62.7713 20.1689C57.304 21.402 53.8715 26.8337 55.1046 32.3011C56.3377 37.7684 61.7695 41.2009 67.2368 39.9678Z" fill="#C6FF00"/>
<path d="M69.4641 23.1949C69.4644 23.0923 69.4404 22.9912 69.3941 22.8997C69.3478 22.8082 69.2805 22.729 69.1977 22.6685C69.1162 22.6069 69.0214 22.5654 68.9209 22.5474C68.8204 22.5293 68.7171 22.5352 68.6193 22.5645L61.7011 24.6117C61.5645 24.6507 61.4444 24.7336 61.3593 24.8474C61.2742 24.9613 61.2287 25.0999 61.23 25.2421V33.1383C60.832 32.9865 60.3965 32.9637 59.9849 33.073C59.5733 33.1823 59.2064 33.4182 58.9363 33.7474C58.6661 34.0766 58.5062 34.4824 58.4793 34.9075C58.4524 35.3325 58.5597 35.7552 58.7862 36.1159C59.0127 36.4766 59.3468 36.7569 59.7414 36.9173C60.1359 37.0776 60.5708 37.1099 60.9847 37.0096C61.3986 36.9092 61.7705 36.6813 62.0477 36.3581C62.325 36.0348 62.4936 35.6326 62.5297 35.2082H62.5558V29.1869L68.1513 27.5297V31.0229C67.9233 30.9343 67.6811 30.888 67.4365 30.8864C67.0342 30.8864 66.6409 31.0057 66.3063 31.2292C65.9718 31.4527 65.7111 31.7704 65.5571 32.1421C65.4032 32.5138 65.3629 32.9228 65.4414 33.3174C65.5199 33.712 65.7136 34.0745 65.9981 34.359C66.2826 34.6434 66.645 34.8372 67.0396 34.9157C67.4342 34.9942 67.8432 34.9539 68.2149 34.7999C68.5866 34.646 68.9043 34.3852 69.1278 34.0507C69.3513 33.7162 69.4706 33.3229 69.4706 32.9206C69.4706 32.9206 69.4706 32.8978 69.4706 32.8881L69.4641 23.1949ZM68.1644 26.1584L62.5687 27.8156V25.7327L68.1644 24.0755V26.1584Z" fill="#263238"/>
<path d="M60.1869 44.4854H69.3927" stroke="white" stroke-miterlimit="10" stroke-linecap="round"/>
<path d="M57.8018 46.3279H71.7745" stroke="white" stroke-miterlimit="10" stroke-linecap="round"/>
<path d="M82.5758 70.9979C83.7782 70.9979 84.753 70.0231 84.753 68.8207C84.753 67.6183 83.7782 66.6436 82.5758 66.6436C81.3734 66.6436 80.3987 67.6183 80.3987 68.8207C80.3987 70.0231 81.3734 70.9979 82.5758 70.9979Z" fill="white"/>
<path d="M81.6432 70.3609L84.2493 68.8531L81.6432 67.3486V70.3609Z" fill="#263238"/>
<path d="M45.2588 68.967H54.6823" stroke="white" stroke-miterlimit="10" stroke-linecap="round"/>
<path d="M45.2588 67.1797H51.7577" stroke="white" stroke-miterlimit="10" stroke-linecap="round"/>
<path d="M57.4443 69.2334H78.566" stroke="white" stroke-miterlimit="10" stroke-linecap="round"/>
<path d="M82.5758 77.4969C83.7782 77.4969 84.753 76.5221 84.753 75.3197C84.753 74.1173 83.7782 73.1426 82.5758 73.1426C81.3734 73.1426 80.3987 74.1173 80.3987 75.3197C80.3987 76.5221 81.3734 77.4969 82.5758 77.4969Z" fill="white"/>
<path d="M81.6432 76.8599L84.2493 75.3522L81.6432 73.8477V76.8599Z" fill="#263238"/>
<path d="M45.2588 75.4658H54.6823" stroke="white" stroke-miterlimit="10" stroke-linecap="round"/>
<path d="M45.2588 73.6787H51.7577" stroke="white" stroke-miterlimit="10" stroke-linecap="round"/>
<path d="M57.4443 75.7324H78.566" stroke="white" stroke-miterlimit="10" stroke-linecap="round"/>
<path d="M82.5758 83.9959C83.7782 83.9959 84.753 83.0212 84.753 81.8188C84.753 80.6163 83.7782 79.6416 82.5758 79.6416C81.3734 79.6416 80.3987 80.6163 80.3987 81.8188C80.3987 83.0212 81.3734 83.9959 82.5758 83.9959Z" fill="white"/>
<path d="M81.6432 83.3589L84.2493 81.8512L81.6432 80.3467V83.3589Z" fill="#263238"/>
<path d="M45.2588 81.9648H54.6823" stroke="white" stroke-miterlimit="10" stroke-linecap="round"/>
<path d="M45.2588 80.1777H51.7577" stroke="white" stroke-miterlimit="10" stroke-linecap="round"/>
<path d="M57.4443 82.2314H78.566" stroke="white" stroke-miterlimit="10" stroke-linecap="round"/>
<path d="M82.5758 90.4947C83.7782 90.4947 84.753 89.5199 84.753 88.3175C84.753 87.1151 83.7782 86.1404 82.5758 86.1404C81.3734 86.1404 80.3987 87.1151 80.3987 88.3175C80.3987 89.5199 81.3734 90.4947 82.5758 90.4947Z" fill="white"/>
<path d="M81.6432 89.858L84.2493 88.3502L81.6432 86.8457V89.858Z" fill="#263238"/>
<path d="M45.2588 88.4639H54.6823" stroke="white" stroke-miterlimit="10" stroke-linecap="round"/>
<path d="M45.2588 86.6765H51.7577" stroke="white" stroke-miterlimit="10" stroke-linecap="round"/>
<path d="M57.4443 88.7302H78.566" stroke="white" stroke-miterlimit="10" stroke-linecap="round"/>
<path d="M82.5758 96.9937C83.7782 96.9937 84.753 96.019 84.753 94.8166C84.753 93.6142 83.7782 92.6394 82.5758 92.6394C81.3734 92.6394 80.3987 93.6142 80.3987 94.8166C80.3987 96.019 81.3734 96.9937 82.5758 96.9937Z" fill="white"/>
<path d="M81.6432 96.3567L84.2493 94.849L81.6432 93.3445V96.3567Z" fill="#263238"/>
<path d="M45.2588 94.9629H54.6823" stroke="white" stroke-miterlimit="10" stroke-linecap="round"/>
<path d="M45.2588 93.1755H51.7577" stroke="white" stroke-miterlimit="10" stroke-linecap="round"/>
<path d="M57.4443 95.2292H78.566" stroke="white" stroke-miterlimit="10" stroke-linecap="round"/>
<path d="M80.3402 17.4368H49.6683V49.8893H80.3402V17.4368Z" stroke="#C6FF00" stroke-miterlimit="10"/>
<path d="M45.4504 63.7515H84.5612" stroke="#C6FF00" stroke-miterlimit="10"/>
<path d="M106.463 90.7871C105.64 91.7368 105.086 92.8889 104.857 94.1244L101.634 95.9311V87.4044L101.696 87.4889L106.83 83.7325C107.48 83.8333 109.969 84.116 112.24 82.8942C114.876 81.4741 116.79 76.6097 116.79 76.6097C116.79 76.6097 110.505 75.9013 108.377 78.5366C107.212 79.9047 106.591 81.6534 106.632 83.4498L101.624 87.1152V80.795C102.562 80.359 103.391 79.7195 104.051 78.923C104.711 78.1266 105.185 77.1931 105.439 76.1905C106.349 72.6421 101.484 65.6492 101.484 65.6492C101.484 65.6492 96.4283 72.8468 97.4454 76.4959C98.3032 79.5862 100.61 80.5643 101.296 80.7917V94.4721L97.6826 91.4598C97.7671 90.7384 97.8288 88.4833 95.8239 86.2249C93.39 83.4888 86.9041 83.6903 86.9041 83.6903C86.9041 83.6903 89.6466 89.1657 91.9667 90.9789C94.0042 92.5744 96.815 91.9245 97.4909 91.7327L101.293 94.901V99.0603H95.6452L97.949 113.469H104.864L107.171 99.0603H101.647V96.3113L105.186 94.3258C106.047 94.563 108.455 95.057 110.732 93.9196C113.569 92.4996 115.899 89.4581 115.899 89.4581C115.899 89.4581 109.098 87.7456 106.463 90.7871Z" fill="#C6FF00"/>
<path opacity="0.4" d="M106.463 90.7871C105.64 91.7368 105.086 92.8889 104.857 94.1244L101.634 95.9311V87.4044L101.696 87.4889L106.83 83.7325C107.48 83.8333 109.969 84.116 112.24 82.8942C114.876 81.4741 116.79 76.6097 116.79 76.6097C116.79 76.6097 110.505 75.9013 108.377 78.5366C107.212 79.9047 106.591 81.6534 106.632 83.4498L101.624 87.1152V80.795C102.562 80.359 103.391 79.7195 104.051 78.923C104.711 78.1266 105.185 77.1931 105.439 76.1905C106.349 72.6421 101.484 65.6492 101.484 65.6492C101.484 65.6492 96.4283 72.8468 97.4454 76.4959C98.3032 79.5862 100.61 80.5643 101.296 80.7917V94.4721L97.6826 91.4598C97.7671 90.7384 97.8288 88.4833 95.8239 86.2249C93.39 83.4888 86.9041 83.6903 86.9041 83.6903C86.9041 83.6903 89.6466 89.1657 91.9667 90.9789C94.0042 92.5744 96.815 91.9245 97.4909 91.7327L101.293 94.901V99.0603H95.6452L97.949 113.469H104.864L107.171 99.0603H101.647V96.3113L105.186 94.3258C106.047 94.563 108.455 95.057 110.732 93.9196C113.569 92.4996 115.899 89.4581 115.899 89.4581C115.899 89.4581 109.098 87.7456 106.463 90.7871Z" fill="white"/>
<path d="M34.1422 30.4412C34.347 31.5038 33.8628 32.4916 33.0569 32.6476C32.251 32.8035 31.4322 32.0692 31.2275 31.0066C31.0227 29.944 31.5069 28.9529 32.3128 28.7969C33.1187 28.641 33.9343 29.3786 34.1422 30.4412Z" fill="#263238" stroke="#263238" stroke-width="0.5" stroke-linecap="round" stroke-linejoin="round"/>
<path d="M26.4085 34.1553C26.4085 34.1553 26.2493 36.4851 26.1973 37.4925C26.1872 37.9557 26.1339 38.417 26.0381 38.8703L28.7904 40.5113L29.905 36.7126L26.4085 34.1553Z" stroke="#263238" stroke-width="0.5" stroke-linecap="round" stroke-linejoin="round"/>
<path d="M29.8822 24.7805C28.7421 24.4045 27.5174 24.3673 26.3565 24.6733C24.5011 25.0957 23.4937 26.8439 23.3345 29.0146C23.1753 31.1852 24.9787 33.7295 25.5084 34.3145C26.0381 34.8994 27.8383 36.5371 29.4273 37.2812C31.0163 38.0254 32.0269 36.9563 32.7125 35.7442C33.3981 34.5322 33.2942 32.6702 33.2942 30.818C33.2942 29.086 32.7872 27.2436 31.6012 25.9438C31.1322 25.421 30.5419 25.0216 29.8822 24.7805Z" fill="white" stroke="#263238" stroke-width="0.5" stroke-linecap="round" stroke-linejoin="round"/>
<path d="M31.7051 31.2405C31.7051 31.2405 31.9716 33.7296 31.9716 33.944C31.9716 34.1585 31.0162 33.8888 31.0162 33.8888" stroke="#263238" stroke-width="0.5" stroke-linecap="round" stroke-linejoin="round"/>
<path d="M28.7384 32.7775C29.0385 32.8471 29.3513 32.8398 29.6478 32.7563C29.9443 32.6728 30.215 32.5158 30.4346 32.2998" stroke="#263238" stroke-width="0.5" stroke-linecap="round" stroke-linejoin="round"/>
<path d="M31.9717 31.7182C31.9717 31.7182 32.9238 31.9294 33.135 31.0293" stroke="#263238" stroke-width="0.5" stroke-linecap="round" stroke-linejoin="round"/>
<path d="M28.4752 31.559C28.4896 31.2078 28.6428 30.8767 28.9011 30.6385C29.1595 30.4003 29.5018 30.2743 29.853 30.2884" stroke="#263238" stroke-width="0.5" stroke-linecap="round" stroke-linejoin="round"/>
<path d="M31.6532 30.1292C31.8098 29.9563 32.017 29.8375 32.2452 29.7896C32.4734 29.7418 32.7109 29.7674 32.9237 29.8627" stroke="#263238" stroke-width="0.5" stroke-linecap="round" stroke-linejoin="round"/>
<path d="M29.4272 34.5776C29.4272 34.5776 29.7522 35.3738 31.2275 34.9481" stroke="#263238" stroke-width="0.5" stroke-linecap="round" stroke-linejoin="round"/>
<path d="M22.4636 29.7588C24.3516 29.7588 25.8821 28.2283 25.8821 26.3403C25.8821 24.4524 24.3516 22.9219 22.4636 22.9219C20.5757 22.9219 19.0452 24.4524 19.0452 26.3403C19.0452 28.2283 20.5757 29.7588 22.4636 29.7588Z" fill="#263238" stroke="#263238" stroke-linecap="round" stroke-linejoin="round"/>
<path d="M31.6012 25.9373C31.1314 25.4169 30.5412 25.0197 29.8822 24.7805C28.7421 24.4045 27.5174 24.3673 26.3565 24.6733C24.501 25.0957 23.4937 26.8439 23.3345 29.0146C23.2175 30.6393 24.2021 32.485 24.9235 33.5476C25.1915 33.0682 25.3377 32.5304 25.3492 31.9813C25.5084 30.1291 25.7196 27.757 26.6717 27.3736C27.6238 26.9901 29.0568 27.5848 30.0089 27.3736C30.961 27.1624 30.3826 26.4735 31.4419 26.4735C31.6616 26.4759 31.88 26.5064 32.0918 26.5644C31.944 26.3436 31.7799 26.134 31.6012 25.9373Z" fill="#263238" stroke="#263238" stroke-linecap="round" stroke-linejoin="round"/>
<path d="M21.4823 23.1362C21.4823 23.1362 19.0452 23.1362 17.8787 26.2622" stroke="#263238" stroke-linecap="round" stroke-linejoin="round"/>
<path d="M26.9902 32.2478C27.5783 33.1577 27.4971 34.2528 26.8114 34.6979C26.1258 35.1431 25.0892 34.7694 24.5011 33.8596C23.9129 32.9497 23.9941 31.8514 24.6798 31.4062C25.3654 30.9611 26.402 31.338 26.9902 32.2478Z" fill="#263238" stroke="#263238" stroke-linecap="round" stroke-linejoin="round"/>
<path d="M26.4183 32.68C26.961 33.5184 26.8862 34.5322 26.2493 34.9547C25.6124 35.3771 24.6636 35.0197 24.1209 34.1813C23.5782 33.3429 23.653 32.3291 24.2866 31.9067C24.9203 31.4842 25.8756 31.8384 26.4183 32.68Z" fill="white" stroke="#263238" stroke-width="0.5" stroke-linecap="round" stroke-linejoin="round"/>
<path d="M24.6798 31.4061C24.6798 31.4061 23.705 27.9552 25.3492 25.9437C26.9935 23.9323 29.4306 24.4522 29.4306 24.4522" stroke="white" stroke-linecap="round" stroke-linejoin="round"/>
<path d="M22.5416 100.11C22.5416 100.11 23.1915 110.596 23.1915 111.444C23.1915 112.292 22.8666 113.033 23.9357 113.299C25.0047 113.566 26.3175 112.929 27.2176 113.248C28.1177 113.566 29.6027 113.511 30.5029 113.351C31.403 113.192 32.0918 112.344 31.5622 112.292C31.0325 112.24 28.5434 111.181 27.5361 110.544C26.5287 109.907 26.2493 109.501 26.2493 109.501L26.5742 100.178L22.5416 100.11Z" fill="white" stroke="#263238" stroke-linecap="round" stroke-linejoin="round"/>
<path d="M31.5459 112.292C31.0163 112.24 28.5272 111.181 27.5198 110.544C26.5125 109.907 26.2493 109.501 26.2493 109.501C26.2493 109.501 25.5604 109.871 25.5994 110.349C25.6323 110.635 25.6855 110.919 25.7586 111.197C24.8689 111.207 23.9838 111.069 23.1395 110.788C23.1395 111.113 23.1623 111.363 23.1623 111.46C23.1623 112.309 22.8373 113.049 23.9064 113.316C24.9755 113.582 26.2883 112.945 27.1884 113.264C28.0885 113.582 29.5735 113.527 30.4736 113.368C31.3737 113.209 32.0756 112.344 31.5459 112.292Z" fill="#263238" stroke="#263238" stroke-linecap="round" stroke-linejoin="round"/>
<path d="M31.6987 112.361C30.8154 112.805 29.8338 113.019 28.8456 112.981C28.0495 112.929 26.571 112.452 25.138 112.77C24.4704 112.904 23.778 112.836 23.1493 112.575C23.198 112.9 23.38 113.163 23.9194 113.3C24.9787 113.563 26.3013 112.929 27.2014 113.248C28.1015 113.566 29.5865 113.511 30.4866 113.352C31.2567 113.215 31.8709 112.578 31.6987 112.361Z" fill="white" stroke="#263238" stroke-linecap="round" stroke-linejoin="round"/>
<path d="M30.5386 65.0383C30.5386 65.0383 30.3274 74.8388 30.0642 78.124C29.801 81.4092 29.1641 90.0431 28.5792 93.4323C28.2112 95.5441 27.7164 97.6319 27.0975 99.6843C25.9941 99.8711 24.8789 99.9797 23.7602 100.009C23.0675 100.036 22.374 99.9826 21.6936 99.85C21.6936 99.85 21.4823 97.2017 21.7456 95.5054C22.0088 93.8092 22.5937 88.4086 22.3305 85.601C22.0673 82.7935 22.2752 73.8379 20.9527 71.0856C19.6301 68.3333 19.6789 67.2187 20.6862 66.5818C21.6936 65.9449 30.5386 65.0383 30.5386 65.0383Z" fill="#263238" stroke="#263238" stroke-linecap="round" stroke-linejoin="round"/>
<path d="M19.2564 99.4275L14.3302 104.627C14.3302 104.627 13.1636 106.004 12.634 108.601C12.1043 111.197 12.4748 112.416 12.0523 112.52C11.6299 112.624 11.2562 112.575 10.4633 110.719C9.67045 108.864 9.29677 107.912 9.34876 106.534C9.40075 105.156 9.29676 102.878 9.40399 102.615C9.51123 102.352 12.2115 102.138 12.2115 102.138L16.9265 96.5029L19.2564 99.4275Z" fill="white" stroke="#263238" stroke-linecap="round" stroke-linejoin="round"/>
<path d="M12.3708 104.24L12.1108 102.131C11.6299 102.17 9.51124 102.362 9.404 102.599C9.29677 102.836 9.40401 105.14 9.34877 106.518C9.29353 107.896 9.67371 108.848 10.4633 110.703C11.253 112.559 11.6267 112.611 12.0523 112.503C12.478 112.396 12.1043 111.181 12.634 108.585C13.1637 105.988 14.3302 104.627 14.3302 104.627L14.3562 104.601C14.1093 104.507 13.8517 104.445 13.5893 104.415L12.3708 104.24Z" fill="#263238" stroke="#263238" stroke-linecap="round" stroke-linejoin="round"/>
<path d="M11.8963 112.533C11.0449 110.993 10.4697 109.316 10.1969 107.577C9.98595 105.859 9.90774 104.128 9.96293 102.398C9.65422 102.456 9.43325 102.524 9.404 102.599C9.29677 102.862 9.40401 105.14 9.34877 106.518C9.29353 107.896 9.67371 108.848 10.4633 110.703C11.1587 112.328 11.5292 112.569 11.8963 112.533Z" fill="white" stroke="#263238" stroke-linecap="round" stroke-linejoin="round"/>
<path d="M14.3303 65.9385C14.3303 65.9385 13.3229 69.0645 14.3303 71.6088C15.3376 74.1532 21.7326 86.9691 21.7326 86.9691L22.0575 87.8725L17.0858 95.447C17.3817 96.395 17.8883 97.2637 18.5676 97.9881C19.0262 98.5021 19.5226 98.9812 20.0526 99.4211C20.0526 99.4211 26.6198 91.9473 28.42 89.9976C30.2202 88.0479 29.8531 85.3866 29.4794 84.0121C29.1057 82.6376 24.0235 67.7484 24.0235 67.7484C24.0235 67.7484 17.6155 67.9077 14.3303 65.9385Z" fill="#263238" stroke="#263238" stroke-linecap="round" stroke-linejoin="round"/>
<path d="M25.4271 72.3367L29.1088 83.3817" stroke="white" stroke-linecap="round" stroke-linejoin="round"/>
<path d="M24.722 70.2212L25.0795 71.287" stroke="white" stroke-linecap="round" stroke-linejoin="round"/>
<path d="M28.4232 89.9912L22.4604 96.9353" stroke="white" stroke-linecap="round" stroke-linejoin="round"/>
<path d="M14.3821 64.2455C14.3821 64.2455 13.482 65.6752 14.0117 66.5201C14.5413 67.365 18.145 68.4698 21.1605 68.4698C24.176 68.4698 30.6425 66.4031 30.8017 65.2366C30.9609 64.07 30.9089 63.4883 30.8017 63.3324C30.6945 63.1764 29.6351 64.9214 23.003 64.9734C16.3708 65.0253 14.3821 64.2455 14.3821 64.2455Z" fill="#C6FF00" stroke="#263238" stroke-linecap="round" stroke-linejoin="round"/>
<path d="M24.8195 36.3877C24.8195 36.3877 28.316 39.5104 31.0683 40.0401L31.1235 42.5325C31.1235 42.5325 34.1423 43.803 34.1423 44.3327C34.1423 44.8623 34.5647 54.3443 34.5647 56.3038C34.5647 58.2632 33.5606 61.3892 32.7645 61.178C32.1896 60.9899 31.6518 60.7029 31.1755 60.3299C31.1755 60.3299 31.7572 63.6671 31.0683 64.4112C30.3794 65.1553 28.4687 65.893 23.653 66.5819C18.8372 67.2708 16.1792 66.3154 15.0191 65.4153C13.8591 64.5152 14.0638 63.9855 14.4342 62.8742C14.8046 61.7629 16.5009 53.1258 16.5009 51.5888C16.5009 50.0518 14.9671 41.6843 15.708 40.9435C16.4489 40.2026 18.4083 40.1473 19.5229 40.1473C20.6375 40.1473 24.4491 39.8224 24.4491 39.8224L24.8195 36.3877Z" fill="#C6FF00" stroke="#263238" stroke-width="0.5" stroke-linecap="round" stroke-linejoin="round"/>
<path d="M31.156 56.7521C31.156 56.7521 31.156 50.968 31.7247 48.7876" stroke="#263238" stroke-width="0.5" stroke-linecap="round" stroke-linejoin="round"/>
<path d="M39.1757 51.9008C39.0183 51.5282 38.8223 51.1732 38.5908 50.8415C38.2204 50.3118 37.2683 50.6823 37.109 51.3192C36.9498 51.956 38.5388 52.112 39.1757 51.9008Z" fill="white" stroke="#263238" stroke-linecap="round" stroke-linejoin="round"/>
<path d="M40.2351 48.4563C39.9108 48.9081 39.627 49.3876 39.387 49.8893C38.9686 50.6496 38.4905 51.3754 37.9572 52.06L36.209 51.3353C36.4816 50.8988 36.7122 50.4375 36.8979 49.9575C36.9428 49.6482 36.887 49.3326 36.7387 49.0574C37.4712 48.9662 38.1965 48.824 38.9093 48.6317C39.4942 48.4108 39.9296 48.0338 40.2351 48.4563Z" fill="white" stroke="#263238" stroke-linecap="round" stroke-linejoin="round"/>
<path d="M38.0645 41.6777L34.672 49.4115H38.6981L42.2498 41.837L38.0645 41.6777Z" fill="white" stroke="#263238" stroke-width="0.5" stroke-linecap="round" stroke-linejoin="round"/>
<path d="M36.8198 49.1873C36.8198 49.1873 37.5737 50.1394 38.0871 50.3376C38.6005 50.5359 39.7119 50.0582 39.8711 48.7129C40.0303 47.3676 36.8198 49.1873 36.8198 49.1873Z" fill="white" stroke="#263238" stroke-linecap="round" stroke-linejoin="round"/>
<path d="M40.69 46.8446C40.69 46.8446 41.8338 45.3823 41.4666 44.9696C41.0994 44.5569 38.4511 44.5114 38.2659 44.9696C38.0807 45.4278 38.5421 45.5188 38.997 45.5643C39.4519 45.6098 40.1863 45.6098 40.1863 45.6098C40.2012 45.8952 40.1383 46.1794 40.0043 46.4319C40.0043 46.4319 38.906 46.4319 37.6257 46.4319C35.1951 46.4514 35.5233 47.0265 35.9815 47.163C36.6901 47.2935 37.4089 47.361 38.1294 47.3645C38.4696 47.3883 38.8068 47.4438 39.1367 47.5302C39.1367 47.5302 36.8231 47.4685 35.9068 47.5627C34.9904 47.6569 35.5818 47.7122 35.5818 47.8487C35.5818 47.9851 35.5591 48.3556 36.4722 48.4336C36.7685 48.4559 37.0662 48.4559 37.3625 48.4336C37.3625 48.4336 36.001 48.4758 35.9555 48.7813C35.91 49.0867 36.3584 49.3012 37.0441 49.3012C37.7297 49.3012 39.374 49.5774 39.8321 49.1192C40.2903 48.661 40.4235 48.4336 40.4235 47.8389C40.4217 47.4896 40.5137 47.1462 40.69 46.8446Z" fill="white" stroke="#263238" stroke-width="0.5" stroke-linecap="round" stroke-linejoin="round"/>
<path d="M37.3528 48.4434C37.9722 48.5499 38.6039 48.5652 39.2277 48.4888L37.3528 48.4434Z" fill="white"/>
<path d="M37.3528 48.4434C37.9722 48.5499 38.6039 48.5652 39.2277 48.4888" stroke="#263238" stroke-width="0.5" stroke-linecap="round" stroke-linejoin="round"/>
<path d="M36.313 50.7893L35.5721 51.6894C35.5721 51.6894 34.0351 51.5822 33.2422 52.0599C32.4493 52.5375 31.8124 55.5043 31.3868 56.3524C30.9611 57.2005 31.0618 60.9602 31.442 61.5516C31.8222 62.143 33.5607 62.4517 34.9904 61.3924C36.4202 60.333 38.4869 56.8431 38.6461 55.4068C38.8053 53.9705 38.4869 52.9697 38.5388 52.8072C38.7346 52.4927 38.9518 52.1919 39.1887 51.9071C39.1887 51.9071 37.4275 51.7414 36.313 50.7893Z" fill="#C6FF00" stroke="#263238" stroke-width="0.5" stroke-linecap="round" stroke-linejoin="round"/>
<path d="M15.76 95.6062C15.76 95.6062 17.349 99.4731 19.4157 100.48L20.7935 99.6843C20.7935 99.6843 19.5229 98.0434 18.7268 96.7598C17.9307 95.4763 17.297 94.4299 17.297 94.4299C17.297 94.4299 15.9712 95.0766 15.76 95.6062Z" fill="white" stroke="#263238" stroke-linecap="round" stroke-linejoin="round"/>
<path d="M21.3751 99.1026L21.3231 100.373C21.3231 100.373 23.705 101.169 24.9788 101.062C26.2526 100.955 27.7863 100.162 27.7863 100.162L27.6791 98.8914C25.6592 99.6584 23.4418 99.7327 21.3751 99.1026Z" fill="white" stroke="#263238" stroke-linecap="round" stroke-linejoin="round"/>
<path d="M26.5775 34.438C26.8754 37.1196 26.8372 39.8278 26.4638 42.4999C25.8334 46.7243 25.034 52.791 26.1193 55.1924C26.8292 56.6965 27.8414 58.0383 29.0926 59.134" stroke="#263238" stroke-width="0.5" stroke-linecap="round" stroke-linejoin="round"/>
<path d="M31.8384 36.8816C31.8384 36.8816 31.2665 41.5121 30.8636 44.4854C30.4606 47.4587 29.0894 58.4354 29.0894 60.4371C29.0894 62.4388 30.4639 63.3616 31.7214 63.4688C32.979 63.5761 34.8637 60.2194 35.5526 56.6644C36.2415 53.1095 36.6379 50.4904 36.6379 50.4904L37.0376 49.5156" stroke="#263238" stroke-width="0.5" stroke-linecap="round" stroke-linejoin="round"/>
<path d="M25.4531 50.5781C25.9289 50.287 26.3287 49.8872 26.6197 49.4115C27.0454 48.6706 27.731 46.4447 27.9975 46.0223C28.2639 45.5998 28.6474 45.5446 29.4792 45.3334C30.0508 45.1893 30.6381 45.1173 31.2275 45.1189C31.4419 45.1189 34.1942 46.6559 33.931 46.9224C33.6678 47.1888 33.4534 47.3968 33.0309 47.0816C32.5266 46.7828 31.9944 46.5336 31.4419 46.3375C31.4419 46.3375 31.7051 47.6113 32.0918 48.1409C32.4785 48.6706 32.199 48.9891 31.8806 49.3043C31.5622 49.6195 31.5102 50.2596 30.9285 50.1004C30.3468 49.9412 30.9805 49.2523 31.0325 48.9338C31.0845 48.6154 29.6547 48.5114 29.6547 48.5114C29.6547 48.5114 29.1803 50.4188 28.5434 50.8413C28.0006 51.1393 27.4083 51.3364 26.7952 51.4229L25.2062 52.219L25.4531 50.5781Z" fill="white" stroke="#263238" stroke-width="0.5" stroke-linecap="round" stroke-linejoin="round"/>
<path d="M32.0788 48.141L29.6937 47.5042" stroke="#263238" stroke-width="0.5" stroke-linecap="round" stroke-linejoin="round"/>
<path d="M31.7052 47.4521L29.5865 46.656" stroke="#263238" stroke-width="0.5" stroke-linecap="round" stroke-linejoin="round"/>
<path d="M31.4419 46.3375L29.3232 45.915" stroke="#263238" stroke-width="0.5" stroke-linecap="round" stroke-linejoin="round"/>
<path d="M25.6677 49.4636L26.4638 53.3825L23.3898 54.4971L22.8601 50.419L25.6677 49.4636Z" fill="#C6FF00" stroke="#263238" stroke-width="0.5" stroke-linecap="round" stroke-linejoin="round"/>
<path d="M22.86 50.419C22.86 50.419 21.323 49.4117 21.0045 49.4636C20.6861 49.5156 17.1832 51.6375 17.1832 51.6375C17.1832 51.6375 17.924 47.4522 17.5081 45.3336C17.0922 43.2149 16.1303 40.7225 15.7079 40.937C15.2855 41.1515 13.4333 43.3189 12.5819 46.7113C11.7305 50.1038 11.2561 52.3264 11.2561 54.2859C11.2561 56.2453 11.6265 59.4233 12.4227 59.3193C13.2188 59.2153 21.1638 57.1454 22.5415 56.0341C23.9193 54.9228 23.3896 54.4971 23.3896 54.4971L22.86 50.419Z" fill="#C6FF00" stroke="#263238" stroke-width="0.5" stroke-linecap="round" stroke-linejoin="round"/>
<path d="M12.1042 53.3304C12.1042 53.3304 16.0264 51.423 17.1897 51.6374C17.1897 51.6374 15.4415 52.7487 14.8598 53.5449" fill="#C6FF00"/>
<path d="M12.1042 53.3304C12.1042 53.3304 16.0264 51.423 17.1897 51.6374C17.1897 51.6374 15.4415 52.7487 14.8598 53.5449" stroke="#263238" stroke-width="0.5" stroke-linecap="round" stroke-linejoin="round"/>
<path d="M17.1833 51.6375C17.1833 51.6375 15.7536 49.1452 14.5837 48.3003L17.1833 51.6375Z" fill="#C6FF00"/>
<path d="M17.1833 51.6375C17.1833 51.6375 15.7536 49.1452 14.5837 48.3003" stroke="#263238" stroke-width="0.5" stroke-linecap="round" stroke-linejoin="round"/>
<path d="M0.162354 113.478H123.067" stroke="#86B474" stroke-linecap="round" stroke-linejoin="round"/>
</g>
<defs>
<clipPath id="clip0_229_32569">
<rect width="123.23" height="118.726" fill="white"/>
</clipPath>
</defs>
</svg>
