<svg width="9" height="9" viewBox="0 0 9 9" fill="none" xmlns="http://www.w3.org/2000/svg">
<path d="M8.98274 5.65529C8.76774 6.42481 8.35503 7.12463 7.78567 7.68512C7.2163 8.24562 6.51012 8.64726 5.73737 8.85009C4.96462 9.05292 4.15224 9.04988 3.38103 8.84126C2.60983 8.63264 1.90668 8.22572 1.34152 7.66097C0.776374 7.09623 0.368921 6.39334 0.159697 5.62223C-0.0495271 4.85111 -0.0532303 4.03866 0.148956 3.26567C0.351142 2.49268 0.75217 1.78611 1.31215 1.21623C1.87213 0.646357 2.57154 0.233041 3.34081 0.0173996C3.39718 -0.000750514 3.45713 -0.00477617 3.51542 0.00567653C3.5737 0.0161292 3.62852 0.0407402 3.67506 0.0773461C3.72161 0.113952 3.75845 0.161432 3.78235 0.215612C3.80624 0.269793 3.81647 0.329015 3.81212 0.388072C3.812 0.416089 3.80736 0.443902 3.79839 0.470444C3.61686 1.12573 3.61238 1.81746 3.78541 2.47505C3.95844 3.13263 4.30278 3.73255 4.78332 4.2136C5.26386 4.69465 5.86338 5.03961 6.52074 5.21329C7.1781 5.38697 7.86976 5.38316 8.52516 5.20224L8.62583 5.18394C8.70544 5.18331 8.78314 5.20834 8.84742 5.25532C8.9117 5.3023 8.95915 5.36873 8.98274 5.44478C9.00575 5.51306 9.00575 5.58701 8.98274 5.65529Z" fill="#039EA2"/>
</svg>
