<svg width="14" height="14" viewBox="0 0 14 14" fill="none" xmlns="http://www.w3.org/2000/svg">
<path d="M7.00001 0C5.61554 0 4.26216 0.410543 3.11101 1.17971C1.95987 1.94888 1.06266 3.04214 0.532848 4.32122C0.00303395 5.6003 -0.135591 7.00777 0.134506 8.36564C0.404603 9.7235 1.07129 10.9708 2.05026 11.9498C3.02923 12.9287 4.2765 13.5954 5.63437 13.8655C6.99224 14.1356 8.39971 13.997 9.67879 13.4672C10.9579 12.9374 12.0511 12.0401 12.8203 10.889C13.5895 9.73785 14 8.38447 14 7C14 5.14349 13.2625 3.36301 11.9498 2.05025C10.637 0.737498 8.85652 0 7.00001 0ZM7.00001 12.6452C5.8835 12.6452 4.79206 12.3141 3.86372 11.6938C2.93538 11.0735 2.21182 10.1918 1.78456 9.16031C1.35729 8.1288 1.24549 6.99374 1.46331 5.89869C1.68113 4.80363 2.21878 3.79776 3.00827 3.00827C3.79776 2.21878 4.80363 1.68113 5.89869 1.46331C6.99374 1.24549 8.1288 1.35728 9.16032 1.78455C10.1918 2.21182 11.0735 2.93538 11.6938 3.86372C12.3141 4.79206 12.6452 5.8835 12.6452 7C12.6452 8.49719 12.0504 9.93307 10.9917 10.9917C9.93307 12.0504 8.4972 12.6452 7.00001 12.6452Z" fill="#808080"/>
<path d="M10.2116 6.54828C10.1522 6.48194 10.0803 6.42796 10 6.38944C9.91973 6.35092 9.83262 6.32861 9.7437 6.32378C9.65477 6.31896 9.56577 6.33172 9.48178 6.36133C9.39779 6.39094 9.32046 6.43682 9.25422 6.49634L9.22938 6.52118L7.67583 8.07473V4.29021C7.67583 4.11055 7.60446 3.93825 7.47742 3.8112C7.35038 3.68416 7.17807 3.61279 6.99841 3.61279C6.81875 3.61279 6.64644 3.68416 6.5194 3.8112C6.39236 3.93825 6.32099 4.11055 6.32099 4.29021V8.07473L4.80357 6.54828C4.66261 6.40576 4.47111 6.32461 4.27067 6.32247C4.11051 6.31981 3.95512 6.37698 3.83486 6.48279C3.76852 6.54221 3.71455 6.61412 3.67602 6.69441C3.6375 6.77471 3.61519 6.86181 3.61037 6.95074C3.60555 7.03966 3.6183 7.12867 3.64791 7.21266C3.67752 7.29665 3.7234 7.37397 3.78293 7.44021L3.80776 7.46505L5.74745 9.40473C5.91146 9.56907 6.10627 9.69945 6.32074 9.78841C6.5352 9.87736 6.7651 9.92315 6.99728 9.92315C7.22946 9.92315 7.45937 9.87736 7.67383 9.78841C7.88829 9.69945 8.08311 9.56907 8.24712 9.40473L10.1597 7.51473C10.2882 7.38965 10.3649 7.22075 10.3746 7.04166C10.3842 6.86256 10.326 6.68642 10.2116 6.54828Z" fill="#808080"/>
</svg>
