<svg width="19" height="18" viewBox="0 0 19 18" fill="none" xmlns="http://www.w3.org/2000/svg">
<g clip-path="url(#clip0_567_7264)">
<path d="M6.77324 5.67529C5.62165 5.67529 4.49591 6.01678 3.5384 6.65657C2.58089 7.29636 1.8346 8.20572 1.3939 9.26965C0.953207 10.3336 0.8379 11.5043 1.06256 12.6338C1.28723 13.7632 1.84177 14.8007 2.65607 15.615C3.47037 16.4293 4.50785 16.9839 5.63731 17.2085C6.76678 17.4332 7.9375 17.3179 9.00143 16.8772C10.0654 16.4365 10.9747 15.6902 11.6145 14.7327C12.2543 13.7752 12.5958 12.6494 12.5958 11.4978C12.5958 9.95361 11.9823 8.47262 10.8904 7.38068C9.79846 6.28874 8.31748 5.67529 6.77324 5.67529ZM6.77324 6.38826C7.78382 6.38826 8.7717 6.68793 9.61197 7.24938C10.4522 7.81083 11.1071 8.60883 11.4939 9.54249C11.8806 10.4761 11.9818 11.5035 11.7846 12.4947C11.5875 13.4858 11.1008 14.3963 10.3863 15.1109C9.67167 15.8255 8.76123 16.3121 7.77007 16.5092C6.7789 16.7064 5.75154 16.6052 4.81788 16.2185C3.88423 15.8318 3.08622 15.1768 2.52477 14.3366C1.96332 13.4963 1.66365 12.5084 1.66365 11.4978C1.66365 10.1427 2.20198 8.84305 3.16021 7.88482C4.11845 6.92659 5.41809 6.38826 6.77324 6.38826Z" fill="#039EA2"/>
<path d="M12.2393 2.61428C13.6939 2.61004 15.0974 3.15044 16.1736 4.12911C17.2498 5.10778 17.9207 6.45384 18.0542 7.90235C18.1878 9.35085 17.7743 10.7969 16.8951 11.9558C16.016 13.1147 14.7349 13.9026 13.304 14.1643C13.2567 14.1768 13.2074 14.1793 13.159 14.1719C13.1107 14.1645 13.0645 14.1472 13.0231 14.1211C12.9818 14.095 12.9462 14.0607 12.9187 14.0203C12.8912 13.9799 12.8722 13.9343 12.8631 13.8863C12.8539 13.8383 12.8548 13.7889 12.8655 13.7412C12.8763 13.6935 12.8967 13.6485 12.9256 13.6091C12.9544 13.5696 12.9911 13.5365 13.0333 13.5118C13.0755 13.4872 13.1223 13.4714 13.1709 13.4656C13.9736 13.3158 14.7287 12.9758 15.373 12.4741C16.0172 11.9724 16.5318 11.3236 16.8737 10.582C17.2156 9.84046 17.3748 9.02776 17.3379 8.21203C17.301 7.39629 17.0692 6.60128 16.6618 5.89359C16.2544 5.1859 15.6834 4.58616 14.9965 4.14461C14.3096 3.70306 13.5269 3.43257 12.7139 3.3558C11.901 3.27902 11.0815 3.39821 10.324 3.70336C9.56664 4.00851 8.8934 4.49075 8.36074 5.10966C8.33055 5.14567 8.29353 5.17536 8.25183 5.19701C8.21012 5.21867 8.16454 5.23186 8.11772 5.23584C8.0709 5.23981 8.02375 5.23449 7.97899 5.22018C7.93423 5.20587 7.89274 5.18284 7.85691 5.15244C7.78597 5.0901 7.74226 5.00245 7.73516 4.90828C7.72805 4.81411 7.7581 4.72089 7.81888 4.64861C8.36453 4.00977 9.04237 3.49702 9.80557 3.14579C10.5688 2.79455 11.3991 2.61321 12.2393 2.61428Z" fill="#039EA2"/>
<path d="M7.18669 8.65061C7.42414 8.64684 7.6598 8.69228 7.87883 8.78404C8.09786 8.87581 8.29552 9.01192 8.45938 9.18381C8.62323 9.3557 8.74973 9.55965 8.83091 9.78282C8.91209 10.006 8.9462 10.2436 8.93108 10.4806C8.94454 10.7084 8.91268 10.9366 8.83734 11.152C8.762 11.3674 8.64468 11.5657 8.49217 11.7354C8.33966 11.9052 8.15499 12.043 7.94885 12.1409C7.74271 12.2388 7.5192 12.2948 7.29126 12.3057H6.507V14.207H4.93848V8.65061H7.18669ZM7.18669 9.22098H5.50885V13.6319H5.93663V11.7306H7.18669C7.34896 11.7332 7.50997 11.7017 7.65931 11.6382C7.80865 11.5747 7.94299 11.4805 8.05365 11.3618C8.1643 11.243 8.24881 11.1024 8.3017 10.949C8.35459 10.7956 8.3747 10.6327 8.36071 10.471C8.37303 10.3189 8.35506 10.1658 8.30786 10.0207C8.26066 9.87551 8.18515 9.74114 8.08571 9.62534C7.98626 9.50954 7.86485 9.4146 7.72849 9.34601C7.59213 9.27742 7.44352 9.23654 7.29126 9.22573L7.18669 9.22098ZM7.10589 9.64401C8.12781 9.64401 8.15632 11.2506 7.18194 11.3314H5.93663V9.64401H7.10589ZM7.10589 10.2144H6.507V10.78H7.10589C7.38157 10.78 7.39583 10.3047 7.14867 10.2381L7.10589 10.2144Z" fill="#039EA2"/>
<path d="M2.25762 4.72936C2.34633 4.73177 2.43095 4.76718 2.49494 4.82867C2.55893 4.89016 2.59768 4.9733 2.60362 5.06184C2.60956 5.15038 2.58227 5.23796 2.52707 5.30744C2.47187 5.37693 2.39275 5.42333 2.30515 5.43757H0.356384C0.261838 5.44388 0.168662 5.41236 0.0973511 5.34997C0.0260408 5.28757 -0.0175632 5.1994 -0.0238662 5.10486C-0.0301692 5.01031 0.00134211 4.91714 0.0637387 4.84583C0.126135 4.77452 0.214304 4.73091 0.30885 4.72461H2.25762V4.72936Z" fill="#039EA2"/>
<path d="M1.30704 3.77894C1.39237 3.77915 1.47479 3.80997 1.53933 3.86579C1.60387 3.92161 1.64625 3.99873 1.65877 4.08314V6.02716C1.6622 6.07397 1.65638 6.121 1.64164 6.16557C1.62689 6.21013 1.60352 6.25135 1.57284 6.28688C1.54217 6.32241 1.50479 6.35155 1.46285 6.37264C1.42092 6.39373 1.37524 6.40635 1.32843 6.40978C1.28161 6.41321 1.23458 6.40739 1.19002 6.39265C1.14545 6.37791 1.10423 6.35453 1.0687 6.32385C1.03317 6.29318 1.00402 6.25581 0.982938 6.21387C0.961851 6.17193 0.949234 6.12625 0.945801 6.07944V4.12591C0.946413 4.07931 0.956281 4.0333 0.97483 3.99055C0.993378 3.9478 1.02024 3.90915 1.05385 3.87687C1.08746 3.84459 1.12715 3.81931 1.17061 3.80249C1.21408 3.78568 1.26045 3.77767 1.30704 3.77894Z" fill="#039EA2"/>
<path d="M17.8955 16.4409C17.9606 16.4421 18.0228 16.4686 18.0689 16.5147C18.115 16.5607 18.1414 16.6229 18.1426 16.6881C18.1417 16.7464 18.121 16.8026 18.0838 16.8475C18.0467 16.8924 17.9953 16.9234 17.9383 16.9352H15.9942C15.9287 16.9352 15.8658 16.9092 15.8195 16.8628C15.7731 16.8165 15.7471 16.7536 15.7471 16.6881C15.7473 16.6301 15.7679 16.5741 15.8053 16.5298C15.8426 16.4855 15.8944 16.4557 15.9515 16.4457H17.8955V16.4409Z" fill="#039EA2"/>
<path d="M16.9448 15.3859C17.0301 15.3861 17.1125 15.4169 17.1771 15.4727C17.2416 15.5285 17.284 15.6057 17.2965 15.6901V17.6388C17.2999 17.6857 17.2941 17.7327 17.2794 17.7773C17.2646 17.8218 17.2412 17.863 17.2106 17.8986C17.1799 17.9341 17.1425 17.9632 17.1006 17.9843C17.0586 18.0054 17.013 18.018 16.9662 18.0215C16.9193 18.0249 16.8723 18.0191 16.8277 18.0043C16.7832 17.9896 16.742 17.9662 16.7064 17.9355C16.6709 17.9049 16.6418 17.8675 16.6207 17.8256C16.5996 17.7836 16.587 17.7379 16.5835 17.6911V15.7424C16.5829 15.695 16.5918 15.6479 16.6098 15.6041C16.6278 15.5602 16.6544 15.5204 16.6882 15.4871C16.7219 15.4538 16.762 15.4277 16.8061 15.4103C16.8502 15.3929 16.8974 15.3846 16.9448 15.3859Z" fill="#039EA2"/>
<path d="M7.72369 0.950554C7.8124 0.952964 7.89702 0.988375 7.961 1.04986C8.02499 1.11135 8.06374 1.19449 8.06968 1.28303C8.07563 1.37158 8.04833 1.45915 7.99314 1.52864C7.93794 1.59812 7.85881 1.64452 7.77122 1.65877H5.82245C5.7279 1.66507 5.63473 1.63356 5.56342 1.57116C5.49211 1.50876 5.4485 1.42059 5.4422 1.32605C5.4359 1.2315 5.46741 1.13833 5.5298 1.06702C5.5922 0.995706 5.68037 0.952104 5.77491 0.945801H7.72369V0.950554Z" fill="#039EA2"/>
<path d="M6.77314 0.000129409C6.85847 0.000344425 6.94089 0.0311613 7.00543 0.0869809C7.06997 0.142801 7.11235 0.21992 7.12486 0.304328V2.2531C7.1283 2.29991 7.12248 2.34695 7.10773 2.39151C7.09299 2.43608 7.06961 2.4773 7.03894 2.51283C7.00826 2.54836 6.97089 2.5775 6.92895 2.59859C6.88702 2.61967 6.84134 2.63229 6.79452 2.63573C6.74771 2.63916 6.70068 2.63334 6.65611 2.61859C6.61155 2.60385 6.57033 2.58047 6.5348 2.5498C6.49927 2.51912 6.47012 2.48175 6.44904 2.43981C6.42795 2.39788 6.41533 2.3522 6.4119 2.30538V0.356612C6.41124 0.309213 6.42017 0.26217 6.43815 0.218309C6.45613 0.174448 6.4828 0.134675 6.51654 0.101378C6.55028 0.0680811 6.5904 0.0419482 6.63449 0.0245491C6.67859 0.00715006 6.72575 -0.00115634 6.77314 0.000129409Z" fill="#039EA2"/>
</g>
<defs>
<clipPath id="clip0_567_7264">
<rect width="18.1426" height="18" fill="white"/>
</clipPath>
</defs>
</svg>
