<svg width="34" height="34" viewBox="0 0 34 34" fill="none" xmlns="http://www.w3.org/2000/svg">
<g filter="url(#filter0_d_179_1782)">
<path d="M27 15C27 8.37258 21.6274 3 15 3C8.37258 3 3 8.37258 3 15C3 20.9895 7.38823 25.954 13.125 26.8542V18.4688H10.0781V15H13.125V12.3563C13.125 9.34875 14.9165 7.6875 17.6576 7.6875C18.9705 7.6875 20.3438 7.92188 20.3438 7.92188V10.875H18.8306C17.3399 10.875 16.875 11.8 16.875 12.749V15H20.2031L19.6711 18.4688H16.875V26.8542C22.6118 25.954 27 20.9895 27 15Z" fill="white"/>
</g>
<defs>
<filter id="filter0_d_179_1782" x="0" y="0" width="34" height="33.8542" filterUnits="userSpaceOnUse" color-interpolation-filters="sRGB">
<feFlood flood-opacity="0" result="BackgroundImageFix"/>
<feColorMatrix in="SourceAlpha" type="matrix" values="0 0 0 0 0 0 0 0 0 0 0 0 0 0 0 0 0 0 127 0" result="hardAlpha"/>
<feOffset dx="2" dy="2"/>
<feGaussianBlur stdDeviation="2.5"/>
<feComposite in2="hardAlpha" operator="out"/>
<feColorMatrix type="matrix" values="0 0 0 0 0 0 0 0 0 0 0 0 0 0 0 0 0 0 0.05 0"/>
<feBlend mode="normal" in2="BackgroundImageFix" result="effect1_dropShadow_179_1782"/>
<feBlend mode="normal" in="SourceGraphic" in2="effect1_dropShadow_179_1782" result="shape"/>
</filter>
</defs>
</svg>
