<svg width="121" height="100" viewBox="0 0 121 100" fill="none" xmlns="http://www.w3.org/2000/svg">
<g clip-path="url(#clip0_135_19758)">
<path d="M102.208 17.9769L98.6107 21.5806L86.4147 33.7678C79.7757 27.1596 70.5228 22.3685 60.4161 22.3553C50.0702 22.329 40.0052 26.5406 33.296 33.3925L17.7355 17.4677C28.5006 6.55118 43.9228 -0.0417471 60.4666 -4.75028e-05C67.4137 0.0276558 74.2958 1.34023 80.7655 3.87143C88.8127 7.03745 96.1145 11.8407 102.208 17.9769Z" fill="#FFC344"/>
<path d="M17.7202 17.4766L33.2873 33.509C26.7739 39.9484 22.8926 48.5832 22.4004 57.7291C21.9082 66.8751 24.8404 75.8765 30.6251 82.9778C31.2877 83.7943 31.6223 84.8284 31.5635 85.8782C31.5046 86.9281 31.0566 87.9183 30.3069 88.6556L19.8205 98.9993C19.4851 99.3327 19.085 99.5941 18.6449 99.7673C18.2047 99.9406 17.7338 100.022 17.2611 100.007C16.7883 99.9911 16.3237 99.8792 15.8958 99.6777C15.4679 99.4762 15.0857 99.1893 14.7727 98.8347C4.76092 87.472 -0.514263 72.7039 0.0328066 57.5696C0.579876 42.4354 6.90758 28.0867 17.7136 17.4766H17.7202Z" fill="#80D261"/>
<path d="M120.036 60.2295C120.076 73.86 115.391 87.0831 106.777 97.6472C106.307 98.2265 105.721 98.7007 105.056 99.0389C104.391 99.3772 103.663 99.5719 102.918 99.6106C102.173 99.6493 101.428 99.5311 100.732 99.2635C100.036 98.996 99.4036 98.5851 98.8763 98.0576L91.6622 90.815L89.36 88.5018C88.7595 87.8992 88.4059 87.094 88.3686 86.2442C88.3312 85.3943 88.6128 84.5612 89.1581 83.9083C95.1023 76.7741 98.1334 67.6586 97.6451 58.3854C97.1568 49.1123 93.185 40.3655 86.5244 33.8951L98.6546 21.6508L102.25 18.0142C107.878 23.5101 112.351 30.076 115.406 37.3257C118.46 44.5754 120.034 52.3626 120.036 60.2295Z" fill="#E94444"/>
<path opacity="0.1" d="M98.6107 21.5807C90.0337 9.89602 79.7778 3.7157 79.7778 3.7157L80.7698 3.87152C88.8157 7.03901 96.1164 11.8421 102.21 17.977L98.6107 21.5807Z" fill="black"/>
<path opacity="0.1" d="M120.036 60.2295C120.076 73.86 115.391 87.0831 106.777 97.6472C106.307 98.2265 105.721 98.7007 105.056 99.0389C104.391 99.3772 103.663 99.5719 102.918 99.6106C102.173 99.6493 101.428 99.5311 100.732 99.2635C100.036 98.996 99.4036 98.5851 98.8763 98.0576L91.6622 90.815C99.6466 90.7338 102.75 84.0422 102.75 84.0422C116.357 56.4721 108.676 35.3195 98.659 21.6508L102.25 18.0142C107.878 23.5101 112.351 30.076 115.406 37.3257C118.46 44.5754 120.034 52.3626 120.036 60.2295Z" fill="black"/>
<path d="M67.2 53.0968C66.9634 52.7879 66.6528 52.5436 66.2969 52.3864C65.9411 52.2292 65.5513 52.1641 65.1637 52.1971C64.776 52.2301 64.4029 52.3602 64.0787 52.5753C63.7546 52.7905 63.4898 53.0838 63.3088 53.4282L56.8739 65.216C56.6815 65.5544 56.5775 65.9359 56.5716 66.3251C56.5656 66.7144 56.6579 67.0988 56.84 67.443C57.022 67.7871 57.2878 68.0798 57.6129 68.2939C57.938 68.5081 58.3118 68.6368 58.6999 68.6683C64.9194 69.1102 70.971 70.8849 76.4441 73.8719L95.6216 84.3429C96.1881 84.6441 96.8085 84.8307 97.4472 84.892C98.0859 84.9533 98.7305 84.8881 99.344 84.7002C99.9575 84.5123 100.528 84.2053 101.023 83.7968C101.518 83.3882 101.927 82.8862 102.228 82.3194C102.859 81.1897 103.017 79.8555 102.666 78.6098C102.314 77.3641 101.482 76.3088 100.353 75.676L81.176 65.205C75.7028 62.218 70.9363 58.0885 67.2 53.0968Z" fill="#004281"/>
<path d="M59.5536 71.5082C65.8905 71.5082 71.0275 66.3712 71.0275 60.0343C71.0275 53.6974 65.8905 48.5603 59.5536 48.5603C53.2167 48.5603 48.0796 53.6974 48.0796 60.0343C48.0796 66.3712 53.2167 71.5082 59.5536 71.5082Z" fill="#0067C5"/>
</g>
<defs>
<clipPath id="clip0_135_19758">
<rect width="120.036" height="100" fill="white"/>
</clipPath>
</defs>
</svg>
