<svg width="10" height="9" viewBox="0 0 10 9" fill="none" xmlns="http://www.w3.org/2000/svg">
<path d="M3.15019 7.19999C3.03085 7.19999 2.91639 7.15258 2.832 7.06819C2.74761 6.98379 2.7002 6.86934 2.7002 6.74999V0.449999C2.7002 0.330652 2.74761 0.216193 2.832 0.131802C2.91639 0.0474106 3.03085 0 3.15019 0C3.26954 0 3.384 0.0474106 3.46839 0.131802C3.55278 0.216193 3.60019 0.330652 3.60019 0.449999V6.74999C3.60019 6.86934 3.55278 6.98379 3.46839 7.06819C3.384 7.15258 3.26954 7.19999 3.15019 7.19999Z" fill="#038F94"/>
<path d="M4.95 7.19999C4.83065 7.19999 4.71619 7.15258 4.6318 7.06819C4.54741 6.98379 4.5 6.86934 4.5 6.74999V0.449999C4.5 0.330652 4.54741 0.216193 4.6318 0.131802C4.71619 0.0474106 4.83065 0 4.95 0C5.06935 0 5.18381 0.0474106 5.2682 0.131802C5.35259 0.216193 5.4 0.330652 5.4 0.449999V6.74999C5.4 6.86934 5.35259 6.98379 5.2682 7.06819C5.18381 7.15258 5.06935 7.19999 4.95 7.19999Z" fill="#038F94"/>
<path d="M6.7498 7.19999C6.63046 7.19999 6.516 7.15258 6.43161 7.06819C6.34721 6.98379 6.2998 6.86934 6.2998 6.74999V0.449999C6.2998 0.330652 6.34721 0.216193 6.43161 0.131802C6.516 0.0474106 6.63046 0 6.7498 0C6.86915 0 6.98361 0.0474106 7.068 0.131802C7.15239 0.216193 7.1998 0.330652 7.1998 0.449999V6.74999C7.1998 6.86934 7.15239 6.98379 7.068 7.06819C6.98361 7.15258 6.86915 7.19999 6.7498 7.19999Z" fill="#038F94"/>
<path d="M8.48214 4.94999C8.37298 4.97115 8.27478 5.03013 8.20482 5.11656C8.13486 5.20298 8.09761 5.31131 8.09965 5.42249V8.09998H1.79966V5.42024C1.80146 5.3104 1.76493 5.20336 1.69635 5.11754C1.62778 5.03172 1.53144 4.97247 1.42391 4.94999C1.36539 4.94105 1.30569 4.94374 1.24822 4.9579C1.19074 4.97207 1.13663 4.99744 1.08898 5.03255C1.04132 5.06766 1.00107 5.11183 0.970509 5.16253C0.939953 5.21323 0.9197 5.26945 0.910908 5.32799C0.908604 5.35193 0.908604 5.37604 0.910908 5.39999V8.54998C0.910908 8.66933 0.958318 8.78379 1.04271 8.86818C1.1271 8.95257 1.24156 8.99998 1.36091 8.99998H8.5609C8.68024 8.99998 8.7947 8.95257 8.87909 8.86818C8.96348 8.78379 9.01089 8.66933 9.01089 8.54998V5.39999C9.01089 5.28064 8.96348 5.16618 8.87909 5.08179C8.7947 4.9974 8.68024 4.94999 8.5609 4.94999C8.5348 4.9459 8.50823 4.9459 8.48214 4.94999Z" fill="#038F94"/>
<path d="M1.755 2.63025L0.1125 1.59525C0.0449999 1.55025 0 1.57275 0 1.66275V3.73275C0 3.82275 0.0449999 3.84525 0.1125 3.80025L1.755 2.76525C1.8345 2.72175 1.8345 2.67675 1.755 2.63025Z" fill="#038F94"/>
<path d="M9.8551 2.63025L8.2126 1.59525C8.1451 1.55025 8.1001 1.57275 8.1001 1.66275V3.73275C8.1001 3.82275 8.1451 3.84525 8.2126 3.80025L9.8551 2.76525C9.9346 2.72175 9.9346 2.67675 9.8551 2.63025Z" fill="#038F94"/>
</svg>
