<svg width="122" height="100" viewBox="0 0 122 100" fill="none" xmlns="http://www.w3.org/2000/svg">
<g clip-path="url(#clip0_135_19652)">
<path d="M103.186 17.9769L99.554 21.5806L87.2413 33.7678C80.5388 27.1596 71.1974 22.3685 60.994 22.3553C50.5492 22.329 40.3879 26.5406 33.6145 33.3925L17.9052 17.4677C28.7732 6.55118 44.343 -0.0417471 61.045 -4.75028e-05C68.0586 0.0276558 75.0065 1.34023 81.5381 3.87143C89.6623 7.03745 97.0339 11.8407 103.186 17.9769Z" fill="#FFC344"/>
<path d="M17.8896 17.4766L33.6056 33.509C27.0299 39.9484 23.1115 48.5832 22.6146 57.7291C22.1177 66.8751 25.0779 75.8765 30.918 82.9778C31.587 83.7943 31.9247 84.8284 31.8653 85.8782C31.8059 86.9281 31.3536 87.9183 30.5967 88.6556L20.01 98.9993C19.6714 99.3327 19.2675 99.5941 18.8231 99.7673C18.3788 99.9406 17.9034 100.022 17.4261 100.007C16.9488 99.9911 16.4798 99.8792 16.0478 99.6777C15.6158 99.4762 15.2299 99.1893 14.9139 98.8347C4.8064 87.472 -0.519248 72.7039 0.0330544 57.5696C0.585357 42.4354 6.97359 28.0867 17.883 17.4766H17.8896Z" fill="#80D261"/>
<path d="M121.184 60.2295C121.225 73.86 116.494 87.0831 107.799 97.6472C107.324 98.2265 106.732 98.7007 106.061 99.0389C105.39 99.3772 104.655 99.5719 103.903 99.6106C103.151 99.6493 102.399 99.5311 101.696 99.2635C100.993 98.996 100.354 98.5852 99.8221 98.0576L92.539 90.8151L90.2147 88.5018C89.6086 87.8993 89.2516 87.094 89.2139 86.2442C89.1761 85.3943 89.4604 84.5612 90.0109 83.9083C96.0119 76.7741 99.0721 67.6586 98.5791 58.3854C98.0861 49.1123 94.0764 40.3655 87.3521 33.8951L99.5983 21.6508L103.228 18.0142C108.91 23.5101 113.426 30.076 116.51 37.3257C119.593 44.5754 121.182 52.3626 121.184 60.2295Z" fill="#E94444"/>
<path opacity="0.1" d="M99.554 21.5806C90.895 9.89589 80.541 3.71558 80.541 3.71558L81.5425 3.8714C89.6653 7.03888 97.0359 11.842 103.188 17.9768L99.554 21.5806Z" fill="black"/>
<path opacity="0.1" d="M121.184 60.2295C121.225 73.86 116.495 87.0831 107.799 97.6472C107.324 98.2265 106.732 98.7007 106.061 99.0389C105.39 99.3772 104.655 99.5719 103.903 99.6106C103.151 99.6493 102.399 99.5311 101.696 99.2635C100.993 98.996 100.354 98.5852 99.8221 98.0576L92.5391 90.8151C100.6 90.7338 103.733 84.0422 103.733 84.0422C117.47 56.4722 109.715 35.3195 99.6027 21.6508L103.228 18.0142C108.91 23.5101 113.426 30.076 116.51 37.3257C119.593 44.5754 121.182 52.3626 121.184 60.2295Z" fill="black"/>
<path d="M55.55 69.3091C55.8878 69.5091 56.271 69.6214 56.6642 69.6356C57.0575 69.6498 57.448 69.5654 57.7995 69.3903C58.151 69.2152 58.4523 68.9551 58.6753 68.634C58.8983 68.3128 59.0359 67.9412 59.0752 67.5534L60.7015 54.227C60.7554 53.8415 60.7103 53.4488 60.5703 53.0851C60.4304 52.7215 60.2001 52.3986 59.9009 52.1464C59.6017 51.8942 59.2431 51.7207 58.8583 51.6421C58.4734 51.5635 58.0748 51.5822 57.6993 51.6965C51.7004 53.5908 45.3605 54.1851 39.1095 53.4391L17.2116 50.8165C15.9126 50.6742 14.6098 51.0488 13.5897 51.858C12.5696 52.6672 11.9157 53.8446 11.7721 55.1313C11.6877 55.7673 11.7308 56.4135 11.8988 57.033C12.0668 57.6525 12.3564 58.2331 12.7511 58.7417C13.1458 59.2503 13.6378 59.6768 14.199 59.9968C14.7602 60.3169 15.3796 60.5243 16.0218 60.6071L37.913 63.2254C44.1642 63.9778 50.1791 66.0526 55.55 69.3091Z" fill="#004281"/>
<path d="M60.1233 71.5082C66.5208 71.5082 71.707 66.3712 71.707 60.0343C71.707 53.6974 66.5208 48.5603 60.1233 48.5603C53.7258 48.5603 48.5396 53.6974 48.5396 60.0343C48.5396 66.3712 53.7258 71.5082 60.1233 71.5082Z" fill="#0067C5"/>
</g>
<defs>
<clipPath id="clip0_135_19652">
<rect width="121.184" height="100" fill="white"/>
</clipPath>
</defs>
</svg>
