<svg width="146" height="128" viewBox="0 0 146 128" fill="none" xmlns="http://www.w3.org/2000/svg">
<g clip-path="url(#clip0_229_32384)">
<path d="M141.439 71.6688C140.62 65.0312 138.262 58.6766 134.553 53.1117C127.385 42.4319 117.341 34.4935 108.825 25.1138C100.96 16.4468 93.5997 6.92582 82.4769 2.79772C69.1361 -2.15214 54.2736 2.22313 44.7013 12.9671C35.434 23.3644 30.7794 37.1322 22.5522 48.3384C15.8849 57.4292 7.30452 66.7479 7.03488 78.8946C6.7877 90.0559 13.0762 100.026 21.1269 106.783C34.0376 117.62 50.2451 121.164 66.3562 122.455C87.9564 124.188 113.393 122.705 129.934 106.051C138.688 97.2495 143.018 84.2939 141.439 71.6688Z" fill="#F3EEEB"/>
<path d="M84.557 68.568C84.557 67.3546 84.4415 66.1476 84.3516 64.9407C84.2617 63.7337 84.1526 62.6294 84.0113 61.4738C83.8701 60.3182 83.7417 59.0792 83.5619 57.8818C83.3821 56.6845 83.1895 55.4871 82.9777 54.293C82.5668 51.9657 82.1045 49.6513 81.5685 47.3497C81.1159 45.4237 80.4482 43.3436 78.8592 42.0371C77.3698 40.8141 75.4084 40.7371 73.7232 41.607C71.8999 42.5475 70.7828 44.3965 70.0156 46.2294C69.1507 48.3227 68.5417 50.5129 68.2019 52.7522C67.8553 54.98 67.6594 57.227 67.5118 59.474C67.3641 61.721 67.1362 63.9199 67.1041 66.1412C67.072 68.4171 67.0527 70.693 67.1041 72.9689C67.1426 75.1839 67.3352 77.3923 67.5792 79.5912C67.801 81.7682 68.1884 83.9252 68.738 86.0434C69.2947 88.1891 69.9852 90.298 70.8053 92.3575C71.131 93.2206 71.5017 94.066 71.9159 94.8902C72.1319 95.4003 72.4523 95.8596 72.8565 96.2384C73.1929 96.6069 73.6001 96.9038 74.0538 97.1115C74.54 97.3358 75.0809 97.4139 75.6107 97.3363C77.2959 97.394 78.9074 96.4663 80.0437 95.2722C81.5075 93.741 82.1495 91.7412 82.6535 89.7381C83.2224 87.4541 83.6512 85.1375 83.9375 82.8012C84.2328 80.4226 84.4414 78.0536 84.5442 75.6621C84.6469 73.2707 84.5474 70.9338 84.557 68.568ZM83.3468 78.0215C83.2056 80.2525 82.9969 82.4835 82.6663 84.6952C82.3453 86.833 82.1174 89.0191 81.5011 91.096C80.9554 92.9257 80.0694 94.765 78.5125 95.9399C77.8372 96.4675 77.0252 96.7911 76.172 96.8724C75.3189 96.9538 74.4603 96.7895 73.6975 96.3989C73.5316 96.3108 73.3708 96.2133 73.216 96.1068C72.6315 95.3707 72.1747 94.5417 71.8646 93.6543C71.0957 91.7566 70.4597 89.8077 69.961 87.8217C68.9864 83.8213 68.3984 79.7365 68.2051 75.6236C68.0173 71.423 68.0462 67.2155 68.2918 63.0179C68.3977 60.9378 68.5454 58.8641 68.6834 56.784C68.8077 54.6544 69.066 52.5348 69.457 50.4378C69.6358 49.3974 69.8912 48.3717 70.221 47.369C70.5498 46.3874 70.9801 45.4428 71.505 44.5506C72.5226 42.8782 74.2143 41.4208 76.2816 41.5011C78.2975 41.5813 79.6553 43.3532 80.262 45.1123C80.5743 46.1031 80.8167 47.1146 80.9875 48.1394C81.1961 49.2276 81.3919 50.3158 81.5877 51.4072C82.3665 55.8342 82.9119 60.2991 83.2216 64.7834C83.3853 66.9822 83.4816 69.2004 83.5137 71.4056C83.5458 73.6109 83.4881 75.8227 83.3468 78.0215Z" fill="#4C5980"/>
<path d="M79.957 61.4802C78.933 60.8382 77.8512 60.2893 76.7791 59.7179C75.7551 59.1722 74.7215 58.6521 73.6686 58.1546C72.6157 57.657 71.4986 57.1049 70.3815 56.6234C69.2644 56.1419 68.157 55.6604 67.0367 55.2014C64.8474 54.309 62.6454 53.4615 60.4112 52.6879C58.5397 52.0459 56.4243 51.4938 54.4759 52.139C52.6429 52.7489 51.5323 54.3635 51.3653 56.2575C51.1856 58.3022 52.155 60.2315 53.2914 61.859C54.6065 63.7082 56.1415 65.3908 57.8624 66.8698C59.5605 68.3528 61.3549 69.7171 63.175 71.0428C64.9951 72.3686 66.7349 73.7328 68.5935 74.9462C70.5196 76.1885 72.4167 77.418 74.3716 78.6025C76.2623 79.7484 78.2236 80.766 80.2235 81.7322C82.1818 82.7083 84.2123 83.5324 86.2968 84.1975C88.4032 84.8753 90.5494 85.4221 92.7233 85.8346C93.6267 86.0217 94.5397 86.1589 95.4582 86.2455C96.0041 86.3376 96.5632 86.3124 97.0986 86.1717C97.5909 86.0851 98.0605 85.8995 98.4789 85.626C98.9284 85.3356 99.2823 84.9191 99.4964 84.4286C100.459 83.0355 100.524 81.1769 100.138 79.5783C99.6216 77.5239 98.2831 75.9157 96.8514 74.4166C95.2269 72.7081 93.5 71.1001 91.68 69.6015C89.8279 68.0832 87.9339 66.6419 85.9662 65.2776C83.9984 63.9134 81.9537 62.7513 79.957 61.4802ZM87.3048 67.5375C89.1152 68.8504 90.8904 70.2179 92.5821 71.6784C94.2224 73.0908 95.9462 74.4519 97.3746 76.0826C98.6297 77.5175 99.7115 79.2509 99.8752 81.1929C99.9623 82.048 99.8024 82.9102 99.4144 83.6771C99.0263 84.4441 98.4265 85.0837 97.686 85.5201C97.5226 85.6154 97.3532 85.7001 97.1788 85.7737C96.245 85.8745 95.3008 85.817 94.3861 85.6035C92.3706 85.243 90.3829 84.741 88.4379 84.1012C84.5398 82.7911 80.7774 81.1076 77.2028 79.0743C73.5501 76.9922 70.0078 74.7218 66.5905 72.2723C64.886 71.0717 63.2103 69.8391 61.5283 68.6129C59.7961 67.3743 58.1429 66.0288 56.5784 64.5843C55.795 63.8768 55.0643 63.1129 54.3924 62.2987C53.7386 61.4972 53.1695 60.6302 52.6943 59.7115C51.8244 57.9588 51.4969 55.7503 52.6686 54.0458C53.8403 52.3412 56.0327 52.1807 57.8464 52.6077C58.8503 52.872 59.834 53.2078 60.79 53.6124C61.8236 54.0137 62.8476 54.431 63.8748 54.845C68.0381 56.5442 72.1097 58.46 76.0729 60.5846C78.0214 61.6214 79.9474 62.7225 81.8317 63.8749C83.716 65.0273 85.5232 66.2535 87.3048 67.5375Z" fill="#4C5980"/>
<path d="M65.7559 65.2904C63.7882 66.6547 61.9039 68.096 60.0421 69.6143C58.2222 71.1129 56.4952 72.7209 54.8707 74.4294C53.4391 75.9285 52.1005 77.5367 51.5837 79.5911C51.1824 81.1961 51.2627 83.0483 52.2096 84.4415C52.4237 84.9319 52.7777 85.3484 53.2272 85.6388C53.6456 85.9123 54.1152 86.0979 54.6075 86.1845C55.1428 86.3252 55.702 86.3504 56.2478 86.2583C57.1663 86.1717 58.0794 86.0345 58.9828 85.8474C61.1618 85.4397 63.3134 84.8973 65.4253 84.2232C67.5099 83.5581 69.5403 82.7339 71.4987 81.7579C73.4889 80.7949 75.4598 79.7741 77.3506 78.6281C79.299 77.4436 81.2026 76.2142 83.1286 74.9719C85.0546 73.7296 86.7527 72.3525 88.5407 71.0428C90.3287 69.7331 92.1552 68.3528 93.8533 66.8698C95.5668 65.3874 97.0941 63.7027 98.4019 61.8525C99.5415 60.225 100.508 58.2958 100.328 56.251C100.161 54.3571 99.0439 52.7424 97.2174 52.1325C95.2689 51.4905 93.1535 52.033 91.2821 52.6815C89.035 53.4551 86.8458 54.2865 84.6566 55.1949C83.5352 55.655 82.4202 56.129 81.3117 56.617C80.2043 57.1049 79.1257 57.6377 78.0343 58.1545C76.9429 58.6714 75.9478 59.1721 74.9238 59.7178C73.8998 60.2635 72.7666 60.8285 71.7458 61.4801C69.7396 62.7513 67.7012 63.9294 65.7559 65.2904ZM69.9001 63.8877C71.7844 62.7353 73.7104 61.6406 75.6589 60.5974C79.622 58.4728 83.6936 56.557 87.857 54.8579C88.8842 54.4438 89.9082 54.0265 90.9418 53.6252C91.8976 53.2201 92.8814 52.8843 93.8854 52.6205C95.699 52.1935 97.9204 52.3958 99.0632 54.0586C100.206 55.7214 99.9074 57.9716 99.0375 59.7243C98.5623 60.643 97.9932 61.51 97.3394 62.3115C96.6674 63.1257 95.9368 63.8896 95.1533 64.5971C93.5872 66.0463 91.9318 67.396 90.1971 68.6385C88.515 69.8647 86.8394 71.0974 85.1349 72.2979C81.7142 74.7455 78.1688 77.0138 74.5129 79.0935C70.9383 81.1268 67.1759 82.8103 63.2778 84.1205C61.3328 84.7602 59.3452 85.2622 57.3296 85.6228C56.4149 85.8362 55.4707 85.8937 54.5369 85.7929C54.3626 85.7193 54.1931 85.6346 54.0297 85.5393C53.2892 85.1029 52.6894 84.4633 52.3014 83.6964C51.9133 82.9294 51.7534 82.0673 51.8405 81.2122C52.0042 79.2701 53.086 77.5367 54.3411 76.1018C55.7695 74.4711 57.4933 73.1101 59.1337 71.6976C60.8253 70.2371 62.6005 68.8696 64.4109 67.5567C66.2214 66.2438 68.0222 65.024 69.9001 63.8748V63.8877Z" fill="#4C5980"/>
<path d="M99.4836 76.2945C99.4884 76.2465 99.4884 76.1981 99.4836 76.1501C99.4853 76.1276 99.4853 76.1051 99.4836 76.0827L99.4162 75.5851C99.3683 75.4309 99.306 75.2815 99.23 75.1389C99.1337 75.0105 99.0374 74.8853 98.9347 74.7601C98.7061 74.5309 98.4218 74.3649 98.1097 74.2786C97.94 74.2454 97.7685 74.2219 97.5961 74.208H97.5768C97.4003 74.208 97.227 74.2497 97.0536 74.2786H97.0344C96.8707 74.3342 96.7109 74.4007 96.5561 74.4776C96.4148 74.5739 96.2832 74.6799 96.1548 74.7987C96.0553 74.9335 95.9526 75.0651 95.8338 75.1967L95.6348 75.6686C95.6123 75.8419 95.5866 76.0153 95.5642 76.1886C95.5417 76.3619 95.6123 76.5385 95.6348 76.7118L95.8338 77.1805L96.1548 77.5785L96.5529 77.8995C96.7714 78.0415 97.0244 78.1213 97.2848 78.1307C97.4558 78.1789 97.6369 78.1789 97.808 78.1307C98.1463 78.0884 98.4669 77.9553 98.7357 77.7455C99.002 77.5397 99.211 77.2689 99.3424 76.959C99.4287 76.8086 99.4741 76.6381 99.474 76.4647C99.4755 76.4433 99.4755 76.4218 99.474 76.4005C99.4791 76.3653 99.4823 76.33 99.4836 76.2945Z" fill="#7991D1"/>
<path d="M54.6268 60.9537C54.63 60.9195 54.63 60.8852 54.6268 60.851C54.6268 60.8317 54.6268 60.8189 54.6268 60.8028L54.5786 60.4433C54.544 60.3318 54.4977 60.2242 54.4406 60.1223C54.3732 60.0292 54.3026 59.9393 54.2319 59.8495C54.0663 59.6841 53.8606 59.5647 53.6349 59.5028C53.5128 59.4794 53.3896 59.4622 53.2657 59.4514H53.2497C53.1235 59.4606 52.9981 59.4778 52.8741 59.5028C52.7548 59.5415 52.6389 59.5898 52.5274 59.6472C52.4279 59.7146 52.3316 59.7917 52.2385 59.8687L52.017 60.1544L51.8726 60.4947C51.8726 60.6199 51.8405 60.7451 51.8212 60.8703C51.8019 60.9954 51.8565 61.1206 51.8726 61.2458L52.017 61.5861L52.2385 61.8718L52.5242 62.0933C52.6819 62.1943 52.8635 62.2519 53.0506 62.2602C53.1734 62.2954 53.3035 62.2954 53.4262 62.2602C53.5515 62.261 53.6747 62.2277 53.7825 62.1639C53.9044 62.1337 54.0154 62.0703 54.1035 61.9809C54.1952 61.9252 54.2731 61.8495 54.3314 61.7594C54.419 61.6699 54.482 61.5594 54.5144 61.4384C54.5779 61.3293 54.6112 61.2052 54.6107 61.0789C54.6107 61.0789 54.6107 61.05 54.6107 61.0372L54.6268 60.9537Z" fill="#7991D1"/>
<path d="M81.0196 69.7526C81.0356 69.626 81.042 69.4983 81.0388 69.3706C81.0388 69.3096 81.0388 69.2615 81.0388 69.1973L80.8655 67.9133C80.7387 67.5103 80.5742 67.1202 80.3744 66.748C80.124 66.427 79.8704 66.0836 79.6104 65.7593C79.0123 65.1627 78.2704 64.7304 77.4564 64.5042C77.0135 64.4272 76.5641 64.3598 76.1147 64.3245H76.0633C75.6055 64.3597 75.15 64.4208 74.699 64.5074H74.6509C74.2229 64.6497 73.8066 64.8246 73.4054 65.0307L73.3669 65.0531C73.0041 65.3003 72.6607 65.5796 72.3204 65.8621V65.8781L71.5179 66.915L71.0011 68.138L70.8181 69.499L71.0011 70.8633L71.5179 72.0863L72.3204 73.1231L73.3573 73.9224C73.9263 74.2914 74.5833 74.5019 75.2608 74.5324C76.3666 74.6812 77.4907 74.4623 78.4599 73.9095C79.4291 73.3568 80.1898 72.5007 80.6247 71.4732C80.8529 71.0838 80.9726 70.6405 80.9714 70.1892C80.9821 70.1351 80.9896 70.0804 80.9939 70.0255C81.0078 69.9351 81.0164 69.844 81.0196 69.7526Z" fill="#7991D1"/>
<path d="M82.9199 91.9338C82.9231 91.8985 82.9231 91.8631 82.9199 91.8278C82.9199 91.8086 82.9199 91.7957 82.9199 91.7765C82.9038 91.6545 82.8878 91.5325 82.8685 91.4105C82.8326 91.2995 82.7863 91.192 82.7305 91.0895L82.5154 90.8103C82.3443 90.6417 82.1334 90.5192 81.9023 90.454C81.7759 90.4303 81.6484 90.4132 81.5203 90.4026C81.39 90.4132 81.2604 90.4303 81.1319 90.454C81.0109 90.4962 80.8929 90.5466 80.7788 90.6048C80.6752 90.6754 80.5756 90.7515 80.4802 90.8327L80.2555 91.1248C80.2042 91.2404 80.156 91.3592 80.1079 91.4747L80.0565 91.86L80.1079 92.2451L80.2555 92.595L80.4802 92.8871L80.7756 93.1151C80.9379 93.2197 81.1251 93.2795 81.3181 93.2884C81.444 93.3238 81.5773 93.3238 81.7033 93.2884C81.8321 93.2897 81.9588 93.2553 82.0692 93.1889C82.1906 93.156 82.3013 93.0918 82.3902 93.0027C82.5414 92.887 82.6678 92.7422 82.7621 92.5768C82.8564 92.4114 82.9166 92.2288 82.9391 92.0397C82.9391 92.0397 82.9391 92.0108 82.9391 91.9948C82.9391 91.9787 82.9166 91.9659 82.9199 91.9338Z" fill="#7991D1"/>
<path d="M72.6062 46.1429C72.611 46.0863 72.611 46.0294 72.6062 45.9728C72.6078 45.9471 72.6078 45.9214 72.6062 45.8957L72.5291 45.3147C72.4733 45.1347 72.4002 44.9606 72.3108 44.7947C72.1985 44.647 72.0861 44.4993 71.9706 44.3549C71.7033 44.0885 71.3715 43.896 71.0076 43.7964C70.8092 43.7573 70.6088 43.7295 70.4073 43.7129H70.3816C70.1769 43.7294 69.9733 43.7573 69.7717 43.7964H69.7524C69.5612 43.8617 69.3746 43.94 69.1939 44.0307H69.1778C69.0141 44.143 68.8568 44.2682 68.7124 44.3934L68.3561 44.8557L68.1249 45.4046C68.0961 45.6068 68.0704 45.809 68.0415 46.0113C68.0704 46.2135 68.0961 46.4157 68.1249 46.6212L68.3561 47.1669L68.7124 47.6291L69.1746 47.9886C69.429 48.1529 69.7228 48.246 70.0253 48.2583C70.2249 48.3129 70.4356 48.3129 70.6352 48.2583C70.8385 48.2594 71.0383 48.205 71.213 48.101C71.4036 48.0493 71.5774 47.9486 71.717 47.8089C71.8863 47.7086 72.0276 47.5673 72.1279 47.398C72.2671 47.2581 72.3678 47.0844 72.42 46.894C72.524 46.7193 72.5784 46.5196 72.5773 46.3162C72.5773 46.2905 72.5773 46.2681 72.5773 46.2424C72.5883 46.2097 72.598 46.1765 72.6062 46.1429Z" fill="#7991D1"/>
<path d="M39.9762 23.9487C39.9762 23.3805 39.9538 22.8092 39.9441 22.241C39.9423 22.2127 39.9349 22.185 39.9222 22.1597C39.9095 22.1343 39.8919 22.1117 39.8703 22.0933C39.8419 22.0369 39.799 21.989 39.746 21.9546C39.6929 21.9201 39.6317 21.9005 39.5686 21.8975C38.8028 21.8214 38.0332 21.7903 37.2638 21.8044L35.0713 21.7627L30.4489 21.6953L25.9163 21.6343C24.3787 21.6343 22.8219 21.5733 21.2907 21.6568C21.2463 21.6606 21.2022 21.6681 21.1591 21.6792C21.174 25.512 21.174 29.3491 21.1591 33.1904C21.2194 33.2478 21.2975 33.2829 21.3806 33.2899C22.8572 33.4376 24.3883 33.3926 25.8746 33.399C27.4218 33.399 28.9691 33.399 30.5163 33.4151H35.0745H37.3536C38.1294 33.4457 38.9062 33.436 39.6809 33.3862L39.7387 33.3701C39.7983 33.3647 39.8562 33.3472 39.9088 33.3188C39.9409 31.534 39.957 29.7525 39.9409 27.9869C39.9217 26.6516 39.9474 25.3001 39.9762 23.9487Z" fill="#D66EC0"/>
<path d="M24.5681 28.0736H24.2888C24.2815 28.0709 24.2736 28.0709 24.2663 28.0736C24.2562 28.0801 24.2479 28.0892 24.2423 28.0999C24.2367 28.1106 24.2339 28.1225 24.2342 28.1346C24.2261 28.2853 24.2261 28.4364 24.2342 28.5872C24.2342 28.7316 24.2342 28.8761 24.2342 29.0205C24.2342 29.3223 24.2342 29.6272 24.2342 29.9322V30.8246C24.2342 31.1295 24.2342 31.4345 24.2342 31.7362C24.2342 31.7362 24.2342 31.7555 24.2342 31.7619H26.0832C26.086 31.7481 26.086 31.7339 26.0832 31.7202C26.1057 31.428 26.0992 31.1263 26.1024 30.8342C26.1056 30.5421 26.1024 30.2211 26.1024 29.9161V29.0173C26.1024 28.8697 26.1024 28.7188 26.1024 28.5679C26.1024 28.417 26.1024 28.2469 26.1024 28.1121V28.0768C25.8103 28.0768 25.5214 28.0768 25.2325 28.0768C25.011 28.0864 24.7992 28.08 24.5681 28.0736Z" fill="white"/>
<path d="M28.0894 25.8425H27.8102C27.8102 25.8425 27.7909 25.8425 27.7845 25.865C27.7619 25.8919 27.7505 25.9263 27.7524 25.9613C27.7363 26.1956 27.7524 26.4492 27.7363 26.6868V27.3769C27.7363 27.8649 27.7363 28.3399 27.7363 28.8375C27.7363 29.335 27.7363 29.8005 27.7363 30.2692C27.7363 30.7378 27.7363 31.2322 27.7363 31.7265C27.7363 31.7265 27.7363 31.7554 27.7363 31.7682C28.3783 31.7682 28.9882 31.7682 29.6174 31.7682C29.6261 31.7456 29.6315 31.7218 29.6334 31.6976C29.6591 31.2322 29.6527 30.7507 29.6559 30.2788C29.6591 29.8069 29.6559 29.3158 29.6559 28.815C29.6559 28.3143 29.6559 27.852 29.6559 27.3769C29.6559 27.1394 29.6559 26.8986 29.6559 26.6579C29.6559 26.4171 29.6559 26.1603 29.6559 25.926C29.6559 25.926 29.6559 25.926 29.6559 25.9067C29.6592 25.8887 29.6592 25.8702 29.6559 25.8522C29.367 25.8522 29.0749 25.8522 28.786 25.8522C28.5292 25.8586 28.3077 25.8522 28.0894 25.8425Z" fill="white"/>
<path d="M31.6044 24.4397H31.3251C31.3191 24.4425 31.3137 24.4465 31.3092 24.4515C31.3048 24.4565 31.3015 24.4623 31.2994 24.4686C31.2791 24.505 31.2681 24.5458 31.2673 24.5874C31.2673 24.8795 31.2673 25.1909 31.2673 25.4862V26.3401C31.2673 26.9403 31.2673 27.5406 31.2513 28.1409C31.2352 28.7412 31.2513 29.3222 31.2513 29.9096C31.2513 30.497 31.2352 31.1166 31.2513 31.7136C31.2513 31.7329 31.2513 31.749 31.2513 31.765C31.8772 31.765 32.5064 31.7457 33.1324 31.7457C33.136 31.718 33.136 31.69 33.1324 31.6623C33.158 31.0845 33.1516 30.4906 33.1548 29.9096C33.158 29.3286 33.1548 28.7026 33.1548 28.0992V26.3208C33.1548 26.0255 33.1548 25.7302 33.1548 25.4316C33.1548 25.1331 33.1548 24.8185 33.1548 24.5264C33.1566 24.519 33.1566 24.5113 33.1548 24.5039C33.1567 24.4815 33.1567 24.459 33.1548 24.4365C32.8627 24.4365 32.5706 24.4365 32.2849 24.4365C32.0442 24.4558 31.8227 24.4494 31.6044 24.4397Z" fill="#FFD075"/>
<path d="M35.1001 26.6707H34.8208C34.8208 26.6707 34.8048 26.6707 34.7984 26.6899C34.7919 26.7092 34.7695 26.7252 34.7663 26.7702C34.747 26.9724 34.7663 27.1907 34.7663 27.3961V27.99C34.7663 28.4073 34.7663 28.8246 34.7663 29.2419V30.4745C34.7663 30.8918 34.7663 31.3124 34.7663 31.7264C34.7663 31.7264 34.7663 31.7521 34.7663 31.765C35.4083 31.765 36.0182 31.765 36.6473 31.765C36.6562 31.7457 36.6617 31.7251 36.6634 31.704C36.6859 31.3059 36.6634 30.8886 36.6826 30.4874C36.7019 30.0861 36.6826 29.6463 36.6826 29.229C36.6826 28.8117 36.6826 28.4041 36.6826 27.99C36.6826 27.7845 36.6826 27.5791 36.6826 27.3737C36.6826 27.1682 36.6826 26.9467 36.6826 26.7316C36.6807 26.7265 36.6807 26.7208 36.6826 26.7156C36.6845 26.7007 36.6845 26.6856 36.6826 26.6707C36.3905 26.6707 36.1016 26.6707 35.8127 26.6707C35.5602 26.6814 35.3227 26.6814 35.1001 26.6707Z" fill="white"/>
<path d="M146.003 88.4285C146.003 87.6195 145.984 86.8074 145.971 85.9985C145.97 85.9217 145.944 85.8473 145.897 85.7866C145.875 85.7157 145.833 85.6526 145.776 85.6048C145.719 85.557 145.65 85.5265 145.576 85.517C144.78 85.4318 143.978 85.4093 143.178 85.4496H140.903L136.087 85.4785C134.51 85.4913 132.934 85.5095 131.359 85.533C129.754 85.5587 128.149 85.533 126.544 85.6903C126.498 85.6979 126.453 85.7097 126.409 85.7256C126.409 91.1891 126.409 96.6558 126.409 102.126C126.436 102.163 126.469 102.194 126.509 102.218C126.548 102.241 126.592 102.255 126.637 102.26C128.175 102.431 129.767 102.325 131.317 102.296C132.922 102.267 134.527 102.225 136.152 102.187L140.899 102.081L143.275 102.023C144.083 102.047 144.892 102.012 145.695 101.917C145.716 101.912 145.736 101.906 145.756 101.898C145.821 101.886 145.881 101.858 145.933 101.817C145.971 99.2751 145.99 96.736 145.978 94.2193C145.942 92.2837 145.968 90.3545 146.003 88.4285Z" fill="#FFD075"/>
<path d="M64.0033 40.0083C64.0033 39.4401 64.0032 38.8688 63.9776 38.3006C63.9763 38.2455 63.9546 38.1928 63.9166 38.1529C63.8952 38.1009 63.8605 38.0555 63.816 38.0211C63.7715 37.9868 63.7187 37.9647 63.663 37.9571C63.0238 37.8826 62.3803 37.8525 61.737 37.8672C61.1239 37.8512 60.5139 37.8384 59.9008 37.8287C58.6168 37.803 57.3232 37.7816 56.0199 37.7645C54.7167 37.7474 53.4455 37.7324 52.2064 37.7196C50.9224 37.7196 49.6095 37.6586 48.3255 37.7453C48.2873 37.7464 48.2495 37.7529 48.2131 37.7645C48.2131 41.5994 48.2131 45.4375 48.2131 49.2789C48.2596 49.3354 48.3265 49.3712 48.3993 49.3784C49.6537 49.4828 50.9129 49.5182 52.1711 49.4843C53.4551 49.4843 54.7712 49.4843 56.0713 49.4843H59.8976H61.8237C62.4752 49.5165 63.1282 49.5068 63.7785 49.4554L63.8267 49.4394C63.878 49.433 63.9274 49.4155 63.9712 49.388C64.0001 47.6065 64.0129 45.8217 64.0033 44.0562C63.9615 42.7112 63.9776 41.3597 64.0033 40.0083Z" fill="#EBA7DC"/>
<path d="M44.7014 48.1233C44.7014 47.8023 44.7014 47.4813 44.7014 47.1603C44.6991 47.1294 44.6867 47.1001 44.666 47.0769C44.6552 47.0472 44.6362 47.0211 44.6112 47.0018C44.5862 46.9825 44.5563 46.9707 44.5248 46.9677C44.168 46.9259 43.8086 46.9098 43.4494 46.9196L42.4286 46.8971L40.2683 46.8618C39.5621 46.8618 38.8559 46.8425 38.1497 46.8361C37.4435 46.8297 36.7052 46.804 35.9893 46.8361H35.9283C35.9283 48.9676 35.9283 51.1055 35.9283 53.2369C35.94 53.2537 35.9553 53.2676 35.9731 53.2776C35.9908 53.2876 36.0107 53.2935 36.0311 53.2947C36.7282 53.3525 37.428 53.3718 38.1272 53.3525C38.8527 53.3525 39.5749 53.3525 40.2972 53.3525H43.5072C43.8689 53.3696 44.2312 53.3643 44.5922 53.3364H44.6179C44.6468 53.3342 44.6745 53.3242 44.6981 53.3075C44.7142 52.3156 44.7238 51.3237 44.7174 50.3415C44.7013 49.6256 44.7014 48.8745 44.7014 48.1233Z" fill="#BFCAD4"/>
<path d="M23.7367 115.98C23.4574 116.118 20.7513 116.85 20.6582 117.162C20.5651 117.473 20.8765 119.274 21.6212 120.487C22.366 121.7 22.9598 121.977 23.5794 122.66C24.1599 123.278 24.6762 123.954 25.1202 124.676C25.4412 125.235 25.836 125.854 26.2405 125.793C26.6449 125.732 27.762 124.737 27.608 124.207C27.4539 123.678 26.8311 122.602 26.6129 121.784C26.3946 120.965 26.1153 119.858 25.8649 119.238C25.5417 118.418 25.1475 117.628 24.6868 116.876C24.3562 116.417 23.8586 115.919 23.7367 115.98Z" fill="#A1B0BA"/>
<path d="M26.9242 122.336C26.754 122.394 26.6011 122.494 26.4794 122.626C26.3578 122.758 26.2712 122.919 26.2277 123.094C26.0121 123.75 25.9037 124.437 25.9067 125.129C25.9067 125.771 25.8778 126.586 26.0222 126.734C26.1667 126.881 26.2565 126.878 26.5487 126.907C27.4258 127.03 28.3135 127.06 29.1969 126.997C30.359 126.878 32.2529 126.676 33.126 126.734C33.9991 126.791 36.503 127.055 37.084 127.084C37.665 127.112 38.6569 127.141 38.888 126.968C39.0259 126.866 39.1282 126.724 39.1801 126.56C39.2432 126.325 39.2576 126.08 39.2223 125.839C39.1869 125.599 39.1027 125.368 38.9747 125.161C38.5381 124.519 38.628 124.114 37.5205 123.851C36.4131 123.588 36.0375 123.501 35.2221 123.357C34.4068 123.212 31.7874 121.874 31.2032 121.697C30.619 121.521 26.9242 122.336 26.9242 122.336Z" fill="#BFCAD4"/>
<path d="M25.1779 119.235C24.4139 118.593 24.2149 117.768 23.7109 117.194C23.5316 117.019 23.3885 116.81 23.2899 116.58C23.1913 116.35 23.1391 116.102 23.1364 115.852C23.1364 115.531 25.6241 112.982 26.5165 111.515C27.4089 110.048 31.8772 101.118 31.8772 99.7792C31.8772 98.4406 29.4505 80.0022 29.7073 79.8128C29.9641 79.6234 31.8772 79.6202 32.577 79.556C33.2768 79.4918 35.8962 79.0456 36.0856 79.556C36.275 80.0664 37.4884 88.8651 37.8094 90.3385C38.1304 91.8119 39.2122 99.6476 39.2122 100.033C39.2122 100.418 39.148 100.543 38.8912 101.182C38.6344 101.821 37.9282 102.466 37.1032 103.606C36.2782 104.745 35.6362 105.901 34.7438 106.857C33.8514 107.814 32.8178 109.473 31.4279 111.326C30.0379 113.178 26.0832 118.596 26.0832 118.596C26.0832 118.596 25.3545 119.383 25.1779 119.235Z" fill="#313B59"/>
<path d="M26.6449 123.071C26.3015 123.042 26.4524 122.307 26.3914 121.858C26.533 120.502 26.5962 119.14 26.5807 117.778C26.5807 115.161 26.4524 110.886 26.3914 108.847C26.3304 106.809 26.5807 102.276 26.263 100.822C25.9452 99.3681 23.8362 91.6127 23.4542 89.7637C23.0424 87.5982 22.8478 85.397 22.8732 83.1928C22.9374 81.4048 23.2552 79.8769 23.3836 79.6843C23.512 79.4916 25.9965 79.6201 26.8921 79.6201C27.7877 79.6201 31.8677 79.5559 32.1213 79.7485C32.3748 79.9411 32.5675 86.191 32.6317 87.276C32.6959 88.3609 33.1453 97.609 33.1453 98.312C33.1453 99.015 33.081 99.917 33.081 100.861C33.081 101.805 31.9961 111.775 31.9961 112.918C31.9961 114.06 31.6751 121.723 31.5499 122.041C31.4247 122.358 28.8791 123.254 26.6449 123.071Z" fill="#313B59"/>
<path d="M33.3603 100.415C33.4213 99.1306 33.2993 97.7856 33.2672 96.4888C33.2308 95.102 33.188 93.711 33.1388 92.3157C33.0896 90.9204 33.034 89.5615 32.9719 88.239C32.9077 86.8298 32.882 85.4046 32.7343 84.0018C32.7183 83.8477 32.4872 83.8413 32.4872 84.0018C32.4872 85.3853 32.6252 86.7752 32.6894 88.1587C32.7536 89.5423 32.8146 90.929 32.866 92.3318C32.9173 93.7346 32.9591 95.0475 32.9976 96.4085C33.0361 97.7696 33.1067 100.456 33.1035 100.482C32.8178 103.339 32.5097 106.202 32.3459 109.072C32.3459 109.127 32.4358 109.139 32.4455 109.072C32.8242 106.228 33.3892 100.434 33.3603 100.415Z" fill="#7991D1"/>
<path d="M26.616 114.725C26.616 114.288 26.616 113.852 26.616 113.412C26.616 112.972 26.6674 112.494 26.632 112.048C26.632 111.964 26.4844 111.929 26.4715 112.025C26.4346 112.452 26.4218 112.881 26.433 113.309C26.433 113.762 26.433 114.218 26.433 114.674C26.433 115.585 26.433 116.497 26.4972 117.405C26.4972 117.43 26.507 117.454 26.5245 117.471C26.5419 117.489 26.5656 117.499 26.5903 117.499C26.615 117.499 26.6387 117.489 26.6561 117.471C26.6736 117.454 26.6834 117.43 26.6834 117.405C26.6673 116.513 26.6256 115.621 26.616 114.725Z" fill="#7991D1"/>
<path d="M49.2596 50.5245C49.2596 50.5245 49.7058 49.0575 49.9016 48.3257C50.0974 47.5938 50.1873 47.2407 50.5051 47.0802C50.8229 46.9197 51.2081 46.8908 51.879 46.8908C52.5499 46.8908 52.9608 46.9197 52.9608 46.9197C52.9608 46.9197 55.4197 44.9937 55.6412 44.9937C55.8627 44.9937 55.991 45.0258 55.991 45.2826C55.991 45.5394 53.8243 47.4493 53.7922 47.674C53.7601 47.8987 54.0458 49.7477 53.8243 50.0334C53.6028 50.3191 52.261 51.0221 51.9721 51.2468C51.6832 51.4715 51.3686 51.9145 51.2723 51.9145C50.6972 51.7506 50.149 51.504 49.6448 51.1826C49.3238 50.9129 49.2275 50.8199 49.2596 50.5245Z" fill="white"/>
<path d="M31.4921 55.0603C31.3091 54.72 31.4311 54.4857 31.6205 54.1679C31.8099 53.8501 31.9415 53.5259 32.5835 53.5933C33.2255 53.6607 33.4149 53.7217 34.3073 54.1037C35.1997 54.4857 42.9744 58.251 43.366 58.3152C43.7576 58.3794 48.7877 50.6112 49.0413 50.4667C49.2949 50.3223 49.1697 50.2131 49.6159 50.4057C50.0621 50.5983 51.4039 51.6159 51.4039 52.0107C51.4039 52.4056 49.9337 55.2657 49.3623 56.2865C48.7909 57.3073 45.5969 62.9826 44.512 63.111C43.427 63.2394 36.4131 61.7082 35.5239 61.0052C34.6347 60.3022 31.8773 55.7633 31.4921 55.0603Z" fill="#B345B5"/>
<path d="M23.3931 79.6844C22.9534 79.5752 23.2647 79.3634 23.2005 78.8562C23.1363 78.349 23.0721 78.4068 23.2005 76.7504C23.3289 75.094 23.5215 72.4104 23.4541 71.3287C23.3867 70.2469 23.1331 68.7767 23.0721 67.1171C23.0111 65.4575 22.0513 61.3134 21.7881 60.1C21.5249 58.8866 21.4671 56.0168 21.6597 55.1887C21.8523 54.3605 23.0625 53.4039 24.1475 52.9416C25.2325 52.4794 28.4842 52.3703 29.2514 52.4312C30.0593 52.4801 30.855 52.6522 31.6108 52.9416C32.6958 53.3268 32.8242 53.3268 33.3988 53.9624C33.9734 54.598 34.7374 56.3892 35.3248 57.7278C35.9122 59.0664 37.0454 62.3213 37.1738 62.8317C37.3022 63.3421 37.4306 63.5957 37.238 64.1703C37.0454 64.7449 35.771 66.9759 35.1322 68.7639C34.4934 70.5518 34.4324 70.6899 34.686 72.3976C34.9396 74.1053 35.771 77.4373 35.97 78.0761C36.169 78.7149 36.4194 79.4147 36.0984 79.5431C35.7017 79.6346 35.2953 79.6777 34.8882 79.6715C33.6539 79.5644 32.4111 79.6075 31.1871 79.7999C29.2611 80.1306 24.4139 79.938 23.3931 79.6844Z" fill="#B345B5"/>
<path d="M30.7859 66.764C30.1439 67.13 29.5372 67.5505 28.8759 67.8908C28.541 68.0651 28.1971 68.2216 27.8455 68.3594C27.5057 68.4773 27.1724 68.6134 26.8472 68.7671C26.8362 68.7729 26.8275 68.7824 26.8225 68.7938C26.8176 68.8053 26.8168 68.8181 26.8202 68.8301C26.8235 68.8422 26.8309 68.8526 26.8411 68.8599C26.8513 68.8671 26.8636 68.8706 26.8761 68.8698C27.2436 68.8229 27.6025 68.7234 27.9418 68.5745C28.2885 68.4365 28.632 68.2824 28.9658 68.1123C29.6552 67.792 30.2857 67.358 30.8308 66.8282C30.8597 66.7929 30.8244 66.7416 30.7859 66.764Z" fill="#D66EC0"/>
<path d="M23.1942 83.3534C23.1942 83.3534 22.8732 85.8091 22.9085 86.1911C22.9139 86.5117 22.9895 86.8273 23.13 87.1156C23.3226 87.5618 24.2471 89.475 24.5649 89.6836C24.9748 89.8717 25.424 89.9587 25.8745 89.9372C26.3207 89.9372 26.8632 89.7157 26.9274 89.3658C26.9916 89.0159 26.7027 87.8667 26.5743 87.2921C26.4459 86.7175 26.1281 85.6005 26.2244 85.6005C26.3207 85.6005 26.799 86.5635 26.8311 86.7175C26.8777 87.0474 26.9628 87.3706 27.0847 87.6806C27.2131 87.902 27.3736 87.9662 27.5309 87.902C27.6882 87.8378 27.7556 86.939 27.7556 86.4993C27.7556 86.0595 27.8519 85.639 27.5309 85.1928C27.2099 84.7466 26.0318 82.5766 25.8745 82.4161C25.7172 82.2556 24.1829 82.7692 23.833 82.9586C23.4831 83.148 23.1942 83.0324 23.1942 83.3534Z" fill="white"/>
<path d="M22.8186 54.1035C22.3339 54.2801 21.7978 54.4246 21.7336 54.8065C21.6694 55.1885 20.0741 60.6103 19.6921 62.2057C19.3101 63.801 18.8639 70.8182 18.9281 71.8999C18.9923 72.9817 22.5618 82.814 22.8828 83.1928C23.2038 83.5716 23.711 83.4464 24.414 83.257C25.117 83.0676 26.2951 82.8429 26.019 82.0436C25.9227 81.7772 24.9373 76.9397 24.8089 76.2399C24.6805 75.5401 23.9165 72.0283 23.8458 71.2643C23.7752 70.5004 24.9308 64.4366 25.1844 62.3341C25.4112 60.3172 25.368 58.279 25.056 56.2735C24.7992 55.0601 23.5152 53.85 22.8186 54.1035Z" fill="#B345B5"/>
<path d="M24.7221 75.3155C24.4589 73.9769 24.2759 72.5869 23.9228 71.2676C23.9335 71.2509 23.9412 71.2325 23.9453 71.2131C24.1828 69.8327 24.3818 68.4524 24.5873 67.0721C24.7991 65.7432 25.0977 64.395 25.2293 63.0532C25.2293 62.9119 25.011 62.883 24.9789 63.0211C24.6579 64.3436 24.5327 65.7335 24.3176 67.0753C24.1026 68.4171 23.865 69.7814 23.6756 71.136C23.6702 71.1684 23.6771 71.2016 23.6949 71.2291C23.8586 72.5645 24.2085 73.8998 24.4717 75.2192C24.7349 76.5385 24.9308 77.9958 25.3481 79.3184C25.3481 79.3665 25.4444 79.3601 25.4411 79.3184C25.2722 77.9723 25.0322 76.6362 24.7221 75.3155Z" fill="#D66EC0"/>
<path d="M25.4411 59.0086C25.4337 58.8323 25.4166 58.6566 25.3898 58.4822C25.3898 58.3987 25.3513 58.2671 25.2389 58.2671C24.995 58.2671 25.1426 58.8 25.1555 58.9316C25.1908 59.3071 25.2132 59.6827 25.2197 60.0615C25.2261 60.4403 25.2197 60.8159 25.2197 61.1914C25.2197 61.368 25.2197 61.5413 25.1972 61.7179C25.1593 61.873 25.1671 62.0357 25.2197 62.1865C25.2233 62.1912 25.2279 62.195 25.2332 62.1976C25.2384 62.2002 25.2443 62.2015 25.2502 62.2015C25.2561 62.2015 25.2619 62.2002 25.2671 62.1976C25.2724 62.195 25.277 62.1912 25.2806 62.1865C25.3624 62.0691 25.4041 61.9283 25.3994 61.7853C25.4219 61.6119 25.4411 61.4354 25.4572 61.2588C25.4925 60.8833 25.5021 60.5077 25.5021 60.1289C25.5021 59.7501 25.4636 59.3842 25.4411 59.0086Z" fill="#D66EC0"/>
<path d="M35.5206 57.7983C35.3066 57.2869 35.0733 56.7807 34.8208 56.28C34.596 55.7477 34.3265 55.2355 34.0151 54.7488C33.9541 54.6621 33.7808 54.7103 33.8257 54.8291C34.0151 55.333 34.3265 55.8113 34.564 56.296C34.8016 56.7807 35.0295 57.259 35.2445 57.763C35.71 58.8095 36.1209 59.8752 36.5285 60.9474C36.5374 60.9645 36.5519 60.9779 36.5696 60.9856C36.5873 60.9932 36.6071 60.9945 36.6256 60.9892C36.6441 60.9839 36.6602 60.9724 36.6712 60.9565C36.6822 60.9407 36.6874 60.9216 36.6859 60.9024C36.3566 59.8465 35.9676 58.8101 35.5206 57.7983Z" fill="#D66EC0"/>
<path d="M29.5147 51.5837C29.4146 51.9149 29.3617 52.2585 29.3574 52.6045C29.3895 52.9865 29.7394 53.6574 29.7715 54.0394C29.8238 54.3343 29.7769 54.6382 29.6381 54.9037C29.4993 55.1691 29.2764 55.381 29.0043 55.5063C28.1761 55.9846 26.1987 56.0167 25.3064 55.1243C24.414 54.2319 25.2742 51.5516 25.2742 51.5516C25.2742 51.5516 26.677 50.0525 27.762 50.1809C28.847 50.3093 29.5147 51.5837 29.5147 51.5837Z" fill="white"/>
<path d="M32.7375 42.8204C32.8659 43.1703 33.1516 44.0627 33.0874 44.4447C33.0232 44.8267 32.6733 45.626 32.8017 46.008C32.9301 46.39 33.662 47.3177 33.5978 47.7639C33.3471 48.7028 32.9941 49.6113 32.5449 50.4731C32.0024 51.5902 31.11 52.611 30.6189 52.5468C29.91 52.3431 29.2169 52.0877 28.5452 51.7828C27.8775 51.526 26.9402 51.1408 26.6962 50.5373C26.4523 49.9338 26.5999 45.9149 26.5999 45.9149C26.5999 45.9149 27.6207 43.395 28.3237 42.8846C29.0267 42.3742 29.0235 41.989 30.269 42.1174C31.122 42.2286 31.9539 42.4655 32.7375 42.8204Z" fill="white"/>
<path d="M28.6031 43.1092C28.8469 43.4206 29.0468 43.7641 29.1969 44.13C29.2804 44.3002 29.2804 44.3451 29.4955 44.3451C30.2422 44.2002 30.9806 44.0148 31.7072 43.7898C32.2593 43.6196 33.3122 43.6646 33.3635 43.4495C33.4149 43.2344 33.492 43.2794 33.4085 42.9841C33.325 42.6887 33.2384 40.8558 32.6413 39.9634C32.0442 39.071 32.0892 38.8142 30.7153 38.3905C29.9632 38.1357 29.1646 38.048 28.3752 38.1337C28.3752 38.1337 26.2501 37.6233 24.9725 37.8801C23.6949 38.1369 21.8267 39.4113 21.0178 41.0259C20.2089 42.6406 19.7851 44.2167 19.7851 44.9807C19.7662 45.5182 19.6656 46.0496 19.4866 46.5568C19.4866 46.5568 17.3616 50.3414 16.8094 51.8726C16.2573 53.4038 15.8464 59.1016 16.0422 60.5044C16.238 61.9072 16.7228 64.9984 17.3262 66.1187C17.9297 67.239 18.729 69.3063 18.8992 69.1361C19.0693 68.966 19.111 69.0109 19.111 68.7124C19.111 68.4139 19.7916 64.8411 20.9407 63.2554C22.0899 61.6696 23.7463 60.3663 24.1283 59.9394C24.5103 59.5125 24.9019 59.368 25.1395 58.9186C25.377 58.4692 25.6178 58.1097 25.7044 56.5785C25.7911 55.0473 26.1282 53.3043 26.4267 52.6238C26.8154 51.6094 27.0868 50.554 27.2356 49.4779C27.3191 48.6273 27.5759 46.4156 27.5759 46.4156C27.6542 45.713 27.7819 45.0169 27.9579 44.3323C28.1194 43.8985 28.3362 43.4874 28.6031 43.1092Z" fill="#4C5980"/>
<path d="M28.2179 43.1414C28.388 43.8123 27.9226 45.0675 27.8776 45.6934C27.8327 46.3194 28.2628 49.263 28.388 49.8183C28.5132 50.3736 28.5581 50.4988 28.388 50.3287C28.0488 49.7931 27.7913 49.21 27.624 48.5985C27.3721 47.8836 27.2009 47.1429 27.1136 46.39C27.027 45.5811 26.645 45.4944 27.1554 44.3484C27.6658 43.2024 28.1344 42.8204 28.2179 43.1414Z" fill="#4C5980"/>
<path d="M17.1593 59.0438C17.1608 58.1394 17.2251 57.2363 17.3519 56.3409C17.4161 55.8872 17.4963 55.4378 17.5926 54.9927C17.7049 54.5944 17.7907 54.189 17.8494 53.7793C17.8499 53.7628 17.8448 53.7467 17.835 53.7334C17.8253 53.7201 17.8113 53.7105 17.7955 53.7061C17.7796 53.7017 17.7627 53.7027 17.7474 53.709C17.7322 53.7152 17.7195 53.7265 17.7114 53.7408C17.323 54.5048 17.2331 55.5159 17.1175 56.3538C16.9936 57.2451 16.9303 58.1438 16.9281 59.0438C16.8973 60.8864 17.1706 62.7215 17.7371 64.4751C17.7413 64.49 17.7513 64.5026 17.7649 64.5101C17.7784 64.5177 17.7944 64.5195 17.8093 64.5152C17.8242 64.511 17.8368 64.501 17.8443 64.4874C17.8518 64.4739 17.8537 64.4579 17.8494 64.443C17.418 62.6748 17.1865 60.8637 17.1593 59.0438Z" fill="#313B59"/>
<path d="M18.5332 56.5078C18.4301 56.7072 18.37 56.9259 18.3567 57.1498C18.3213 57.3745 18.2925 57.5992 18.27 57.8272C18.2148 58.2814 18.2288 58.7414 18.3117 59.1914C18.3117 59.2396 18.392 59.2235 18.3952 59.1914C18.4433 58.7516 18.4401 58.3054 18.4851 57.8625C18.5075 57.641 18.5364 57.4195 18.5782 57.198C18.6411 56.9897 18.6746 56.7736 18.6777 56.556C18.6807 56.5379 18.6772 56.5192 18.6678 56.5035C18.6583 56.4877 18.6435 56.4758 18.6261 56.47C18.6086 56.4642 18.5897 56.4648 18.5726 56.4718C18.5556 56.4787 18.5416 56.4915 18.5332 56.5078Z" fill="#313B59"/>
<path d="M26.1699 48.5502C25.9227 49.2596 25.7879 50.0171 25.6114 50.7458L25.0817 52.9511C24.7254 54.4213 24.3851 55.8915 24.0513 57.3681C24.0513 57.4484 24.1572 57.4837 24.1797 57.4034C24.5553 55.9364 24.9212 54.4727 25.2743 53.0025C25.4508 52.2674 25.6274 51.5355 25.8072 50.8004C25.9869 50.0653 26.2084 49.3334 26.3111 48.5887C26.3136 48.5709 26.3094 48.5529 26.2995 48.538C26.2897 48.523 26.2747 48.5122 26.2574 48.5075C26.2401 48.5028 26.2217 48.5045 26.2056 48.5124C26.1895 48.5202 26.1768 48.5336 26.1699 48.5502Z" fill="#313B59"/>
<path d="M134.749 121.787C134.91 121.415 134.495 120.211 134.239 120.182C133.982 120.153 129.857 121.119 129.815 121.543C129.773 121.967 129.475 122.012 130.326 122.095C131.176 122.179 134.621 122.082 134.749 121.787Z" fill="white"/>
<path d="M129.562 121.659C129.218 121.771 129.857 121.829 128.794 122.301C127.732 122.773 125.905 123.023 124.798 123.405C123.69 123.787 122.926 124.384 122.673 125.01C122.419 125.636 122.204 126.076 122.586 126.329C122.968 126.583 124.541 126.711 125.902 126.711C127.263 126.711 128.881 126.329 130.027 126.329C131.173 126.329 133.218 126.246 133.815 126.288C134.412 126.329 135.131 126.458 135.259 126.159C135.388 125.861 135.343 124.416 135.259 123.864C135.176 123.312 135.218 121.652 134.749 121.617C134.28 121.582 134.28 121.659 132.794 121.7C131.308 121.742 129.687 121.617 129.562 121.659Z" fill="#A1B0BA"/>
<path d="M114.548 120.978C114.166 121.318 114.548 121.53 113.826 121.999C113.104 122.467 110.17 123.318 109.149 123.7C108.328 124.001 107.644 124.59 107.223 125.357C106.928 125.912 106.841 126.377 107.053 126.547C107.265 126.718 109.181 127.016 110.712 126.974C112.244 126.933 114.751 126.676 115.688 126.634C116.625 126.592 118.875 126.676 119.344 126.634C119.813 126.592 119.896 126.547 120.066 126.377C120.237 126.207 120.493 125.995 120.323 125.061C120.153 124.127 119.941 121.999 119.556 121.659C119.171 121.318 115.9 121.148 115.431 121.106C114.962 121.065 114.548 120.978 114.548 120.978Z" fill="#A1B0BA"/>
<path d="M114.378 72.7507C113.974 73.1552 113.614 73.0075 113.528 73.688C113.441 74.3686 113.698 94.9512 113.698 96.3123C113.698 97.6733 113.784 120.708 114.208 121.062C114.632 121.415 116.42 121.402 117.097 121.489C117.774 121.575 119.222 122.169 119.562 121.659C119.903 121.148 120.044 118.837 120.073 117.662C120.102 116.487 120.243 98.0971 120.33 96.9928C120.416 95.8886 121.18 93.9304 121.614 91.4651C122.047 88.9998 124.252 79.3858 124.503 77.6845C124.753 75.9832 123.652 73.5115 123.652 73.5115C123.652 73.5115 119.479 72.4907 118.465 72.404C117.45 72.3173 114.805 72.327 114.378 72.7507Z" fill="#313B59"/>
<path d="M120.246 73.3477C119.906 73.5178 119.482 74.1117 119.482 75.4727C119.482 76.8338 121.777 96.3957 121.947 97.7567C122.118 99.1178 128.242 121.488 129.18 121.742C130.117 121.996 134.537 120.978 134.621 120.211C134.704 119.444 133.016 113.322 132.749 111.865C132.483 110.407 129.093 98.0007 129.009 96.2994C128.926 94.5981 129.263 81.6713 129.33 79.8833C129.398 78.0953 130.521 74.6959 128.907 73.7586C127.292 72.8213 124.734 72.8245 123.129 72.8245C122.145 72.8333 121.17 73.0103 120.246 73.3477Z" fill="#313B59"/>
<path d="M119.816 77.8515C119.816 77.7487 119.643 77.7487 119.652 77.8515C120.095 82.1625 120.464 86.48 120.936 90.7846C120.936 90.9195 121.167 90.9227 121.155 90.7846C120.779 86.4768 120.249 82.1625 119.816 77.8515Z" fill="#7991D1"/>
<path d="M111.614 58.6746C111.232 58.6746 111.274 58.5045 110.934 58.7613C110.738 58.8721 110.576 59.0341 110.465 59.23C110.212 59.567 108.892 61.8654 108.34 62.2891C107.788 62.7128 104.767 63.7368 103.788 64.0771C102.809 64.4174 97.2816 66.2021 96.8996 66.2439C96.5176 66.2856 95.9366 66.0737 95.1565 66.1187C94.3765 66.1636 93.5515 66.3723 92.9448 66.3723C92.3381 66.3723 91.8823 66.3305 91.8406 66.6708C91.7988 67.0111 91.7122 67.1395 92.0942 67.1812C92.4762 67.2229 93.6992 67.4348 93.6992 67.4348C93.6992 67.4348 90.2966 67.6049 90.0815 67.7751C89.8664 67.9452 89.4395 68.4556 89.4876 68.8408C89.5358 69.226 90.2516 70.0317 90.807 70.2018C91.3623 70.372 92.5917 70.372 93.8661 70.0734C95.1405 69.7749 97.0986 68.584 97.5256 68.5005C97.9525 68.4171 110.751 66.032 110.921 65.9486C111.091 65.8651 111.178 65.9036 111.348 65.7335C111.551 65.5084 111.765 65.2941 111.99 65.0915C112.372 64.7512 113.99 62.7514 114.118 62.3276C114.247 61.9039 113.948 61.1785 113.948 61.1785C113.948 61.1785 112.757 59.5189 112.343 59.2524C111.929 58.986 112.003 58.8705 111.874 58.7838L111.614 58.6746Z" fill="white"/>
<path d="M116.802 48.425C116.16 48.8102 115.996 49.3206 115.441 49.9562C114.885 50.5918 110.34 58.8897 110.305 59.185C110.269 59.4803 112.815 62.6743 114.558 62.7578C116.301 62.8412 115.961 55.8691 116.259 54.6364C116.558 53.4038 116.94 52.1262 117.11 50.9353C117.233 50.133 117.248 49.3177 117.152 48.5117C117.1 48.3416 116.802 48.425 116.802 48.425Z" fill="#EB9921"/>
<path d="M118.567 47.5006C117.508 47.9725 116.847 48.0849 116.166 48.9355C115.437 49.8948 114.915 50.9958 114.635 52.168C114.465 53.1054 114.59 60.5879 114.59 61.8655C114.59 63.1431 113.146 73.0075 113.444 73.306C113.743 73.6046 114.635 73.7715 114.635 73.7715C114.635 73.7715 120.927 74.1567 122.118 74.1118C123.308 74.0668 126.968 73.7715 128.159 73.4698C129.35 73.168 129.902 73.213 130.197 72.3206C130.493 71.4282 130.367 69.3866 130.197 68.0673C130.027 66.748 129.263 62.9312 129.305 61.7724C129.347 60.6136 129.475 54.5852 129.475 53.3108C129.475 52.0364 129.645 48.6755 128.669 48.0367C127.693 47.3979 124.968 46.6757 123.055 46.6339C121.516 46.6212 119.991 46.9159 118.567 47.5006Z" fill="#EB9921"/>
<path d="M119.334 65.9678C119.193 66.2022 118.885 66.353 118.949 66.735C119.013 67.117 119.524 67.82 120.034 68.584C120.545 69.348 125.074 75.7937 125.649 76.3683C126.223 76.9429 128.711 80.0021 129.093 80.2589C129.475 80.5157 131.898 78.7277 132.919 78.1531C133.94 77.5785 137.895 74.8981 138.152 74.5803C138.408 74.2625 138.726 74.7087 138.534 74.0699C138.341 73.4311 135.153 68.966 134.579 68.3914C134.004 67.8168 130.496 62.9055 129.796 61.8879C129.096 60.8703 128.265 59.9619 127.87 60.0357C127.475 60.1095 123.79 62.8445 122.894 63.4159C121.999 63.9872 119.524 65.65 119.334 65.9678Z" fill="#4C5980"/>
<path d="M129.263 58.4212C129.263 58.4212 130.547 61.0566 130.836 61.567C131.078 61.9345 131.264 62.3358 131.388 62.7579C131.46 63.1984 131.432 63.6494 131.305 64.0773C131.135 64.8412 129.645 70.157 129.347 70.7541C129.048 71.3512 128.499 72.4105 128.114 72.7507C127.729 73.091 125.267 74.0701 125.01 74.0348C124.753 73.9994 124.67 74.3333 124.756 74.5034C124.843 74.6736 125.052 74.7987 125.478 74.757L126.881 74.6286C126.881 74.6286 126.371 75.0973 126.031 75.3541C125.69 75.6109 125.267 75.8195 125.18 76.0763C125.093 76.3331 125.308 76.9687 125.478 77.309C125.649 77.6492 125.947 77.9028 126.583 78.288C126.945 78.5389 127.348 78.7256 127.774 78.8402C127.902 78.8402 129.009 77.3507 129.517 76.8403C129.929 76.4951 130.202 76.0112 130.284 75.4793C130.404 74.7477 130.475 74.0087 130.496 73.2676C130.537 72.8856 133.064 68.3787 133.728 67.2712C134.393 66.1638 135.683 63.1913 135.683 62.5525C135.683 61.9137 133.857 56.6396 133.388 55.9174C132.919 55.1951 130.878 56.2576 130.242 56.6396C129.607 57.0216 129.347 58.0456 129.347 58.0456C129.3 58.0951 129.268 58.156 129.254 58.222C129.239 58.2881 129.242 58.3568 129.263 58.4212Z" fill="white"/>
<path d="M126.878 55.147C127.247 55.7665 129.048 58.8449 129.343 58.8449C129.639 58.8449 133.215 56.89 133.982 56.2929C134.749 55.6959 135.214 55.2304 135.086 54.9319C134.958 54.6334 135.214 54.5916 134.662 54.0395C134.11 53.4874 129.812 48.4252 128.451 48.0432C127.09 47.6612 125.687 50.0013 125.475 51.0638C125.263 52.1263 126.072 53.7859 126.878 55.147Z" fill="#EB9921"/>
<path d="M128.855 58.0681C127.143 56.0425 125.98 53.6106 125.478 51.0061C125.459 50.9098 125.318 50.9515 125.331 51.0478C125.753 53.7132 126.924 56.2037 128.708 58.2286C128.804 58.3153 128.942 58.1676 128.855 58.0681Z" fill="#FFD075"/>
<path d="M114.648 57.0825C114.648 56.264 114.648 55.4454 114.648 54.6269V53.4135C114.675 53.0252 114.656 52.6351 114.59 52.2514C114.587 52.238 114.579 52.2261 114.569 52.2175C114.558 52.209 114.544 52.2043 114.531 52.2043C114.517 52.2043 114.504 52.209 114.493 52.2175C114.482 52.2261 114.474 52.238 114.471 52.2514C114.405 52.6351 114.386 53.0252 114.413 53.4135V54.5594C114.413 55.4037 114.413 56.2511 114.413 57.0954C114.413 58.7614 114.413 60.4274 114.413 62.0902C114.418 62.1155 114.431 62.1385 114.451 62.155C114.47 62.1716 114.495 62.1807 114.521 62.1807C114.547 62.1807 114.572 62.1716 114.591 62.155C114.611 62.1385 114.624 62.1155 114.629 62.0902C114.657 60.4145 114.648 58.7485 114.648 57.0825Z" fill="#FFD075"/>
<path d="M123.055 46.6402C121.514 46.6246 119.986 46.9171 118.561 47.5005C118.256 47.6386 117.983 47.7445 117.736 47.8472C117.588 48.2063 117.543 48.5992 117.604 48.9825C117.665 49.3659 117.831 49.725 118.082 50.0204C119.045 51.1054 120.667 51.3044 122.644 50.4056C124.365 49.6288 125.854 47.8376 126.092 47.0929C125.098 46.8347 124.08 46.683 123.055 46.6402Z" fill="white"/>
<path d="M118.503 48.2775C118.599 47.957 118.621 47.619 118.567 47.2888C118.503 46.7142 118.346 46.3001 118.314 45.9181C118.282 45.5361 118.956 44.9904 118.956 44.9904C118.956 44.9904 120.882 43.1735 121.286 42.9809C121.691 42.7883 121.732 42.6599 121.89 42.8879C122.047 43.1158 122.146 43.013 122.339 43.5555C122.532 44.098 123.302 46.3643 123.302 46.3643C123.302 46.3643 123.684 47.0063 123.652 47.2567C123.62 47.5071 123.331 47.6708 122.281 48.2454C121.232 48.82 119.44 49.1378 119.44 49.1378C119.44 49.1378 118.282 49.5101 118.503 48.2775Z" fill="white"/>
<path d="M114.837 38.06C114.516 38.4516 114.388 38.5383 114.645 39.5912C114.901 40.6441 115.251 41.2508 115.187 41.9505C115.109 42.6413 115.13 43.3397 115.251 44.0242C115.377 44.5346 116.908 46.5762 117.45 46.6725C117.993 46.7688 120.384 45.6517 121.023 45.045C121.662 44.4383 122.458 42.4288 122.586 42.156C122.715 41.8831 122.683 39.3504 122.362 38.5511C122.041 37.7518 121.598 37.3409 120.513 37.052C119.428 36.7631 117.357 36.9878 116.429 37.2446C115.502 37.5014 115.027 37.8385 114.837 38.06Z" fill="white"/>
<path d="M122.204 39.1127C122.053 38.6633 121.533 38.3487 120.862 38.3487C120.192 38.3487 116.526 38.6344 116.015 38.7628C115.505 38.8912 114.866 39.1448 114.452 39.0838C114.038 39.0228 112.028 38.7981 111.264 37.4563C110.5 36.1146 110.433 34.9076 111.2 34.1404C111.967 33.3732 113.146 33.5979 114.166 33.8194C114.979 33.9453 115.806 33.9561 116.622 33.8515C116.622 33.8515 119.19 33.309 120.795 33.4984C122.4 33.6878 122.676 33.8194 122.962 34.1693C123.199 34.4874 123.403 34.8295 123.568 35.1901C123.633 35.3185 125.578 36.2751 125.771 37.7099C125.963 39.1448 125.674 39.6873 125.068 40.9938C124.72 41.8113 124.21 42.5495 123.568 43.1638C123.026 43.7705 122.58 44.1846 122.484 44.0241C122.387 43.8636 121.909 43.0354 122.037 42.5571C122.166 42.0788 122.301 39.4016 122.204 39.1127Z" fill="#4C5980"/>
<path d="M122.593 39.9313C122.689 39.8541 122.809 39.8132 122.933 39.8158C123.151 39.8415 123.315 40.0983 123.344 40.3615C123.361 40.6267 123.314 40.8922 123.206 41.1351C122.943 41.83 122.48 42.4318 121.877 42.8653C121.944 42.5967 121.977 42.3205 121.973 42.0435C122.002 41.7418 122.028 41.4401 122.044 41.1351C122.024 40.8973 122.058 40.6581 122.143 40.4353C122.252 40.2351 122.406 40.0626 122.593 39.9313Z" fill="white"/>
<path d="M122.593 39.087C122.483 39.3567 122.509 40.371 122.137 41.119C121.764 41.8669 121.553 42.1173 121.472 41.7835C121.392 41.4496 121.514 41.2859 121.514 40.6214C121.514 39.9569 121.305 38.8784 121.389 38.2974C121.472 37.7164 121.803 37.0936 122.175 37.3344C122.328 37.452 122.453 37.6025 122.539 37.7748C122.626 37.9471 122.673 38.1366 122.676 38.3295C122.693 38.5849 122.665 38.8414 122.593 39.087Z" fill="#4C5980"/>
<path d="M121.742 34.5547C121.186 34.4529 120.619 34.428 120.057 34.4808C119.437 34.4808 118.818 34.5065 118.198 34.5386C117.014 34.5876 115.834 34.7163 114.667 34.9238C114.655 34.9268 114.645 34.9336 114.637 34.9432C114.63 34.9528 114.626 34.9646 114.626 34.9768C114.626 34.989 114.63 35.0008 114.637 35.0104C114.645 35.02 114.655 35.0268 114.667 35.0298C115.855 34.9559 117.042 34.8436 118.233 34.805C118.83 34.7858 119.428 34.7826 120.025 34.7858C120.585 34.8436 121.15 34.8436 121.71 34.7858C121.845 34.7537 121.832 34.5836 121.742 34.5547Z" fill="#313B59"/>
<path d="M120.269 35.3539C120.099 35.3443 119.928 35.3443 119.758 35.3539H119.508C119.423 35.3631 119.338 35.377 119.254 35.3956C119.241 35.3987 119.229 35.4063 119.22 35.4171C119.212 35.4279 119.207 35.4412 119.207 35.455C119.207 35.4688 119.212 35.4821 119.22 35.4929C119.229 35.5037 119.241 35.5112 119.254 35.5144C119.338 35.533 119.423 35.5469 119.508 35.5561H119.758C119.928 35.5657 120.099 35.5657 120.269 35.5561C120.295 35.5553 120.321 35.5463 120.342 35.5301C120.364 35.514 120.379 35.4917 120.387 35.4662C120.392 35.4556 120.394 35.4441 120.394 35.4325C120.394 35.4209 120.392 35.4094 120.387 35.3988C120.373 35.3817 120.355 35.3685 120.334 35.3606C120.313 35.3528 120.291 35.3504 120.269 35.3539Z" fill="#313B59"/>
<path d="M48.5758 111.101C48.3736 110.944 49.5388 109.496 50.0588 108.812C50.5789 108.128 50.8967 107.413 51.3429 107.352C51.789 107.291 63.4639 107.352 65.2487 107.374C67.0335 107.396 88.6787 107.021 89.9402 107.021C91.2017 107.021 98.3601 106.88 98.7421 106.883C99.1241 106.886 101.018 110.414 100.761 110.658C100.504 110.902 100.379 110.719 99.4772 110.979C98.5752 111.239 77.328 111.419 75.8065 111.409C74.2849 111.399 54.1805 111.467 52.9061 111.409C51.6318 111.351 48.8294 111.293 48.5758 111.101Z" fill="#7991D1"/>
<path d="M46.8681 124.975C45.6322 124.888 45.5263 124.528 45.4011 124.082C45.2759 123.636 45.3369 121.594 45.3369 119.681C45.3369 117.768 45.5905 111.897 45.7831 111.387C45.9757 110.876 45.9725 110.623 46.3577 110.558C46.7429 110.494 47.4395 110.623 48.4602 110.623C49.481 110.623 69.7684 110.876 72.0635 110.623C74.3587 110.369 94.1357 110.302 96.1131 110.176C98.0904 110.051 103.323 109.855 103.641 109.92C103.958 109.984 104.023 110.048 104.087 110.305C104.151 110.562 104.151 121.02 104.151 121.659C104.151 122.297 104.472 124.082 104.215 124.339C103.958 124.596 104.151 124.528 103.194 124.721C102.238 124.914 84.8972 125.421 83.3564 125.421C81.8156 125.421 63.1333 125.296 59.2427 125.357C55.3522 125.418 47.7604 125.039 46.8681 124.975Z" fill="#4C5980"/>
<path d="M90.1809 122.75C84.2231 122.91 78.2621 123.02 72.2979 123.026C66.3336 123.032 60.3213 122.988 54.3217 122.869C52.6525 122.833 50.9865 122.785 49.3173 122.763C47.9819 122.744 46.6434 122.689 45.308 122.692C45.308 122.824 45.308 122.949 45.308 123.068C46.4508 123.145 47.5967 123.167 48.7395 123.215C50.2161 123.28 51.6927 123.318 53.1693 123.35C56.1482 123.421 59.1282 123.472 62.1092 123.504C68.0992 123.565 74.0891 123.527 80.0854 123.434C83.4495 123.382 86.8125 123.306 90.1745 123.206C90.473 123.187 90.4762 122.731 90.1809 122.75ZM104.196 122.307C103.817 122.371 103.438 122.435 103.066 122.477C102.071 122.593 101.069 122.686 100.068 122.75C99.1305 122.808 98.1899 122.846 97.2494 122.859C96.7936 122.859 96.3345 122.859 95.8787 122.859C95.4122 122.83 94.9439 122.853 94.4824 122.927C94.4646 122.933 94.4492 122.944 94.4383 122.959C94.4274 122.975 94.4215 122.993 94.4215 123.012C94.4215 123.03 94.4274 123.049 94.4383 123.064C94.4492 123.079 94.4646 123.091 94.4824 123.097C95.3362 123.353 96.3602 123.244 97.243 123.235C98.2103 123.235 99.1733 123.202 100.132 123.135C101.033 123.082 101.934 123.005 102.835 122.904C103.304 122.856 103.769 122.798 104.234 122.734C104.225 122.577 104.209 122.429 104.196 122.297V122.307Z" fill="#313B59"/>
<path d="M59.9746 117.543C59.7511 117.326 59.4857 117.157 59.1946 117.046C59.049 116.99 58.8969 116.954 58.742 116.937C58.6603 116.923 58.5776 116.915 58.4948 116.914C58.4194 116.918 58.3474 116.946 58.2894 116.995C58.2701 116.995 55.9878 118.118 55.4645 120.561C55.2828 121.529 55.2127 122.514 55.2559 123.498C55.2783 124.647 55.2783 125.787 55.2559 126.936C55.2563 126.951 55.262 126.966 55.2719 126.978C55.2818 126.989 55.2954 126.997 55.3104 127C55.3056 127.012 55.3031 127.024 55.3031 127.037C55.3031 127.05 55.3056 127.062 55.3104 127.074C55.4105 127.177 55.5412 127.244 55.6828 127.267C55.8382 127.317 55.997 127.357 56.1579 127.385C56.4888 127.449 56.8264 127.47 57.1626 127.45C57.4896 127.432 57.8131 127.374 58.1256 127.276C58.4408 127.194 58.7351 127.047 58.9891 126.843C59.0002 126.831 59.008 126.817 59.0116 126.801C59.0264 126.789 59.0379 126.774 59.0452 126.757C59.0525 126.739 59.0553 126.72 59.0533 126.702C58.9891 125.276 58.8158 123.854 59.0854 122.439C59.1901 121.858 59.3726 121.295 59.6279 120.763C59.7518 120.514 59.8923 120.274 60.0484 120.044C60.1993 119.819 60.3983 119.624 60.546 119.402C60.5748 119.393 60.6 119.375 60.6179 119.351C60.6358 119.327 60.6455 119.297 60.6455 119.267C60.658 118.949 60.6049 118.632 60.4895 118.336C60.3741 118.039 60.1988 117.769 59.9746 117.543Z" fill="#7991D1"/>
<path d="M66.3529 117.543C66.1299 117.326 65.8644 117.156 65.5729 117.046C65.4273 116.99 65.2752 116.954 65.1203 116.937C65.0386 116.923 64.956 116.915 64.8731 116.914C64.7988 116.919 64.7279 116.947 64.6709 116.995C64.6484 116.995 62.1446 118.5 61.846 120.561C61.6939 121.532 61.623 122.515 61.6342 123.498C61.6599 124.647 61.6599 125.787 61.6342 126.936C61.6332 126.951 61.6379 126.966 61.6474 126.978C61.6569 126.99 61.6705 126.998 61.6855 127C61.6801 127.012 61.6773 127.024 61.6773 127.037C61.6773 127.05 61.6801 127.062 61.6855 127.074C61.7846 127.178 61.9157 127.246 62.0579 127.267C62.2122 127.318 62.3698 127.357 62.5298 127.385C62.8607 127.449 63.1982 127.47 63.5345 127.45C63.8615 127.432 64.185 127.374 64.4975 127.276C64.8127 127.194 65.107 127.047 65.361 126.843C65.3721 126.831 65.3799 126.817 65.3835 126.801C65.3982 126.789 65.4099 126.774 65.4177 126.757C65.4255 126.739 65.4292 126.721 65.4284 126.702C65.361 125.276 65.1877 123.854 65.4573 122.439C65.562 121.858 65.7445 121.295 65.9998 120.763C66.126 120.515 66.2675 120.275 66.4235 120.044C66.5712 119.819 66.7702 119.624 66.9179 119.402C66.9473 119.394 66.9731 119.376 66.9911 119.352C67.0092 119.328 67.0185 119.298 67.0174 119.267C67.0315 118.95 66.9798 118.633 66.8654 118.336C66.7511 118.039 66.5766 117.769 66.3529 117.543Z" fill="#7991D1"/>
<path d="M77.0391 110.356L56.7807 110.488L53.9815 110.507C53.042 110.479 52.1016 110.512 51.1663 110.607C51.0925 110.607 51.1214 110.722 51.1856 110.729C52.0338 110.808 52.8865 110.829 53.7376 110.793H56.2061L61.2298 110.761L71.2771 110.696L77.0552 110.658C77.075 110.657 77.0944 110.652 77.1123 110.643C77.1302 110.635 77.1463 110.623 77.1595 110.608C77.1728 110.593 77.183 110.576 77.1896 110.557C77.1962 110.539 77.1991 110.519 77.198 110.499C77.197 110.479 77.192 110.46 77.1835 110.442C77.1749 110.424 77.1629 110.408 77.1482 110.395C77.1334 110.381 77.1162 110.371 77.0975 110.365C77.0788 110.358 77.059 110.355 77.0391 110.356Z" fill="white"/>
<path d="M88.4572 110.067L83.8154 110.183L81.5363 110.241L80.3968 110.266C80.0332 110.241 79.6679 110.275 79.315 110.366C79.2965 110.372 79.2804 110.384 79.269 110.4C79.2576 110.416 79.2515 110.435 79.2515 110.454C79.2515 110.474 79.2576 110.493 79.269 110.508C79.2804 110.524 79.2965 110.536 79.315 110.542C79.6443 110.611 79.9826 110.625 80.3165 110.584L81.4561 110.552L83.8154 110.485L88.4572 110.353C88.6401 110.347 88.6433 110.061 88.4572 110.067Z" fill="white"/>
<path d="M100.877 29.6979C101.079 29.852 99.9138 31.3029 99.3905 31.9899C98.8673 32.6768 98.5495 33.3894 98.1065 33.4504C97.6635 33.5114 86.0561 33.367 84.2809 33.3445C82.5058 33.322 61.0018 33.5788 59.7307 33.5628C58.4595 33.5467 51.3589 33.6527 50.9769 33.6495C50.5949 33.6462 48.7299 30.0927 48.9931 29.8392C49.2563 29.5856 49.3751 29.7782 50.2771 29.5342C51.1791 29.2902 72.2883 29.2132 73.8098 29.2421C75.3314 29.271 95.317 29.3095 96.5785 29.3865C97.8401 29.4636 100.623 29.5021 100.877 29.6979Z" fill="#7991D1"/>
<path d="M102.655 15.7503C103.881 15.8466 103.984 16.2061 104.109 16.6555C104.235 17.1049 104.157 19.1594 104.145 21.0854C104.132 23.0114 103.846 28.9114 103.654 29.4315C103.461 29.9515 103.458 30.2019 103.079 30.2629C102.7 30.3238 102 30.1922 100.986 30.1858C99.9716 30.1794 79.7998 29.807 77.5207 30.0478C75.2416 30.2885 55.5769 30.2404 53.6092 30.3688C51.6415 30.4972 46.4412 30.6481 46.1234 30.5806C45.8056 30.5132 45.7446 30.449 45.6836 30.1922C45.6227 29.9354 45.6836 19.413 45.6836 18.771C45.6836 18.1289 45.3819 16.3313 45.6387 16.0777C45.8955 15.8242 45.7029 15.8851 46.6531 15.699C47.6032 15.5128 64.8603 15.0987 66.3819 15.1083C67.9034 15.1179 86.4863 15.3523 90.3544 15.3105C94.2224 15.2688 101.766 15.6797 102.655 15.7503Z" fill="#4C5980"/>
<path d="M98.7935 22.4175C98.7935 22.2826 98.7935 21.1848 98.771 21.2554C98.7486 21.3261 98.7711 19.7018 98.7293 19.567C98.7357 19.4975 98.7357 19.4277 98.7293 19.3583C98.7366 19.239 98.7193 19.1194 98.6786 19.007C98.6379 18.8946 98.5746 18.7917 98.4927 18.7047C98.4108 18.6176 98.3119 18.5482 98.2021 18.5008C98.0924 18.4534 97.9741 18.429 97.8546 18.429C97.735 18.429 97.6167 18.4534 97.507 18.5008C97.3973 18.5482 97.2984 18.6176 97.2165 18.7047C97.1345 18.7917 97.0712 18.8946 97.0306 19.007C96.9899 19.1194 96.9726 19.239 96.9799 19.3583C96.9799 19.4321 96.9638 21.3228 96.9445 21.2522C96.9253 21.1816 96.9092 22.1671 96.9253 22.2602C96.9253 22.2987 96.9253 23.1172 96.9253 23.159V23.3034C96.9178 23.4296 96.9363 23.556 96.9795 23.6748C97.0226 23.7937 97.0897 23.9024 97.1764 23.9944C97.2631 24.0864 97.3677 24.1596 97.4838 24.2097C97.5999 24.2598 97.7249 24.2857 97.8514 24.2857C97.9778 24.2857 98.1029 24.2598 98.219 24.2097C98.335 24.1596 98.4396 24.0864 98.5264 23.9944C98.6131 23.9024 98.6801 23.7937 98.7233 23.6748C98.7664 23.556 98.7849 23.4296 98.7775 23.3034C98.7775 23.2521 98.7775 23.2039 98.7775 23.1526C98.7775 23.1012 98.7807 22.5009 98.7935 22.4175Z" fill="#D66EC0"/>
<path d="M94.7328 22.395C94.7328 22.2602 94.7328 21.1591 94.7103 21.2298C94.6879 21.3004 94.7103 19.6761 94.6718 19.5445C94.6818 19.4754 94.6872 19.4057 94.6879 19.3358C94.6951 19.2165 94.6779 19.097 94.6372 18.9846C94.5965 18.8721 94.5332 18.7693 94.4513 18.6822C94.3693 18.5951 94.2705 18.5258 94.1607 18.4784C94.051 18.431 93.9327 18.4065 93.8131 18.4065C93.6936 18.4065 93.5753 18.431 93.4656 18.4784C93.3558 18.5258 93.257 18.5951 93.175 18.6822C93.0931 18.7693 93.0298 18.8721 92.9891 18.9846C92.9484 19.097 92.9312 19.2165 92.9384 19.3358C92.9384 19.4097 92.9384 21.3004 92.9031 21.233C92.8789 21.5684 92.8725 21.9048 92.8838 22.2409C92.8838 22.2794 92.8838 23.0948 92.8838 23.1397V23.281C92.8764 23.4072 92.8949 23.5336 92.938 23.6524C92.9812 23.7712 93.0482 23.8799 93.135 23.9719C93.2217 24.0639 93.3263 24.1372 93.4424 24.1873C93.5584 24.2374 93.6835 24.2632 93.8099 24.2632C93.9364 24.2632 94.0615 24.2374 94.1775 24.1873C94.2936 24.1372 94.3982 24.0639 94.4849 23.9719C94.5717 23.8799 94.6387 23.7712 94.6818 23.6524C94.725 23.5336 94.7435 23.4072 94.736 23.281V23.1301C94.7232 23.0852 94.7232 22.4785 94.7328 22.395Z" fill="#FFD075"/>
<path d="M90.6753 22.3694C90.6753 22.2378 90.6753 21.1367 90.6528 21.2073C90.6304 21.278 90.6528 19.6537 90.6143 19.5189C90.6192 19.4494 90.6192 19.3797 90.6143 19.3102C90.6215 19.1909 90.6043 19.0713 90.5636 18.9589C90.5229 18.8465 90.4596 18.7436 90.3777 18.6566C90.2957 18.5695 90.1969 18.5001 90.0871 18.4527C89.9774 18.4053 89.8591 18.3809 89.7396 18.3809C89.62 18.3809 89.5017 18.4053 89.392 18.4527C89.2822 18.5001 89.1834 18.5695 89.1014 18.6566C89.0195 18.7436 88.9562 18.8465 88.9155 18.9589C88.8749 19.0713 88.8576 19.1909 88.8648 19.3102C88.8648 19.384 88.8648 21.2748 88.8295 21.2041C88.7942 21.1335 88.7942 22.119 88.8103 22.2121C88.8103 22.2506 88.8103 23.0692 88.8103 23.1109V23.2553C88.8028 23.3815 88.8213 23.5079 88.8644 23.6267C88.9076 23.7456 88.9746 23.8543 89.0614 23.9463C89.1481 24.0383 89.2527 24.1116 89.3688 24.1616C89.4848 24.2117 89.6099 24.2376 89.7363 24.2376C89.8628 24.2376 89.9879 24.2117 90.1039 24.1616C90.22 24.1116 90.3246 24.0383 90.4113 23.9463C90.4981 23.8543 90.5651 23.7456 90.6082 23.6267C90.6514 23.5079 90.6699 23.3815 90.6624 23.2553V23.1045C90.6624 23.0627 90.6624 22.4528 90.6753 22.3694Z" fill="#FFD075"/>
<path d="M89.8472 29.7107C80.0502 29.7685 70.2661 29.8969 60.4594 30.0124C57.6828 30.0445 54.9061 30.0734 52.1326 30.1633C52.1088 30.1633 52.0859 30.1728 52.0691 30.1896C52.0522 30.2065 52.0427 30.2294 52.0427 30.2532C52.0427 30.277 52.0522 30.2999 52.0691 30.3168C52.0859 30.3336 52.1088 30.3431 52.1326 30.3431C57.0311 30.3976 61.9296 30.2981 66.8281 30.2436L81.5236 30.0799C84.3056 30.0478 87.0812 30.0103 89.8504 29.9675C89.8845 29.9671 89.917 29.9531 89.9407 29.9288C89.9645 29.9044 89.9776 29.8715 89.9772 29.8375C89.9768 29.8034 89.9629 29.771 89.9385 29.7472C89.9141 29.7234 89.8813 29.7103 89.8472 29.7107Z" fill="#313B59"/>
<path d="M97.4581 29.8969C96.4951 29.9418 95.5321 29.9547 94.5691 29.9354C94.0876 29.9354 93.6061 29.9065 93.1246 29.8873C92.6772 29.8263 92.2237 29.8263 91.7764 29.8873C91.7122 29.8873 91.725 29.9836 91.7764 30.006C92.2143 30.1317 92.6693 30.187 93.1246 30.1697C93.6029 30.205 94.0876 30.2211 94.5659 30.2307C95.531 30.25 96.494 30.2371 97.4549 30.1922C97.6347 30.1697 97.6379 29.8905 97.4581 29.8969Z" fill="#313B59"/>
<path d="M45.7285 21.4801C45.7285 21.1816 45.7285 20.8799 45.7285 20.5813C45.7285 20.4304 45.7285 20.2796 45.7285 20.1319C45.7431 19.9826 45.7333 19.8319 45.6996 19.6857C45.6927 19.6634 45.6789 19.6439 45.6601 19.63C45.6414 19.6161 45.6186 19.6086 45.5953 19.6086C45.5719 19.6086 45.5492 19.6161 45.5304 19.63C45.5116 19.6439 45.4978 19.6634 45.4909 19.6857C45.4604 19.8313 45.4539 19.981 45.4717 20.1287C45.4717 20.2667 45.4717 20.4048 45.4717 20.546L45.4877 21.4801C45.4689 22.075 45.4936 22.6704 45.5616 23.2617C45.5616 23.3291 45.6867 23.3323 45.6964 23.2617C45.7487 22.6693 45.7594 22.074 45.7285 21.4801Z" fill="white"/>
<path d="M78.0856 15.0761C75.9734 14.9798 73.8484 15.0279 71.733 15.0279C69.6176 15.0279 67.4989 15.0279 65.3803 15.0504C61.1966 15.091 57.0161 15.1713 52.8387 15.2911C50.4505 15.3617 48.0622 15.4324 45.674 15.5543C45.6423 15.5557 45.6122 15.5685 45.5892 15.5903C45.5662 15.6122 45.5518 15.6416 45.5488 15.6731C45.4557 15.7437 45.4846 15.9492 45.4846 16.0487C45.4846 16.2445 45.4846 16.4371 45.4846 16.6329C45.4846 16.8287 45.5006 16.9956 45.5071 17.1786C45.4999 17.3722 45.5139 17.5659 45.5488 17.7564C45.5558 17.7795 45.57 17.7997 45.5894 17.8141C45.6087 17.8285 45.6322 17.8362 45.6563 17.8362C45.6804 17.8362 45.7039 17.8285 45.7233 17.8141C45.7426 17.7997 45.7569 17.7795 45.7639 17.7564C45.7863 17.5656 45.7863 17.3727 45.7639 17.1818C45.7639 16.9989 45.7639 16.8159 45.7639 16.6361C45.7639 16.4564 45.7639 16.2445 45.7639 16.0487C45.768 15.9728 45.768 15.8967 45.7639 15.8208C54.1484 15.6025 62.5298 15.3682 70.9176 15.3489C73.3027 15.3489 75.6973 15.4195 78.0856 15.3489C78.1156 15.3409 78.1422 15.3231 78.1611 15.2985C78.18 15.2738 78.1903 15.2436 78.1903 15.2125C78.1903 15.1814 78.18 15.1512 78.1611 15.1265C78.1422 15.1018 78.1156 15.0841 78.0856 15.0761Z" fill="white"/>
<path d="M59.9874 92.7813L59.9296 91.0768C59.9288 91.0486 59.9221 91.0209 59.9099 90.9955C59.8978 90.97 59.8804 90.9474 59.859 90.9291C59.8346 90.8732 59.7948 90.8253 59.7442 90.7912C59.6936 90.7571 59.6343 90.7381 59.5733 90.7365C58.8551 90.6733 58.1335 90.6551 57.413 90.6819C56.7324 90.6819 56.0487 90.6819 55.365 90.6819C53.9226 90.6819 52.4792 90.6819 51.0347 90.6819C49.5901 90.6819 48.1735 90.6894 46.7846 90.7044C45.3433 90.7044 43.8956 90.7044 42.4543 90.7943C42.413 90.7978 42.3721 90.8053 42.3323 90.8168C42.405 94.6538 42.466 98.4909 42.5152 102.328C42.5705 102.385 42.6449 102.419 42.7239 102.424C44.1074 102.549 45.5423 102.482 46.9355 102.469C48.3832 102.469 49.8245 102.431 51.2818 102.411L55.5512 102.357L57.6858 102.325C58.4119 102.345 59.1386 102.324 59.8622 102.26C59.8804 102.262 59.8987 102.262 59.9168 102.26C59.9737 102.253 60.0284 102.233 60.0773 102.203C60.0773 100.421 60.0773 98.6364 60.0259 96.8741C59.981 95.4873 59.981 94.1327 59.9874 92.7813Z" fill="#BFCAD4"/>
<path d="M58.2444 93.4842C57.6923 93.9882 57.1338 94.4761 56.572 94.964C56.1611 94.6045 55.7567 94.2353 55.3554 93.8694C55.3072 93.824 55.2435 93.7988 55.1773 93.7988C55.111 93.7988 55.0473 93.824 54.9991 93.8694C53.5064 95.2529 52.033 96.6557 50.5404 98.0424C49.9305 97.3747 49.3173 96.7038 48.7299 96.0137C48.681 95.9672 48.6161 95.9412 48.5485 95.9412C48.481 95.9412 48.4161 95.9672 48.3672 96.0137C47.539 96.6942 46.7622 97.4646 45.9789 98.1997C45.1957 98.9348 44.4028 99.6763 43.6805 100.476C43.5971 100.569 43.7159 100.736 43.825 100.655C44.6757 100.013 45.4782 99.304 46.2774 98.601C47.0767 97.898 47.8215 97.2656 48.5437 96.5562C49.1665 97.1982 49.77 97.8562 50.3734 98.5143C50.3944 98.5356 50.4193 98.5526 50.4469 98.5642C50.4745 98.5758 50.5041 98.5817 50.5339 98.5817C50.5638 98.5817 50.5934 98.5758 50.621 98.5642C50.6486 98.5526 50.6735 98.5356 50.6944 98.5143C52.1871 97.1308 53.699 95.7697 55.1885 94.3862C55.5962 94.7393 56.0038 95.0956 56.4019 95.4615C56.4489 95.5056 56.5108 95.53 56.5752 95.53C56.6396 95.53 56.7016 95.5056 56.7486 95.4615C57.3713 94.9191 57.9908 94.3766 58.6232 93.8565C58.8768 93.6383 58.5044 93.2563 58.2444 93.4842Z" fill="white"/>
<path d="M14.7999 95.7859C14.6601 95.5129 14.498 95.252 14.3152 95.0058C14.4821 94.4024 14.7133 93.571 14.7325 93.4811C14.7614 93.3398 15.137 92.6336 15.0792 92.5181C15.0214 92.4025 12.7937 90.9131 12.63 90.9131C12.4662 90.9131 11.1951 92.1393 10.6301 92.6689C9.88138 92.5182 9.11184 92.5019 8.35741 92.6208C7.92085 92.1072 6.65288 90.6113 6.52769 90.5632C6.4025 90.515 4.07201 91.7348 3.91151 91.8825C3.75101 92.0302 4.19721 93.1312 4.27746 93.5421C4.31919 93.7507 4.41549 94.2097 4.50216 94.6367C4.3866 94.7619 4.27425 94.8903 4.18116 95.0251C3.85389 95.4443 3.582 95.9039 3.37223 96.3926C2.58256 96.5499 0.646911 96.9383 0.57629 96.9928C0.50567 97.0474 0.55703 97.1566 0.57629 97.2785C0.59555 97.4005 0.483204 99.0376 0.460734 99.2463C0.438264 99.4549 0.422209 99.7695 0.415789 99.914C0.409369 100.058 2.18453 100.556 3.09939 100.838C3.25017 101.402 3.47695 101.942 3.77348 102.443C3.85373 102.575 3.94362 102.707 4.03671 102.835C3.73817 103.676 3.18605 105.272 3.23099 105.358C3.27593 105.445 3.55199 105.58 3.55199 105.58C3.55199 105.58 5.47801 106.941 5.58715 106.918C5.6963 106.896 5.69629 106.938 5.78617 106.867C5.87606 106.796 7.2371 105.605 7.54526 105.262C8.32141 105.504 9.14276 105.566 9.94636 105.442C10.5274 106.084 11.6605 107.368 11.7279 107.329C11.7953 107.291 12.0489 107.169 12.0489 107.169C12.0489 107.169 14.3377 106.109 14.3345 106.013C14.3313 105.917 14.3056 105.657 14.3056 105.657L13.7727 103.442C14.2925 102.872 14.6892 102.201 14.938 101.471C15.4163 101.368 16.0005 101.249 16.222 101.22C16.559 101.179 17.6247 101.031 17.6922 100.899C17.7334 100.819 17.7595 100.732 17.7692 100.643L17.8591 97.9751L17.8013 97.8596C17.8013 97.8596 16.0197 97.3138 15.2814 97.1052C15.1804 96.6459 15.0185 96.2022 14.7999 95.7859ZM11.4968 100.781C11.2153 101.126 10.8612 101.406 10.4595 101.6C10.0579 101.793 9.61858 101.896 9.17275 101.901C8.55474 101.941 7.94226 101.763 7.44254 101.397C6.81199 100.951 6.38108 100.276 6.24199 99.5159C6.14903 99.0289 6.17963 98.5263 6.33102 98.0542C6.48241 97.582 6.74976 97.1554 7.10861 96.8132C7.46745 96.471 7.90635 96.2243 8.38517 96.0955C8.86399 95.9667 9.36745 95.9601 9.84951 96.0761C10.3316 96.1921 10.7769 96.4271 11.1447 96.7597C11.5125 97.0922 11.791 97.5116 11.9549 97.9796C12.1187 98.4476 12.1627 98.9491 12.0826 99.4385C12.0026 99.9278 11.8012 100.389 11.4968 100.781Z" fill="#A1B0BA"/>
<path d="M16.7131 82.3036C16.6064 82.116 16.484 81.9377 16.3472 81.7707C16.4467 81.3406 16.5815 80.7467 16.5943 80.6858C16.6072 80.6248 16.8479 80.0759 16.8062 79.9988C16.2462 79.5996 15.6535 79.2484 15.0343 78.9491C14.5587 79.3488 14.1084 79.7776 13.6861 80.2331C13.153 80.1503 12.6095 80.1634 12.081 80.2717C11.76 79.925 10.8195 78.9138 10.7296 78.8849C10.6397 78.856 9.04115 79.787 8.93522 79.8961C8.82929 80.0052 9.17276 80.7628 9.25623 81.0485C9.29154 81.1962 9.37499 81.5139 9.44882 81.8125C9.37178 81.9024 9.29795 81.9987 9.22733 82.095C9.00899 82.3987 8.83195 82.7301 8.70088 83.0804C8.14875 83.2185 6.80375 83.5523 6.7556 83.5908C6.70745 83.6294 6.7556 83.7096 6.7556 83.7931C6.7556 83.8765 6.7556 85.0321 6.73634 85.1798C6.71708 85.3275 6.73634 85.5489 6.73634 85.6517C6.73634 85.7544 7.99788 86.0529 8.66236 86.2134C8.78647 86.6018 8.96363 86.9713 9.18881 87.3112C9.2498 87.4011 9.31399 87.491 9.38461 87.5777C9.18926 88.1673 9.02743 88.7674 8.8999 89.3753C8.94805 89.4588 9.12782 89.523 9.12782 89.523C9.12782 89.523 10.5338 90.4153 10.598 90.3993C10.6622 90.3832 10.6751 90.3993 10.736 90.3544C10.797 90.3094 11.6991 89.4234 11.9205 89.1795C12.4744 89.325 13.0542 89.3415 13.6154 89.2276C14.0269 89.6805 14.4642 90.1092 14.9251 90.5117C14.9861 90.4828 15.1498 90.3897 15.1498 90.3897C15.6875 90.1208 16.2114 89.8251 16.7195 89.5037C16.7195 89.4363 16.6874 89.2533 16.6874 89.2533L16.2412 87.7125C16.5898 87.2974 16.8478 86.8142 16.9988 86.2937C17.3198 86.207 17.7371 86.1043 17.8912 86.0754C18.1255 86.0369 18.8702 85.8988 18.912 85.8057C18.9392 85.7484 18.9545 85.6862 18.9569 85.6228L18.9377 83.7449L18.8927 83.6647C18.8927 83.6647 17.6087 83.3437 17.0983 83.2153C17.0123 82.8952 16.8827 82.5884 16.7131 82.3036ZM14.5528 85.9149C14.3656 86.1684 14.1245 86.3773 13.847 86.5265C13.5695 86.6758 13.2624 86.7618 12.9478 86.7784C12.5146 86.8265 12.0783 86.7208 11.7151 86.4799C11.2574 86.1864 10.9325 85.7256 10.8099 85.1958C10.7288 84.8566 10.734 84.5024 10.8251 84.1657C10.9162 83.829 11.0903 83.5205 11.3314 83.2684C11.5725 83.0163 11.873 82.8287 12.2053 82.7228C12.5377 82.6168 12.8913 82.5958 13.2338 82.6618C13.5764 82.7278 13.8969 82.8786 14.1661 83.1004C14.4353 83.3222 14.6446 83.608 14.7748 83.9316C14.9051 84.2552 14.9521 84.6063 14.9116 84.9528C14.8712 85.2992 14.7445 85.63 14.5431 85.9149H14.5528Z" fill="#A1B0BA"/>
<path d="M107.152 91.9337L107.123 91.6448C107.123 91.6448 107.098 91.6255 107.069 91.6191C106.996 91.5948 106.918 91.5839 106.841 91.587C106.282 91.5645 105.685 91.5677 105.117 91.5645H103.483L100.029 91.5388L96.6396 91.5164C95.4904 91.5164 94.3283 91.4971 93.1855 91.5164H93.0764C93.0989 92.1584 93.1117 92.8164 93.1149 93.4681C93.1697 93.4804 93.2257 93.4869 93.2819 93.4873C94.3829 93.5162 95.5289 93.513 96.6396 93.5194H100.106H103.512H105.217C105.785 93.5194 106.392 93.5194 106.953 93.5194H106.998H107.123C107.141 93.2179 107.141 92.9157 107.123 92.6142C107.117 92.387 107.127 92.1596 107.152 91.9337Z" fill="#A1B0BA"/>
<path d="M100.877 95.7312C100.877 95.6349 100.877 95.5386 100.877 95.4423C100.877 95.4423 100.861 95.423 100.845 95.4166C100.807 95.3931 100.764 95.3809 100.719 95.3813C100.398 95.3621 100.077 95.3813 99.7564 95.3813C99.4354 95.3813 99.1561 95.3813 98.8544 95.3813L96.9284 95.3621H95.0537C94.4117 95.3621 93.7697 95.3621 93.1277 95.3621H93.0699C93.0699 96.0041 93.0699 96.6557 93.0699 97.317C93.1002 97.3262 93.1315 97.3315 93.163 97.333C93.7729 97.3587 94.4053 97.3523 95.0184 97.3587H96.9445H98.8287H99.7693C100.09 97.3587 100.411 97.3587 100.732 97.3587H100.758C100.781 97.3623 100.805 97.3623 100.829 97.3587C100.829 97.057 100.829 96.7552 100.829 96.4567C100.841 96.1903 100.848 95.9591 100.877 95.7312Z" fill="#A1B0BA"/>
<path d="M104.6 99.5769C104.6 99.4806 104.6 99.3843 104.575 99.288C104.575 99.288 104.555 99.2687 104.53 99.2623C104.472 99.2378 104.409 99.2268 104.347 99.2302C103.891 99.2109 103.384 99.2109 102.934 99.2077H101.599L98.771 99.1885L95.9911 99.1692C95.0538 99.1692 94.1004 99.1499 93.1631 99.1692H93.0764C93.0764 99.8112 93.1053 100.453 93.1053 101.121C93.15 101.128 93.1955 101.128 93.2401 101.121C94.1454 101.15 95.0795 101.147 95.9911 101.153H98.832H101.618H103.015C103.48 101.153 103.978 101.153 104.437 101.153H104.472H104.575C104.575 100.851 104.597 100.546 104.575 100.248C104.571 100.024 104.58 99.7999 104.6 99.5769Z" fill="#A1B0BA"/>
<path d="M50.3798 72.051C50.3798 71.9547 50.3798 71.8584 50.3573 71.7621C50.3573 71.7621 50.3381 71.746 50.3156 71.7364C50.2589 71.7121 50.1974 71.7012 50.1359 71.7043C49.6961 71.6851 49.2242 71.6883 48.778 71.6818H47.494L44.7719 71.6594L42.098 71.6433C41.1927 71.6433 40.2746 71.6241 39.3758 71.6433H39.2892C39.2892 72.2853 39.3181 72.9434 39.3181 73.595C39.3608 73.6072 39.4052 73.6126 39.4497 73.6111C40.3196 73.64 41.2184 73.6368 42.0947 73.64H44.8297H47.5133H48.8551C49.3045 73.64 49.7828 73.64 50.2257 73.64H50.2611H50.3606C50.3606 73.3382 50.383 73.0365 50.3606 72.7347C50.3544 72.5066 50.3608 72.2784 50.3798 72.051Z" fill="#A1B0BA"/>
<path d="M47.0703 75.8645C47.0703 75.7682 47.0703 75.6687 47.0703 75.5724C47.0703 75.5724 47.0703 75.5724 47.0414 75.5499C47.0046 75.5249 46.9607 75.5125 46.9162 75.5146C46.5952 75.4954 46.2742 75.4986 45.9532 75.4954H45.0512L43.1252 75.4793H41.2505C40.6085 75.4793 39.9665 75.4633 39.3405 75.4793H39.2795C39.2924 76.1213 39.2988 76.7719 39.2988 77.431C39.3272 77.4433 39.3578 77.4498 39.3887 77.4503C39.9986 77.4759 40.631 77.4695 41.2473 77.4727H43.1733H45.0576H45.9853C46.3063 77.4727 46.6273 77.4727 46.9483 77.4727H46.9708C46.9943 77.475 47.0179 77.475 47.0414 77.4727C47.0414 77.171 47.0414 76.8692 47.0414 76.5675C47.051 76.3203 47.0607 76.0924 47.0703 75.8645Z" fill="#A1B0BA"/>
<path d="M130.297 16.4566C128.692 13.0122 124.875 11.0477 121.129 11.5516C118.24 11.9368 115.813 13.9174 114.564 16.4855C114.545 16.5141 114.53 16.5455 114.519 16.5785C114.179 17.292 113.935 18.0476 113.794 18.8256C113.591 20.1777 113.693 21.5583 114.093 22.8659C114.493 24.1734 115.18 25.3749 116.105 26.382C116.063 26.4365 117.042 27.345 117.546 27.6275C118.272 28.0352 119.051 28.3388 119.861 28.5295C121.218 28.8359 122.626 28.8444 123.987 28.5546C125.348 28.2648 126.63 27.6834 127.745 26.8506C129.268 25.6504 130.346 23.9757 130.808 22.0925C131.271 20.2093 131.091 18.2257 130.297 16.4566ZM128.82 15.6316C128.92 15.7792 129.013 15.9333 129.103 16.0874C128.807 16.0264 128.509 15.9847 128.229 15.9269C127.767 15.8306 127.292 15.7504 126.823 15.6797C126.648 14.8584 126.414 14.0506 126.124 13.2626C127.204 13.8184 128.13 14.6321 128.82 15.6316ZM122.105 24.2409C120.923 24.2409 119.745 24.1799 118.574 24.09C118.244 23.0124 118.046 21.8991 117.983 20.7741C119.392 20.7901 120.805 20.7741 122.207 20.7741C122.207 21.9265 122.207 23.0788 122.15 24.2312L122.105 24.2409ZM122.814 20.1385C122.843 18.7582 122.853 17.3682 122.814 15.9879C123.924 15.9893 125.033 16.0633 126.133 16.2094L126.345 16.2383C126.587 17.518 126.682 18.8212 126.628 20.1224C125.353 20.1449 124.082 20.132 122.814 20.1385ZM126.586 20.7484C126.586 20.7869 126.586 20.8254 126.586 20.8639C126.489 21.9615 126.287 23.0473 125.982 24.1061C124.891 24.1874 123.796 24.2302 122.699 24.2345C122.74 23.0853 122.776 21.9329 122.801 20.7837C124.06 20.7869 125.324 20.758 126.586 20.7484ZM125.334 12.9031C125.701 13.7729 125.992 14.6729 126.204 15.5931C125.071 15.4525 123.933 15.3711 122.792 15.3491C122.792 14.8195 122.769 14.2898 122.747 13.7441C122.759 13.2707 122.745 12.7971 122.705 12.3253C123.607 12.3754 124.494 12.5705 125.334 12.9031ZM122.207 20.1353C120.792 20.1353 119.373 20.1032 117.954 20.0775V20.0582C117.963 18.7531 118.159 17.4559 118.535 16.2062C119.737 16.0634 120.946 15.9862 122.156 15.9751C122.185 17.3682 122.198 18.7453 122.207 20.1353ZM122.002 12.322C122.002 12.767 122.026 13.2117 122.073 13.6542C122.073 14.2192 122.114 14.7809 122.137 15.3427C121.007 15.3464 119.878 15.4161 118.757 15.5513C119.116 14.553 119.591 13.6061 120.041 12.6463C120.677 12.4525 121.337 12.3446 122.002 12.3253V12.322ZM119.373 12.887C118.786 13.731 118.331 14.6598 118.025 15.6412C117.221 15.7389 116.424 15.889 115.64 16.0906C116.526 14.6647 117.829 13.5461 119.373 12.887ZM115.255 16.7583C116.112 16.6235 116.959 16.4534 117.823 16.3217C117.51 17.5134 117.336 18.7369 117.303 19.9683C117.303 20.0036 117.303 20.0357 117.303 20.0678C116.339 20.0678 115.357 20.0518 114.385 20.0678C114.431 18.9146 114.728 17.7854 115.255 16.7583ZM117.306 20.7644C117.34 21.8656 117.503 22.959 117.79 24.0226C117.383 23.9841 116.975 23.9488 116.567 23.9038C116.114 23.8257 115.656 23.7817 115.197 23.7722C114.702 22.7943 114.423 21.7215 114.378 20.6264C115.351 20.7034 116.327 20.7452 117.306 20.7644ZM117.973 27.0464C116.977 26.3042 116.134 25.3753 115.492 24.3115C115.771 24.3693 116.063 24.3982 116.33 24.4335C116.872 24.5041 117.418 24.5619 117.964 24.6132C118.272 25.6117 118.704 26.5681 119.248 27.4605C118.811 27.3418 118.391 27.2037 117.973 27.0464ZM121.996 27.8746C121.365 27.8684 120.736 27.8006 120.118 27.6724C119.578 26.7197 119.125 25.7206 118.763 24.6871C119.877 24.7737 121.01 24.8251 122.108 24.8315H122.127C122.101 25.4157 122.076 25.9968 122.053 26.581C122.01 27.0108 121.991 27.4427 121.996 27.8746ZM124.564 27.4926C124.001 27.6688 123.421 27.7861 122.833 27.8425C122.715 27.8425 122.593 27.8586 122.474 27.865C122.524 27.4688 122.553 27.0702 122.561 26.6709C122.605 26.0513 122.634 25.4318 122.657 24.8123C123.7 24.8123 124.74 24.777 125.78 24.7063C125.754 24.7802 125.735 24.8508 125.713 24.9246C125.494 25.5712 125.234 26.2028 124.933 26.8153C124.859 26.9919 124.698 27.239 124.576 27.4926H124.564ZM128.213 25.2456C127.4 26.0969 126.415 26.7665 125.324 27.2102L125.427 26.9919C125.738 26.3672 126.01 25.724 126.242 25.0659C126.291 24.931 126.329 24.7898 126.374 24.655C127.23 24.5844 128.08 24.4881 128.923 24.3661C128.717 24.6835 128.484 24.9821 128.226 25.2585L128.213 25.2456ZM129.269 23.7626C128.369 23.8739 127.464 23.967 126.557 24.0419C126.847 22.9982 127.04 21.9301 127.135 20.8511C127.135 20.8094 127.135 20.7676 127.135 20.7259L128.666 20.697C129.149 20.7321 129.635 20.7257 130.117 20.6777C130.059 21.7574 129.775 22.8129 129.282 23.7754L129.269 23.7626ZM128.804 20.0935L127.199 20.116C127.253 18.8472 127.171 17.5764 126.955 16.325C127.327 16.3827 127.703 16.4405 128.075 16.5111C128.531 16.5946 129.006 16.7615 129.478 16.8321C129.921 17.8541 130.154 18.9542 130.165 20.0678C129.711 20.038 129.256 20.0466 128.804 20.0935Z" fill="#A1B0BA"/>
<path d="M110.186 45.3885C110.186 44.8524 110.186 44.3131 110.163 43.7834C110.16 43.7312 110.14 43.6815 110.106 43.6422C110.087 43.5922 110.054 43.5486 110.011 43.5163C109.969 43.4839 109.918 43.4642 109.865 43.4592C109.258 43.3884 108.646 43.3595 108.035 43.3726L106.302 43.3373C105.082 43.3116 103.86 43.2912 102.636 43.2763C101.435 43.257 100.238 43.2442 99.0374 43.2345C97.8369 43.2249 96.5817 43.1767 95.3683 43.257C95.3337 43.2613 95.2994 43.2677 95.2656 43.2763C95.2656 46.9015 95.2656 50.5256 95.2656 54.1486C95.2862 54.1756 95.3123 54.1979 95.3422 54.214C95.3721 54.23 95.4051 54.2395 95.439 54.2417C96.6238 54.3434 97.8134 54.3777 99.0021 54.3444C100.232 54.3444 101.458 54.3444 102.687 54.3444H106.302H108.109C108.723 54.3734 109.339 54.3638 109.951 54.3155H110C110.048 54.3089 110.094 54.2913 110.134 54.2642C110.16 52.5821 110.176 50.8969 110.163 49.2309C110.157 47.9372 110.186 46.6725 110.186 45.3885Z" fill="#FFBB39"/>
<path d="M106.976 45.4975C106.976 45.4237 106.976 45.3531 106.953 45.2792C106.953 45.2792 106.953 45.2792 106.915 45.26C106.863 45.2404 106.807 45.2316 106.751 45.2343C106.353 45.2343 105.923 45.2343 105.519 45.2343H104.35L101.875 45.215L99.4452 45.199C98.6234 45.199 97.7888 45.199 96.9702 45.199H96.8932C96.9103 45.6912 96.92 46.1823 96.9221 46.6724C96.9616 46.676 97.0014 46.676 97.0409 46.6724C97.8305 46.6948 98.6459 46.6916 99.4452 46.6948H101.93H104.369H105.589C105.997 46.6948 106.43 46.6948 106.831 46.6948H106.864H106.957C106.969 46.4682 106.969 46.241 106.957 46.0143C106.952 45.8418 106.958 45.6692 106.976 45.4975Z" fill="white"/>
<path d="M108.388 48.3544C108.388 48.2806 108.372 48.2068 108.363 48.1362C108.363 48.1362 108.343 48.1201 108.321 48.1169C108.261 48.0978 108.198 48.0892 108.135 48.0912C107.679 48.0752 107.191 48.0912 106.729 48.072H105.396L102.575 48.0527L99.8078 48.0334C98.8705 48.0334 97.9203 48.0334 96.9894 48.0334H96.8995C96.9188 48.5214 96.9316 49.0125 96.9316 49.5036C96.9775 49.5086 97.0238 49.5086 97.0697 49.5036C97.9685 49.5261 98.9026 49.5261 99.8078 49.5293H102.639H105.419H106.809C107.274 49.5293 107.772 49.5293 108.228 49.5293H108.263H108.366C108.382 49.3028 108.382 49.0754 108.366 48.8488C108.363 48.6837 108.371 48.5186 108.388 48.3544Z" fill="white"/>
<path d="M105.621 51.1889L105.602 50.9706C105.602 50.9706 105.602 50.9706 105.57 50.9514C105.525 50.9322 105.477 50.9235 105.429 50.9257C105.082 50.9257 104.713 50.9257 104.36 50.9096H103.348L101.207 50.8904H99.108C98.3954 50.8904 97.6763 50.8904 96.9669 50.8904H96.8995C96.8995 51.3815 96.922 51.8726 96.922 52.3638C96.9561 52.3687 96.9907 52.3687 97.0247 52.3638C97.7085 52.3863 98.4179 52.383 99.1048 52.3862H101.256H103.365H104.408C104.761 52.3862 105.136 52.3862 105.483 52.3862H105.512H105.589C105.589 52.1583 105.589 51.9304 105.589 51.7025C105.59 51.5309 105.601 51.3594 105.621 51.1889Z" fill="white"/>
</g>
<defs>
<clipPath id="clip0_229_32384">
<rect width="145.61" height="126.687" fill="white" transform="translate(0.390137 0.769043)"/>
</clipPath>
</defs>
</svg>
