<svg width="17" height="12" viewBox="0 0 17 12" fill="none" xmlns="http://www.w3.org/2000/svg">
<g clip-path="url(#clip0_408_4698)">
<path d="M0.61249 2.95884e-05C0.532344 -0.0064786 0.451727 0.00413128 0.375994 0.0311558C0.30026 0.0581803 0.23114 0.101001 0.173219 0.156777C0.115298 0.212554 0.0698969 0.280009 0.0400348 0.354669C0.0101727 0.429329 -0.00346731 0.509486 1.29193e-05 0.589822C-9.58815e-05 0.748405 0.0613061 0.90085 0.171307 1.01508C0.281307 1.12931 0.431335 1.19642 0.58981 1.2023H10.208C10.3686 1.19666 10.5211 1.13032 10.6348 1.01665C10.7485 0.902993 10.8148 0.750464 10.8204 0.589822C10.8204 0.433399 10.7583 0.283383 10.6477 0.172775C10.5371 0.0621679 10.3871 2.95884e-05 10.2306 2.95884e-05H0.61249ZM12.6125 2.95884e-05C12.5332 -0.00302424 12.454 0.00997287 12.3798 0.0382424C12.3056 0.0665119 12.2379 0.109472 12.1807 0.164546C12.1235 0.21962 12.078 0.285676 12.047 0.358753C12.0159 0.431829 12 0.510423 12 0.589822V7.59927C11.639 7.37554 11.2225 7.25765 10.7977 7.25901C10.3281 7.25976 9.86902 7.39801 9.47708 7.65669C9.08514 7.91537 8.77752 8.28316 8.5922 8.71466C8.40688 9.14616 8.35198 9.62248 8.43426 10.0848C8.51654 10.5472 8.7324 10.9753 9.0552 11.3164C9.378 11.6575 9.79361 11.8965 10.2507 12.0041C10.7079 12.1117 11.1865 12.0831 11.6275 11.9218C12.0686 11.7605 12.4527 11.4736 12.7326 11.0964C13.0124 10.7193 13.1757 10.2685 13.2023 9.79965V1.2023H16.1966C16.2808 1.20855 16.3653 1.19734 16.445 1.16937C16.5246 1.1414 16.5976 1.09728 16.6593 1.03977C16.7211 0.982263 16.7703 0.912609 16.8039 0.835179C16.8375 0.75775 16.8547 0.674217 16.8545 0.589822C16.8545 0.433399 16.7923 0.283383 16.6817 0.172775C16.5711 0.0621679 16.4211 2.95884e-05 16.2647 2.95884e-05H12.6125ZM0.61249 4.78642C0.453906 4.78631 0.30146 4.84772 0.187229 4.95772C0.0729975 5.06772 0.00588636 5.21774 1.29193e-05 5.37621C-0.00304091 5.45555 0.00995675 5.53469 0.0382262 5.60889C0.0664957 5.68308 0.109456 5.75081 0.164531 5.808C0.219605 5.86519 0.285662 5.91068 0.358739 5.94172C0.431815 5.97277 0.510411 5.98875 0.58981 5.98869H10.208C10.2923 5.98892 10.3759 5.97171 10.4533 5.93813C10.5307 5.90455 10.6004 5.85533 10.6579 5.79357C10.7154 5.7318 10.7595 5.65881 10.7875 5.57918C10.8155 5.49955 10.8267 5.41501 10.8204 5.33084C10.8205 5.17226 10.7591 5.01981 10.6491 4.90558C10.5391 4.79135 10.3891 4.72424 10.2306 4.71837H0.61249V4.78642ZM10.7977 8.39322C10.9565 8.39014 11.1142 8.41913 11.2615 8.47846C11.4087 8.53779 11.5425 8.62623 11.6547 8.73849C11.767 8.85075 11.8555 8.98452 11.9148 9.13178C11.9741 9.27904 12.0031 9.43676 12 9.59549C12 9.91435 11.8733 10.2202 11.6479 10.4456C11.4224 10.6711 11.1166 10.7978 10.7977 10.7978C10.4789 10.7978 10.1731 10.6711 9.94762 10.4456C9.72215 10.2202 9.59548 9.91435 9.59548 9.59549C9.59548 9.27663 9.72215 8.97083 9.94762 8.74536C10.1731 8.51989 10.4789 8.39322 10.7977 8.39322ZM0.61249 9.59549C0.523787 9.57818 0.432355 9.58071 0.344746 9.60291C0.257137 9.62511 0.175525 9.66642 0.105766 9.72388C0.0360068 9.78134 -0.0201759 9.85352 -0.0587435 9.93526C-0.0973111 10.017 -0.11731 10.1062 -0.11731 10.1966C-0.11731 10.287 -0.0973111 10.3763 -0.0587435 10.458C-0.0201759 10.5397 0.0360068 10.6119 0.105766 10.6694C0.175525 10.7268 0.257137 10.7681 0.344746 10.7903C0.432355 10.8125 0.523787 10.8151 0.61249 10.7978H6.62384C6.76328 10.7705 6.88892 10.6957 6.97926 10.586C7.06959 10.4764 7.11898 10.3387 7.11898 10.1966C7.11898 10.0545 7.06959 9.91689 6.97926 9.80722C6.88892 9.69756 6.76328 9.62271 6.62384 9.59549H0.61249Z" fill="white"/>
</g>
<defs>
<clipPath id="clip0_408_4698">
<rect width="16.8318" height="12" fill="white"/>
</clipPath>
</defs>
</svg>
