<svg width="34" height="34" viewBox="0 0 34 34" fill="none" xmlns="http://www.w3.org/2000/svg">
<g filter="url(#filter0_d_179_2152)">
<circle cx="15" cy="15" r="12" fill="white"/>
</g>
<path d="M21.6548 15.1838C21.6548 14.717 21.6097 14.2352 21.5344 13.7834H15.0143V16.4487H18.7487C18.5981 17.307 18.1012 18.0599 17.3633 18.5418L19.5919 20.2734C20.9019 19.0537 21.6548 17.2769 21.6548 15.1838Z" fill="#4280EF"/>
<path d="M15.0142 21.9298C16.8814 21.9298 18.4474 21.3125 19.5918 20.2584L17.3633 18.5418C16.7459 18.9634 15.9478 19.2044 15.0142 19.2044C13.2073 19.2044 11.6864 17.9847 11.1293 16.3584L8.84045 18.1202C10.015 20.4542 12.3941 21.9298 15.0142 21.9298Z" fill="#34A353"/>
<path d="M11.1291 16.3435C10.843 15.4852 10.843 14.5516 11.1291 13.6933L8.84028 11.9165C7.86151 13.874 7.86151 16.1779 8.84028 18.1204L11.1291 16.3435Z" fill="#F6B704"/>
<path d="M15.0142 10.8473C15.993 10.8322 16.9567 11.2086 17.6644 11.8863L19.637 9.89861C18.3872 8.72408 16.7309 8.09165 15.0142 8.10671C12.3942 8.10671 10.015 9.58239 8.84048 11.9164L11.1293 13.6932C11.6864 12.0519 13.2073 10.8473 15.0142 10.8473Z" fill="#E54335"/>
<defs>
<filter id="filter0_d_179_2152" x="0" y="0" width="34" height="34" filterUnits="userSpaceOnUse" color-interpolation-filters="sRGB">
<feFlood flood-opacity="0" result="BackgroundImageFix"/>
<feColorMatrix in="SourceAlpha" type="matrix" values="0 0 0 0 0 0 0 0 0 0 0 0 0 0 0 0 0 0 127 0" result="hardAlpha"/>
<feOffset dx="2" dy="2"/>
<feGaussianBlur stdDeviation="2.5"/>
<feComposite in2="hardAlpha" operator="out"/>
<feColorMatrix type="matrix" values="0 0 0 0 0 0 0 0 0 0 0 0 0 0 0 0 0 0 0.05 0"/>
<feBlend mode="normal" in2="BackgroundImageFix" result="effect1_dropShadow_179_2152"/>
<feBlend mode="normal" in="SourceGraphic" in2="effect1_dropShadow_179_2152" result="shape"/>
</filter>
</defs>
</svg>
