<svg width="80" height="58" viewBox="0 0 80 58" fill="none" xmlns="http://www.w3.org/2000/svg">
<path d="M74.7575 18.8968C74.5583 24.7359 69.7276 29.6992 65.608 33.5405C58.588 40.6042 48.418 50.8145 41.3783 57.8974L17.0154 33.6709C12.8751 29.8585 8.02313 24.8975 7.79284 19.0654C6.41436 9.34731 15.1529 -0.262185 24.829 0.0745211C31.4469 -0.313482 36.9657 4.56575 41.249 9.31074C41.2664 9.27691 45.3386 5.21788 45.4886 5.04817C56.4733 -6.44841 76.6811 3.19601 74.7575 18.8968Z" fill="#EB5648"/>
<path d="M74.7574 18.8968C74.5583 24.7359 69.7276 29.6992 65.608 33.5405C58.5879 40.6042 48.418 50.8145 41.3782 57.8974L41.2478 9.30856C41.2653 9.27473 45.3374 5.2157 45.4875 5.04598C56.4733 -6.44841 76.6811 3.19601 74.7574 18.8968Z" fill="#CE3932"/>
<path d="M43.0891 45.7585C42.8058 45.7584 42.5295 45.6707 42.2982 45.5073C42.0668 45.344 41.8916 45.1129 41.7968 44.846L31.4108 15.6039L24.3509 29.5676C24.2363 29.7939 24.0613 29.984 23.8452 30.1169C23.6291 30.2497 23.3805 30.3201 23.1269 30.3202H1.37139C1.00768 30.3202 0.658862 30.1757 0.401679 29.9185C0.144495 29.6613 0 29.3125 0 28.9488C0 28.5851 0.144495 28.2363 0.401679 27.9791C0.658862 27.7219 1.00768 27.5774 1.37139 27.5774H22.2826L30.4061 11.5088C30.5272 11.2692 30.716 11.0705 30.9491 10.9371C31.1821 10.8038 31.4491 10.7418 31.717 10.7589C31.9849 10.7759 32.242 10.8712 32.4563 11.0329C32.6705 11.1947 32.8326 11.4157 32.9224 11.6687L43.0727 40.2549L51.1291 17.1384C51.2203 16.877 51.3884 16.6493 51.6115 16.4852C51.8345 16.3211 52.102 16.2284 52.3787 16.2193C52.6555 16.2101 52.9285 16.2849 53.1619 16.4339C53.3953 16.5829 53.5781 16.799 53.6863 17.0539L58.1519 27.5774H77.7038C78.0675 27.5774 78.4163 27.7219 78.6735 27.9791C78.9307 28.2363 79.0752 28.5851 79.0752 28.9488C79.0752 29.3125 78.9307 29.6613 78.6735 29.9185C78.4163 30.1757 78.0675 30.3202 77.7038 30.3202H57.2455C56.9762 30.3202 56.7128 30.241 56.4882 30.0923C56.2637 29.9436 56.0878 29.7321 55.9827 29.4841L52.5513 21.3966L44.3814 44.8384C44.288 45.1065 44.1137 45.339 43.8825 45.5039C43.6513 45.6687 43.3746 45.7576 43.0907 45.7585H43.0891Z" fill="white"/>
</svg>
