<svg width="131" height="100" viewBox="0 0 131 100" fill="none" xmlns="http://www.w3.org/2000/svg">
<g clip-path="url(#clip0_229_32292)">
<path d="M13.6204 82.5946C13.6204 82.5946 5.39542 45.1766 16.0074 35.936C24.6384 28.4188 33.9472 43.1684 43.2969 36.6094C51.6207 30.7703 42.8637 14.7808 53.904 12.2111C66.283 9.32749 80.4618 40.9233 92.7109 36.3939C107.574 30.8985 122.359 42.0551 109.582 82.6705L13.6204 82.5946Z" fill="#ADC8F7"/>
<path d="M11.0108 78.7337C10.7527 77.9867 10.4973 77.2128 10.2522 76.4335L10.8569 76.2638C11.1008 77.0382 11.354 77.8066 11.6105 78.5487L11.0108 78.7337ZM119.185 77.7689L118.559 77.6963C118.662 76.9012 118.761 76.1007 118.852 75.3165L119.479 75.3814C119.39 76.1683 119.288 76.9716 119.183 77.7689H119.185ZM9.55592 74.117C9.3349 73.347 9.11933 72.5628 8.91906 71.7857L9.53189 71.6438C9.73217 72.416 9.945 73.1958 10.1644 73.9615L9.55592 74.117ZM119.736 72.9901L119.108 72.9355C119.187 72.1371 119.262 71.3344 119.326 70.5491L119.955 70.5966C119.891 71.383 119.817 72.189 119.736 72.9901H119.736ZM8.34115 69.4429C8.15889 68.6582 7.98534 67.8653 7.82599 67.0849L8.44538 66.9719C8.60418 67.7469 8.77609 68.5354 8.95727 69.3152L8.34115 69.4429ZM120.137 68.1993L119.508 68.1616C119.562 67.3638 119.608 66.5594 119.647 65.7703L120.277 65.7981C120.238 66.5878 120.191 67.3954 120.138 68.1965L120.137 68.1993ZM7.3736 64.7149C7.23335 63.9209 7.10074 63.1197 6.98778 62.3345L7.61262 62.2521C7.72777 63.0324 7.85655 63.8281 7.99462 64.6172L7.3736 64.7149ZM120.372 63.3921L119.742 63.3746C119.766 62.5735 119.783 61.7686 119.792 60.9811L120.423 60.9871C120.416 61.7784 120.399 62.5888 120.372 63.3921ZM6.67017 59.9415C6.57631 59.1393 6.49445 58.3327 6.42678 57.5436L7.05545 57.4956C7.12257 58.2787 7.20388 59.0782 7.29719 59.876L6.67017 59.9415ZM119.797 58.587C119.789 57.7854 119.773 56.9805 119.749 56.1941L120.38 56.1766C120.404 56.9668 120.42 57.7761 120.428 58.5821L119.797 58.587ZM6.26307 55.1392C6.22105 54.3321 6.19322 53.5223 6.18066 52.731L6.81151 52.7222C6.82407 53.5064 6.85135 54.3097 6.89282 55.1103L6.26307 55.1392ZM119.647 53.8028C119.604 53.0022 119.55 52.1984 119.489 51.4147L120.118 51.3705C120.18 52.1591 120.233 52.9667 120.277 53.7717L119.647 53.8028ZM6.81751 50.3326L6.18667 50.32C6.20414 49.5113 6.23796 48.7009 6.28708 47.9118L6.91683 47.9467C6.86826 48.7276 6.83443 49.5315 6.81751 50.3331V50.3326ZM119.27 49.0321C119.186 48.2316 119.09 47.4321 118.986 46.6555L119.612 46.5808C119.717 47.3622 119.813 48.1672 119.898 48.9732L119.27 49.0321ZM7.11711 45.5679L6.48953 45.5079C6.57521 44.7019 6.67945 43.8964 6.80006 43.1138L7.42435 43.1995C7.30538 43.9733 7.20169 44.7701 7.11711 45.5679ZM118.633 44.2888C118.502 43.4931 118.36 42.7007 118.205 41.9335L118.825 41.8243C118.979 42.5976 119.124 43.3965 119.257 44.1982L118.633 44.2888ZM44.0265 44.2047C43.1496 44.0743 42.516 43.6972 41.6374 43.0462L42.0363 42.584C42.8058 43.1531 43.3613 43.4942 44.0937 43.6121L44.0265 44.2047ZM46.2149 42.7859L45.6533 42.513C45.942 41.9788 46.199 41.2377 46.4118 40.3094L47.0285 40.4366C46.7971 41.4309 46.5314 42.1987 46.2132 42.7864L46.2149 42.7859ZM39.7858 41.3359C39.2837 40.8071 38.7462 40.1986 38.1443 39.4756L38.6398 39.1067C39.2335 39.8199 39.7623 40.4164 40.2556 40.9375L39.7858 41.3359ZM7.84728 40.8448L7.22789 40.7313C7.3916 39.9356 7.57606 39.1427 7.77743 38.3732L8.38972 38.5167C8.18944 39.2786 8.00935 40.0617 7.84564 40.8475L7.84728 40.8448ZM117.696 39.5896C117.51 38.8027 117.308 38.0223 117.096 37.2703L117.706 37.1175C117.919 37.8766 118.122 38.6646 118.31 39.4592L117.696 39.5896ZM47.4509 38.0398L46.8255 37.9639C46.9221 37.2545 47.0094 36.4736 47.0907 35.5819L47.7194 35.6337C47.637 36.5331 47.5491 37.3222 47.4509 38.0398ZM36.5977 37.5557C36.0848 36.9009 35.5527 36.2095 35.0943 35.6124L35.6051 35.2626C36.0624 35.8586 36.5933 36.5489 37.1047 37.201L36.5977 37.5557ZM82.7827 37.5066C82.2765 37.5024 81.7812 37.3599 81.3502 37.0946L81.6863 36.5898C82.3766 37.0018 83.0555 37.0024 83.7884 36.6744L84.0613 37.2125C83.6608 37.4002 83.2249 37.5004 82.7827 37.5066ZM9.05931 36.222L8.45575 36.0479C8.70677 35.2736 8.98182 34.503 9.27432 33.7587L9.86588 33.9655C9.57774 34.6995 9.30652 35.4586 9.05931 36.222ZM86.1224 35.6539L85.6591 35.2485C86.2179 34.6649 86.7414 34.0486 87.227 33.4028L87.7378 33.7521C87.2376 34.4176 86.6982 35.0527 86.1224 35.6539ZM79.5564 35.2441C79.0959 34.5589 78.6828 33.8431 78.3198 33.1016L78.8895 32.8468C79.2406 33.5644 79.6403 34.2573 80.0857 34.9205L79.5564 35.2441ZM116.399 34.98C116.145 34.2078 115.874 33.4476 115.593 32.7207L116.186 32.5161C116.47 33.2522 116.744 34.0217 117.001 34.8032L116.399 34.98ZM33.5996 33.6702C33.0222 32.9253 32.5414 32.313 32.0857 31.745L32.5889 31.3848C33.0462 31.9562 33.5292 32.5706 34.1087 33.3183L33.5996 33.6702ZM47.9093 33.2293L47.2795 33.1906C47.3276 32.492 47.3761 31.7073 47.4285 30.7894L48.0583 30.8216C48.0059 31.739 47.9557 32.5259 47.9093 33.2293ZM10.8105 31.7619L10.2337 31.5212C10.5797 30.7801 10.9488 30.0525 11.3409 29.3384L11.9003 29.6112C11.5147 30.3134 11.1514 31.0293 10.8105 31.7592V31.7619ZM89.1828 31.7619L88.6556 31.4345C89.1042 30.7905 89.567 30.1084 90.0358 29.4191L90.5667 29.7411C90.0969 30.4292 89.633 31.1119 89.1828 31.7592V31.7619ZM77.3042 30.8773C77.0183 30.2 76.723 29.4611 76.4016 28.6186L76.9948 28.4166C77.314 29.2527 77.6071 29.9856 77.8903 30.6568L77.3042 30.8773ZM114.665 30.5056C114.326 29.7591 113.967 29.0322 113.599 28.3506L114.161 28.0778C114.536 28.773 114.9 29.5097 115.245 30.2683L114.665 30.5056ZM30.5283 29.8552C29.9558 29.1839 29.4232 28.5864 28.8993 28.0281L29.3714 27.633C29.9018 28.1978 30.441 28.8025 31.0194 29.4813L30.5283 29.8552ZM48.1898 28.4161L47.5595 28.3861C47.6021 27.5893 47.6441 26.7926 47.6894 25.9849L48.3191 26.0161C48.2744 26.8237 48.2318 27.6199 48.1898 28.4161ZM91.9496 27.7247L91.4235 27.3973C91.9507 26.6436 92.4216 25.992 92.8647 25.4048L93.3783 25.7503C92.94 26.3309 92.4729 26.9771 91.9496 27.7247ZM13.1516 27.5566L12.6196 27.2357C13.0814 26.5462 13.589 25.8884 14.1388 25.2668L14.6207 25.6488C14.0887 26.251 13.5979 26.8884 13.1516 27.5566ZM75.559 26.344C75.2698 25.5429 74.986 24.7413 74.7465 24.0629L75.3468 23.8747C75.5858 24.5519 75.869 25.3519 76.1577 26.1514L75.559 26.344ZM27.165 26.3025C26.5669 25.7481 25.9378 25.2282 25.2807 24.7451L25.6654 24.2725C26.3417 24.7696 26.9892 25.3047 27.6049 25.8753L27.165 26.3025ZM112.374 26.2769C111.922 25.58 111.446 24.9208 110.965 24.3178L111.468 23.9582C111.963 24.5765 112.45 25.2521 112.912 25.9653L112.374 26.2769ZM16.3904 24.0296L16.0084 23.556C16.7129 23.0373 17.5013 22.6435 18.3392 22.392L18.5236 22.9617C17.7567 23.193 17.0352 23.5542 16.3904 24.0296ZM94.9003 23.8474L94.4091 23.4719C94.9487 22.8385 95.521 22.2338 96.1238 21.6602L96.5701 22.0809C95.983 22.6401 95.4257 23.2298 94.9003 23.8474ZM48.4599 23.6133L47.8302 23.5778C47.8848 22.7112 47.9393 21.9243 47.9939 21.1723L48.6231 21.2149C48.5691 21.9647 48.515 22.7516 48.4605 23.6133H48.4599ZM23.1933 23.4883C22.4059 23.1183 21.6315 22.882 20.892 22.786L20.9777 22.1955C21.7854 22.3003 22.6252 22.5557 23.4744 22.9546L23.1933 23.4883ZM109.341 22.5246C108.761 21.9599 108.136 21.4441 107.472 20.9824L107.843 20.5005C108.536 20.9816 109.188 21.5193 109.792 22.1082L109.341 22.5246ZM73.9404 21.7824C73.6261 20.8956 73.368 20.1725 73.1262 19.5068L73.7233 19.3136C73.965 19.9804 74.2242 20.7052 74.5386 21.593L73.9404 21.7824ZM98.4561 20.5573L98.0949 20.0689C98.8136 19.5838 99.5979 19.2038 100.424 18.9403L100.619 19.5073C99.8522 19.7528 99.1246 20.1064 98.4578 20.5573H98.4561ZM105.34 19.8271C104.588 19.5232 103.796 19.3304 102.989 19.2546L103.048 18.6609C103.919 18.7422 104.774 18.9501 105.585 19.2781L105.34 19.8271ZM48.8288 18.8224L48.2007 18.7679C48.2793 17.9318 48.3644 17.1236 48.4545 16.3667L49.0815 16.4333C48.9925 17.1853 48.9058 17.9902 48.8288 18.8224ZM72.2897 17.2399C71.9846 16.436 71.6975 15.7015 71.4116 14.9937L72.001 14.7809C72.2886 15.4903 72.5772 16.2314 72.8834 17.039L72.2897 17.2399ZM49.4018 14.0583L48.7775 13.9732C48.9047 13.1383 49.0449 12.3361 49.1939 11.5873L49.8138 11.6965C49.6665 12.4376 49.5279 13.2321 49.4018 14.0583ZM70.473 12.765C70.1341 11.995 69.7924 11.2577 69.4574 10.5745L70.0298 10.324C70.3687 11.0143 70.7136 11.7587 71.0558 12.5363L70.473 12.765ZM50.3497 9.3652L49.738 9.22058C49.9563 8.38837 50.2002 7.60472 50.4589 6.89038L51.0553 7.08357C50.8032 7.78154 50.5653 8.54936 50.3497 9.3652ZM68.337 8.43748C67.9223 7.69913 67.4983 7.00607 67.0775 6.37741L67.6107 6.05871C68.0402 6.69993 68.4718 7.40608 68.8948 8.15808L68.337 8.43748ZM52.0032 4.89961L51.4373 4.63385C51.817 3.89277 52.2743 3.19415 52.8016 2.54977L53.2971 2.91812C52.797 3.53102 52.3633 4.19523 52.0032 4.89961ZM65.6319 4.44394C65.1151 3.8265 64.5493 3.25164 63.9402 2.72494L64.3632 2.28291C64.9975 2.83087 65.5864 3.42929 66.1242 4.07231L65.6319 4.44394ZM55.0582 1.37539L54.7182 0.873876C55.4669 0.421324 56.2991 0.12436 57.1651 0.000732422L57.2612 0.590104C56.4816 0.701328 55.7323 0.968398 55.0582 1.37539ZM61.9506 1.37539C61.2351 1.00761 60.4677 0.751088 59.6749 0.614662L59.784 0.0280182C60.6424 0.175151 61.4733 0.452477 62.2479 0.850411L61.9506 1.37539Z" fill="#B3D2FF"/>
<path d="M123.181 67.9034C117.946 67.0275 118.801 74.9399 111.339 74.9399C104.518 74.9399 102.335 44.8077 97.369 53.4212C71.9212 97.5794 86.7014 34.6421 66.4597 33.8426C57.3086 33.4808 51.2103 44.4944 48.9619 63.995C45.7018 81.6216 38.1426 50.5491 30.3629 53.4382C25.4187 55.2745 25.9846 74.9393 19.1621 74.9393C11.7 74.9393 12.5546 67.0265 7.32007 67.9029C1.68338 68.8464 0.0964355 82.8511 0.0964355 82.8511H130.373C130.373 82.8511 128.817 68.8464 123.181 67.9034Z" fill="#B8D5FF"/>
<path d="M118.546 76.4684C113.73 76.0941 114.516 79.4731 107.65 79.4731C101.375 79.4731 101.547 71.9008 97.3463 70.2915C89.6114 67.3277 83.2347 82.3272 80.236 74.7991C74.5403 54.8259 57.9288 44.8077 50.2653 74.7991C47.2666 82.33 40.2542 68.895 33.155 70.2915C28.7849 71.151 29.1287 79.4731 22.853 79.4731C15.9879 79.4731 16.7737 76.0941 11.9578 76.4684C6.77347 76.8706 5.22363 82.8533 5.22363 82.8533H125.281C125.281 82.8533 123.731 76.8706 118.546 76.4684Z" fill="#CAE5FF"/>
<path d="M0.0964766 82.8511C0.0964766 82.8511 -0.818688 86.6165 2.97403 87.5628C8.16214 88.8528 38.6158 92.2434 31.2175 94.8208C27.0417 96.2751 33.3496 98.2501 53.6917 98.9775C74.0337 99.7049 108.938 96.8552 97.2004 92.6396C85.4627 88.4239 133.286 91.6213 130.373 82.8522L0.0964766 82.8511Z" fill="#ADC8F7"/>
<path d="M108.359 84.2829H91.3097C88.0484 84.2827 84.9207 82.9871 82.6146 80.6809C80.3086 78.3748 79.0131 75.247 79.0131 71.9857V63.5272C79.0131 51.0941 68.8977 40.9788 56.4647 40.9788H33.7406C30.1825 40.9788 26.7701 39.5653 24.2541 37.0494C21.7382 34.5334 20.3247 31.121 20.3247 27.5629V17.3411C20.3247 17.1964 20.3822 17.0576 20.4845 16.9552C20.5869 16.8529 20.7257 16.7954 20.8704 16.7954C21.0152 16.7954 21.154 16.8529 21.2563 16.9552C21.3586 17.0576 21.4161 17.1964 21.4161 17.3411V27.5651C21.4161 34.3609 26.9448 39.8895 33.7406 39.8895H56.4647C59.5698 39.8871 62.6449 40.4969 65.5141 41.684C68.3834 42.8712 70.9904 44.6124 73.186 46.808C75.3817 49.0037 77.1229 51.6107 78.31 54.4799C79.4972 57.3491 80.1069 60.4242 80.1045 63.5293V71.9879C80.1045 78.1665 85.1311 83.1936 91.3097 83.1936H108.359C108.504 83.1936 108.642 83.2511 108.745 83.3535C108.847 83.4558 108.905 83.5946 108.905 83.7393C108.905 83.8841 108.847 84.0229 108.745 84.1252C108.642 84.2276 108.504 84.2851 108.359 84.2851V84.2829Z" fill="#1D3F70"/>
<path d="M100.471 40.6033C100.271 46.4425 95.4407 51.4057 91.3211 55.247C84.301 62.3108 74.131 72.5211 67.0913 79.6039L42.7284 55.3775C38.5881 51.5651 33.7361 46.604 33.5059 40.7719C32.1274 31.0539 40.8659 21.4444 50.542 21.7811C57.1599 21.3931 62.6787 26.2723 66.962 31.0173C66.9794 30.9835 71.0516 26.9244 71.2017 26.7547C82.1864 15.2581 102.394 24.9026 100.471 40.6033Z" fill="#EB5648"/>
<path d="M100.47 40.6033C100.271 46.4425 95.4406 51.4057 91.321 55.247C84.3009 62.3108 74.131 72.5211 67.0912 79.6039L66.9608 31.0151C66.9783 30.9813 71.0504 26.9222 71.2005 26.7525C82.1863 15.2581 102.394 24.9026 100.47 40.6033Z" fill="#CE3932"/>
<path d="M68.8021 67.465C68.5189 67.465 68.2426 67.3773 68.0112 67.2139C67.7798 67.0505 67.6046 66.8195 67.5098 66.5526L57.1238 37.3104L50.0639 51.2742C49.9493 51.5005 49.7743 51.6906 49.5582 51.8234C49.3422 51.9563 49.0935 52.0266 48.8399 52.0267H27.0844C26.7207 52.0267 26.3719 51.8822 26.1147 51.6251C25.8575 51.3679 25.713 51.0191 25.713 50.6553C25.713 50.2916 25.8575 49.9428 26.1147 49.6856C26.3719 49.4284 26.7207 49.284 27.0844 49.284H47.9956L56.1191 33.2154C56.2403 32.9758 56.429 32.777 56.6621 32.6437C56.8951 32.5104 57.1621 32.4484 57.43 32.4654C57.698 32.4824 57.955 32.5777 58.1693 32.7395C58.3836 32.9012 58.5457 33.1223 58.6355 33.3753L68.7858 61.9615L76.8421 38.845C76.9333 38.5835 77.1014 38.3558 77.3245 38.1917C77.5475 38.0277 77.815 37.935 78.0917 37.9258C78.3685 37.9166 78.6415 37.9915 78.8749 38.1404C79.1083 38.2894 79.2911 38.5055 79.3993 38.7604L83.8649 49.284H103.417C103.781 49.284 104.129 49.4284 104.387 49.6856C104.644 49.9428 104.788 50.2916 104.788 50.6553C104.788 51.0191 104.644 51.3679 104.387 51.6251C104.129 51.8822 103.781 52.0267 103.417 52.0267H82.9585C82.6892 52.0268 82.4258 51.9475 82.2012 51.7988C81.9767 51.6502 81.8009 51.4386 81.6957 51.1907L78.2643 43.1032L70.0944 66.5449C70.001 66.8131 69.8267 67.0456 69.5955 67.2104C69.3643 67.3752 69.0877 67.4642 68.8037 67.465H68.8021Z" fill="white"/>
<path d="M28.593 23.9236C32.8442 19.6724 32.8442 12.7798 28.593 8.52856C24.3418 4.27734 17.4492 4.27735 13.198 8.52857C8.94678 12.7798 8.94678 19.6724 13.198 23.9236C17.4492 28.1748 24.3418 28.1748 28.593 23.9236Z" fill="#1D3F70"/>
<path d="M26.7237 22.0544C29.9426 18.8355 29.9426 13.6167 26.7237 10.3978C23.5048 7.17888 18.286 7.17888 15.0671 10.3978C11.8482 13.6167 11.8482 18.8355 15.0671 22.0544C18.286 25.2733 23.5048 25.2733 26.7237 22.0544Z" fill="#BEDCED"/>
<path d="M19.1135 16.2191L12.6528 16.1929C12.6579 14.7916 13.0203 13.4147 13.7058 12.1925C14.3912 10.9702 15.377 9.94294 16.57 9.20776L19.1135 16.2191Z" fill="#2FAC66"/>
<path d="M29.1372 16.2602L22.6765 16.234L25.2768 9.2439C26.464 9.98845 27.4416 11.0236 28.1171 12.2513C28.7926 13.4791 29.1437 14.8588 29.1372 16.2602Z" fill="#EB5648"/>
<path d="M22.2437 20.5221C22.2426 20.7938 22.161 21.059 22.0092 21.2843C21.8573 21.5096 21.6421 21.6848 21.3907 21.7877C21.1393 21.8907 20.863 21.9168 20.5968 21.8627C20.3306 21.8087 20.0864 21.6769 19.895 21.484C19.7037 21.2912 19.5739 21.0459 19.5219 20.7792C19.47 20.5126 19.4983 20.2365 19.6032 19.986C19.7082 19.7354 19.8851 19.5216 20.1116 19.3715C20.338 19.2215 20.6039 19.142 20.8756 19.1431C21.2398 19.1447 21.5885 19.2908 21.8451 19.5494C22.1016 19.808 22.245 20.1579 22.2437 20.5221Z" fill="#103663"/>
<path d="M25.2769 9.24368L22.6766 16.2337L19.1136 16.219L16.5701 9.20821C17.8804 8.40189 19.39 7.97793 20.9286 7.9842C22.4671 7.99047 23.9732 8.42671 25.2769 9.24368Z" fill="#F9B233"/>
<path d="M20.2622 19.9735L25.0809 14.0198L21.6772 20.8794C21.572 21.0697 21.3975 21.212 21.19 21.277C20.9825 21.342 20.7579 21.3246 20.5629 21.2284C20.3679 21.1322 20.2175 20.9646 20.1428 20.7604C20.0681 20.5562 20.0749 20.3311 20.1618 20.1318C20.1898 20.0757 20.2234 20.0227 20.2622 19.9735Z" fill="#103663"/>
<path d="M92.9942 84.0467C92.8494 84.0467 92.7106 83.9892 92.6083 83.8868C92.5059 83.7845 92.4485 83.6457 92.4485 83.501L92.4441 78.9295C92.4441 78.7848 92.5016 78.646 92.6039 78.5436C92.7063 78.4413 92.8451 78.3838 92.9898 78.3838C93.1345 78.3838 93.2734 78.4413 93.3757 78.5436C93.478 78.646 93.5355 78.7848 93.5355 78.9295L93.5399 83.501C93.5399 83.6457 93.4824 83.7845 93.38 83.8868C93.2777 83.9892 93.1389 84.0467 92.9942 84.0467Z" fill="#1D3F70"/>
<path d="M90.6613 79.6148C90.4804 79.6148 90.3068 79.5429 90.1789 79.415C90.051 79.2871 89.9791 79.1136 89.9791 78.9327C89.9791 78.7517 90.051 78.5782 90.1789 78.4503C90.3068 78.3224 90.4804 78.2505 90.6613 78.2505L95.3179 78.2456C95.4988 78.2456 95.6723 78.3175 95.8002 78.4454C95.9281 78.5733 96 78.7468 96 78.9277C96 79.1087 95.9281 79.2822 95.8002 79.4101C95.6723 79.538 95.4988 79.6099 95.3179 79.6099L90.6618 79.6148H90.6613Z" fill="#1D3F70"/>
<path d="M96.0186 85.6401L92.1162 85.6439C91.8348 85.6442 91.5562 85.5891 91.2962 85.4817C91.0362 85.3743 90.7998 85.2167 90.6007 85.0179C90.4016 84.8192 90.2436 84.5832 90.1358 84.3233C90.0279 84.0635 89.9723 83.785 89.972 83.5036C89.9718 83.2224 90.0269 82.9438 90.1342 82.6838C90.2416 82.4238 90.3992 82.1875 90.5979 81.9884C90.7966 81.7893 91.0325 81.6313 91.2923 81.5234C91.552 81.4155 91.8305 81.3598 92.1118 81.3595L96.0142 81.3557L96.0186 85.6401Z" fill="#1D3F70"/>
<path d="M116.751 85.6179H118.287C118.568 85.6177 118.847 85.5621 119.107 85.4542C119.366 85.3463 119.602 85.1883 119.801 84.9892C120 84.7901 120.158 84.5538 120.265 84.2938C120.372 84.0338 120.428 83.7551 120.427 83.4738C120.427 83.1925 120.371 82.9139 120.264 82.6541C120.156 82.3943 119.998 82.1583 119.799 81.9595C119.599 81.7608 119.363 81.6032 119.103 81.4958C118.843 81.3883 118.564 81.3332 118.283 81.3335H116.747L116.751 85.6179Z" fill="#1D3F70"/>
<path d="M118.588 83.4753C118.591 86.8871 113.18 89.6583 106.5 89.6654C101.157 89.6708 96.6226 87.9049 95.0188 85.4519C94.6177 84.8385 94.4004 84.182 94.3999 83.4999C94.3966 80.0881 99.8085 77.3169 106.488 77.3098C110.545 77.306 114.137 78.3227 116.332 79.8861C117.753 80.8968 118.587 82.1361 118.588 83.4753Z" fill="#23659B"/>
<path d="M116.951 81.8382C116.954 85.25 111.542 88.0211 104.863 88.0282C100.806 88.032 97.2142 87.0148 95.0188 85.4519C94.6177 84.8385 94.4004 84.182 94.3999 83.4999C94.3966 80.0881 99.8085 77.3169 106.488 77.3098C110.545 77.306 114.137 78.3227 116.332 79.8861C116.733 80.4995 116.95 81.156 116.951 81.8382Z" fill="#3A72AA"/>
<path d="M118.354 51.7419H116.206V60.7457H112.638V51.7419H110.49L114.422 46.5969L118.354 51.7419Z" fill="#FCB4B4"/>
<path d="M118.354 51.7419H116.206V60.7457H114.422V46.5969L118.354 51.7419Z" fill="#F49F9F"/>
<path d="M45.285 77.2554H43.1376V86.2591H39.5692V77.2554H37.4213L41.3531 72.1104L45.285 77.2554Z" fill="#FCB4B4"/>
<path d="M45.285 77.2554H43.1376V86.2591H41.3531V72.1104L45.285 77.2554Z" fill="#F49F9F"/>
<path d="M105.96 14.08H103.812V23.0838H100.244V14.08H98.0966L102.028 8.93555L105.96 14.08Z" fill="#FCB4B4"/>
<path d="M105.96 14.08H103.812V23.0838H102.028V8.93555L105.96 14.08Z" fill="#F49F9F"/>
<path d="M97.3921 71.5416C97.1902 72.8071 95.3031 72.5386 95.4619 71.2687C95.6638 70.0015 97.5509 70.27 97.3921 71.5416Z" fill="white"/>
<path d="M98.1969 59.1779C98.3219 59.196 98.4419 59.2391 98.5498 59.3047C98.6577 59.3702 98.7513 59.4569 98.825 59.5594C98.8986 59.662 98.9509 59.7783 98.9785 59.9015C99.0062 60.0247 99.0088 60.1522 98.986 60.2764L97.3489 69.2065C97.3205 69.3585 97.2345 69.4938 97.1088 69.5839C96.9831 69.6741 96.8275 69.7123 96.6744 69.6906C96.5215 69.6679 96.3833 69.5872 96.2885 69.4652C96.1937 69.3432 96.1495 69.1894 96.1652 69.0357L97.1284 60.0085C97.1417 59.8828 97.1802 59.7611 97.2417 59.6507C97.3031 59.5403 97.3862 59.4434 97.486 59.3659C97.5857 59.2883 97.7001 59.2317 97.8223 59.1994C97.9445 59.1671 98.0719 59.1598 98.1969 59.1779Z" fill="white"/>
<path d="M66.2677 22.3301C66.0423 23.5913 64.1607 23.2884 64.343 22.0202C64.5678 20.7585 66.45 21.0597 66.2677 22.3301Z" fill="#EB5648"/>
<path d="M67.3008 9.98168C67.4255 10.0021 67.5446 10.0475 67.6513 10.1151C67.758 10.1827 67.8499 10.271 67.9217 10.375C67.9934 10.4789 68.0434 10.5962 68.0688 10.7199C68.0941 10.8436 68.0943 10.9712 68.0692 11.0949L66.2683 19.9928C66.2371 20.1442 66.1487 20.2777 66.0216 20.3655C65.8944 20.4533 65.7383 20.4887 65.5857 20.4643C65.4331 20.4389 65.2963 20.3556 65.2037 20.2317C65.1111 20.1079 65.0698 19.9531 65.0885 19.7996L66.2181 10.7915C66.2339 10.6663 66.2747 10.5455 66.3381 10.4365C66.4016 10.3274 66.4864 10.2322 66.5874 10.1566C66.6885 10.081 66.8038 10.0266 66.9263 9.9965C67.0489 9.96645 67.1763 9.96141 67.3008 9.98168Z" fill="#EB5648"/>
<path d="M18.5313 43.8023C18.7425 45.0668 16.868 45.4122 16.6142 44.156C16.403 42.8921 18.2776 42.5467 18.5313 43.8023Z" fill="#3A72AA"/>
<path d="M15.3635 31.825C15.4877 31.8024 15.6152 31.8051 15.7383 31.8329C15.8615 31.8607 15.9778 31.9131 16.0802 31.9869C16.1826 32.0608 16.2691 32.1545 16.3344 32.2626C16.3997 32.3706 16.4426 32.4907 16.4604 32.6158L17.7482 41.602C17.7698 41.7552 17.7314 41.9109 17.641 42.0364C17.5506 42.162 17.4152 42.2478 17.2631 42.276C17.1108 42.3032 16.9538 42.2706 16.825 42.1848C16.6962 42.0991 16.6054 41.967 16.5717 41.816L14.6126 32.9514C14.5854 32.8279 14.5834 32.7003 14.6067 32.576C14.63 32.4518 14.6782 32.3336 14.7483 32.2284C14.8184 32.1232 14.909 32.0333 15.0147 31.964C15.1204 31.8947 15.2391 31.8474 15.3635 31.825Z" fill="#3A72AA"/>
<path d="M93.0258 43.2953C93.0072 44.5772 91.101 44.5815 91.0759 43.3007C91.0945 42.0194 93.0007 42.015 93.0258 43.2953Z" fill="#F49F9F"/>
<path d="M92.0495 30.9448C92.1758 30.9448 92.3008 30.9703 92.417 31.0197C92.5332 31.0691 92.6382 31.1414 92.7259 31.2323C92.8135 31.3233 92.8819 31.4309 92.9269 31.5489C92.972 31.6669 92.9928 31.7927 92.9881 31.9189L92.6498 40.9909C92.6434 41.1458 92.5774 41.2922 92.4655 41.3996C92.3536 41.5069 92.2045 41.5667 92.0495 41.5666C91.8944 41.5667 91.7453 41.5069 91.6334 41.3996C91.5216 41.2922 91.4555 41.1458 91.4492 40.9909L91.1125 31.9195C91.1077 31.7934 91.1284 31.6676 91.1733 31.5497C91.2183 31.4317 91.2865 31.3241 91.3739 31.2331C91.4614 31.1421 91.5663 31.0697 91.6824 31.0202C91.7984 30.9707 91.9233 30.945 92.0495 30.9448Z" fill="#F49F9F"/>
<path d="M14.3833 94.5675C14.9132 93.8673 14.2687 90.6684 14.2911 89.8503H16.6988C16.7261 90.6689 16.1214 93.8728 16.6267 94.5659C16.7703 94.8136 14.2393 94.8109 14.3833 94.5675Z" fill="#F99370"/>
<path d="M26.1712 95.5281H21.9566C21.8976 95.5281 21.8393 95.5158 21.7853 95.492C21.7313 95.4682 21.6829 95.4333 21.6431 95.3897C21.6033 95.3461 21.5731 95.2947 21.5544 95.2387C21.5357 95.1828 21.5288 95.1235 21.5343 95.0648C21.5741 94.6282 21.668 94.0306 21.6379 93.755C21.6543 93.4996 21.2871 90.1921 21.2598 89.8494H23.9147L23.4863 93.265C23.4615 93.4603 23.5052 93.6582 23.6101 93.8248C23.7151 93.9915 23.8746 94.1165 24.0615 94.1785C24.5821 94.3504 25.1753 94.4246 25.5671 94.5256C25.9453 94.6211 26.2853 94.7532 26.455 95.044C26.482 95.0936 26.4957 95.1493 26.4948 95.2058C26.4939 95.2623 26.4785 95.3175 26.4499 95.3663C26.4213 95.415 26.3807 95.4555 26.3318 95.4838C26.283 95.5122 26.2277 95.5274 26.1712 95.5281Z" fill="#F99370"/>
<path d="M21.3936 95.0833V95.0882C21.4084 95.2096 21.4672 95.3214 21.5588 95.4025C21.6504 95.4835 21.7685 95.5282 21.8908 95.5281H26.1364C26.1932 95.5284 26.2493 95.5153 26.3 95.4899C26.3508 95.4645 26.3949 95.4275 26.4288 95.382C26.4626 95.3364 26.4852 95.2835 26.4948 95.2275C26.5044 95.1716 26.5008 95.1141 26.4841 95.0599C26.2603 94.3603 25.5563 93.9275 23.5705 93.7534C23.5705 93.7534 22.8392 93.9717 21.6376 93.7534C21.6381 93.7534 21.3161 94.4503 21.3936 95.0833Z" fill="#395B96"/>
<path d="M14.5787 95.528H16.4303C16.4919 95.5283 16.553 95.5161 16.6098 95.4921C16.6666 95.4682 16.718 95.433 16.7608 95.3887C16.8037 95.3445 16.8372 95.2919 16.8592 95.2344C16.8813 95.1768 16.8915 95.1154 16.8892 95.0538C16.8095 93.3108 14.1874 93.2966 14.1192 95.0538C14.117 95.1154 14.1274 95.1768 14.1495 95.2343C14.1717 95.2919 14.2052 95.3443 14.2481 95.3886C14.291 95.4329 14.3424 95.468 14.3992 95.492C14.456 95.516 14.517 95.5282 14.5787 95.528Z" fill="#395B96"/>
<path d="M25.1382 94.926C25.157 94.926 25.1753 94.9204 25.1909 94.9099C25.2064 94.8994 25.2185 94.8845 25.2255 94.8671C25.3963 94.4458 25.7047 94.3165 25.7167 94.3115C25.8302 94.2673 25.7598 94.0894 25.6468 94.1358C25.631 94.1424 25.2523 94.2963 25.0493 94.7961C25.0435 94.8106 25.0415 94.8262 25.0432 94.8417C25.0449 94.8571 25.0504 94.8719 25.0592 94.8847C25.068 94.8975 25.0798 94.908 25.0936 94.9152C25.1073 94.9224 25.1227 94.9261 25.1382 94.926Z" fill="#E8C0A6"/>
<path d="M24.4043 94.8404C24.4244 94.8404 24.444 94.8339 24.4602 94.8219C24.4764 94.8099 24.4884 94.7931 24.4943 94.7738C24.5952 94.473 24.8014 94.2187 25.075 94.0579C25.0972 94.0463 25.1139 94.0264 25.1214 94.0025C25.1289 93.9786 25.1267 93.9527 25.1151 93.9304C25.1035 93.9082 25.0836 93.8915 25.0597 93.884C25.0358 93.8765 25.0099 93.8788 24.9877 93.8903C24.6681 94.0732 24.4279 94.3682 24.3137 94.7182C24.3095 94.7323 24.3086 94.7473 24.3111 94.7618C24.3137 94.7764 24.3196 94.7901 24.3284 94.802C24.3371 94.8139 24.3486 94.8235 24.3618 94.8302C24.375 94.8369 24.3895 94.8404 24.4043 94.8404Z" fill="#E8C0A6"/>
<path d="M23.5687 94.735C23.5884 94.735 23.6075 94.7289 23.6235 94.7176C23.6396 94.7062 23.6517 94.6902 23.6582 94.6717C23.7721 94.3575 23.9764 94.0841 24.2454 93.8859C24.3486 93.8198 24.2427 93.6589 24.1417 93.7282C23.8372 93.9484 23.6065 94.2557 23.4798 94.6095C23.475 94.6237 23.4736 94.6389 23.4757 94.6537C23.4779 94.6686 23.4835 94.6827 23.4922 94.695C23.5009 94.7072 23.5124 94.7172 23.5257 94.7242C23.539 94.7311 23.5537 94.7349 23.5687 94.735Z" fill="#E8C0A6"/>
<path d="M14.8236 94.3182C15.5445 93.9111 16.1879 94.4448 16.2894 94.2636C16.3739 94.0726 15.4299 93.7855 14.7761 94.1435C14.7592 94.1545 14.7462 94.1705 14.739 94.1893C14.7317 94.2081 14.7307 94.2288 14.736 94.2482C14.7413 94.2676 14.7526 94.2849 14.7684 94.2975C14.7841 94.3101 14.8034 94.3173 14.8236 94.3182Z" fill="#E8C0A6"/>
<path d="M26.4916 95.0833H21.3936V95.0882C21.4084 95.2096 21.4671 95.3213 21.5587 95.4024C21.6503 95.4834 21.7684 95.5281 21.8907 95.528H26.1817C26.2344 95.5287 26.2865 95.5166 26.3335 95.4928C26.3806 95.4689 26.4211 95.4341 26.4518 95.3913C26.4825 95.3484 26.5024 95.2988 26.5098 95.2466C26.5172 95.1944 26.5119 95.1411 26.4943 95.0914C26.4937 95.0886 26.4928 95.0859 26.4916 95.0833Z" fill="#4867AA"/>
<path d="M14.5411 95.528H16.468C16.5248 95.5281 16.581 95.5169 16.6333 95.4948C16.6856 95.4728 16.7329 95.4404 16.7723 95.3996C16.8118 95.3589 16.8427 95.3106 16.8631 95.2576C16.8835 95.2046 16.8929 95.1481 16.8909 95.0914V95.0837H14.1176C14.1176 95.087 14.1176 95.0897 14.1176 95.093C14.1159 95.1496 14.1257 95.206 14.1462 95.2588C14.1667 95.3115 14.1977 95.3597 14.2372 95.4002C14.2767 95.4408 14.324 95.473 14.3762 95.495C14.4284 95.5169 14.4845 95.5281 14.5411 95.528Z" fill="#4867AA"/>
<path d="M20.8483 52.0099C20.8483 52.0099 21.0911 50.6423 19.8906 50.1992L19.1326 50.7689L20.8483 52.0099Z" fill="#8C4225"/>
<path d="M22.9258 62.2273C26.2956 64.7649 31.5688 64.0053 33.5187 60.314L33.0275 59.2881C27.3739 61.7182 25.1485 56.9568 20.5618 56.6829L21.4857 57.8616C21.4857 57.8616 22.8467 62.1466 22.9258 62.2273Z" fill="#E9F4FF"/>
<path d="M14.0002 93.1034C14.0002 93.1034 16.0265 93.5945 17.0704 93.0668C17.6134 89.6594 19.1218 80.1721 19.6473 73.6705C19.6675 74.0525 20.7709 89.3385 20.981 93.0668C21.7019 93.308 23.1513 93.5989 23.9623 93.0122C24.3263 89.088 25.4963 76.1666 23.7341 65.613C23.7341 65.613 18.9051 66.1505 15.1342 65.0127C14.0963 68.3601 13.8212 89.0864 14.0002 93.1034Z" fill="#EB5648"/>
<path d="M20.0354 56.5934C20.0692 55.5522 20.1991 53.4883 19.3538 53.21C18.7469 52.9993 18.0288 53.5161 18.2154 54.1999C18.27 54.1655 18.4468 56.1148 18.3245 56.6556C16.724 57.1375 21.5394 58.7168 20.0354 56.5934Z" fill="#F99370"/>
<path d="M18.199 54.1127C18.2033 54.1422 18.2083 54.1722 18.2153 54.2011C18.2552 54.1749 18.366 55.2505 18.3671 56.0314C19.1005 56.3649 19.8994 56.2339 20.049 56.2033C20.0899 55.1261 20.1581 53.5124 19.3537 53.2112C18.7807 52.9667 18.098 53.4884 18.199 54.1127Z" fill="#E57D61"/>
<path d="M17.0464 53.3935C17.1692 54.1575 17.4284 55.0192 18.0314 55.525C18.9117 56.1914 20.2007 56.1204 21.0956 55.3859C21.7865 54.7403 22.0053 53.871 21.6413 53.203C21.404 52.8079 20.9658 52.4609 20.8473 52.0112C19.8236 49.0179 16.611 50.6922 17.0464 53.3935Z" fill="#F99370"/>
<path d="M19.9633 52.9219C20.0331 52.7893 19.823 52.6823 19.757 52.8171C19.691 52.9519 19.8973 53.0572 19.9633 52.9219Z" fill="#C16256"/>
<path d="M20.9357 52.7587C21.0061 52.6255 20.7955 52.5191 20.7294 52.6539C20.6634 52.7887 20.8697 52.8935 20.9357 52.7587Z" fill="#C16256"/>
<path d="M17.0464 53.3935C17.1697 54.1575 17.4284 55.0197 18.0314 55.525C18.0754 55.5604 18.1217 55.5929 18.17 55.6222C17.7105 55.166 17.4606 54.2066 17.4606 54.2066L17.5697 53.3782C18.3114 52.6267 17.9921 51.782 17.9921 51.782C19.232 52.1296 19.65 51.3645 19.65 51.3645C20.0424 51.4147 20.4544 51.2172 20.4544 51.2172C18.9842 49.2068 16.6098 51.3427 17.0464 53.3935Z" fill="#E57D61"/>
<path d="M17.4266 51.4016C17.9538 51.6101 18.1361 52.8347 16.8929 53.6718C16.8929 53.6718 16.2894 51.6543 17.4266 51.4016Z" fill="#8C4225"/>
<path d="M32.5523 59.4818C32.3417 60.5187 33.2585 60.7599 33.2585 60.7599C33.3553 60.6174 33.4423 60.4684 33.5188 60.314L33.0276 59.2881C32.8659 59.3443 32.7072 59.4089 32.5523 59.4818Z" fill="#D1E0F2"/>
<path d="M20.5678 53.7651C20.7795 53.7651 21.1091 53.6194 20.8406 53.4311C20.6223 53.3132 20.4614 52.8597 20.4586 52.8554C20.4567 52.85 20.4538 52.845 20.45 52.8407C20.4461 52.8364 20.4415 52.833 20.4363 52.8305C20.4312 52.828 20.4256 52.8266 20.4199 52.8262C20.4141 52.8259 20.4084 52.8267 20.403 52.8286C20.3976 52.8305 20.3926 52.8335 20.3883 52.8373C20.384 52.8411 20.3806 52.8458 20.3781 52.8509C20.3756 52.8561 20.3742 52.8617 20.3738 52.8674C20.3735 52.8732 20.3743 52.8789 20.3762 52.8843C20.3833 52.9039 20.5498 53.3754 20.7981 53.5086C20.9694 53.6134 20.612 53.7154 20.4646 53.663C20.4536 53.6597 20.4418 53.6609 20.4316 53.6662C20.4214 53.6715 20.4137 53.6805 20.4101 53.6914C20.397 53.77 20.5132 53.7591 20.5678 53.7651Z" fill="#C16256"/>
<path d="M14.6501 69.7446C14.8831 70.1566 23.8034 70.9233 24.4364 70.1517C25.6752 67.0957 23.3897 58.9427 20.5618 56.6829C20.5373 56.6763 20.218 56.5945 20.0385 56.5945C20.051 56.6441 20.3659 57.962 18.3271 56.6572C18.3151 56.6709 17.8289 56.6796 17.6995 56.7664C17.8442 58.9012 13.6967 67.4105 14.6501 69.7446Z" fill="#E8C0A6"/>
<path d="M23.0596 58.5122L24.3273 63.0498C26.3038 64.1413 29.6824 63.9159 31.2513 62.6897C25.6342 64.8654 25.1758 60.5657 23.1354 58.5122H23.0596Z" fill="#D1E0F2"/>
<path d="M17.6199 50.2009L17.6319 50.2266C18.045 49.7354 18.7964 49.4975 18.9689 48.9993C18.9689 48.9993 19.2237 49.4768 19.1943 50.0099C19.3971 49.7866 19.5737 49.5409 19.7209 49.2776C19.9075 49.4598 20.0284 49.6987 20.0647 49.957C20.4699 49.8775 20.8896 49.9184 21.2718 50.0749C20.9416 51.0091 20.17 51.2149 19.5653 51.2181C19.0633 51.6989 18.2616 51.9167 17.4862 51.4408L16.7407 52.4045C15.6782 50.5649 17.6199 50.2009 17.6199 50.2009Z" fill="#8C4225"/>
<path d="M20.9809 93.0668C20.9979 92.7393 19.6472 73.6704 19.6472 73.6704C19.6472 73.6704 20.2852 74.0109 20.4369 76.0355C20.5689 77.796 21.3553 89.4951 21.5589 92.5199C22.9444 92.8294 24.0249 92.3311 24.0249 92.3311C23.9829 92.7743 23.9622 93.0144 23.9622 93.0144C23.2986 93.4924 22.2083 93.3849 21.4388 93.1977C21.2522 93.1541 21.107 93.1082 21.0339 93.0837L20.9809 93.0668Z" fill="#CE3932"/>
<path d="M14.0002 93.1033C14.0002 93.1033 16.0265 93.5945 17.0704 93.0668C17.0704 93.0668 17.1135 92.8032 17.1888 92.3311C17.1888 92.3311 15.7612 92.7164 13.9751 92.3164C13.9675 92.7764 14.0068 93.0651 14.0002 93.1033Z" fill="#CE3932"/>
<path d="M12.7134 83.4529C14.1456 83.8593 15.6382 84.0104 17.1228 83.8993C17.4906 83.8687 17.6974 83.8299 17.6974 83.8299C17.6974 83.8299 18.3457 70.4326 18.5422 67.6004C18.8603 64.6786 19.0928 57.9265 17.6974 56.769L17.1806 56.9328C13.7939 61.1408 13.0261 81.3928 12.7134 83.4529Z" fill="#E9F4FF"/>
<path d="M23.9143 83.9371C24.0669 83.9575 24.2204 83.9701 24.3743 83.9747C24.92 83.9955 25.8254 83.9425 26.3307 83.453C26.3956 82.3714 27.2726 58.0773 21.1775 56.7392C20.9748 56.6958 20.7675 56.6774 20.5603 56.6846C24.5391 60.4271 24.3077 80.7905 23.9143 83.9371Z" fill="#E9F4FF"/>
<path d="M18.092 54.9001C18.092 54.9001 20.2111 56.1634 21.0967 55.3857C21.8788 54.6992 22.0037 53.8725 21.6425 53.2029C21.6425 53.2029 20.6454 53.55 18.3927 53.455C18.3927 53.4539 18.5504 54.4695 18.092 54.9001Z" fill="#E9F4FF"/>
<path d="M18.3927 53.4975C18.4031 53.497 18.4129 53.4929 18.4206 53.4859C18.4282 53.4789 18.4331 53.4695 18.4345 53.4592C18.4358 53.4489 18.4335 53.4385 18.428 53.4298C18.4225 53.421 18.4141 53.4145 18.4042 53.4113L17.4716 53.1592C17.1682 53.2569 18.4031 53.4702 18.3927 53.4975Z" fill="#C16256"/>
<path d="M18.092 54.9438C18.1012 54.9435 18.1101 54.9403 18.1174 54.9346C18.1247 54.929 18.1301 54.9212 18.1327 54.9123C18.1354 54.9035 18.1352 54.894 18.1322 54.8853C18.1292 54.8765 18.1235 54.869 18.116 54.8636C18.0898 54.8718 17.2057 54.1973 17.1992 54.307C17.1331 54.3741 18.0609 54.9193 18.092 54.9438Z" fill="#C16256"/>
<path d="M16.5607 53.7796C16.7489 54.6484 17.8093 54.4241 17.6297 53.5537C17.442 52.6849 16.3811 52.9092 16.5607 53.7796Z" fill="#F99370"/>
<path d="M16.8363 53.9593C16.8429 53.9592 16.8494 53.9576 16.8553 53.9546C16.8612 53.9516 16.8664 53.9474 16.8704 53.9421C16.8745 53.9369 16.8773 53.9308 16.8786 53.9244C16.88 53.9179 16.8799 53.9112 16.8784 53.9048C16.7146 53.4426 16.9176 53.2499 17.2293 53.3771C17.5359 53.2723 16.4511 52.9896 16.7927 53.9304C16.7958 53.9394 16.8017 53.947 16.8096 53.9523C16.8175 53.9575 16.8269 53.96 16.8363 53.9593Z" fill="#C16256"/>
<path d="M17.245 53.8981C17.3782 53.879 17.126 53.4724 16.7899 53.4452C16.7783 53.4444 16.7669 53.4483 16.7582 53.456C16.7495 53.4637 16.7442 53.4745 16.7435 53.4861C16.7428 53.4977 16.7467 53.5091 16.7544 53.5178C16.762 53.5265 16.7728 53.5317 16.7844 53.5325C17.1228 53.5674 17.1653 53.8866 17.245 53.8981Z" fill="#C16256"/>
<path d="M17.6139 59.3308C17.8322 61.0367 16.2283 63.7888 18.7392 64.5593L16.8477 65.0128L16.3206 62.968L17.6139 59.3308Z" fill="#D1E0F2"/>
<path d="M23.9142 83.9369C24.0668 83.9573 24.2204 83.9699 24.3743 83.9746C24.747 80.4389 24.6422 75.9013 24.5587 73.6704C24.4709 71.3675 24.1909 66.6088 23.4176 62.4161C22.6443 58.2234 21.1802 56.7407 21.1802 56.7407C20.9775 56.6972 20.7702 56.6789 20.563 56.6861C24.5391 60.427 24.3077 80.7903 23.9142 83.9369Z" fill="#D1E0F2"/>
<path d="M14.3015 66.9299L14.2688 67.253C15.7608 67.9897 18.5428 67.6011 18.5428 67.6011C18.5712 67.17 18.5987 66.756 18.6252 66.3591L14.6923 65.2043C14.5662 65.8941 14.3992 66.2145 14.3015 66.9299Z" fill="#D1E0F2"/>
<path d="M17.1228 83.8993C17.4906 83.8687 17.6974 83.83 17.6974 83.83C17.6974 83.83 18.3458 70.4326 18.5422 67.6004C18.8604 64.6786 19.0928 57.9265 17.6974 56.769L17.1807 56.9328C17.6505 57.2094 18.3043 59.1702 18.2863 62.015C18.2623 65.8263 17.8748 70.4518 17.6816 73.6682C17.5157 76.4284 17.2074 82.2889 17.1228 83.8993Z" fill="#D1E0F2"/>
<path d="M23.2348 64.0207C23.3838 64.2052 22.7638 64.4611 22.6552 64.6532C22.9365 64.6959 23.2219 64.7058 23.5055 64.6827C24.0026 64.5364 24.4905 64.3634 24.9713 64.1686C25.1241 64.1026 25.2387 64.3367 25.0897 64.4158C24.6482 64.6625 24.1942 64.8906 23.7303 65.0947V65.1023C24.2436 65.0654 24.7541 64.9952 25.2583 64.8922C25.3206 64.8779 25.3859 64.8867 25.4422 64.9168C25.9241 65.1836 23.8984 65.5034 23.7303 65.5411V65.5449C24.2163 65.5885 24.7055 65.5793 25.1895 65.5176C25.225 65.5129 25.261 65.5153 25.2954 65.5247C25.3299 65.5341 25.3622 65.5502 25.3904 65.5722C25.7773 65.8838 23.7614 66.0322 23.5791 66.012V66.0175C23.9537 66.103 24.3349 66.1565 24.7186 66.1774C24.781 66.1809 24.8404 66.2057 24.8867 66.2478C25.2578 66.5998 23.5098 66.4824 23.3407 66.4508C23.1398 66.4622 22.5275 66.6882 21.6086 66.3678C21.3215 66.2685 21.1938 64.9408 21.4841 64.8742C21.7024 64.824 22.0882 64.6013 22.2105 64.538C22.3938 64.3896 23.0285 63.8182 23.2348 64.0207Z" fill="#F99370"/>
<path d="M20.975 66.5865C21.1816 66.5185 21.3921 66.4457 21.6064 66.3682C21.6418 66.1832 21.8585 65.3117 21.4825 64.8746C12.5093 64.4823 19.3482 61.4715 17.1806 56.9377C10.7456 57.359 7.52639 70.3612 20.975 66.5865Z" fill="#E9F4FF"/>
<path d="M20.9751 66.5865C21.1817 66.5185 21.3922 66.4457 21.6065 66.3682C21.642 66.1832 21.8586 65.3117 21.4826 64.8746C21.4826 64.8746 21.237 64.8484 20.9751 64.8484C20.9751 64.8457 21.4177 65.6249 20.9751 66.5865Z" fill="#D1E0F2"/>
<path d="M19.4114 52.7419C19.4182 52.7419 19.4249 52.7399 19.4306 52.7362C19.4363 52.7326 19.4408 52.7273 19.4436 52.7211C19.5975 52.3839 19.9599 52.3937 19.9626 52.3937C19.9718 52.3937 19.9807 52.3903 19.9875 52.384C19.9943 52.3777 19.9985 52.3691 19.9992 52.3599C19.9995 52.3504 19.996 52.3412 19.9896 52.3343C19.9831 52.3273 19.9742 52.3232 19.9648 52.3228C19.9604 52.3228 19.5522 52.3135 19.3787 52.6933C19.3748 52.7019 19.3744 52.7116 19.3777 52.7204C19.381 52.7292 19.3876 52.7363 19.3961 52.7402C19.4011 52.7419 19.4063 52.7424 19.4114 52.7419Z" fill="#C16256"/>
<path d="M20.8686 52.3331C20.8761 52.3332 20.8834 52.3309 20.8895 52.3266C20.8957 52.3223 20.9003 52.3162 20.9027 52.3091C20.9051 52.302 20.9052 52.2943 20.903 52.2871C20.9008 52.28 20.8964 52.2737 20.8904 52.2692C20.8822 52.2632 20.6858 52.118 20.3632 52.2326C20.3584 52.2338 20.3539 52.236 20.35 52.239C20.3461 52.242 20.3428 52.2459 20.3405 52.2502C20.3381 52.2546 20.3367 52.2594 20.3363 52.2643C20.3359 52.2693 20.3366 52.2742 20.3382 52.2789C20.3399 52.2836 20.3425 52.2879 20.3459 52.2915C20.3493 52.2951 20.3534 52.2979 20.358 52.2998C20.3625 52.3017 20.3674 52.3027 20.3724 52.3026C20.3774 52.3025 20.3822 52.3013 20.3867 52.2992C20.6716 52.1988 20.8402 52.3211 20.8473 52.326C20.8534 52.3306 20.8609 52.3331 20.8686 52.3331Z" fill="#C16256"/>
<path d="M17.6985 56.7691C18.0226 57.227 20.7981 58.9547 20.5602 56.6829C20.5351 56.6763 20.2159 56.5945 20.0363 56.5945C20.0489 56.6441 20.2546 57.8775 18.325 56.6572C18.3168 56.6518 17.8245 56.6862 17.6985 56.7691Z" fill="#D1A68F"/>
<path d="M34.0137 57.6089C34.232 57.7022 33.8036 58.2185 33.7954 58.439C34.0636 58.345 34.3199 58.2203 34.5594 58.0673C34.9305 57.7055 35.2809 57.3241 35.6143 56.9268C35.718 56.7969 35.9292 56.9503 35.8326 57.0905C35.5597 57.5151 35.2634 57.9293 34.9491 58.3265L34.954 58.3325C35.3905 58.0598 35.8086 57.7589 36.2058 57.4316C36.2543 57.3901 36.3161 57.3674 36.3799 57.3677C36.9305 57.3775 35.2885 58.6087 35.1592 58.7206V58.7238C35.609 58.5341 36.037 58.2963 36.4356 58.0144C36.4644 57.9933 36.4972 57.9783 36.532 57.9701C36.5668 57.962 36.6028 57.9609 36.6381 57.9669C37.1254 58.0608 35.4135 59.1358 35.2432 59.2024C35.2432 59.2024 35.2432 59.2068 35.2432 59.209C35.6143 59.1092 35.9763 58.9781 36.3253 58.8171C36.3819 58.7906 36.4461 58.7848 36.5065 58.8008C36.9977 58.9377 35.3998 59.6526 35.235 59.7034C34.7029 60.0544 34.102 60.2878 33.4724 60.3877C33.1722 60.4341 32.7515 59.6996 32.8923 59.3317C32.9725 59.1233 33.2633 58.6556 33.3414 58.5421C33.4434 58.326 33.7381 57.5254 34.0137 57.6089Z" fill="#F99370"/>
</g>
<defs>
<clipPath id="clip0_229_32292">
<rect width="130.502" height="99.0893" fill="white"/>
</clipPath>
</defs>
</svg>
