<svg width="9" height="9" viewBox="0 0 9 9" fill="none" xmlns="http://www.w3.org/2000/svg">
<g clip-path="url(#clip0_425_633)">
<path d="M6.89062 4.5C6.89062 4.97282 6.75042 5.43502 6.48773 5.82816C6.22505 6.2213 5.85168 6.52771 5.41485 6.70865C4.97802 6.88959 4.49735 6.93693 4.03361 6.84469C3.56988 6.75245 3.14391 6.52476 2.80957 6.19043C2.47524 5.85609 2.24755 5.43012 2.15531 4.96639C2.06307 4.50265 2.11041 4.02198 2.29135 3.58515C2.47229 3.14832 2.7787 2.77495 3.17184 2.51227C3.56498 2.24958 4.02718 2.10938 4.5 2.10938C5.13375 2.1103 5.74127 2.36247 6.1894 2.8106C6.63753 3.25873 6.8897 3.86625 6.89062 4.5ZM4.5 1.54688C4.57459 1.54688 4.64613 1.51724 4.69887 1.4645C4.75162 1.41175 4.78125 1.34022 4.78125 1.26562V0.5625C4.78125 0.487908 4.75162 0.416371 4.69887 0.363626C4.64613 0.310882 4.57459 0.28125 4.5 0.28125C4.42541 0.28125 4.35387 0.310882 4.30113 0.363626C4.24838 0.416371 4.21875 0.487908 4.21875 0.5625V1.26562C4.21875 1.34022 4.24838 1.41175 4.30113 1.4645C4.35387 1.51724 4.42541 1.54688 4.5 1.54688ZM2.01445 2.41172C2.06762 2.46347 2.13889 2.49243 2.21309 2.49243C2.28728 2.49243 2.35855 2.46347 2.41172 2.41172C2.46432 2.35899 2.49385 2.28756 2.49385 2.21309C2.49385 2.13861 2.46432 2.06718 2.41172 2.01445L1.91602 1.51523C1.8908 1.48451 1.85943 1.4594 1.82392 1.44153C1.78842 1.42366 1.74956 1.41342 1.70986 1.41147C1.67016 1.40952 1.63049 1.4159 1.59341 1.43021C1.55632 1.44452 1.52264 1.46643 1.49453 1.49453C1.46643 1.52264 1.44452 1.55632 1.43021 1.59341C1.4159 1.63049 1.40952 1.67016 1.41147 1.70986C1.41342 1.74956 1.42366 1.78842 1.44153 1.82392C1.4594 1.85943 1.48451 1.8908 1.51523 1.91602L2.01445 2.41172ZM1.54688 4.5C1.54688 4.42541 1.51724 4.35387 1.4645 4.30113C1.41175 4.24838 1.34022 4.21875 1.26562 4.21875H0.5625C0.487908 4.21875 0.416371 4.24838 0.363626 4.30113C0.310882 4.35387 0.28125 4.42541 0.28125 4.5C0.28125 4.57459 0.310882 4.64613 0.363626 4.69887C0.416371 4.75162 0.487908 4.78125 0.5625 4.78125H1.26562C1.34022 4.78125 1.41175 4.75162 1.4645 4.69887C1.51724 4.64613 1.54688 4.57459 1.54688 4.5ZM2.01445 6.58828L1.51523 7.08398C1.46242 7.13731 1.43279 7.20932 1.43279 7.28437C1.43279 7.35943 1.46242 7.43144 1.51523 7.48477C1.56961 7.53577 1.64108 7.56461 1.71562 7.56562C1.79031 7.56531 1.86203 7.53637 1.91602 7.48477L2.41172 6.98555C2.46019 6.93205 2.48624 6.86195 2.48446 6.78978C2.48269 6.7176 2.45322 6.64888 2.40217 6.59783C2.35112 6.54678 2.2824 6.51731 2.21022 6.51554C2.13805 6.51376 2.06795 6.5398 2.01445 6.58828ZM4.5 7.45312C4.42541 7.45312 4.35387 7.48276 4.30113 7.5355C4.24838 7.58825 4.21875 7.65978 4.21875 7.73438V8.4375C4.21875 8.51209 4.24838 8.58363 4.30113 8.63637C4.35387 8.68912 4.42541 8.71875 4.5 8.71875C4.57459 8.71875 4.64613 8.68912 4.69887 8.63637C4.75162 8.58363 4.78125 8.51209 4.78125 8.4375V7.73438C4.78125 7.65978 4.75162 7.58825 4.69887 7.5355C4.64613 7.48276 4.57459 7.45312 4.5 7.45312ZM6.98555 6.58828C6.93205 6.5398 6.86195 6.51376 6.78978 6.51554C6.7176 6.51731 6.64888 6.54678 6.59783 6.59783C6.54678 6.64888 6.51731 6.7176 6.51554 6.78978C6.51376 6.86195 6.5398 6.93205 6.58828 6.98555L7.08398 7.48477C7.13797 7.53637 7.20969 7.56531 7.28437 7.56562C7.35892 7.56461 7.43039 7.53577 7.48477 7.48477C7.53758 7.43144 7.56721 7.35943 7.56721 7.28437C7.56721 7.20932 7.53758 7.13731 7.48477 7.08398L6.98555 6.58828ZM8.4375 4.21875H7.73438C7.65978 4.21875 7.58825 4.24838 7.5355 4.30113C7.48276 4.35387 7.45312 4.42541 7.45312 4.5C7.45312 4.57459 7.48276 4.64613 7.5355 4.69887C7.58825 4.75162 7.65978 4.78125 7.73438 4.78125H8.4375C8.51209 4.78125 8.58363 4.75162 8.63637 4.69887C8.68912 4.64613 8.71875 4.57459 8.71875 4.5C8.71875 4.42541 8.68912 4.35387 8.63637 4.30113C8.58363 4.24838 8.51209 4.21875 8.4375 4.21875ZM6.78867 2.49258C6.82522 2.4929 6.86146 2.48591 6.89527 2.47203C6.92908 2.45814 6.95978 2.43764 6.98555 2.41172L7.48477 1.91602C7.52961 1.86137 7.55253 1.792 7.54907 1.72139C7.5456 1.65078 7.51599 1.58398 7.466 1.534C7.41602 1.48401 7.34922 1.4544 7.27861 1.45093C7.208 1.44747 7.13863 1.47039 7.08398 1.51523L6.58828 2.01445C6.53568 2.06718 6.50615 2.13861 6.50615 2.21309C6.50615 2.28756 6.53568 2.35899 6.58828 2.41172C6.61446 2.43807 6.64573 2.45882 6.68018 2.47272C6.71462 2.48662 6.75153 2.49338 6.78867 2.49258Z" fill="#039EA2"/>
</g>
<defs>
<clipPath id="clip0_425_633">
<rect width="9" height="9" fill="white"/>
</clipPath>
</defs>
</svg>
