<svg width="66" height="90" viewBox="0 0 66 90" fill="none" xmlns="http://www.w3.org/2000/svg">
<path d="M61.8 36.5H56.5V24C56.5 17.7674 54.0241 11.7901 49.617 7.38299C45.2099 2.97589 39.2326 0.5 33 0.5C26.7674 0.5 20.7901 2.97589 16.383 7.38299C11.9759 11.7901 9.5 17.7674 9.5 24V36.5H4.2C3.71411 36.5 3.23298 36.5957 2.78407 36.7816C2.33517 36.9676 1.92728 37.2401 1.5837 37.5837C1.24013 37.9273 0.967587 38.3352 0.781645 38.7841C0.595702 39.233 0.5 39.7141 0.5 40.2V85.8C0.5 86.7813 0.889819 87.7224 1.5837 88.4163C2.27759 89.1102 3.2187 89.5 4.2 89.5H61.8C62.7813 89.5 63.7224 89.1102 64.4163 88.4163C65.1102 87.7224 65.5 86.7813 65.5 85.8V40.2C65.5 39.7141 65.4043 39.233 65.2184 38.7841C65.0324 38.3352 64.7599 37.9273 64.4163 37.5837C64.0727 37.2401 63.6648 36.9676 63.2159 36.7816C62.767 36.5957 62.2859 36.5 61.8 36.5ZM14.5 24C14.5 19.0935 16.4491 14.3879 19.9185 10.9185C23.3879 7.4491 28.0935 5.5 33 5.5C37.9065 5.5 42.6121 7.4491 46.0815 10.9185C49.5509 14.3879 51.5 19.0935 51.5 24V36.5H14.5V24ZM60.5 84.5H5.5V41.5H60.5V84.5Z" fill="#039EA2"/>
<path d="M33.0009 54.4399C31.9662 54.4418 30.9575 54.7646 30.114 55.3639C29.2704 55.9631 28.6336 56.8094 28.2913 57.7858C27.949 58.7623 27.9181 59.8209 28.2028 60.8157C28.4875 61.8105 29.0738 62.6924 29.8809 63.3399V68.4399C29.9261 69.2382 30.275 69.9889 30.8561 70.538C31.4372 71.0871 32.2064 71.3931 33.0059 71.3931C33.8054 71.3931 34.5746 71.0871 35.1557 70.538C35.7368 69.9889 36.0857 69.2382 36.1309 68.4399V63.3399C36.9386 62.6919 37.5252 61.809 37.8097 60.8133C38.0941 59.8175 38.0624 58.758 37.7188 57.7811C37.3752 56.8042 36.7368 55.958 35.8917 55.3595C35.0466 54.761 34.0365 54.4397 33.0009 54.4399Z" fill="#039EA2"/>
</svg>
