<svg width="47" height="47" viewBox="0 0 47 47" fill="none" xmlns="http://www.w3.org/2000/svg">
<rect width="47" height="47" rx="5" fill="#039EA2" fill-opacity="0.9"/>
<g clip-path="url(#clip0_712_5833)">
<path d="M46.9415 0H0.000244141V46.9413H46.9415V0Z" fill="url(#paint0_radial_712_5833)" stroke="#1A2523" stroke-miterlimit="10"/>
<path d="M28.3093 23.2829V23.7863C28.3093 23.9284 28.1941 24.0436 28.052 24.0436C27.9099 24.0436 27.7947 23.9284 27.7947 23.7863V23.2829C27.7947 23.1408 27.9099 23.0256 28.052 23.0256C28.1941 23.0256 28.3093 23.1408 28.3093 23.2829Z" fill="#EDEDED" fill-opacity="0.85"/>
<path d="M29.2303 23.744H29.1349C29.0191 23.744 28.9253 23.6502 28.9253 23.5344C28.9253 23.4187 29.0191 23.3248 29.1349 23.3248H29.2303C29.3461 23.3248 29.4399 23.4187 29.4399 23.5344C29.4399 23.6502 29.3461 23.744 29.2303 23.744Z" fill="#EDEDED" fill-opacity="0.85"/>
<path d="M30.4034 23.7013H30.2225C30.1304 23.7013 30.0557 23.6266 30.0557 23.5345C30.0557 23.4423 30.1304 23.3676 30.2225 23.3676H30.4034C30.4956 23.3676 30.5703 23.4423 30.5703 23.5345C30.5703 23.6266 30.4956 23.7013 30.4034 23.7013Z" fill="#EDEDED" fill-opacity="0.85"/>
<path d="M31.701 23.2829V23.7863C31.701 23.9284 31.5858 24.0436 31.4437 24.0436C31.3016 24.0436 31.1864 23.9284 31.1864 23.7863V23.2829C31.1864 23.1408 31.3016 23.0256 31.4437 23.0256C31.5858 23.0256 31.701 23.1408 31.701 23.2829Z" fill="#EDEDED" fill-opacity="0.85"/>
<path d="M32.8315 23.0255V24.0434C32.8315 24.1855 32.7163 24.3007 32.5742 24.3007C32.4321 24.3007 32.3169 24.1855 32.3169 24.0434V23.0255C32.3169 22.8834 32.4321 22.7682 32.5742 22.7682C32.7163 22.7682 32.8315 22.8834 32.8315 23.0255Z" fill="#EDEDED" fill-opacity="0.85"/>
<path d="M33.962 22.2478V24.8209C33.962 24.963 33.8468 25.0782 33.7047 25.0782C33.5626 25.0782 33.4474 24.963 33.4474 24.8209V22.2478C33.4474 22.1057 33.5626 21.9905 33.7047 21.9905C33.8468 21.9905 33.962 22.1057 33.962 22.2478Z" fill="#EDEDED" fill-opacity="0.85"/>
<path d="M35.0926 21.9069V25.162C35.0926 25.3041 34.9774 25.4193 34.8353 25.4193C34.6932 25.4193 34.578 25.3041 34.578 25.162V21.9069C34.578 21.7648 34.6932 21.6496 34.8353 21.6496C34.9774 21.6496 35.0926 21.7648 35.0926 21.9069Z" fill="#EDEDED" fill-opacity="0.85"/>
<path d="M36.2232 22.0278V25.041C36.2232 25.1831 36.108 25.2983 35.9659 25.2983C35.8238 25.2983 35.7086 25.1831 35.7086 25.041V22.0278C35.7086 21.8857 35.8238 21.7705 35.9659 21.7705C36.108 21.7705 36.2232 21.8857 36.2232 22.0278Z" fill="#EDEDED" fill-opacity="0.85"/>
<path d="M37.3536 20.9731V26.096C37.3536 26.2381 37.2384 26.3533 37.0963 26.3533C36.9542 26.3533 36.839 26.2381 36.839 26.096V20.9731C36.839 20.831 36.9542 20.7158 37.0963 20.7158C37.2384 20.7158 37.3536 20.831 37.3536 20.9731Z" fill="#EDEDED" fill-opacity="0.85"/>
<path d="M38.4842 20.2019V26.8671C38.4842 27.0092 38.369 27.1244 38.2269 27.1244C38.0848 27.1244 37.9696 27.0092 37.9696 26.8671V20.2019C37.9696 20.0598 38.0848 19.9446 38.2269 19.9446C38.369 19.9446 38.4842 20.0598 38.4842 20.2019Z" fill="#EDEDED" fill-opacity="0.85"/>
<path d="M39.6147 20.9731V26.096C39.6147 26.2381 39.4995 26.3533 39.3574 26.3533C39.2153 26.3533 39.1001 26.2381 39.1001 26.096V20.9731C39.1001 20.831 39.2153 20.7158 39.3574 20.7158C39.4995 20.7158 39.6147 20.831 39.6147 20.9731Z" fill="#EDEDED" fill-opacity="0.85"/>
<path d="M40.7452 21.8522V25.2168C40.7452 25.3589 40.63 25.4741 40.4879 25.4741C40.3458 25.4741 40.2306 25.3589 40.2306 25.2168V21.8522C40.2306 21.7101 40.3458 21.5949 40.4879 21.5949C40.63 21.5949 40.7452 21.7101 40.7452 21.8522Z" fill="#EDEDED" fill-opacity="0.85"/>
<path d="M41.8757 22.55V24.5189C41.8757 24.661 41.7605 24.7762 41.6184 24.7762C41.4763 24.7762 41.3611 24.6611 41.3611 24.5189V22.55C41.3611 22.4079 41.4763 22.2927 41.6184 22.2927C41.7605 22.2927 41.8757 22.4079 41.8757 22.55Z" fill="#EDEDED" fill-opacity="0.85"/>
<path d="M43.0062 22.2903V24.7785C43.0062 24.9206 42.891 25.0358 42.7489 25.0358C42.6068 25.0358 42.4916 24.9206 42.4916 24.7785V22.2903C42.4916 22.1482 42.6068 22.033 42.7489 22.033C42.891 22.033 43.0062 22.1482 43.0062 22.2903Z" fill="#EDEDED" fill-opacity="0.85"/>
<path d="M44.1368 22.9879V24.0811C44.1368 24.2232 44.0216 24.3384 43.8795 24.3384C43.7374 24.3384 43.6222 24.2232 43.6222 24.0811V22.9879C43.6222 22.8458 43.7374 22.7306 43.8795 22.7306C44.0216 22.7306 44.1368 22.8458 44.1368 22.9879Z" fill="#EDEDED" fill-opacity="0.85"/>
<path d="M45.2674 22.8293V24.2395C45.2674 24.3816 45.1522 24.4968 45.0101 24.4968C44.868 24.4968 44.7528 24.3816 44.7528 24.2395V22.8293C44.7528 22.6872 44.868 22.572 45.0101 22.572C45.1522 22.572 45.2674 22.6872 45.2674 22.8293Z" fill="#EDEDED" fill-opacity="0.85"/>
<path d="M46.3979 23.1887V23.8803C46.3979 24.0224 46.2827 24.1376 46.1406 24.1376C45.9985 24.1376 45.8833 24.0224 45.8833 23.8803V23.1887C45.8833 23.0466 45.9985 22.9314 46.1406 22.9314C46.2827 22.9314 46.3979 23.0466 46.3979 23.1887Z" fill="#EDEDED" fill-opacity="0.85"/>
<path d="M24.9175 22.3246V24.7443C24.9175 24.8864 24.8024 25.0016 24.6603 25.0016C24.5182 25.0016 24.403 24.8864 24.403 24.7443V22.3246C24.403 22.1825 24.5182 22.0673 24.6603 22.0673C24.8024 22.0673 24.9175 22.1825 24.9175 22.3246Z" fill="#EDEDED" fill-opacity="0.85"/>
<path d="M26.0482 22.9321V24.137C26.0482 24.2791 25.933 24.3943 25.7909 24.3943C25.6488 24.3943 25.5336 24.2791 25.5336 24.137V22.9321C25.5336 22.79 25.6488 22.6748 25.7909 22.6748C25.933 22.6748 26.0482 22.79 26.0482 22.9321Z" fill="#EDEDED" fill-opacity="0.85"/>
<path d="M27.1786 23.4796V23.5895C27.1786 23.7316 27.0635 23.8468 26.9214 23.8468C26.7793 23.8468 26.6641 23.7316 26.6641 23.5895V23.4796C26.6641 23.3375 26.7793 23.2223 26.9214 23.2223C27.0635 23.2223 27.1786 23.3375 27.1786 23.4796Z" fill="#EDEDED" fill-opacity="0.85"/>
<path d="M15.6809 23.7271H15.5512C15.4449 23.7271 15.3588 23.6409 15.3588 23.5346C15.3588 23.4283 15.4449 23.3421 15.5512 23.3421H15.6809C15.7872 23.3421 15.8734 23.4283 15.8734 23.5346C15.8734 23.6409 15.7872 23.7271 15.6809 23.7271Z" fill="#EDEDED" fill-opacity="0.85"/>
<path d="M16.897 23.6415H16.5963C16.5373 23.6415 16.4894 23.5936 16.4894 23.5346C16.4894 23.4755 16.5373 23.4276 16.5963 23.4276H16.897C16.9561 23.4276 17.004 23.4755 17.004 23.5346C17.004 23.5936 16.9561 23.6415 16.897 23.6415Z" fill="#EDEDED" fill-opacity="0.85"/>
<path d="M18.1345 23.2571V23.8119C18.1345 23.954 18.0193 24.0692 17.8772 24.0692C17.7351 24.0692 17.6199 23.954 17.6199 23.8119V23.2571C17.6199 23.115 17.7351 22.9998 17.8772 22.9998C18.0193 22.9998 18.1345 23.115 18.1345 23.2571Z" fill="#EDEDED" fill-opacity="0.85"/>
<path d="M19.265 22.7865V24.2823C19.265 24.4244 19.1498 24.5396 19.0077 24.5396C18.8656 24.5396 18.7504 24.4244 18.7504 24.2823V22.7865C18.7504 22.6444 18.8656 22.5292 19.0077 22.5292C19.1498 22.5292 19.265 22.6444 19.265 22.7865Z" fill="#EDEDED" fill-opacity="0.85"/>
<path d="M20.3955 22.3789V24.6901C20.3955 24.8322 20.2803 24.9474 20.1382 24.9474C19.9961 24.9474 19.8809 24.8322 19.8809 24.6901V22.3789C19.8809 22.2368 19.9961 22.1216 20.1382 22.1216C20.2803 22.1216 20.3955 22.2368 20.3955 22.3789Z" fill="#EDEDED" fill-opacity="0.85"/>
<path d="M21.5261 22.8519V24.2172C21.5261 24.3593 21.4109 24.4745 21.2688 24.4745C21.1267 24.4745 21.0115 24.3593 21.0115 24.2172V22.8519C21.0115 22.7098 21.1267 22.5946 21.2688 22.5946C21.4109 22.5946 21.5261 22.7098 21.5261 22.8519Z" fill="#EDEDED" fill-opacity="0.85"/>
<path d="M22.6564 22.0596V25.0097C22.6564 25.1518 22.5412 25.267 22.3991 25.267C22.257 25.267 22.1418 25.1518 22.1418 25.0097V22.0596C22.1418 21.9175 22.257 21.8023 22.3991 21.8023C22.5412 21.8023 22.6564 21.9175 22.6564 22.0596Z" fill="#EDEDED" fill-opacity="0.85"/>
<path d="M23.7872 21.3665V25.7024C23.7872 25.8445 23.672 25.9597 23.5299 25.9597C23.3878 25.9597 23.2726 25.8445 23.2726 25.7024V21.3665C23.2726 21.2244 23.3878 21.1092 23.5299 21.1092C23.672 21.1092 23.7872 21.2244 23.7872 21.3665Z" fill="#EDEDED" fill-opacity="0.85"/>
<path d="M13.6124 22.994V24.0751C13.6124 24.2172 13.4972 24.3324 13.3551 24.3324C13.213 24.3324 13.0978 24.2172 13.0978 24.0751V22.994C13.0978 22.8519 13.213 22.7367 13.3551 22.7367C13.4972 22.7367 13.6124 22.8519 13.6124 22.994Z" fill="#EDEDED" fill-opacity="0.85"/>
<path d="M14.7429 23.3855V23.6836C14.7429 23.8257 14.6277 23.9409 14.4856 23.9409C14.3435 23.9409 14.2283 23.8257 14.2283 23.6836V23.3855C14.2283 23.2434 14.3435 23.1282 14.4856 23.1282C14.6277 23.1282 14.7429 23.2434 14.7429 23.3855Z" fill="#EDEDED" fill-opacity="0.85"/>
<path d="M1.17658 23.3307V23.7382C1.17658 23.8803 1.06138 23.9955 0.919282 23.9955C0.777182 23.9955 0.661987 23.8803 0.661987 23.7382V23.3307C0.661987 23.1886 0.777182 23.0734 0.919282 23.0734C1.06138 23.0734 1.17658 23.1886 1.17658 23.3307Z" fill="#EDEDED" fill-opacity="0.85"/>
<path d="M2.30708 23.0933V23.9756C2.30708 24.1177 2.19188 24.2329 2.04978 24.2329C1.90768 24.2329 1.79248 24.1177 1.79248 23.9756V23.0933C1.79248 22.9512 1.90768 22.836 2.04978 22.836C2.19188 22.836 2.30708 22.9512 2.30708 23.0933Z" fill="#EDEDED" fill-opacity="0.85"/>
<path d="M3.43757 22.8061V24.2627C3.43757 24.4048 3.32237 24.52 3.18027 24.52C3.03817 24.52 2.92297 24.4048 2.92297 24.2627V22.8061C2.92297 22.664 3.03817 22.5488 3.18027 22.5488C3.32237 22.5488 3.43757 22.664 3.43757 22.8061Z" fill="#EDEDED" fill-opacity="0.85"/>
<path d="M4.56831 21.8676V25.2014C4.56831 25.3435 4.45311 25.4587 4.31101 25.4587C4.16891 25.4587 4.05371 25.3435 4.05371 25.2014V21.8676C4.05371 21.7255 4.16891 21.6103 4.31101 21.6103C4.45311 21.6103 4.56831 21.7255 4.56831 21.8676Z" fill="#EDEDED" fill-opacity="0.85"/>
<path d="M5.69868 21.0615V26.0076C5.69868 26.1497 5.58348 26.2649 5.44138 26.2649C5.29928 26.2649 5.18408 26.1497 5.18408 26.0076V21.0615C5.18408 20.9194 5.29928 20.8042 5.44138 20.8042C5.58348 20.8042 5.69868 20.9194 5.69868 21.0615Z" fill="#EDEDED" fill-opacity="0.85"/>
<path d="M6.82929 21.3761V25.6928C6.82929 25.8349 6.71409 25.9501 6.57199 25.9501C6.42989 25.9501 6.3147 25.8349 6.3147 25.6928V21.3761C6.3147 21.234 6.42989 21.1188 6.57199 21.1188C6.71409 21.1188 6.82929 21.234 6.82929 21.3761Z" fill="#EDEDED" fill-opacity="0.85"/>
<path d="M7.95966 20.2032V26.866C7.95966 27.0081 7.84447 27.1233 7.70236 27.1233C7.56026 27.1233 7.44507 27.0081 7.44507 26.866V20.2032C7.44507 20.0611 7.56026 19.9459 7.70236 19.9459C7.84447 19.9459 7.95966 20.0611 7.95966 20.2032Z" fill="#EDEDED" fill-opacity="0.85"/>
<path d="M9.0904 20.7467V26.3223C9.0904 26.4644 8.9752 26.5796 8.8331 26.5796C8.691 26.5796 8.57581 26.4644 8.57581 26.3223V20.7467C8.57581 20.6046 8.691 20.4894 8.8331 20.4894C8.9752 20.4894 9.0904 20.6046 9.0904 20.7467Z" fill="#EDEDED" fill-opacity="0.85"/>
<path d="M10.2208 21.5087V25.5603C10.2208 25.7024 10.1056 25.8176 9.96348 25.8176C9.82137 25.8176 9.70618 25.7024 9.70618 25.5603V21.5087C9.70618 21.3666 9.82137 21.2514 9.96348 21.2514C10.1056 21.2514 10.2208 21.3666 10.2208 21.5087Z" fill="#EDEDED" fill-opacity="0.85"/>
<path d="M11.3514 21.0615V26.0076C11.3514 26.1497 11.2362 26.2649 11.0941 26.2649C10.952 26.2649 10.8368 26.1497 10.8368 26.0076V21.0615C10.8368 20.9194 10.952 20.8042 11.0941 20.8042C11.2362 20.8042 11.3514 20.9194 11.3514 21.0615Z" fill="#EDEDED" fill-opacity="0.85"/>
<path d="M12.4819 22.5522V24.5167C12.4819 24.6588 12.3667 24.774 12.2246 24.774C12.0825 24.774 11.9673 24.6588 11.9673 24.5167V22.5522C11.9673 22.4101 12.0825 22.2949 12.2246 22.2949C12.3667 22.2949 12.4819 22.4101 12.4819 22.5522Z" fill="#EDEDED" fill-opacity="0.85"/>
</g>
<defs>
<radialGradient id="paint0_radial_712_5833" cx="0" cy="0" r="1" gradientUnits="userSpaceOnUse" gradientTransform="translate(23.4712 23.4709) scale(23.4709)">
<stop offset="0.57" stop-color="#1C1B19" stop-opacity="0"/>
<stop offset="0.76" stop-color="#1C1B19" stop-opacity="0.54"/>
<stop offset="0.8" stop-color="#1C1B19" stop-opacity="0.65"/>
<stop offset="0.85" stop-color="#1C1B19" stop-opacity="0.78"/>
<stop offset="1" stop-color="#1C1B19" stop-opacity="0.95"/>
</radialGradient>
<clipPath id="clip0_712_5833">
<rect width="47" height="47" rx="5" fill="white"/>
</clipPath>
</defs>
</svg>
