<svg width="21" height="19" viewBox="0 0 21 19" fill="none" xmlns="http://www.w3.org/2000/svg">
<g clip-path="url(#clip0_567_7287)">
<path d="M5.64272 10.2909C5.57082 10.2437 5.51035 10.1809 5.4657 10.1074C5.42106 10.0338 5.39336 9.95121 5.38461 9.86559C5.37586 9.77998 5.38629 9.69349 5.41514 9.61241C5.44398 9.53133 5.49053 9.45769 5.55138 9.39683C5.61223 9.33598 5.68587 9.28944 5.76696 9.26059C5.84804 9.23175 5.93452 9.22132 6.02014 9.23007C6.10575 9.23881 6.18835 9.26651 6.26192 9.31116C6.33549 9.3558 6.39821 9.41627 6.4455 9.48817L9.68268 12.7399V0.567794C9.70929 0.436766 9.78037 0.318965 9.8839 0.234352C9.98742 0.149738 10.117 0.103516 10.2507 0.103516C10.3844 0.103516 10.514 0.149738 10.6175 0.234352C10.7211 0.318965 10.7921 0.436766 10.8187 0.567794V12.7399L14.0588 9.50266C14.1059 9.43009 14.1685 9.36897 14.2423 9.32376C14.316 9.27856 14.3989 9.25043 14.4849 9.24143C14.5709 9.23243 14.6578 9.24278 14.7393 9.27174C14.8208 9.3007 14.8948 9.34753 14.9558 9.40879C15.0169 9.47005 15.0634 9.54419 15.0921 9.62578C15.1207 9.70737 15.1308 9.79434 15.1215 9.88032C15.1122 9.96629 15.0837 10.0491 15.0383 10.1227C14.9928 10.1962 14.9314 10.2587 14.8587 10.3054L10.6507 14.4961C10.6251 14.5241 10.5959 14.5485 10.5637 14.5686C10.5379 14.5853 10.5108 14.5998 10.4826 14.612H10.4652C10.4352 14.6238 10.4041 14.6325 10.3724 14.6381H10.3579C10.3223 14.641 10.2864 14.641 10.2507 14.6381H10.1493C10.1177 14.6321 10.0866 14.6234 10.0565 14.612C10.0122 14.5919 9.97036 14.5666 9.93192 14.5367L9.90294 14.5135C9.89362 14.5065 9.8849 14.4987 9.87686 14.4903L5.64272 10.2909ZM19.9333 9.28241C19.7821 9.28619 19.6384 9.34892 19.5328 9.45721C19.4272 9.56551 19.3681 9.71078 19.3682 9.86203V15.2032C19.3674 15.9091 19.0865 16.5858 18.5871 17.0847C18.0877 17.5835 17.4107 17.8637 16.7048 17.8637H3.79372C3.08836 17.8629 2.41211 17.5824 1.91334 17.0836C1.41457 16.5849 1.13403 15.9086 1.13326 15.2032V9.7606C1.15151 9.67604 1.1506 9.58848 1.1306 9.50433C1.1106 9.42018 1.07202 9.34157 1.01769 9.27426C0.963364 9.20696 0.89466 9.15267 0.816619 9.11537C0.738577 9.07807 0.653179 9.05871 0.566682 9.05871C0.480186 9.05871 0.394788 9.07807 0.316746 9.11537C0.238705 9.15267 0.17 9.20696 0.11567 9.27426C0.0613404 9.34157 0.0227608 9.42018 0.00276375 9.50433C-0.0172333 9.58848 -0.0181436 9.67604 0.000101604 9.7606V15.2032C0.000869171 16.2091 0.4008 17.1736 1.11208 17.8849C1.82335 18.5962 2.78783 18.9961 3.79372 18.9969H16.7048C17.711 18.9961 18.6757 18.5963 19.3875 17.8851C20.0992 17.1739 20.4998 16.2094 20.5013 15.2032V9.84174C20.4962 9.69354 20.4344 9.55296 20.3287 9.44892C20.2231 9.34487 20.0816 9.28528 19.9333 9.28241Z" fill="#039EA2"/>
</g>
<defs>
<clipPath id="clip0_567_7287">
<rect width="20.5012" height="19" fill="white"/>
</clipPath>
</defs>
</svg>
