<svg width="17" height="20" viewBox="0 0 17 20" fill="none" xmlns="http://www.w3.org/2000/svg">
<path d="M2.91799 7.23641V9.82189C2.88808 10.4668 2.70594 11.0969 2.38526 11.6648L1.31045 13.3736C1.14994 13.5995 1.04808 13.8588 1.01334 14.13C0.978593 14.4012 1.01197 14.6764 1.11068 14.9327C1.2094 15.1891 1.37061 15.4192 1.58091 15.6039C1.79122 15.7886 2.04454 15.9227 2.31983 15.9948C6.3444 17.2831 10.6976 17.2831 14.7221 15.9948C14.988 15.9099 15.2305 15.769 15.4317 15.5823C15.6329 15.3956 15.7877 15.168 15.8846 14.9163C15.9816 14.6646 16.0181 14.3953 15.9916 14.1282C15.9651 13.8612 15.8762 13.6033 15.7315 13.3736L14.6567 11.6648C14.3432 11.0947 14.1645 10.4655 14.1333 9.82189V7.23641C14.1333 5.8128 13.5425 4.44748 12.4909 3.44083C11.4392 2.43418 10.0129 1.86865 8.52566 1.86865C7.03841 1.86865 5.61208 2.43418 4.56044 3.44083C3.50879 4.44748 2.91799 5.8128 2.91799 7.23641V7.23641Z" stroke="#039EA2" stroke-width="1.5" stroke-miterlimit="10" stroke-linecap="round"/>
<path d="M9.35747 1.94851C8.50006 1.83959 7.62842 1.90049 6.79663 2.12744C6.93323 1.79505 7.17123 1.50973 7.47962 1.30864C7.78801 1.10755 8.15252 1 8.52566 1C8.89881 1 9.26332 1.10755 9.57171 1.30864C9.8801 1.50973 10.1181 1.79505 10.2547 2.12744C9.96117 2.04467 9.66111 1.98483 9.35747 1.94851V1.94851Z" stroke="#039EA2" stroke-width="1.5" stroke-miterlimit="10" stroke-linecap="round" stroke-linejoin="round"/>
<path d="M11.3296 16.3159C11.3274 17.0271 11.0313 17.7085 10.5059 18.2114C9.98058 18.7142 9.2687 18.9977 8.52576 18.9998C7.78261 18.9981 7.07034 18.7151 6.54438 18.2125C6.01936 17.7091 5.7237 17.0273 5.72192 16.3159" stroke="#039EA2" stroke-width="1.5" stroke-miterlimit="10"/>
</svg>
