<svg width="121" height="100" viewBox="0 0 121 100" fill="none" xmlns="http://www.w3.org/2000/svg">
<g clip-path="url(#clip0_542_3563)">
<path d="M102.208 17.9769L98.6107 21.5806L86.4147 33.7678C79.7757 27.1596 70.5228 22.3685 60.4161 22.3553C50.0702 22.329 40.0052 26.5406 33.296 33.3925L17.7355 17.4677C28.5006 6.55118 43.9228 -0.0417471 60.4666 -4.75028e-05C67.4137 0.0276558 74.2958 1.34023 80.7655 3.87143C88.8127 7.03745 96.1145 11.8407 102.208 17.9769Z" fill="#FFC344"/>
<path d="M17.7202 17.4766L33.2873 33.509C26.7739 39.9484 22.8926 48.5832 22.4004 57.7291C21.9082 66.8751 24.8404 75.8765 30.6251 82.9778C31.2877 83.7943 31.6223 84.8284 31.5635 85.8782C31.5046 86.9281 31.0566 87.9183 30.3069 88.6556L19.8205 98.9993C19.4851 99.3327 19.085 99.5941 18.6449 99.7673C18.2047 99.9406 17.7338 100.022 17.2611 100.007C16.7883 99.9911 16.3237 99.8792 15.8958 99.6777C15.4679 99.4762 15.0857 99.1893 14.7727 98.8347C4.76093 87.472 -0.514263 72.7039 0.0328067 57.5696C0.579876 42.4354 6.90758 28.0867 17.7136 17.4766H17.7202Z" fill="#80D261"/>
<path d="M120.036 60.2295C120.076 73.86 115.391 87.0831 106.777 97.6472C106.307 98.2265 105.721 98.7007 105.056 99.0389C104.391 99.3772 103.663 99.5719 102.918 99.6106C102.173 99.6493 101.428 99.5311 100.732 99.2635C100.036 98.996 99.4036 98.5851 98.8763 98.0576L91.6622 90.815L89.36 88.5018C88.7595 87.8992 88.4059 87.094 88.3686 86.2442C88.3312 85.3943 88.6128 84.5612 89.1581 83.9083C95.1023 76.7741 98.1334 67.6586 97.6451 58.3854C97.1568 49.1123 93.185 40.3655 86.5244 33.8951L98.6546 21.6508L102.25 18.0142C107.878 23.5101 112.351 30.076 115.406 37.3257C118.46 44.5754 120.034 52.3626 120.036 60.2295Z" fill="#E94444"/>
<path opacity="0.1" d="M98.6108 21.5806C90.0339 9.89589 79.778 3.71558 79.778 3.71558L80.77 3.8714C88.8158 7.03888 96.1165 11.842 102.21 17.9768L98.6108 21.5806Z" fill="black"/>
<path opacity="0.1" d="M120.036 60.2295C120.076 73.86 115.391 87.0831 106.777 97.6472C106.307 98.2265 105.721 98.7007 105.056 99.0389C104.391 99.3772 103.663 99.5719 102.918 99.6106C102.173 99.6493 101.428 99.5311 100.732 99.2635C100.036 98.996 99.4036 98.5851 98.8763 98.0576L91.6622 90.815C99.6466 90.7338 102.75 84.0422 102.75 84.0422C116.357 56.4721 108.676 35.3195 98.659 21.6508L102.25 18.0142C107.878 23.5101 112.351 30.076 115.406 37.3257C118.46 44.5754 120.034 52.3626 120.036 60.2295Z" fill="black"/>
<path d="M49.8354 56.5511C49.6737 56.9052 49.604 57.2944 49.6326 57.6826C49.6612 58.0708 49.7872 58.4455 49.999 58.7721C50.2107 59.0987 50.5014 59.3667 50.8441 59.5512C51.1869 59.7357 51.5706 59.8309 51.9598 59.8278L65.3893 59.9617C65.7788 59.9729 66.1649 59.8858 66.5118 59.7083C66.8587 59.5308 67.1552 59.2687 67.374 58.9462C67.5928 58.6237 67.7267 58.2513 67.7634 57.8634C67.8001 57.4754 67.7384 57.0845 67.584 56.7267C65.0472 51.029 63.765 44.8525 63.8245 38.6159L64.0439 16.7675C64.0428 15.4732 63.5278 14.2322 62.6121 13.3174C61.6965 12.4026 60.4551 11.8887 59.1607 11.8887C57.8666 11.8628 56.6152 12.3517 55.6815 13.248C54.7477 14.1444 54.208 15.3747 54.1809 16.6688L53.9614 38.5171C53.8955 44.7548 52.4883 50.9053 49.8354 56.5511Z" fill="#004281"/>
<path d="M59.5536 71.5082C65.8905 71.5082 71.0275 66.3712 71.0275 60.0343C71.0275 53.6974 65.8905 48.5603 59.5536 48.5603C53.2167 48.5603 48.0796 53.6974 48.0796 60.0343C48.0796 66.3712 53.2167 71.5082 59.5536 71.5082Z" fill="#0067C5"/>
</g>
<defs>
<clipPath id="clip0_542_3563">
<rect width="120.036" height="100" fill="white"/>
</clipPath>
</defs>
</svg>
