<svg width="129" height="82" viewBox="0 0 129 82" fill="none" xmlns="http://www.w3.org/2000/svg">
<g clip-path="url(#clip0_229_32478)">
<path d="M11.3844 80.9964C11.3844 80.9964 -10.299 64.6345 6.18416 49.126C23.7337 32.6149 8.18579 11.4198 32.0079 2.86742C57.7615 -6.37608 64.3895 9.90742 75.1717 7.40716C96.6746 2.41926 123.955 4.87509 119.417 29.1015C113.719 59.5116 137.094 55.6329 123.211 81.0984L11.3844 80.9964Z" fill="#B5EEEF"/>
<g opacity="0.5">
<path d="M53.5323 31.4732C53.5323 31.4732 60.8351 30.9631 60.2103 25.301C60.2103 25.301 59.3249 21.5874 57.3414 19.8041C57.3414 19.8041 55.4851 26.9352 54.1801 26.5056C52.8751 26.0761 56.8208 18.7114 56.8208 18.7114C56.8208 18.7114 52.1165 12.9138 49.6195 12.0192C49.6195 12.0192 50.3782 20.1925 49.2185 19.4574C48.0589 18.7224 46.8741 10.2534 46.8741 10.2534C46.8741 10.2534 41.1802 6.15525 38.4347 9.38013C35.6893 12.605 36.4348 15.2166 37.2504 15.8837C38.0661 16.5507 44.0332 19.2715 43.5154 19.9692C42.9975 20.667 38.4139 20.0098 36.5044 18.2632C36.5044 18.2632 36.0991 25.5106 39.4797 26.7289C42.8604 27.9472 44.8061 26.4162 46.8818 27.2067C48.9575 27.9971 50.1659 29.227 48.9114 29.2911C47.6569 29.3553 44.4375 27.3965 42.1714 28.0087C39.9054 28.6208 38.1961 28.8507 40.9098 30.8841C43.6234 32.9176 49.1972 35.0755 51.3655 33.273L53.5323 31.4732Z" fill="#AEC3FF"/>
<path d="M40.7397 11.8782C40.7397 11.8782 54.4445 24.7459 53.5323 31.4732C53.5323 31.4732 52.2197 34.0558 52.4204 37.8232L51.8752 38.9784C51.8752 38.9784 52.0337 34.2505 51.3639 33.2735C51.3639 33.2741 57.382 29.8984 40.7397 11.8782Z" fill="#AEC3FF"/>
<path d="M52.4204 37.8222C52.4204 37.8222 53.1281 42.7865 49.5307 46.7272L48.9701 46.2522C48.9701 46.2522 51.9871 41.4667 51.8889 38.2983C51.7907 35.1299 52.4204 37.8222 52.4204 37.8222Z" fill="#AEC3FF"/>
</g>
<path d="M39.1171 57.9738C39.1171 57.9738 42.1187 48.9815 35.0337 46.9294C35.0337 46.9294 30.1517 46.1521 27.0371 47.6425C27.0371 47.6425 34.6498 53.389 33.4929 54.7396C32.336 56.0901 25.4715 47.7248 25.4715 47.7248C25.4715 47.7248 16.2072 50.4873 13.9011 53.0325C13.9011 53.0325 24.0574 56.1669 22.6038 57.191C21.1501 58.2151 10.4299 55.4444 10.4299 55.4444C10.4299 55.4444 2.70921 60.2321 5.21111 65.1125C7.71302 69.9929 11.2067 70.3922 12.408 69.746C13.6093 69.0999 19.8166 63.3045 20.3959 64.2688C20.9751 65.2332 17.9203 70.3972 14.8863 71.8151C14.8863 71.8151 23.3596 75.8848 26.4885 72.4416C29.6174 68.9984 28.7491 65.9139 30.7217 63.8201C32.6942 61.7263 34.7639 60.8887 34.223 62.4246C33.6821 63.9606 29.743 66.8415 29.3547 69.8563C28.9663 72.8711 28.3964 75.0302 32.1714 72.7883C35.9465 70.5464 41.2855 64.9441 40.2016 61.4581L39.1171 57.9738Z" fill="#AEC3FF"/>
<path d="M9.34229 63.5919C9.34229 63.5919 31.5193 53.5536 39.1172 57.9738C39.1172 57.9738 41.6997 61.1405 40.2017 61.4597C40.2017 61.4597 39.138 52.5882 9.34229 63.5919Z" fill="#AEC3FF"/>
<path d="M87.3522 26.8429C87.3522 26.8429 90.5036 13.4842 101.136 12.0158C101.136 12.0158 103.205 11.7618 103.893 14.0393C104.582 16.3169 100.469 16.3339 97.927 17.25C95.3845 18.166 89.4575 22.0508 87.3522 26.8429Z" fill="#D2E0FF"/>
<path d="M87.1087 24.342C87.1087 24.342 86.0033 13.2774 93.7625 9.35035C93.7625 9.35035 95.2803 8.61037 96.4087 10.1732C97.537 11.736 94.3895 12.8331 92.683 14.205C90.9764 15.5769 87.4608 20.1182 87.1087 24.342Z" fill="#D2E0FF"/>
<path d="M31.5675 44.0766C31.5675 44.0766 23.5983 36.6241 15.9149 40.3344C15.9149 40.3344 14.4338 41.0772 14.9823 42.8884C15.5309 44.6997 18.2588 42.8989 20.3449 42.3854C22.431 41.872 28.064 41.8325 31.5675 44.0766Z" fill="#AEC3FF"/>
<path d="M30.6262 42.3157C30.6262 42.3157 26.4847 34.5056 19.6203 35.324C19.6203 35.324 18.2895 35.5028 18.2319 37.0344C18.1743 38.5659 20.7393 37.906 22.4732 38.0623C24.2072 38.2187 28.5335 39.6729 30.6262 42.3157Z" fill="#AEC3FF"/>
<path d="M96.7729 34.0759C96.7729 34.0759 91.1986 30.9542 93.8009 26.7172C93.8009 26.7172 95.882 24.116 98.1119 23.4474C98.1119 23.4474 96.9226 29.7649 98.1119 29.9136C99.3011 30.0623 98.9292 22.7781 98.9292 22.7781C98.9292 22.7781 104.801 19.9537 107.105 20.177C107.105 20.177 103.463 26.3459 104.652 26.1972C105.841 26.0486 109.928 19.805 109.928 19.805C109.928 19.805 115.949 18.6921 116.915 22.2576C117.882 25.8231 116.32 27.6086 115.429 27.8319C114.537 28.0551 108.813 27.9805 108.962 28.7238C109.111 29.4671 112.976 30.6563 115.131 29.9855C115.131 29.9855 112.753 35.8576 109.631 35.5603C106.51 35.263 105.543 33.3305 103.611 33.1818C101.679 33.0332 100.265 33.5532 101.233 34.0737C102.2 34.5943 105.469 34.2438 107.03 35.5707C108.59 36.8976 109.854 37.7155 106.955 38.3101C104.057 38.9048 98.854 38.5329 97.8135 36.3036L96.7729 34.0759Z" fill="#AEC3FF"/>
<path d="M114.165 23.3728C114.165 23.3728 98.5567 28.4271 96.7728 34.076C96.7728 34.076 96.8469 36.6031 95.2863 39.5016V40.6162C95.2863 40.6162 96.9215 36.8258 97.8134 36.3058C97.8134 36.3058 94.3197 31.4002 114.165 23.3728Z" fill="#AEC3FF"/>
<path d="M95.2862 39.5018C95.2862 39.5018 92.8792 43.1567 94.2511 47.6065L94.8704 47.4419C94.8704 47.4419 94.2671 42.5413 95.5287 40.0761C96.7903 37.611 95.2862 39.5018 95.2862 39.5018Z" fill="#AEC3FF"/>
<path d="M42.33 80.8349L48.7046 80.9759C49.0529 80.6934 48.4896 80.0226 47.8862 79.965C47.6245 79.9397 47.2915 79.9869 46.9108 80.0588C46.8489 78.8915 46.4638 73.6408 44.5708 73.812C42.443 74.0007 44.5197 76.1186 45.093 77.3577C45.5175 78.2754 45.9575 79.5881 46.1583 80.2102C45.9855 80.2436 45.8061 80.276 45.6229 80.3056C45.3607 79.4356 44.3782 76.5064 43.0447 76.6463C41.477 76.8108 42.0798 77.9891 43.1725 78.705C43.9739 79.2316 44.9558 79.9765 45.4215 80.3363C45.0083 80.3988 44.5902 80.423 44.1725 80.4087C43.0809 80.3566 42.5406 80.6665 42.33 80.8349Z" fill="#A8D29F"/>
<path d="M116.57 80.8926H109.255C108.863 80.5602 109.529 79.8048 110.219 79.7538C110.52 79.7313 110.901 79.7944 111.336 79.886C111.437 78.5492 112.011 72.5356 114.178 72.7802C116.614 73.0506 114.178 75.4269 113.489 76.8339C112.979 77.8762 112.441 79.3709 112.195 80.0758C112.393 80.1192 112.598 80.1609 112.807 80.1992C113.13 79.208 114.331 75.8734 115.859 76.0676C117.653 76.2953 116.932 77.6321 115.66 78.4264C114.728 79.01 113.582 79.8394 113.038 80.2404C113.51 80.3224 113.989 80.3608 114.468 80.355C115.722 80.3243 116.333 80.694 116.57 80.8926Z" fill="#A8D29F"/>
<path d="M99.1947 22.085H29.8062C28.1809 22.085 26.8633 23.4026 26.8633 25.0279V60.4632C26.8633 62.0886 28.1809 63.4062 29.8062 63.4062H99.1947C100.82 63.4062 102.138 62.0886 102.138 60.4632V25.0279C102.138 23.4026 100.82 22.085 99.1947 22.085Z" fill="#D2E0FF"/>
<path d="M28.5791 22.085H100.109C100.376 22.0846 100.639 22.1368 100.886 22.2385C101.132 22.3402 101.356 22.4894 101.544 22.6776C101.733 22.8659 101.882 23.0895 101.984 23.3355C102.086 23.5816 102.139 23.8454 102.139 24.1118V25.6971H26.8633V23.7992C26.8633 23.5739 26.9077 23.3509 26.9939 23.1428C27.0802 22.9347 27.2066 22.7457 27.3659 22.5865C27.5253 22.4273 27.7145 22.301 27.9226 22.215C28.1308 22.1289 28.3539 22.0847 28.5791 22.085Z" fill="#739AF0"/>
<path d="M30.8638 56.9321C30.8638 56.3691 31.0307 55.8188 31.3435 55.3507C31.6562 54.8826 32.1008 54.5178 32.6209 54.3024C33.141 54.0869 33.7133 54.0306 34.2655 54.1404C34.8176 54.2502 35.3248 54.5213 35.7229 54.9194C36.1209 55.3175 36.392 55.8246 36.5019 56.3768C36.6117 56.9289 36.5553 57.5012 36.3399 58.0213C36.1245 58.5415 35.7596 58.986 35.2915 59.2988C34.8235 59.6115 34.2731 59.7785 33.7102 59.7785C32.9553 59.7785 32.2313 59.4786 31.6975 58.9448C31.1637 58.411 30.8638 57.687 30.8638 56.9321Z" fill="#F77D48"/>
<path d="M33.3454 55.699H32.7239V58.3216H33.3454V55.699Z" fill="white"/>
<path d="M34.8319 55.699H34.2104V58.3216H34.8319V55.699Z" fill="white"/>
<path d="M73.6798 57.3643H39.166C39.1094 57.3643 39.0532 57.3532 39.0009 57.3315C38.9486 57.3097 38.901 57.2779 38.861 57.2378C38.8209 57.1978 38.7892 57.1502 38.7675 57.0978C38.7459 57.0454 38.7348 56.9893 38.7349 56.9326C38.7349 56.8183 38.7803 56.7086 38.8612 56.6277C38.942 56.5469 39.0517 56.5015 39.166 56.5015H73.682C73.7387 56.5014 73.7948 56.5125 73.8471 56.5341C73.8995 56.5558 73.9471 56.5875 73.9872 56.6276C74.0273 56.6676 74.0591 56.7151 74.0808 56.7675C74.1025 56.8198 74.1137 56.876 74.1137 56.9326C74.1137 56.9895 74.1025 57.0458 74.0806 57.0983C74.0588 57.1509 74.0268 57.1985 73.9865 57.2387C73.9462 57.2788 73.8983 57.3105 73.8457 57.3321C73.793 57.3537 73.7367 57.3646 73.6798 57.3643Z" fill="#AEC3FF"/>
<path d="M50.5916 57.3643H39.166C39.1094 57.3643 39.0532 57.3532 39.0009 57.3315C38.9486 57.3097 38.901 57.2779 38.861 57.2378C38.8209 57.1978 38.7892 57.1502 38.7675 57.0978C38.7459 57.0454 38.7348 56.9893 38.7349 56.9326C38.7349 56.8183 38.7803 56.7086 38.8612 56.6277C38.942 56.5469 39.0517 56.5015 39.166 56.5015H50.5938C50.7082 56.5015 50.818 56.5469 50.8989 56.6277C50.9798 56.7086 51.0254 56.8182 51.0255 56.9326C51.0255 56.9895 51.0143 57.0458 50.9925 57.0983C50.9706 57.1509 50.9386 57.1985 50.8983 57.2387C50.858 57.2788 50.8101 57.3105 50.7575 57.3321C50.7049 57.3537 50.6485 57.3646 50.5916 57.3643Z" fill="#F77D48"/>
<path d="M49.4275 56.9322C49.4275 56.7304 49.4873 56.5331 49.5994 56.3653C49.7116 56.1975 49.8709 56.0668 50.0574 55.9895C50.2438 55.9123 50.4489 55.8921 50.6468 55.9315C50.8448 55.9708 51.0266 56.068 51.1692 56.2107C51.3119 56.3534 51.4091 56.5352 51.4485 56.7331C51.4878 56.931 51.4676 57.1362 51.3904 57.3226C51.3132 57.509 51.1824 57.6684 51.0146 57.7805C50.8468 57.8926 50.6496 57.9524 50.4478 57.9524C50.1772 57.9524 49.9177 57.845 49.7263 57.6536C49.535 57.4623 49.4275 57.2028 49.4275 56.9322Z" fill="#F77D48"/>
<path d="M40.6585 58.9257H39.2674C39.1874 58.9257 39.1106 58.8939 39.0541 58.8373C38.9975 58.7807 38.9657 58.704 38.9657 58.624C38.9657 58.5439 38.9975 58.4672 39.0541 58.4106C39.1106 58.3541 39.1874 58.3223 39.2674 58.3223H40.6585C40.7385 58.3223 40.8153 58.3541 40.8718 58.4106C40.9284 58.4672 40.9602 58.5439 40.9602 58.624C40.9602 58.704 40.9284 58.7807 40.8718 58.8373C40.8153 58.8939 40.7385 58.9257 40.6585 58.9257Z" fill="#739AF0"/>
<path d="M73.8097 58.9257H72.4186C72.3386 58.9257 72.2619 58.8939 72.2053 58.8373C72.1487 58.7807 72.1169 58.704 72.1169 58.624C72.1169 58.5439 72.1487 58.4672 72.2053 58.4106C72.2619 58.3541 72.3386 58.3223 72.4186 58.3223H73.8097C73.8898 58.3223 73.9665 58.3541 74.0231 58.4106C74.0797 58.4672 74.1114 58.5439 74.1114 58.624C74.1114 58.704 74.0797 58.7807 74.0231 58.8373C73.9665 58.8939 73.8898 58.9257 73.8097 58.9257Z" fill="#739AF0"/>
<path d="M73.6798 49.0502H39.166C39.0516 49.05 38.942 49.0045 38.8611 48.9235C38.7803 48.8426 38.7349 48.7329 38.7349 48.6185C38.7349 48.5041 38.7803 48.3944 38.8611 48.3134C38.942 48.2325 39.0516 48.1869 39.166 48.1868H73.682C73.7965 48.1868 73.9063 48.2323 73.9873 48.3132C74.0682 48.3942 74.1137 48.504 74.1137 48.6185C74.1137 48.6754 74.1025 48.7317 74.0806 48.7842C74.0588 48.8367 74.0268 48.8844 73.9865 48.9245C73.9462 48.9646 73.8983 48.9964 73.8457 49.0179C73.793 49.0395 73.7367 49.0505 73.6798 49.0502Z" fill="#AEC3FF"/>
<path d="M40.6585 50.6114H39.2674C39.1874 50.6114 39.1106 50.5796 39.0541 50.523C38.9975 50.4664 38.9657 50.3897 38.9657 50.3097C38.9657 50.2701 38.9735 50.2309 38.9887 50.1943C39.0038 50.1577 39.0261 50.1245 39.0541 50.0966C39.0821 50.0686 39.1154 50.0464 39.152 50.0313C39.1886 50.0162 39.2278 50.0085 39.2674 50.0085H40.6585C40.6981 50.0085 40.7373 50.0162 40.7739 50.0313C40.8105 50.0464 40.8438 50.0686 40.8718 50.0966C40.8998 50.1245 40.9221 50.1577 40.9372 50.1943C40.9524 50.2309 40.9602 50.2701 40.9602 50.3097C40.9602 50.3897 40.9284 50.4664 40.8718 50.523C40.8153 50.5796 40.7385 50.6114 40.6585 50.6114Z" fill="#739AF0"/>
<path d="M73.8097 50.6114H72.4186C72.3386 50.6114 72.2619 50.5796 72.2053 50.523C72.1487 50.4664 72.1169 50.3897 72.1169 50.3097C72.1169 50.2701 72.1247 50.2309 72.1399 50.1943C72.1551 50.1577 72.1773 50.1245 72.2053 50.0966C72.2334 50.0686 72.2666 50.0464 72.3032 50.0313C72.3398 50.0162 72.379 50.0085 72.4186 50.0085H73.8097C73.8493 50.0085 73.8886 50.0162 73.9252 50.0313C73.9618 50.0464 73.995 50.0686 74.023 50.0966C74.051 50.1245 74.0733 50.1577 74.0885 50.1943C74.1036 50.2309 74.1114 50.2701 74.1114 50.3097C74.1114 50.3897 74.0797 50.4664 74.0231 50.523C73.9665 50.5796 73.8898 50.6114 73.8097 50.6114Z" fill="#739AF0"/>
<path d="M73.6798 40.7359H39.166C39.1094 40.7359 39.0532 40.7247 39.0009 40.703C38.9486 40.6813 38.901 40.6495 38.861 40.6094C38.8209 40.5693 38.7892 40.5217 38.7675 40.4694C38.7459 40.417 38.7348 40.3609 38.7349 40.3042C38.7349 40.1899 38.7803 40.0802 38.8612 39.9993C38.942 39.9185 39.0517 39.873 39.166 39.873H73.682C73.7387 39.873 73.7948 39.8841 73.8471 39.9057C73.8995 39.9273 73.9471 39.9591 73.9872 39.9991C74.0273 40.0392 74.0591 40.0867 74.0808 40.1391C74.1025 40.1914 74.1137 40.2475 74.1137 40.3042C74.1137 40.3611 74.1025 40.4174 74.0806 40.4699C74.0588 40.5224 74.0268 40.5701 73.9865 40.6102C73.9462 40.6504 73.8983 40.6821 73.8457 40.7037C73.793 40.7252 73.7367 40.7362 73.6798 40.7359Z" fill="#AEC3FF"/>
<path d="M50.3091 38.9246H39.166C39.0517 38.9246 38.942 38.8792 38.8612 38.7983C38.7803 38.7175 38.7349 38.6078 38.7349 38.4935C38.7348 38.4368 38.7459 38.3807 38.7675 38.3283C38.7892 38.2759 38.8209 38.2283 38.861 38.1882C38.901 38.1481 38.9486 38.1163 39.0009 38.0946C39.0532 38.0729 39.1094 38.0618 39.166 38.0618H50.3113C50.4256 38.0623 50.5349 38.1083 50.6154 38.1894C50.6958 38.2706 50.7407 38.3803 50.7403 38.4946C50.74 38.6087 50.6944 38.7181 50.6136 38.7987C50.5328 38.8794 50.4233 38.9246 50.3091 38.9246Z" fill="#739AF0"/>
<path d="M50.3091 30.7169H39.166C39.1094 30.7169 39.0532 30.7057 39.0009 30.684C38.9486 30.6623 38.901 30.6305 38.861 30.5904C38.8209 30.5503 38.7892 30.5027 38.7675 30.4503C38.7459 30.3979 38.7348 30.3418 38.7349 30.2852C38.7349 30.1708 38.7803 30.0611 38.8612 29.9803C38.942 29.8994 39.0517 29.854 39.166 29.854H50.3113C50.4257 29.854 50.5353 29.8994 50.6162 29.9803C50.697 30.0611 50.7425 30.1708 50.7425 30.2852C50.7425 30.342 50.7314 30.3983 50.7096 30.4508C50.6878 30.5033 50.6559 30.551 50.6156 30.5912C50.5753 30.6313 50.5275 30.6631 50.4749 30.6846C50.4223 30.7062 50.366 30.7172 50.3091 30.7169Z" fill="#739AF0"/>
<path d="M50.3091 47.1583H39.166C39.0517 47.1583 38.942 47.1128 38.8612 47.032C38.7803 46.9511 38.7349 46.8415 38.7349 46.7271C38.7348 46.6704 38.7459 46.6143 38.7675 46.562C38.7892 46.5096 38.8209 46.462 38.861 46.4219C38.901 46.3818 38.9486 46.35 39.0009 46.3283C39.0532 46.3066 39.1094 46.2954 39.166 46.2954H50.3113C50.368 46.2954 50.4241 46.3066 50.4765 46.3283C50.5288 46.35 50.5763 46.3818 50.6164 46.4219C50.6564 46.462 50.6882 46.5096 50.7098 46.562C50.7314 46.6143 50.7425 46.6704 50.7425 46.7271C50.7425 46.7839 50.7313 46.8402 50.7095 46.8926C50.6876 46.9451 50.6557 46.9927 50.6154 47.0328C50.5751 47.0728 50.5274 47.1045 50.4748 47.1261C50.4222 47.1476 50.3659 47.1586 50.3091 47.1583Z" fill="#739AF0"/>
<path d="M40.6585 42.2975H39.2674C39.1874 42.2975 39.1106 42.2657 39.0541 42.2091C38.9975 42.1525 38.9657 42.0758 38.9657 41.9958C38.9657 41.9158 38.9975 41.839 39.0541 41.7825C39.1106 41.7259 39.1874 41.6941 39.2674 41.6941H40.6585C40.7385 41.6941 40.8153 41.7259 40.8718 41.7825C40.9284 41.839 40.9602 41.9158 40.9602 41.9958C40.9602 42.0758 40.9284 42.1525 40.8718 42.2091C40.8153 42.2657 40.7385 42.2975 40.6585 42.2975Z" fill="#739AF0"/>
<path d="M73.8097 42.2975H72.4186C72.3386 42.2975 72.2619 42.2657 72.2053 42.2091C72.1487 42.1525 72.1169 42.0758 72.1169 41.9958C72.1169 41.9158 72.1487 41.839 72.2053 41.7825C72.2619 41.7259 72.3386 41.6941 72.4186 41.6941H73.8097C73.8898 41.6941 73.9665 41.7259 74.0231 41.7825C74.0797 41.839 74.1114 41.9158 74.1114 41.9958C74.1114 42.0758 74.0797 42.1525 74.0231 42.2091C73.9665 42.2657 73.8898 42.2975 73.8097 42.2975Z" fill="#739AF0"/>
<path d="M73.6798 32.4222H39.166C39.1094 32.4222 39.0532 32.411 39.0009 32.3893C38.9486 32.3676 38.901 32.3358 38.861 32.2957C38.8209 32.2556 38.7892 32.208 38.7675 32.1556C38.7459 32.1033 38.7348 32.0471 38.7349 31.9905C38.7349 31.8761 38.7803 31.7665 38.8612 31.6856C38.942 31.6048 39.0517 31.5593 39.166 31.5593H73.682C73.7387 31.5593 73.7948 31.5704 73.8471 31.592C73.8995 31.6136 73.9471 31.6454 73.9872 31.6854C74.0273 31.7255 74.0591 31.773 74.0808 31.8254C74.1025 31.8777 74.1137 31.9338 74.1137 31.9905C74.1137 32.0474 74.1025 32.1037 74.0806 32.1562C74.0588 32.2087 74.0268 32.2564 73.9865 32.2965C73.9462 32.3366 73.8983 32.3684 73.8457 32.39C73.793 32.4115 73.7367 32.4225 73.6798 32.4222Z" fill="#AEC3FF"/>
<path d="M40.6585 33.9832H39.2674C39.2278 33.9833 39.1886 33.9756 39.152 33.9605C39.1154 33.9454 39.0821 33.9232 39.0541 33.8952C39.0261 33.8672 39.0038 33.834 38.9887 33.7974C38.9735 33.7609 38.9657 33.7217 38.9657 33.6821C38.9657 33.6021 38.9975 33.5253 39.0541 33.4687C39.1106 33.4122 39.1874 33.3804 39.2674 33.3804H40.6585C40.7385 33.3804 40.8153 33.4122 40.8718 33.4687C40.9284 33.5253 40.9602 33.6021 40.9602 33.6821C40.9602 33.7217 40.9524 33.7609 40.9372 33.7974C40.9221 33.834 40.8998 33.8672 40.8718 33.8952C40.8438 33.9232 40.8105 33.9454 40.7739 33.9605C40.7373 33.9756 40.6981 33.9833 40.6585 33.9832Z" fill="#739AF0"/>
<path d="M73.8097 33.9832H72.4186C72.379 33.9833 72.3398 33.9756 72.3032 33.9605C72.2666 33.9454 72.2334 33.9232 72.2053 33.8952C72.1773 33.8672 72.1551 33.834 72.1399 33.7974C72.1247 33.7609 72.1169 33.7217 72.1169 33.6821C72.1169 33.6021 72.1487 33.5253 72.2053 33.4687C72.2619 33.4122 72.3386 33.3804 72.4186 33.3804H73.8097C73.8898 33.3804 73.9665 33.4122 74.0231 33.4687C74.0797 33.5253 74.1114 33.6021 74.1114 33.6821C74.1114 33.7217 74.1036 33.7609 74.0885 33.7974C74.0733 33.834 74.051 33.8672 74.023 33.8952C73.995 33.9232 73.9618 33.9454 73.9252 33.9605C73.8886 33.9756 73.8493 33.9833 73.8097 33.9832Z" fill="#739AF0"/>
<path d="M30.5598 23.9082C30.5596 24.0173 30.5271 24.1239 30.4664 24.2146C30.4056 24.3052 30.3194 24.3759 30.2186 24.4176C30.1178 24.4593 30.0068 24.4702 29.8998 24.4489C29.7928 24.4277 29.6945 24.3752 29.6173 24.2981C29.54 24.221 29.4874 24.1228 29.4659 24.0158C29.4444 23.9088 29.4551 23.7979 29.4966 23.697C29.5381 23.5961 29.6086 23.5097 29.6991 23.4488C29.7896 23.3879 29.8962 23.3552 30.0053 23.3547C30.0781 23.3545 30.1502 23.3686 30.2176 23.3963C30.2849 23.424 30.3461 23.4647 30.3977 23.5161C30.4492 23.5676 30.4901 23.6287 30.5179 23.696C30.5457 23.7633 30.56 23.8354 30.5598 23.9082Z" fill="#233862"/>
<path d="M32.9318 23.9082C32.9316 24.0174 32.899 24.1241 32.8382 24.2148C32.7773 24.3055 32.691 24.3761 32.59 24.4178C32.4891 24.4594 32.3781 24.4702 32.271 24.4488C32.1639 24.4273 32.0656 24.3746 31.9884 24.2973C31.9113 24.22 31.8588 24.1216 31.8376 24.0145C31.8163 23.9074 31.8273 23.7964 31.8692 23.6955C31.911 23.5946 31.9818 23.5084 32.0726 23.4478C32.1634 23.3871 32.2702 23.3547 32.3794 23.3547C32.452 23.3547 32.524 23.3691 32.591 23.3969C32.6581 23.4247 32.7191 23.4655 32.7704 23.5169C32.8217 23.5683 32.8624 23.6293 32.8901 23.6965C32.9177 23.7636 32.9319 23.8356 32.9318 23.9082Z" fill="#233862"/>
<path d="M35.4479 23.9082C35.4477 24.0174 35.4151 24.1241 35.3543 24.2148C35.2935 24.3055 35.2071 24.3761 35.1062 24.4178C35.0052 24.4594 34.8942 24.4702 34.7871 24.4488C34.68 24.4273 34.5817 24.3746 34.5045 24.2973C34.4274 24.22 34.3749 24.1216 34.3537 24.0145C34.3324 23.9074 34.3435 23.7964 34.3853 23.6955C34.4271 23.5946 34.4979 23.5084 34.5887 23.4478C34.6796 23.3871 34.7863 23.3547 34.8955 23.3547C34.9682 23.3547 35.0401 23.3691 35.1072 23.3969C35.1743 23.4247 35.2352 23.4655 35.2865 23.5169C35.3378 23.5683 35.3785 23.6293 35.4062 23.6965C35.4339 23.7636 35.4481 23.8356 35.4479 23.9082Z" fill="#233862"/>
<path d="M67.9612 13.3665L71.9222 11.9419V13.3665L67.9612 14.649V13.3665Z" fill="#233862"/>
<path d="M68.3243 13.2957V19.1102C68.3243 19.1102 66.0594 19.7937 65.8454 18.5973C65.6315 17.401 67.9397 18.0844 67.9397 18.0844L67.9606 13.4575L68.3243 13.2957Z" fill="#233862"/>
<path d="M71.9227 12.1272V17.9418C71.9227 17.9418 69.6573 18.6252 69.4433 17.4289C69.2294 16.2325 71.5377 16.916 71.5377 16.916L71.5585 12.289L71.9227 12.1272Z" fill="#233862"/>
<path d="M80.5563 33.4217L84.8882 32.2368L84.7697 33.7519L80.4493 34.7853L80.5563 33.4217Z" fill="#739AF0"/>
<path d="M80.949 33.3767L80.4641 39.5588C80.4641 39.5588 77.9956 40.0975 77.8706 38.8067C77.7455 37.516 80.1405 38.4359 80.1405 38.4359L80.548 33.5166L80.949 33.3767Z" fill="#739AF0"/>
<path d="M84.8728 32.4343L84.3884 38.6164C84.3884 38.6164 81.9199 39.1551 81.7943 37.8644C81.6687 36.5736 84.0647 37.4935 84.0647 37.4935L84.4723 32.5742L84.8728 32.4343Z" fill="#739AF0"/>
<path d="M76.7905 17.8354L85.0395 15.6221L84.7997 18.503L76.5743 20.4284L76.7905 17.8354Z" fill="#F77D48"/>
<path d="M77.5371 17.7529L76.5579 29.506C76.5579 29.506 71.8624 30.5071 71.632 28.0513C71.4016 25.5954 75.9529 27.3667 75.9529 27.3667L76.7757 18.0157L77.5371 17.7529Z" fill="#F77D48"/>
<path d="M85.0088 15.9966L84.0296 27.7497C84.0296 27.7497 79.3341 28.7508 79.1037 26.2955C78.8733 23.8402 83.4245 25.6109 83.4245 25.6109L84.2474 16.2593L85.0088 15.9966Z" fill="#F77D48"/>
<path d="M30.8638 31.9904C30.8638 31.4275 31.0307 30.8772 31.3435 30.4091C31.6562 29.941 32.1008 29.5761 32.6209 29.3607C33.141 29.1453 33.7133 29.0889 34.2655 29.1987C34.8176 29.3086 35.3248 29.5797 35.7229 29.9777C36.1209 30.3758 36.392 30.883 36.5019 31.4351C36.6117 31.9873 36.5553 32.5596 36.3399 33.0797C36.1245 33.5998 35.7596 34.0444 35.2915 34.3571C34.8235 34.6699 34.2731 34.8368 33.7102 34.8368C32.9553 34.8367 32.2314 34.5367 31.6976 34.003C31.1638 33.4692 30.8639 32.7453 30.8638 31.9904Z" fill="#739AF0"/>
<path d="M32.9318 30.4178V33.4984C32.9317 33.5302 32.9405 33.5615 32.9573 33.5885C32.9742 33.6156 32.9983 33.6374 33.0269 33.6513C33.0555 33.6653 33.0875 33.6709 33.1192 33.6675C33.1509 33.6642 33.181 33.6519 33.206 33.6322L35.0162 32.2291C35.052 32.2015 35.0809 32.1662 35.1008 32.1257C35.1207 32.0853 35.1311 32.0408 35.1311 31.9957C35.1311 31.9506 35.1207 31.9061 35.1008 31.8656C35.0809 31.8251 35.052 31.7898 35.0162 31.7623L33.1468 30.313C33.1272 30.2975 33.1036 30.2879 33.0788 30.2852C33.0539 30.2825 33.0288 30.2869 33.0064 30.2978C32.9839 30.3088 32.965 30.3258 32.9518 30.3471C32.9386 30.3683 32.9317 30.3928 32.9318 30.4178Z" fill="white"/>
<path d="M30.8638 40.5488C30.8638 39.9858 31.0307 39.4355 31.3435 38.9674C31.6562 38.4993 32.1008 38.1345 32.6209 37.9191C33.141 37.7036 33.7133 37.6473 34.2655 37.7571C34.8176 37.8669 35.3248 38.138 35.7229 38.5361C36.1209 38.9342 36.392 39.4413 36.5019 39.9935C36.6117 40.5456 36.5553 41.1179 36.3399 41.638C36.1245 42.1582 35.7596 42.6027 35.2915 42.9155C34.8235 43.2282 34.2731 43.3952 33.7102 43.3952C32.9553 43.3952 32.2313 43.0953 31.6975 42.5615C31.1637 42.0277 30.8638 41.3037 30.8638 40.5488Z" fill="#739AF0"/>
<path d="M32.9318 38.9766V42.0567C32.9317 42.0885 32.9405 42.1198 32.9573 42.1468C32.9742 42.1739 32.9983 42.1956 33.0269 42.2096C33.0555 42.2236 33.0875 42.2292 33.1192 42.2258C33.1509 42.2225 33.181 42.2102 33.206 42.1905L35.0162 40.7879C35.052 40.7604 35.0809 40.725 35.1008 40.6846C35.1207 40.6441 35.1311 40.5996 35.1311 40.5545C35.1311 40.5094 35.1207 40.4649 35.1008 40.4244C35.0809 40.384 35.052 40.3486 35.0162 40.3211L33.1468 38.8718C33.1272 38.8564 33.1036 38.8467 33.0788 38.844C33.0539 38.8413 33.0288 38.8457 33.0064 38.8567C32.9839 38.8676 32.965 38.8847 32.9518 38.9059C32.9386 38.9271 32.9317 38.9516 32.9318 38.9766Z" fill="white"/>
<path d="M33.7102 51.6723C35.2822 51.6723 36.5565 50.3979 36.5565 48.8259C36.5565 47.2539 35.2822 45.9795 33.7102 45.9795C32.1381 45.9795 30.8638 47.2539 30.8638 48.8259C30.8638 50.3979 32.1381 51.6723 33.7102 51.6723Z" fill="#739AF0"/>
<path d="M32.9318 47.2537V50.3338C32.9317 50.3656 32.9405 50.3969 32.9573 50.4239C32.9742 50.451 32.9983 50.4727 33.0269 50.4867C33.0555 50.5007 33.0875 50.5063 33.1192 50.5029C33.1509 50.4995 33.181 50.4873 33.206 50.4676L35.0162 49.065C35.052 49.0374 35.0809 49.002 35.1008 48.9615C35.1207 48.921 35.1311 48.8765 35.1311 48.8313C35.1311 48.7862 35.1207 48.7416 35.1008 48.7011C35.0809 48.6606 35.052 48.6252 35.0162 48.5976L33.1468 47.1489C33.1272 47.1335 33.1036 47.1238 33.0788 47.1211C33.0539 47.1184 33.0288 47.1228 33.0064 47.1338C32.9839 47.1447 32.965 47.1618 32.9518 47.183C32.9386 47.2042 32.9317 47.2287 32.9318 47.2537Z" fill="white"/>
<path d="M90.8497 45.7187L91.0691 45.6403C91.53 45.4734 91.9062 45.1312 92.1157 44.6881C92.3252 44.245 92.351 43.737 92.1875 43.275L91.7871 42.1543C91.6208 41.6925 91.2782 41.3154 90.8345 41.1056C90.3908 40.8958 89.8821 40.8703 89.4196 41.0347L89.2002 41.1131C88.7392 41.2798 88.3629 41.6221 88.1534 42.0652C87.9438 42.5084 87.9181 43.0164 88.0817 43.4785L88.4821 44.5991C88.6485 45.0609 88.991 45.438 89.4347 45.6478C89.8784 45.8576 90.3872 45.8831 90.8497 45.7187Z" fill="#ED7D2B"/>
<path d="M107.615 51.8355C107.138 54.7368 103.816 55.9233 100.51 56.4982C96.0543 57.276 91.8173 52.5799 91.6232 52.2941C91.429 52.0083 90.6012 51.8586 92.9358 49.513C96.2786 46.1559 90.3511 44.2009 89.7982 40.7243C89.7982 40.7243 88.2255 38.7089 90.0236 37.6041C91.0724 36.9591 92.8212 37.094 92.9858 37.0419C93.489 36.8857 94.0021 36.7635 94.5217 36.676C96.5908 36.3315 98.2271 36.6947 99.1952 37.444C100.771 38.6672 100.307 42.9223 102.466 42.8383C104.626 42.7544 106.651 43.558 106.438 45.9771C106.225 48.3962 108.137 48.6551 107.615 51.8355Z" fill="#163560"/>
<path d="M106.451 45.79L106.148 45.5075C106.324 44.6019 106.158 43.8197 105.502 43.1993C104.934 42.6617 104.303 42.445 103.575 42.6293C101.823 43.0731 101.46 42.7028 101.445 42.6792L101.336 42.8098V42.6035L101.427 42.4099C101.431 42.4148 101.895 42.9261 103.542 42.5086C104.31 42.3134 105.097 42.5273 105.697 43.0945C106.387 43.7456 106.637 44.8449 106.451 45.79Z" fill="#163560"/>
<path d="M90.6226 50.4334C90.6226 50.4334 83.0022 53.8816 81.4378 53.8135C79.8733 53.7455 71.146 50.0083 71.146 50.0083L71.4406 51.7088C71.4406 51.7088 77.4828 56.6117 80.0834 56.8541C82.644 57.0933 91.3988 54.5563 92.2441 54.0209C93.0894 53.4855 93.0789 50.9754 90.6226 50.4334Z" fill="#ED985F"/>
<path d="M90.1344 54.023C90.8914 54.548 91.8404 54.9813 93.0313 55.2561C97.4969 56.2879 99.2084 52.5134 99.8513 49.9227C99.2424 49.5743 98.6692 49.4975 98.3384 49.458C98.0076 49.4185 97.6758 49.3944 97.3949 49.3807C96.8935 48.9967 96.1464 47.4246 95.9808 44.9841L95.7712 45.039L92.2518 46.0028C92.2518 46.0028 92.4125 47.1213 92.492 48.1788C92.5529 49.006 92.3384 49.5458 92.1816 49.7394C91.9073 49.7992 91.9665 50.0889 91.9665 50.0889V50.0922C91.2316 51.3409 90.6181 52.6572 90.1344 54.023Z" fill="#FFB27D"/>
<path d="M92.2512 46.0045C92.2512 46.0045 92.413 47.1219 92.4915 48.1806C94.4854 47.9809 95.4108 46.0824 95.7712 45.0413L92.2512 46.0045Z" fill="#ED985F"/>
<path d="M91.656 47.0544C91.656 47.0544 96.3889 46.7933 96.181 43.8488C95.9731 40.9042 96.4437 38.8866 93.413 38.9289C90.3823 38.9711 89.8755 40.1357 89.7054 41.1362C89.5354 42.1368 90.4196 47.0468 91.656 47.0544Z" fill="#FFB27D"/>
<path d="M101.199 63.6456C101.627 61.4608 103.02 52.7296 101.627 49.9227C101.126 48.9134 99.1622 48.8223 97.0076 48.9112C96.3373 49.344 94.8732 50.892 92.6823 50.6018C92.1771 50.5349 92.1815 49.909 92.2731 49.5963C92.2731 49.5963 91.1705 49.6073 89.8359 50.0566C89.1141 50.2996 87.0647 51.7159 87.0647 51.7159C87.0647 51.7159 88.2621 53.1602 89.7613 53.7943C89.5068 56.0752 89.8858 57.0812 92.2517 62.3483C94.2506 66.8008 91.9818 70.809 91.9818 70.809C91.9818 70.809 103.75 80.2709 103.816 75.4536C103.865 71.8266 100.653 66.4382 101.199 63.6456Z" fill="#739AF0"/>
<path d="M91.3982 81.0976C91.082 81.0619 90.7773 80.9577 90.5055 80.7922C90.2337 80.6267 90.0012 80.4038 89.8244 80.1392C89.7696 80.0542 89.707 79.9632 89.6423 79.865C88.3028 77.8354 87.7816 71.627 84.7685 65.011C84.0345 63.3999 81.4004 63.1103 80.6819 61.2897C80.6819 61.2897 78.9139 55.3879 84.0664 55.214C89.2188 55.0401 97.8644 71.6346 97.9994 73.3752C98.1343 75.0619 101.407 82.227 91.3982 81.0976Z" fill="#DD6D22"/>
<path d="M70.9205 80.962H78.254C78.254 80.962 78.5283 79.7919 78.0466 78.9966C77.6204 78.2922 77.7839 77.8907 78.1015 77.3081C77.7696 77.4442 77.3396 77.5681 76.8667 77.5407C76.5014 77.5199 76.1147 77.3542 75.7757 77.1567C75.4603 77.5166 74.1086 79.0481 73.6868 79.3509C73.2052 79.6965 71.0686 79.5736 70.9205 80.962Z" fill="#1A2E4F"/>
<path d="M101.556 52.8472C101.556 52.8472 100.201 56.8252 94.011 58.6447C87.8212 60.4642 87.2442 54.7243 92.2419 54.0189C97.2397 53.3134 101.556 52.8472 101.556 52.8472Z" fill="#4868C1"/>
<path d="M80.5146 56.9205C80.073 60.231 78.3484 70.6791 75.3067 75.7772C74.3259 77.4229 77.7752 78.3417 77.796 78.3367C78.259 78.2155 79.0302 77.4777 79.3868 77.1574C81.8552 74.9319 86.8695 68.6297 86.8695 63.5771C86.8695 61.1136 86.9128 56.4087 85.1212 55.2129C84.017 54.4768 80.6907 55.6057 80.5146 56.9205Z" fill="#ED7D2B"/>
<path d="M95.7712 80.9622C95.7712 80.9622 95.4997 80.5837 95.0257 79.8651C94.4618 79.011 93.8376 77.3297 93.0806 75.175C92.2852 72.9128 91.3417 70.1284 90.1623 67.2343C89.7987 66.3408 89.4119 65.4362 89.0011 64.5328C88.2671 62.9222 86.248 63.1449 85.5299 61.3238C85.5299 61.3238 82.7268 55.0117 87.8793 54.8373C93.0318 54.6628 102.822 71.7231 103.384 73.378C104 75.1844 107.005 82.695 95.7712 80.9622Z" fill="#F99746"/>
<path d="M76.3024 80.962H83.6353C83.6353 80.962 83.9096 79.7919 83.4279 78.9966C83.0017 78.2922 83.1652 77.8907 83.4828 77.3081C83.1504 77.4442 82.7209 77.5681 82.2475 77.5407C81.8821 77.5199 81.496 77.3542 81.157 77.1567C80.8416 77.5166 79.49 79.0481 79.0676 79.3509C78.5882 79.6965 76.4516 79.5736 76.3024 80.962Z" fill="#2B478B"/>
<path d="M93.0806 75.1755C92.2852 72.9133 91.3417 70.1289 90.1624 67.2348C90.4701 65.0406 91.1344 63.1207 92.2517 62.3484C92.2517 62.3484 94.9616 70.7438 93.0806 75.1755Z" fill="#ED7D2B"/>
<path d="M84.7949 56.6858C84.3561 59.9963 83.7318 70.6791 80.6896 75.7751C79.7094 77.4207 83.1608 78.3396 83.1795 78.3346C83.6424 78.2134 84.4131 77.4756 84.7702 77.1552C87.2387 74.9298 92.2529 68.6276 92.2529 63.575C92.2529 61.1115 89.3621 56.6041 87.5705 55.4083C86.4658 54.6765 84.9694 55.371 84.7949 56.6858Z" fill="#F99746"/>
<path d="M90.7701 45.3612C90.7701 45.3612 91.2172 45.184 92.4761 45.2861C92.4761 45.2861 92.4097 45.7797 91.4811 45.8258C90.955 45.8533 90.7701 45.3612 90.7701 45.3612Z" fill="white"/>
<path d="M76.4576 53.457L72.7105 53.9863C72.5619 54.0071 72.4112 53.9682 72.2914 53.878C72.1716 53.7878 72.0925 53.6537 72.0714 53.5052L71.0731 46.4384C71.0627 46.3648 71.0669 46.2899 71.0855 46.218C71.104 46.1461 71.1366 46.0785 71.1812 46.0192C71.2259 45.9598 71.2818 45.9099 71.3458 45.8722C71.4098 45.8344 71.4806 45.8097 71.5541 45.7993L75.3012 45.27C75.4497 45.249 75.6004 45.2878 75.7202 45.3779C75.8401 45.468 75.9192 45.602 75.9403 45.7505L76.9386 52.8179C76.9594 52.9664 76.9205 53.1171 76.8303 53.237C76.7401 53.3568 76.606 53.4359 76.4576 53.457Z" fill="#254F82"/>
<path d="M75.7066 53.5628L71.9595 54.0922C71.8111 54.1132 71.6604 54.0743 71.5405 53.9842C71.4207 53.8941 71.3416 53.7601 71.3205 53.6117L70.3232 46.5442C70.3024 46.3957 70.3414 46.245 70.4316 46.1252C70.5218 46.0054 70.6558 45.9263 70.8043 45.9052L74.5514 45.3758C74.6999 45.355 74.8506 45.394 74.9704 45.4842C75.0903 45.5744 75.1694 45.7084 75.1905 45.8569L76.1888 52.9238C76.1992 52.9974 76.1949 53.0724 76.1763 53.1444C76.1577 53.2164 76.125 53.284 76.0803 53.3433C76.0355 53.4027 75.9794 53.4526 75.9153 53.4903C75.8512 53.528 75.7803 53.5526 75.7066 53.5628Z" fill="#163560"/>
<path d="M70.7653 46.9633C70.7518 46.8674 70.7669 46.7696 70.8089 46.6823C70.8509 46.595 70.9179 46.5221 71.0013 46.4728C71.0847 46.4235 71.1809 46.4001 71.2777 46.4055C71.3744 46.411 71.4674 46.4449 71.5448 46.5032C71.6222 46.5614 71.6807 46.6413 71.7127 46.7328C71.7447 46.8242 71.7489 46.9231 71.7247 47.0169C71.7005 47.1108 71.649 47.1953 71.5768 47.2599C71.5045 47.3244 71.4148 47.3661 71.3188 47.3797C71.1902 47.3978 71.0597 47.3642 70.9559 47.2861C70.8521 47.208 70.7836 47.0919 70.7653 46.9633Z" fill="#254F82"/>
<path d="M69.9458 48.9646C70.1279 48.4583 70.699 47.7737 70.9458 47.7249C71.6968 47.5768 71.6968 48.5658 71.5377 49.2059C71.428 49.6503 71.067 49.9684 70.8383 50.1988L71.0029 51.3507C69.7319 50.6491 69.7078 49.63 69.9458 48.9646Z" fill="#FFB27D"/>
<path d="M82.2749 75.0482C81.1514 75.0482 80.1866 74.4185 79.0648 73.6872C77.9035 72.9303 76.5876 72.0718 74.7149 71.5863C72.536 71.0224 70.0522 71.0893 67.117 71.7915C63.3682 72.6894 59.6979 72.9922 56.5027 72.6692C53.263 72.34 50.5872 71.3718 48.7638 69.8683C47.8077 69.08 47.0842 68.1453 46.6124 67.0905C46.1188 65.9885 45.8993 64.7487 45.958 63.4054L46.0677 63.4097C45.9536 66.0307 46.8845 68.1744 48.8335 69.7816C50.6393 71.2715 53.2948 72.2309 56.5131 72.5572C59.6947 72.8803 63.3529 72.5781 67.0895 71.6834C73.7494 70.0888 76.8569 72.1151 79.1251 73.5945C80.8536 74.7218 82.1026 75.5358 84.1092 74.3855C85.7225 73.4613 86.3094 71.5913 85.8547 68.8277C85.4707 66.5019 84.4224 64.0954 83.8316 62.8683C83.2776 61.732 82.9308 60.506 82.8075 59.2479C82.6907 58.0104 82.8366 57.0829 83.254 56.4109C83.723 55.6555 84.5321 55.2123 85.7269 55.0554C89.2375 54.5958 91.0708 53.1076 91.0708 51.8739C91.0708 51.3753 90.8618 50.7318 90.6193 49.9875C90.1849 48.6528 89.6923 47.1405 90.1805 45.8059L90.2858 45.8443C89.8091 47.1433 90.2951 48.6358 90.7246 49.9529C90.9704 50.706 91.1821 51.3572 91.1821 51.8728C91.1821 53.3665 88.8936 54.751 85.7406 55.1641C83.5502 55.4509 82.6797 56.7066 82.9183 59.2348C83.0406 60.4791 83.3837 61.6917 83.9315 62.8157C84.5255 64.0483 85.5771 66.4657 85.9644 68.8058C86.4279 71.6203 85.8223 73.5293 84.164 74.4793C83.4663 74.8831 82.8497 75.0482 82.2749 75.0482Z" fill="#163560"/>
<path d="M91.1492 51.9277L91.1069 51.8234C92.3686 51.3144 93.3922 50.5618 94.1557 49.5876C94.7663 48.8081 95.2122 47.8871 95.4805 46.8449C95.7569 45.7642 95.8364 44.6427 95.7152 43.5338L95.8249 43.5168C95.948 44.6407 95.8677 45.7775 95.588 46.8728C95.3137 47.9293 94.8628 48.8668 94.2424 49.6589C93.4684 50.6474 92.4295 51.4109 91.1492 51.9277Z" fill="#163560"/>
<path d="M74.4692 50.0757C74.733 50.0247 75.3002 49.8108 75.874 49.6533C75.7028 49.52 75.5119 49.3566 75.4587 49.1887C75.3567 48.8651 75.2881 48.7614 75.6299 48.8634C75.9716 48.9655 77.1658 49.514 77.1658 49.514C77.8444 49.712 78.4697 50.6714 78.4697 50.6714C78.4697 50.6714 86.8717 53.6248 87.8827 53.6752C89.4466 53.7542 99.8546 49.921 99.8546 49.921C102.311 50.463 101.76 53.4811 100.914 54.017C100.069 54.5529 92.5799 57.277 88.1416 57.328C85.8926 57.3543 77.7154 52.0982 77.7154 52.0982C77.7154 52.0982 76.7593 51.6593 76.0084 51.7976C75.2574 51.9358 73.5163 51.7976 73.1411 51.1832C72.7659 50.5688 74.0254 50.1607 74.4692 50.0757Z" fill="#FFB27D"/>
<path d="M94.4888 51.813C94.4888 51.813 95.4213 54.7598 98.6166 55.4334C98.6166 55.4334 103.896 53.8069 101.268 50.2102C101.268 50.2074 98.6687 48.276 94.4888 51.813Z" fill="#739AF0"/>
<path d="M89.7965 40.727C89.7965 40.727 90.6122 41.0825 91.9325 40.5488C93.2529 40.015 93.5041 41.0128 93.5189 41.4654C93.554 42.54 94.4876 42.5219 94.4876 42.5219L96.8568 41.0052V38.1966L92.9347 37.2136L89.6835 38.3107C89.6835 38.3107 89.514 39.8044 89.7965 40.727Z" fill="#163560"/>
<path d="M95.8195 40.7434L95.1064 40.8109C95.1064 40.8191 94.5836 40.9519 94.5825 40.9656C94.6094 40.6584 94.0269 38.4576 92.9857 37.0424C93.4889 36.8862 94.0021 36.764 94.5216 36.6765C95.4119 38.0786 95.8985 40.485 95.8195 40.7434Z" fill="#ED7D2B"/>
<path d="M96.3791 45.1319L96.6029 45.0688C97.0741 44.934 97.4729 44.6184 97.7123 44.1907C97.9518 43.763 98.0124 43.258 97.881 42.7858L97.5584 41.6399C97.4242 41.1681 97.1087 40.7685 96.6808 40.5286C96.2529 40.2887 95.7474 40.228 95.2749 40.3596L95.051 40.4232C94.5797 40.5579 94.1808 40.8736 93.9414 41.3013C93.7019 41.729 93.6414 42.2341 93.773 42.7063L94.0955 43.8516C94.2297 44.3235 94.5452 44.723 94.9731 44.9629C95.401 45.2028 95.9065 45.2636 96.3791 45.1319Z" fill="#ED7D2B"/>
<path d="M96.3269 43.8701L96.4366 43.8389C96.6714 43.7715 96.87 43.6142 96.9893 43.4011C97.1085 43.188 97.1388 42.9365 97.0735 42.7012L96.9128 42.1302C96.8456 41.8955 96.6883 41.6969 96.4753 41.5777C96.2623 41.4585 96.0108 41.4284 95.7757 41.4938L95.666 41.5257C95.4311 41.5927 95.2323 41.75 95.113 41.9632C94.9936 42.1763 94.9635 42.428 95.0291 42.6633L95.1898 43.2338C95.257 43.4685 95.4143 43.6671 95.6273 43.7863C95.8403 43.9054 96.0918 43.9356 96.3269 43.8701Z" fill="#F99746"/>
<path d="M90.0538 45.6885L90.0044 46.1734L90.2364 46.2151L90.3697 45.7307L90.0538 45.6885Z" fill="#ED7D2B"/>
<path d="M95.6133 44.9836V45.7379H95.8442L95.9726 44.9836H95.6133Z" fill="#ED7D2B"/>
<path d="M128.228 80.9036H5.97909C5.89518 80.9036 5.82715 80.9716 5.82715 81.0555V81.14C5.82715 81.2239 5.89518 81.2919 5.97909 81.2919H128.228C128.312 81.2919 128.38 81.2239 128.38 81.14V81.0555C128.38 80.9716 128.312 80.9036 128.228 80.9036Z" fill="#7CE0DB"/>
</g>
<defs>
<clipPath id="clip0_229_32478">
<rect width="128.38" height="81.2919" fill="white"/>
</clipPath>
</defs>
</svg>
