<svg width="8" height="8" viewBox="0 0 8 8" fill="none" xmlns="http://www.w3.org/2000/svg">
<path d="M0.30885 3.8911C0.226938 3.8911 0.148381 3.85856 0.090461 3.80064C0.0325406 3.74272 0 3.66416 0 3.58225C0 3.50034 0.0325406 3.42178 0.090461 3.36386C0.148381 3.30594 0.226938 3.2734 0.30885 3.2734H3.2734V0.308849C3.2734 0.226937 3.30594 0.14838 3.36386 0.0904598C3.42178 0.0325394 3.50034 0 3.58225 0C3.66416 0 3.74272 0.0325394 3.80064 0.0904598C3.85856 0.14838 3.8911 0.226937 3.8911 0.308849V3.2734H6.85564C6.93755 3.2734 7.01611 3.30594 7.07403 3.36386C7.13195 3.42178 7.16449 3.50034 7.16449 3.58225C7.16449 3.66416 7.13195 3.74272 7.07403 3.80064C7.01611 3.85856 6.93755 3.8911 6.85564 3.8911H3.8911V6.85564C3.8911 6.93756 3.85856 7.01611 3.80064 7.07403C3.74272 7.13195 3.66416 7.16449 3.58225 7.16449C3.50034 7.16449 3.42178 7.13195 3.36386 7.07403C3.30594 7.01611 3.2734 6.93756 3.2734 6.85564V3.8911H0.30885Z" fill="#F0EEEE"/>
</svg>
