<svg width="21" height="20" viewBox="0 0 21 20" fill="none" xmlns="http://www.w3.org/2000/svg">
<path d="M14.8347 15.5538C13.3827 14.7325 12.1869 13.4815 11.3241 12.0282C10.3656 10.4138 9.81384 8.53882 9.77622 6.72117C9.77129 6.45809 9.95895 6.23507 10.2125 6.18277C11.0746 6.00234 11.9201 5.75345 12.7383 5.43841C13.461 5.16021 14.162 4.83153 14.8343 4.45452V1.91935C14.8343 1.6939 14.7346 1.48748 14.574 1.33758C14.4061 1.18073 14.1714 1.08296 13.9119 1.08296H2.02782C1.768 1.08296 1.53359 1.18073 1.3657 1.33758C1.20487 1.48748 1.1051 1.69405 1.1051 1.91935V18.0796C1.1051 18.3051 1.20487 18.5115 1.3657 18.6614C1.53363 18.8183 1.768 18.916 2.02782 18.916H13.9119C14.1714 18.916 14.4062 18.8183 14.574 18.6614C14.7346 18.5115 14.8343 18.3049 14.8343 18.0796V15.5535L14.8347 15.5538ZM13.3179 10.5256C13.1176 10.3002 13.142 9.95807 13.372 9.76194C13.6021 9.56565 13.9512 9.58952 14.1514 9.81498L15.1921 10.9871L17.1352 7.51269C17.2817 7.25127 17.6174 7.15547 17.8843 7.29902C18.1511 7.44258 18.2488 7.77155 18.1023 8.03313L15.7935 12.1619C15.7619 12.2264 15.7167 12.2859 15.6579 12.3361C15.4279 12.5324 15.0788 12.5085 14.8786 12.2831L13.3179 10.5256ZM3.51537 4.14856C3.21021 4.14856 2.96256 3.90603 2.96256 3.60683C2.96256 3.30778 3.21005 3.0651 3.51537 3.0651H12.4246C12.7298 3.0651 12.9774 3.30763 12.9774 3.60683C12.9774 3.90588 12.7299 4.14856 12.4246 4.14856H3.51537ZM3.51537 16.9341C3.21021 16.9341 2.96256 16.6915 2.96256 16.3923C2.96256 16.0933 3.21005 15.8506 3.51537 15.8506H12.4246C12.7298 15.8506 12.9774 16.0931 12.9774 16.3923C12.9774 16.6914 12.7299 16.9341 12.4246 16.9341H3.51537ZM3.51537 13.7375C3.21021 13.7375 2.96256 13.4949 2.96256 13.1957C2.96256 12.8967 3.21005 12.654 3.51537 12.654H9.83619C10.1414 12.654 10.389 12.8965 10.389 13.1957C10.389 13.4948 10.1415 13.7375 9.83619 13.7375H3.51537ZM3.51537 10.5415C3.21021 10.5415 2.96256 10.299 2.96256 9.99977C2.96256 9.70072 3.21005 9.45804 3.51537 9.45804H8.32862C8.63378 9.45804 8.88143 9.70057 8.88143 9.99977C8.88143 10.2988 8.63394 10.5415 8.32862 10.5415H3.51537ZM3.51537 7.34522C3.21021 7.34522 2.96256 7.10269 2.96256 6.80349C2.96256 6.50445 3.21005 6.26176 3.51537 6.26176H7.92597C8.23113 6.26176 8.47878 6.50429 8.47878 6.80349C8.47878 7.10254 8.23129 7.34522 7.92597 7.34522H3.51537ZM15.9403 4.45463C16.6129 4.8312 17.3142 5.16031 18.0366 5.43852C18.8551 5.75344 19.7006 6.00277 20.5627 6.18184C20.8389 6.23896 21.0226 6.49011 20.9978 6.75908C20.953 8.56501 20.4027 10.4253 19.4508 12.0286C18.5882 13.482 17.3921 14.7329 15.9402 15.5537V18.0801C15.9402 18.6124 15.7079 19.0959 15.3342 19.445C14.9678 19.7871 14.4639 20 13.9123 20H2.02821C1.47619 20 0.972558 19.7871 0.606304 19.445C0.232211 19.0959 0 18.6129 0 18.0801V1.91985C0 1.38717 0.232073 0.904087 0.606304 0.55504C0.972684 0.212925 1.4763 0 2.02821 0H13.9123C14.4641 0 14.968 0.212914 15.3342 0.55504C15.7078 0.904102 15.9402 1.38764 15.9402 1.91985V4.45502L15.9403 4.45463ZM12.2783 11.487C13.0493 12.7863 14.1094 13.8991 15.3875 14.6212C16.6655 13.8992 17.7256 12.7864 18.4966 11.4873C19.2872 10.1556 19.7719 8.63391 19.8778 7.13846C19.1139 6.95803 18.3642 6.72655 17.635 6.44578C16.8637 6.149 16.1122 5.79554 15.3875 5.38908C14.6632 5.79573 13.9118 6.14903 13.1401 6.44578C12.4111 6.72639 11.6615 6.95804 10.8973 7.13846C11.0031 8.63368 11.4876 10.1554 12.2783 11.4869V11.487Z" fill="#039EA2"/>
</svg>
