<svg width="256" height="20" viewBox="0 0 256 20" fill="none" xmlns="http://www.w3.org/2000/svg">
<g clip-path="url(#clip0_425_4599)">
<path d="M56.5992 19.9541V3.18595L28.3047 19.9541V3.18595L1.51923 19.0319L0.387451 17.6904L30.191 0V16.7682L58.4855 0V16.7682L85.271 0.922248L86.4028 2.2637L56.5992 19.9541Z" fill="black"/>
<path d="M113.018 19.9541V3.18595L84.7239 19.9541V3.18595L57.9384 19.0319L56.8066 17.6904L86.6102 0V16.7682L114.905 0V16.7682L141.69 0.922248L142.822 2.2637L113.018 19.9541Z" fill="black"/>
</g>
<g clip-path="url(#clip1_425_4599)">
<path d="M169.777 19.9541V3.18595L141.483 19.9541V3.18595L114.697 19.0319L113.565 17.6904L143.369 0V16.7682L171.663 0V16.7682L198.449 0.922248L199.581 2.2637L169.777 19.9541Z" fill="black"/>
<path d="M226.196 19.9541V3.18595L197.902 19.9541V3.18595L171.116 19.0319L169.985 17.6904L199.788 0V16.7682L228.083 0V16.7682L254.868 0.922248L256 2.2637L226.196 19.9541Z" fill="black"/>
</g>
<defs>
<clipPath id="clip0_425_4599">
<rect width="142.435" height="19.9541" fill="white" transform="translate(0.387451)"/>
</clipPath>
<clipPath id="clip1_425_4599">
<rect width="142.435" height="19.9541" fill="white" transform="translate(113.565)"/>
</clipPath>
</defs>
</svg>
