<svg width="20" height="20" viewBox="0 0 20 20" fill="none" xmlns="http://www.w3.org/2000/svg">
<path d="M10 20C8.02219 20 6.08879 19.4135 4.4443 18.3147C2.79981 17.2159 1.51809 15.6541 0.76121 13.8268C0.0043334 11.9996 -0.193701 9.98891 0.192151 8.0491C0.578004 6.10929 1.53041 4.32746 2.92893 2.92894C4.32746 1.53041 6.10929 0.578004 8.0491 0.192152C9.98891 -0.193701 11.9996 0.00433297 13.8268 0.761209C15.6541 1.51809 17.2159 2.79981 18.3147 4.4443C19.4135 6.08879 20 8.02219 20 10C20 12.6522 18.9464 15.1957 17.0711 17.0711C15.1957 18.9464 12.6522 20 10 20ZM10 0.800004C8.18042 0.800004 6.40169 1.33957 4.88876 2.35048C3.37583 3.36139 2.19664 4.79824 1.50031 6.47932C0.803986 8.1604 0.621796 10.0102 0.97678 11.7948C1.33176 13.5795 2.20798 15.2187 3.49462 16.5054C4.78126 17.792 6.42055 18.6682 8.20517 19.0232C9.9898 19.3782 11.8396 19.196 13.5207 18.4997C15.2018 17.8034 16.6386 16.6242 17.6495 15.1112C18.6604 13.5983 19.2 11.8196 19.2 10C19.2 7.56001 18.2307 5.21996 16.5054 3.49462C14.7801 1.76929 12.44 0.800004 10 0.800004Z" fill="#039EA2"/>
<path d="M9.99991 18.4C9.58092 18.3994 9.16251 18.3687 8.74791 18.308C8.64301 18.295 8.54752 18.241 8.48231 18.1578C8.41711 18.0746 8.38748 17.969 8.39991 17.864C8.40773 17.812 8.42573 17.762 8.45289 17.717C8.48005 17.6719 8.51584 17.6326 8.5582 17.6014C8.60056 17.5702 8.64866 17.5477 8.69975 17.5351C8.75083 17.5225 8.8039 17.5201 8.85591 17.528C9.23468 17.584 9.61704 17.6121 9.99991 17.612C10.106 17.612 10.2077 17.6542 10.2828 17.7292C10.3578 17.8042 10.3999 17.906 10.3999 18.012C10.3999 18.1181 10.3578 18.2199 10.2828 18.2949C10.2077 18.3699 10.106 18.412 9.99991 18.412V18.4ZM11.0679 18.328C11.0154 18.3315 10.9627 18.3245 10.9129 18.3076C10.863 18.2906 10.817 18.264 10.7775 18.2293C10.7379 18.1945 10.7056 18.1524 10.6823 18.1051C10.6591 18.0579 10.6453 18.0066 10.6419 17.954C10.6385 17.9015 10.6455 17.8488 10.6624 17.799C10.6794 17.7492 10.706 17.7031 10.7407 17.6636C10.7754 17.624 10.8176 17.5917 10.8648 17.5684C10.912 17.5452 10.9634 17.5315 11.0159 17.528C11.3923 17.4794 11.7642 17.4005 12.1279 17.292C12.2298 17.2623 12.3392 17.2743 12.4322 17.3253C12.5253 17.3763 12.5942 17.4622 12.6239 17.564C12.6386 17.6145 12.6433 17.6673 12.6375 17.7195C12.6318 17.7717 12.6159 17.8223 12.5906 17.8684C12.5654 17.9144 12.5313 17.9551 12.4903 17.988C12.4494 18.0208 12.4023 18.0453 12.3519 18.06C11.9495 18.1765 11.539 18.2634 11.1239 18.32L11.0679 18.328ZM7.63591 18.044C7.59766 18.052 7.55817 18.052 7.51992 18.044C7.12129 17.9228 6.73332 17.7689 6.35991 17.584C6.26351 17.5404 6.18834 17.4603 6.15085 17.3614C6.11337 17.2624 6.11663 17.1526 6.15991 17.056C6.20357 16.9596 6.28364 16.8845 6.3826 16.847C6.48157 16.8095 6.59135 16.8128 6.68791 16.856C7.03093 17.0153 7.38523 17.149 7.74791 17.256C7.854 17.272 7.94942 17.3294 8.01318 17.4156C8.07695 17.5019 8.10383 17.61 8.08791 17.716C8.072 17.8221 8.0146 17.9176 7.92833 17.9813C7.84206 18.0451 7.734 18.072 7.62791 18.056L7.63591 18.044ZM13.3639 17.644C13.2584 17.6359 13.1605 17.5862 13.0915 17.506C13.0226 17.4258 12.9882 17.3216 12.9959 17.216C13.002 17.1514 13.0238 17.0892 13.0593 17.0348C13.0949 16.9805 13.1431 16.9356 13.1999 16.904C13.5437 16.7432 13.8753 16.5574 14.1919 16.348C14.2358 16.3189 14.285 16.2987 14.3366 16.2885C14.3883 16.2784 14.4415 16.2785 14.4931 16.2889C14.5447 16.2993 14.5938 16.3198 14.6375 16.3491C14.6813 16.3785 14.7188 16.4162 14.7479 16.46C14.7771 16.5039 14.7973 16.5531 14.8074 16.6048C14.8176 16.6564 14.8175 16.7096 14.8071 16.7612C14.7967 16.8129 14.7762 16.8619 14.7468 16.9057C14.7175 16.9494 14.6798 16.9869 14.6359 17.016C14.2841 17.2456 13.9165 17.4501 13.5359 17.628C13.4827 17.6553 13.4237 17.669 13.3639 17.668V17.644ZM5.48391 17C5.40414 17.0002 5.32613 16.9765 5.25991 16.932C4.91359 16.6887 4.58478 16.4214 4.27591 16.132C4.23757 16.0961 4.20668 16.0529 4.18503 16.005C4.16337 15.957 4.15136 15.9053 4.14969 15.8528C4.14802 15.8002 4.15672 15.7478 4.17529 15.6986C4.19385 15.6495 4.22193 15.6044 4.25791 15.566C4.29389 15.5277 4.33708 15.4968 4.385 15.4752C4.43291 15.4535 4.48463 15.4415 4.53718 15.4398C4.58974 15.4382 4.64212 15.4469 4.69131 15.4654C4.74051 15.484 4.78557 15.5121 4.82391 15.548C5.10355 15.8051 5.40023 16.043 5.71191 16.26C5.78164 16.3087 5.83405 16.3784 5.86152 16.4588C5.88899 16.5393 5.8901 16.6264 5.86469 16.7076C5.83927 16.7887 5.78865 16.8597 5.72018 16.9101C5.65171 16.9606 5.56895 16.9878 5.48391 16.988V17ZM15.3559 16.336C15.2753 16.3358 15.1966 16.3113 15.1301 16.2655C15.0637 16.2198 15.0127 16.155 14.9837 16.0798C14.9547 16.0045 14.9491 15.9223 14.9677 15.8438C14.9863 15.7653 15.0282 15.6943 15.0879 15.64C15.3725 15.3834 15.6398 15.1081 15.8879 14.816C15.92 14.7727 15.9602 14.7361 16.0064 14.7083C16.0526 14.6806 16.1038 14.6622 16.1571 14.6542C16.2104 14.6462 16.2648 14.6488 16.3171 14.6618C16.3694 14.6748 16.4186 14.698 16.4619 14.73C16.5052 14.7621 16.5418 14.8024 16.5696 14.8485C16.5974 14.8947 16.6158 14.9459 16.6238 14.9992C16.6318 15.0525 16.6292 15.1069 16.6162 15.1592C16.6031 15.2115 16.58 15.2607 16.5479 15.304L16.5159 15.344C16.2506 15.67 15.9604 15.9749 15.6479 16.256C15.5679 16.3169 15.468 16.3455 15.3679 16.336H15.3559ZM3.75591 15.372C3.69583 15.3718 3.63658 15.358 3.58257 15.3316C3.52856 15.3053 3.48116 15.2672 3.44391 15.22C3.1834 14.8907 2.9468 14.5432 2.73591 14.18C2.67916 14.0904 2.66034 13.9819 2.68359 13.8784C2.70684 13.7748 2.77027 13.6848 2.85991 13.628C2.94956 13.5713 3.05808 13.5525 3.1616 13.5757C3.26512 13.599 3.35516 13.6624 3.41191 13.752V13.78C3.6011 14.1092 3.81505 14.4234 4.05191 14.72C4.11732 14.8029 4.14729 14.9083 4.1353 15.0132C4.12332 15.1181 4.07033 15.214 3.98791 15.28C3.91328 15.34 3.81961 15.3713 3.72391 15.368L3.75591 15.372ZM16.9039 14.504C16.8315 14.5046 16.7605 14.4837 16.6999 14.444C16.6087 14.3899 16.5427 14.3018 16.5164 14.199C16.4902 14.0963 16.5058 13.9873 16.5599 13.896C16.7567 13.5712 16.9279 13.2315 17.0719 12.88C17.0859 12.8271 17.1107 12.7775 17.1447 12.7345C17.1786 12.6915 17.2211 12.6559 17.2694 12.63C17.3177 12.6041 17.3708 12.5884 17.4254 12.5838C17.48 12.5793 17.535 12.586 17.5869 12.6036C17.6388 12.6211 17.6865 12.6492 17.7272 12.686C17.7678 12.7228 17.8004 12.7675 17.823 12.8175C17.8456 12.8674 17.8577 12.9214 17.8585 12.9763C17.8594 13.0311 17.849 13.0854 17.8279 13.136C17.8296 13.1507 17.8296 13.1654 17.8279 13.18C17.6567 13.5706 17.4561 13.9477 17.2279 14.308C17.1939 14.3655 17.1461 14.4135 17.0888 14.4477C17.0315 14.482 16.9666 14.5013 16.8999 14.504H16.9039ZM2.57591 13.304C2.49534 13.3038 2.41671 13.2792 2.35033 13.2336C2.28396 13.1879 2.23292 13.1232 2.20391 13.048C2.05176 12.6577 1.92875 12.2566 1.83591 11.848C1.81257 11.742 1.83234 11.6309 1.89085 11.5394C1.94936 11.4479 2.04183 11.3834 2.14791 11.36C2.254 11.3367 2.36501 11.3565 2.45653 11.415C2.54805 11.4735 2.61257 11.566 2.63591 11.672C2.72044 12.0435 2.83139 12.4084 2.96791 12.764C3.0058 12.8627 3.00309 12.9724 2.96037 13.0691C2.91764 13.1658 2.83839 13.2416 2.73991 13.28C2.68881 13.3044 2.6324 13.3154 2.57591 13.312V13.304ZM17.8119 12.28C17.7058 12.28 17.6041 12.2379 17.5291 12.1629C17.4541 12.0879 17.4119 11.9861 17.4119 11.88C17.4078 11.8455 17.4078 11.8106 17.4119 11.776C17.5014 11.4065 17.5629 11.0308 17.5959 10.652C17.6009 10.5995 17.6162 10.5485 17.6409 10.5019C17.6656 10.4552 17.6993 10.4139 17.7399 10.3803C17.7806 10.3467 17.8275 10.3214 17.8779 10.306C17.9284 10.2905 17.9814 10.2851 18.0339 10.29C18.0864 10.295 18.1375 10.3103 18.1841 10.335C18.2307 10.3597 18.272 10.3934 18.3056 10.4341C18.3392 10.4747 18.3645 10.5216 18.38 10.5721C18.3955 10.6225 18.4009 10.6755 18.3959 10.728C18.3595 11.147 18.2927 11.5628 18.1959 11.972C18.174 12.0608 18.1224 12.1394 18.0496 12.1947C17.9768 12.25 17.8873 12.2787 17.7959 12.276L17.8119 12.28ZM2.05191 10.972C1.9505 10.9723 1.85279 10.934 1.77853 10.865C1.70427 10.7959 1.65901 10.7012 1.65191 10.6C1.61831 10.406 1.6049 10.2089 1.61191 10.012C1.60821 9.79178 1.61622 9.57147 1.63591 9.35205C1.64387 9.24596 1.69364 9.14738 1.77428 9.07799C1.85493 9.0086 1.95983 8.97409 2.06591 8.98205C2.172 8.99 2.27058 9.03978 2.33997 9.12042C2.40936 9.20106 2.44387 9.30596 2.43591 9.41205C2.41191 9.60671 2.39991 9.80271 2.39991 10C2.38993 10.1799 2.38993 10.3602 2.39991 10.54C2.40372 10.5926 2.39711 10.6454 2.38045 10.6954C2.3638 10.7454 2.33743 10.7916 2.30286 10.8314C2.26829 10.8711 2.22621 10.9037 2.17903 10.9271C2.13184 10.9506 2.08049 10.9645 2.02791 10.968L2.05191 10.972ZM17.9999 9.89605C17.8979 9.89623 17.7996 9.8574 17.7252 9.7875C17.6509 9.7176 17.606 9.62192 17.5999 9.52005C17.5687 9.14317 17.5112 8.76893 17.4279 8.40005C17.4056 8.29396 17.4264 8.18337 17.4857 8.0926C17.5449 8.00183 17.6378 7.93833 17.7439 7.91605C17.85 7.89377 17.9606 7.91455 18.0514 7.97381C18.1421 8.03307 18.2056 8.12596 18.2279 8.23205C18.3152 8.64068 18.3726 9.0551 18.3999 9.47205C18.4032 9.5246 18.396 9.57727 18.3789 9.62705C18.3617 9.67682 18.3349 9.72273 18.2999 9.76212C18.265 9.80151 18.2227 9.83362 18.1753 9.8566C18.1279 9.87958 18.0765 9.89299 18.0239 9.89605H17.9999ZM2.21991 8.58405H2.12791C2.02518 8.55935 1.9364 8.49501 1.88094 8.40508C1.82548 8.31515 1.80786 8.20693 1.83191 8.10405C1.92505 7.69466 2.05078 7.29338 2.20791 6.90405C2.24716 6.80539 2.324 6.72636 2.42152 6.68435C2.51904 6.64234 2.62925 6.6408 2.72791 6.68005C2.82657 6.7193 2.9056 6.79614 2.94761 6.89366C2.98962 6.99117 2.99116 7.10139 2.95191 7.20005C2.80909 7.5532 2.69408 7.91698 2.60791 8.28805C2.58496 8.37328 2.53446 8.44853 2.46428 8.50207C2.3941 8.55561 2.30819 8.58443 2.21991 8.58405ZM17.4919 7.56005C17.4102 7.56031 17.3303 7.53554 17.2631 7.48905C17.1959 7.44257 17.1445 7.37661 17.1159 7.30005C16.9832 6.94464 16.8213 6.6008 16.6319 6.27205C16.5789 6.17975 16.5647 6.07017 16.5924 5.9674C16.6202 5.86463 16.6876 5.77709 16.7799 5.72405C16.8722 5.671 16.9818 5.6568 17.0846 5.68455C17.1873 5.71231 17.2749 5.77975 17.3279 5.87205C17.5362 6.236 17.7155 6.61585 17.8639 7.00805C17.8826 7.05716 17.8914 7.10947 17.8898 7.16198C17.8882 7.2145 17.8763 7.26619 17.8548 7.3141C17.8333 7.36202 17.8025 7.40522 17.7642 7.44125C17.726 7.47727 17.681 7.5054 17.6319 7.52405C17.589 7.54759 17.5409 7.55997 17.4919 7.56005ZM3.09192 6.36005C3.02097 6.36075 2.95112 6.34257 2.88953 6.30737C2.82793 6.27217 2.7768 6.22123 2.74138 6.15976C2.70597 6.09829 2.68754 6.0285 2.68798 5.95756C2.68843 5.88662 2.70773 5.81707 2.74391 5.75605C2.95721 5.39512 3.19651 5.05021 3.45991 4.72405C3.52649 4.64223 3.62268 4.59002 3.72756 4.57878C3.83244 4.56755 3.93752 4.59819 4.01991 4.66405C4.10173 4.73062 4.15394 4.82682 4.16518 4.9317C4.17641 5.03658 4.14577 5.14165 4.07991 5.22405C3.84048 5.52056 3.62386 5.83479 3.43191 6.16405C3.39842 6.22223 3.35082 6.27105 3.2935 6.306C3.23617 6.34095 3.17098 6.36091 3.10391 6.36405L3.09192 6.36005ZM16.2919 5.47605C16.2308 5.4759 16.1706 5.46176 16.1158 5.43472C16.061 5.40768 16.0132 5.36845 15.9759 5.32005C15.7411 5.02137 15.4844 4.74059 15.2079 4.48005C15.131 4.40685 15.0863 4.30609 15.0837 4.19995C15.0811 4.0938 15.1207 3.99096 15.1939 3.91405C15.2671 3.83713 15.3679 3.79245 15.474 3.78982C15.5802 3.7872 15.683 3.82685 15.7599 3.90005C16.0629 4.18899 16.3449 4.4991 16.6039 4.82805C16.6689 4.91143 16.6982 5.01714 16.6854 5.12208C16.6727 5.22701 16.6189 5.32263 16.5359 5.38805C16.4666 5.44367 16.3808 5.47463 16.2919 5.47605ZM4.60791 4.50405C4.55307 4.50387 4.49884 4.49242 4.44861 4.4704C4.39838 4.44838 4.35321 4.41626 4.31591 4.37605C4.24141 4.3011 4.1996 4.19972 4.1996 4.09405C4.1996 3.98837 4.24141 3.88699 4.31591 3.81205C4.62448 3.52798 4.95483 3.26852 5.30391 3.03605C5.3925 2.97346 5.50231 2.94862 5.60921 2.967C5.71611 2.98537 5.81132 3.04546 5.87391 3.13405C5.9365 3.22263 5.96134 3.33245 5.94297 3.43934C5.92459 3.54624 5.8645 3.64146 5.77591 3.70405C5.4601 3.91603 5.1606 4.15136 4.87991 4.40805C4.80434 4.47276 4.70736 4.50699 4.60791 4.50405ZM14.5799 3.83605C14.4983 3.83585 14.4188 3.81073 14.3519 3.76405C14.0395 3.55222 13.712 3.36371 13.3719 3.20005C13.2784 3.15139 13.2079 3.06779 13.1757 2.96742C13.1435 2.86705 13.1522 2.75803 13.1999 2.66405C13.2472 2.56914 13.3302 2.49686 13.4307 2.46311C13.5312 2.42936 13.641 2.43689 13.7359 2.48405C14.1054 2.66569 14.461 2.87425 14.7999 3.10805C14.8699 3.15691 14.9225 3.2269 14.9499 3.30777C14.9772 3.38865 14.978 3.47616 14.9521 3.55751C14.9262 3.63886 14.8749 3.70979 14.8058 3.7599C14.7366 3.81002 14.6533 3.8367 14.5679 3.83605H14.5799ZM6.57991 3.16805C6.48557 3.17398 6.39218 3.1463 6.31629 3.08994C6.24041 3.03357 6.18694 2.95215 6.16537 2.86011C6.1438 2.76808 6.15552 2.67138 6.19846 2.58716C6.24139 2.50294 6.31276 2.43665 6.39991 2.40005C6.78742 2.22024 7.1887 2.07177 7.59991 1.95605C7.69742 1.92257 7.80408 1.92804 7.89765 1.9713C7.99122 2.01456 8.06448 2.09228 8.10214 2.18824C8.1398 2.2842 8.13896 2.391 8.09979 2.48635C8.06063 2.58171 7.98616 2.65826 7.89192 2.70005H7.82791C7.46441 2.80469 7.10993 2.93845 6.76791 3.10005C6.70946 3.12947 6.64532 3.14584 6.57991 3.14805V3.16805ZM12.4239 2.76805C12.3843 2.77602 12.3435 2.77602 12.3039 2.76805C11.9432 2.65191 11.5741 2.56365 11.1999 2.50405C11.0938 2.4876 10.9986 2.42969 10.9352 2.34305C10.8718 2.25641 10.8455 2.14813 10.8619 2.04205C10.8784 1.93596 10.9363 1.84075 11.0229 1.77736C11.1096 1.71398 11.2178 1.6876 11.3239 1.70405C11.7389 1.76909 12.1482 1.86673 12.5479 1.99605C12.6379 2.0256 12.7145 2.08613 12.764 2.16686C12.8136 2.24759 12.8329 2.34328 12.8184 2.4369C12.804 2.53052 12.7569 2.61598 12.6854 2.67809C12.6139 2.7402 12.5226 2.77491 12.4279 2.77605L12.4239 2.76805ZM8.86791 2.47205C8.76183 2.47947 8.65714 2.44445 8.57687 2.37469C8.4966 2.30492 8.44734 2.20613 8.43991 2.10005C8.43249 1.99396 8.46751 1.88927 8.53727 1.809C8.60704 1.72874 8.70583 1.67947 8.81191 1.67205C9.20974 1.62006 9.61072 1.596 10.0119 1.60005H10.0839C10.19 1.60005 10.2917 1.64219 10.3668 1.7172C10.4418 1.79222 10.4839 1.89396 10.4839 2.00005C10.4839 2.10613 10.4418 2.20787 10.3668 2.28289C10.2917 2.3579 10.19 2.40005 10.0839 2.40005H9.99991C9.64121 2.39934 9.28293 2.42474 8.92791 2.47605L8.86791 2.47205Z" fill="#039EA2"/>
<path d="M13.392 15.6C13.3269 15.5991 13.2627 15.5841 13.204 15.556L10.004 13.876L6.80401 15.556C6.74043 15.5863 6.66995 15.5994 6.59971 15.5938C6.52947 15.5881 6.46196 15.5641 6.40401 15.524C6.34268 15.479 6.29543 15.4175 6.2678 15.3467C6.24017 15.2758 6.2333 15.1986 6.24801 15.124L6.85601 11.568L4.28001 9.05197C4.22601 8.99979 4.18779 8.93347 4.16971 8.86058C4.15164 8.78769 4.15445 8.71119 4.17783 8.63983C4.2012 8.56847 4.24418 8.50512 4.30187 8.45704C4.35955 8.40897 4.42961 8.3781 4.50401 8.36797L8.07201 7.84797L9.67201 4.61597C9.71855 4.52139 9.80055 4.44901 9.90017 4.41455C9.99979 4.38009 10.109 4.38636 10.204 4.43197C10.2856 4.47036 10.3519 4.5352 10.392 4.61597L11.992 7.84797L15.56 8.36797C15.665 8.38284 15.7598 8.43881 15.8236 8.52357C15.8874 8.60833 15.9148 8.71495 15.9 8.81997C15.8882 8.90804 15.8474 8.98967 15.784 9.05197L13.2 11.568L13.808 15.124C13.8172 15.176 13.816 15.2293 13.8044 15.2809C13.7929 15.3324 13.7712 15.3812 13.7407 15.4243C13.7102 15.4675 13.6715 15.5041 13.6267 15.5322C13.582 15.5603 13.5321 15.5793 13.48 15.588H13.408L13.392 15.6ZM10 13.024C10.064 13.0237 10.1271 13.0388 10.184 13.068L12.848 14.468L12.34 11.504C12.3295 11.4403 12.3346 11.375 12.3548 11.3137C12.375 11.2524 12.4097 11.1969 12.456 11.152L14.608 9.05197L11.632 8.61997C11.5679 8.61035 11.5071 8.58529 11.4549 8.54697C11.4026 8.50865 11.3605 8.4582 11.332 8.39997L10 5.70397L8.66801 8.39997C8.63957 8.4582 8.5974 8.50865 8.54514 8.54697C8.49288 8.58529 8.4321 8.61035 8.36801 8.61997L5.39201 9.05197L7.54401 11.152C7.59031 11.1969 7.62504 11.2524 7.64524 11.3137C7.66544 11.375 7.67051 11.4403 7.66001 11.504L7.15201 14.468L9.81601 13.068C9.87294 13.0388 9.93604 13.0237 10 13.024Z" fill="#039EA2"/>
</svg>
