<svg width="218" height="18" viewBox="0 0 218 18" fill="none" xmlns="http://www.w3.org/2000/svg">
<g clip-path="url(#clip0_425_4587)">
<path d="M42.8636 -1.76021e-06L42.8636 14.2857L19 -3.8147e-06L19 14.2857L19 17L20.5909 17L20.5909 2.71428L44.4545 17L44.4545 2.71428L67.0455 16.2143L68 15.0714L42.8636 -1.76021e-06Z" fill="black"/>
<path d="M90.7061 -1.61489e-06L90.7061 14.2857L66.693 -3.68225e-06L66.693 14.2857L43.9605 0.785708L43 1.92857L68.2939 17L68.2939 2.71428L92.307 17L92.307 2.71429L115.039 16.2143L116 15.0714L90.7061 -1.61489e-06Z" fill="black"/>
</g>
<g clip-path="url(#clip1_425_4587)">
<path d="M139.706 -1.55144e-06L139.706 14.2857L115.693 -3.65074e-06L115.693 14.2857L92.9604 0.785708L91.9999 1.92857L117.294 17L117.294 2.71428L141.307 17L141.307 2.71429L164.039 16.2143L165 15.0714L139.706 -1.55144e-06Z" fill="black"/>
<path d="M187.706 -1.55144e-06L187.706 14.2857L163.693 -3.65074e-06L163.693 14.2857L140.96 0.785708L140 1.92857L165.294 17L165.294 2.71428L189.307 17L189.307 2.71429L212.039 16.2143L213 15.0714L187.706 -1.55144e-06Z" fill="black"/>
</g>
<defs>
<clipPath id="clip0_425_4587">
<rect width="121.476" height="17.2296" fill="white" transform="matrix(1 8.74228e-08 8.74228e-08 -1 0 17.4943)"/>
</clipPath>
<clipPath id="clip1_425_4587">
<rect width="121.476" height="17.2296" fill="white" transform="matrix(1 8.74228e-08 8.74228e-08 -1 96.5243 17.4943)"/>
</clipPath>
</defs>
</svg>
