<svg width="4" height="17" viewBox="0 0 4 17" fill="none" xmlns="http://www.w3.org/2000/svg">
<path d="M2.00005 4C3.10465 4 4.00011 3.10457 4.00011 2C4.00011 0.89543 3.10465 0 2.00005 0C0.895455 0 0 0.89543 0 2C0 3.10457 0.895455 4 2.00005 4Z" fill="black"/>
<path d="M2.00005 10.6111C3.10465 10.6111 4.00011 9.71565 4.00011 8.61108C4.00011 7.50651 3.10465 6.61108 2.00005 6.61108C0.895455 6.61108 0 7.50651 0 8.61108C0 9.71565 0.895455 10.6111 2.00005 10.6111Z" fill="black"/>
<path d="M2.00005 17C3.10465 17 4.00011 16.1046 4.00011 15C4.00011 13.8954 3.10465 13 2.00005 13C0.895455 13 0 13.8954 0 15C0 16.1046 0.895455 17 2.00005 17Z" fill="black"/>
</svg>
