<svg width="257" height="28" viewBox="0 0 257 28" fill="none" xmlns="http://www.w3.org/2000/svg">
<g clip-path="url(#clip0_425_4578)">
<path d="M1.16895 9.63595L1.25514 9.45242L1.34132 9.27115L1.42751 9.09064L1.5137 8.91163L1.59989 8.73414L1.68608 8.55816L1.77227 8.38444L1.85846 8.21299L1.94465 8.0423L2.03084 7.87462L2.11703 7.70847L2.20322 7.54381L2.28941 7.38218L2.3756 7.22206L2.46179 7.06496L2.54798 6.90937L2.63417 6.75831L2.72036 6.60725L2.80655 6.45619L2.89274 6.31043L2.97893 6.16768L3.06512 6.0272L3.15131 5.88973L3.2375 5.75454L3.32369 5.62236L3.40988 5.49245L3.49607 5.36632L3.58226 5.24245L3.66845 5.12161L3.75464 5.00378L3.84083 4.88897L3.92702 4.77719L4.01321 4.66919L4.0994 4.56345L4.18559 4.46149L4.27178 4.36178L4.35797 4.26662L4.44416 4.17372L4.53035 4.08459L4.61654 3.9985L4.70273 3.91616L4.78892 3.84064L4.87511 3.76511L4.9613 3.68958L5.04749 3.62085L5.13368 3.55589L5.21987 3.49396L5.30606 3.43656L5.39225 3.38218L5.47844 3.33082L5.56463 3.28399L5.65082 3.24019L5.73701 3.20015L5.8232 3.1639L5.90939 3.13142L5.99558 3.10272L6.08177 3.0778L6.16796 3.05589L6.25415 3.03852L6.34034 3.02417L6.42653 3.01436L6.51272 3.00756H6.59891H6.6851L6.77129 3.01284L6.85748 3.02115L6.94367 3.03324L7.02986 3.0491L7.11605 3.06873L7.20223 3.09215L7.28842 3.11859L7.37461 3.14955L7.4608 3.18354L7.54699 3.22206L7.63318 3.26359L7.71937 3.30892L7.80556 3.35801L7.89175 3.41088L7.97794 3.46677L8.06413 3.52644L8.15032 3.58988L8.23651 3.65711L8.3227 3.72734L8.40889 3.80287L8.49508 3.8784L8.58127 3.95922L8.66746 4.04306L8.75365 4.13067L8.83984 4.2213L8.92603 4.31571L9.01222 4.41315L9.09841 4.5136L9.1846 4.61783L9.27079 4.72433L9.35698 4.8346L9.44317 4.94789L9.52936 5.06421L9.61555 5.18354L9.70174 5.30589L9.78793 5.43052L9.87412 5.55891L9.96031 5.68958L10.0465 5.82326L10.1327 5.95997L10.2189 6.09894L10.3051 6.24018L10.3913 6.38445L10.4774 6.53172L10.5636 6.68278L10.6498 6.83384L10.736 6.98489L10.8222 7.142L10.9084 7.30061L10.9946 7.46149L11.0808 7.62463L11.167 7.78928L11.2532 7.95695L11.3393 8.12613L11.4255 8.29683L11.5117 8.46979L11.5979 8.64427L11.6841 8.821L11.7703 8.99925L11.8565 9.17901L11.9427 9.36028L12.0289 9.54305L12.1151 9.72659L12.2012 9.91239L12.2874 10.0989L12.3736 10.287L12.4598 10.4766L12.546 10.6662L12.6322 10.858L12.7184 11.0499L12.8046 11.2424L12.8908 11.4366L12.977 11.6314L13.0631 11.8263L13.1493 12.0219L13.2355 12.2183L13.3217 12.4154L13.4079 12.6125L13.4941 12.8104L13.5803 13.0076L13.6665 13.2062L13.7527 13.4041L13.8389 13.602L13.925 13.7998L14.0112 13.9977L14.0974 14.1956L14.1836 14.3935L14.2698 14.5906L14.356 14.787L14.4422 14.9834L14.5284 15.1798L14.6146 15.3746L14.7008 15.5695L14.7869 15.7628L14.8731 15.9562L14.9593 16.148L15.0455 16.3399L15.1317 16.5295L15.2179 16.719L15.3041 16.9071L15.3903 17.0937L15.4765 17.2795L15.5627 17.463L15.6488 17.6458L15.735 17.827L15.8212 18.0068L15.9074 18.185L15.9936 18.3618L16.0798 18.5363L16.166 18.7092L16.2522 18.8807L16.3384 19.0499L16.4245 19.2168L16.5107 19.3822L16.5969 19.5446L16.6831 19.7062L16.7693 19.8648L16.8555 20.0211L16.9417 20.1722L17.0279 20.3233L17.1141 20.4743L17.2003 20.6216L17.2864 20.7659L17.3726 20.9079L17.4588 21.0468L17.545 21.1828L17.6312 21.3165L17.7174 21.4479L17.8036 21.5755L17.8898 21.7009L17.976 21.8233L18.0622 21.9426L18.1483 22.0589L18.2345 22.1722L18.3207 22.2817L18.4069 22.389L18.4931 22.4932L18.5793 22.5937L18.6655 22.6911L18.7517 22.7855L18.8379 22.8761L18.9241 22.9637L19.0102 23.0476L19.0964 23.1284L19.1826 23.2039L19.2688 23.2795L19.355 23.3505L19.4412 23.4169L19.5274 23.4804L19.6136 23.54L19.6998 23.5967L19.786 23.6488L19.8721 23.6979L19.9583 23.7432L20.0445 23.7855L20.1307 23.8233L20.2169 23.858L20.3031 23.8882L20.3893 23.9154L20.4755 23.9388L20.5617 23.9585L20.6479 23.9743L20.734 23.9864L20.8202 23.9947L20.9064 24H20.9926H21.0788L21.165 23.994L21.2512 23.9834L21.3374 23.9698L21.4236 23.9517L21.5098 23.9305L21.5959 23.9048L21.6821 23.8761L21.7683 23.8437L21.8545 23.8074L21.9407 23.7674L22.0269 23.7243L22.1131 23.6767L22.1993 23.6261L22.2855 23.5718L22.3716 23.5136L22.4578 23.4524L22.544 23.3875L22.6302 23.3187L22.7164 23.2432L22.8026 23.1677L22.8888 23.0921L22.975 23.0098L23.0612 22.9237L23.1474 22.8346L23.2335 22.7424L23.3197 22.6465L23.4059 22.5476L23.4921 22.4449L23.5783 22.3399L23.6645 22.2311L23.7507 22.1193L23.8369 22.0045L23.9231 21.8867L24.0093 21.7659L24.0954 21.6427L24.1816 21.5159L24.2678 21.3867L24.354 21.2545L24.4402 21.1193L24.5264 20.9819L24.6126 20.8414L24.6988 20.6979L24.785 20.5529L24.8712 20.4018L24.9573 20.2508L25.0435 20.0997L25.1297 19.9441L25.2159 19.787L25.3021 19.6269L25.3883 19.4653L25.4745 19.3006L25.5607 19.1344L25.6469 18.9668L25.7331 18.7968L25.8192 18.6246L25.9054 18.4509L25.9916 18.2749L26.0778 18.0982L26.164 17.9192L26.2502 17.7387L26.3364 17.5566L26.4226 17.3731L26.5088 17.1881L26.595 17.0023L26.6811 16.815L26.7673 16.6261L26.8535 16.4366L26.9397 16.2455L27.0259 16.0544L27.1121 15.8618L27.1983 15.6684L27.2845 15.4736L27.3707 15.2787L27.4568 15.0831L27.543 14.8875L27.6292 14.6911L27.7154 14.494L27.8016 14.2961L27.8878 14.0989L27.974 13.9011L28.0602 13.7032L28.1464 13.5045L28.2326 13.3067L28.3187 13.1088L28.4049 12.9109L28.4911 12.713L28.5773 12.5159L28.6635 12.3187L28.7497 12.1224L28.8359 11.926L28.9221 11.7304L29.0083 11.5355L29.0945 11.3414L29.1806 11.148L29.2668 10.9554L29.353 10.7636L29.4392 10.5733L29.5254 10.3829L29.6116 10.1949L29.6978 10.0076L29.784 9.821L29.8702 9.63671L29.9564 9.45318L30.0425 9.27115L30.1287 9.09064L30.2149 8.91163L30.3011 8.73414L30.3873 8.55816L30.4735 8.38444L30.5597 8.21299L30.6459 8.0423L30.7321 7.87462L30.8183 7.70771L30.9044 7.54381L30.9906 7.38218L31.0768 7.22206L31.163 7.0642L31.2492 6.90937L31.3354 6.75831L31.4216 6.60725L31.5078 6.45619L31.594 6.31043L31.6802 6.16768L31.7663 6.0272L31.8525 5.88897L31.9387 5.75454L32.0249 5.62161L32.1111 5.49245L32.1973 5.36556L32.2835 5.2417L32.3697 5.12161L32.4559 5.00378L32.5421 4.88897L32.6282 4.77719L32.7144 4.66844L32.8006 4.56269L32.8868 4.46073L32.973 4.36178L33.0592 4.26586L33.1454 4.17296L33.2316 4.08384L33.3178 3.99774L33.4039 3.91541L33.4901 3.83988L33.5763 3.76435L33.6625 3.68882L33.7487 3.6201L33.8349 3.55514L33.9211 3.4932L34.0073 3.43505L34.0935 3.38067L34.1797 3.33006L34.2658 3.28248L34.352 3.23943L34.4382 3.1994L34.5244 3.16314L34.6106 3.13067L34.6968 3.10122L34.783 3.07629L34.8692 3.05439L34.9554 3.03701L35.0416 3.02266L35.1277 3.01284L35.2139 3.00605H35.3001H35.3863L35.4725 3.01133L35.5587 3.01964L35.6449 3.03173L35.7311 3.04758L35.8173 3.06647L35.9035 3.08988L35.9896 3.11707L36.0758 3.14804L36.162 3.18203L36.2482 3.21979L36.3344 3.26209L36.4206 3.30741L36.5068 3.35575L36.593 3.40861L36.6792 3.4645L36.7654 3.52493L36.8515 3.58762L36.9377 3.65484L37.0239 3.72508L37.1101 3.80061L37.1963 3.87614L37.2825 3.95695L37.3687 4.04079L37.4549 4.1284L37.5411 4.21903L37.6273 4.31345L37.7134 4.41088L37.7996 4.51133L37.8858 4.6148L37.972 4.72206L38.0582 4.83233L38.1444 4.94562L38.2306 5.06194L38.3168 5.18127L38.403 5.30287L38.4892 5.42825L38.5753 5.5559L38.6615 5.68732L38.7477 5.821L38.8339 5.95695L38.9201 6.09592L39.0063 6.23791L39.0925 6.38218L39.1787 6.52871L39.2649 6.67977L39.351 6.83082L39.4372 6.98188L39.5234 7.13822L39.6096 7.29683L39.6958 7.45771L39.782 7.62085L39.8682 7.7855L39.9544 7.95318L40.0406 8.12236L40.1268 8.29306L40.2129 8.46601L40.2991 8.64049L40.3853 8.81722L40.4715 8.99547L40.5577 9.17523L40.6439 9.3565L40.7301 9.53852L40.8163 9.72281L40.9025 9.90862L40.9887 10.0952L41.0748 10.2832L41.161 10.4721L41.2472 10.6624L41.3334 10.8535L41.4196 11.0461L41.5058 11.2387L41.592 11.4328L41.6782 11.6269L41.7644 11.8225L41.8506 12.0181L41.9367 12.2145L42.0229 12.4116L42.1091 12.6088L42.1953 12.8059L42.2815 13.0038L42.3677 13.2017L42.4539 13.3996L42.5401 13.5982L42.6263 13.7961L42.7125 13.994L42.7986 14.1918L42.8848 14.389L42.971 14.5861L43.0572 14.7832L43.1434 14.9796L43.2296 15.1752L43.3158 15.3708L43.402 15.565L43.4882 15.7591L43.5744 15.9524L43.6605 16.1443L43.7467 16.3354L43.8329 16.5257L43.9191 16.7153L44.0053 16.9026L44.0915 17.0899L44.1777 17.2749L44.2639 17.4592L44.3501 17.642L44.4363 17.8233L44.5224 18.003L44.6086 18.1813L44.6948 18.358L44.781 18.5325L44.8672 18.7054L44.9534 18.8769L45.0396 19.0461L45.1258 19.213L45.212 19.3784L45.2981 19.5415L45.3843 19.7024L45.4705 19.861L45.5567 20.0174L45.6429 20.1684L45.7291 20.3195L45.8153 20.4705L45.9015 20.6171L45.9877 20.7613L46.0739 20.9033L46.16 21.0423L46.2462 21.179L46.3324 21.3127L46.4186 21.4434L46.5048 21.5718L46.591 21.6964L46.6772 21.8187L46.7634 21.9381L46.8496 22.0544L46.9358 22.1677L47.0219 22.2779L47.1081 22.3852L47.1943 22.4894L47.2805 22.5899L47.3667 22.6873L47.4529 22.7817L47.5391 22.8724L47.6253 22.96L47.7115 23.0438L47.7977 23.1246L47.8838 23.2002L47.97 23.2757L48.0562 23.3459L48.1424 23.4124L48.2286 23.4758L48.3148 23.5363L48.401 23.5921L48.4872 23.645L48.5734 23.6941L48.6596 23.7394L48.7457 23.781L48.8319 23.8195L48.9181 23.8535L49.0043 23.8844L49.0905 23.9116L49.1767 23.935L49.2629 23.9547L49.3491 23.9705L49.4353 23.9826L49.5215 23.9909L49.6076 23.9962H49.6938H49.78L49.8662 23.9902L49.9524 23.9796L50.0386 23.966L50.1248 23.9479L50.211 23.9267L50.2972 23.9018L50.3834 23.8731L50.4695 23.8406L50.5557 23.8044L50.6419 23.7644L50.7281 23.7205L50.8143 23.6737L50.9005 23.6231L50.9867 23.5687L51.0729 23.5106L51.1591 23.4494L51.2452 23.3837L51.3314 23.3157L51.4176 23.2402L51.5038 23.1647L51.59 23.0891L51.6762 23.0068L51.7624 22.9207L51.8486 22.8316L51.9348 22.7394L52.021 22.6435L52.1071 22.5446L52.1933 22.4426L52.2795 22.3369L52.3657 22.2281L52.4519 22.1163L52.5381 22.0023L52.6243 21.8844L52.7105 21.7636L52.7967 21.6397L52.8829 21.5136L52.969 21.3837L53.0552 21.2515L53.1414 21.1163L53.2276 20.9789L53.3138 20.8384L53.4 20.6956L53.4862 20.5499L53.5724 20.3988L53.6586 20.2477L53.7448 20.0967L53.8309 19.9411L53.9171 19.784L54.0033 19.6239L54.0895 19.4622L54.1757 19.2976L54.2619 19.1314L54.3481 18.9637L54.4343 18.7938L54.5205 18.6216L54.6067 18.4479L54.6928 18.2719L54.779 18.0952L54.8652 17.9162L54.9514 17.7357L55.0376 17.5536L55.1238 17.3701L55.21 17.185L55.2962 16.9992L55.3824 16.8119L55.4686 16.6231L55.5547 16.4335L55.6409 16.2432L55.7271 16.0514L55.8133 15.8588L55.8995 15.6654L55.9857 15.4713L56.0719 15.2764L56.1581 15.0808L56.2443 14.8844L56.3305 14.6881L56.4166 14.4909L56.5028 14.2938L56.589 14.0959L56.6752 13.898L56.7614 13.7002L56.8476 13.5023L56.9338 13.3036L57.02 13.1057L57.1062 12.9079L57.1923 12.7107L57.2785 12.5128L57.3647 12.3157L57.4509 12.1193L57.5371 11.923L57.6233 11.7281L57.7095 11.5325L57.7957 11.3384L57.8819 11.145L57.9681 10.9524L58.0542 10.7606L58.1404 10.5702L58.2266 10.3807L58.3128 10.1918L58.399 10.0045L58.4852 9.81798L58.5714 9.63369L58.6576 9.45015L58.7438 9.26813L58.83 9.08762L58.9161 8.90862L59.0023 8.73112L59.0885 8.55514L59.1747 8.38142L59.2609 8.20998L59.3471 8.03928L59.4333 7.87084L59.5195 7.70469L59.6057 7.54078L59.6919 7.37916L59.778 7.21903L59.8642 7.06118L59.9504 6.91012L60.0366 6.75906L60.1228 6.60801L60.209 6.45695L60.2952 6.31118L60.3814 6.16768L60.4676 6.0272L60.5538 5.88973L60.6399 5.75454L60.7261 5.62236L60.8123 5.49245L60.8985 5.36632L60.9847 5.24245L61.0709 5.12161L61.1571 5.00378L61.2433 4.88897L61.3295 4.77719L61.4157 4.66844L61.5018 4.56269L61.588 4.46073L61.6742 4.36178L61.7604 4.26586L61.8466 4.17296L61.9328 4.08384L62.019 3.99774L62.1052 3.91541L62.1914 3.83988L62.2775 3.76435L62.3637 3.68882L62.4499 3.6201L62.5361 3.55439L62.6223 3.4932L62.7085 3.43505L62.7947 3.38067L62.8809 3.3293L62.9671 3.28248L63.0533 3.23867L63.1394 3.19864L63.2256 3.16239L63.3118 3.12992L63.398 3.10122L63.4842 3.07553L63.5704 3.05439L63.6566 3.03626L63.7428 3.02191L63.829 3.01209L63.9152 3.00529H64.0013H64.0875L64.1737 3.00982L64.2599 3.01813L64.3461 3.03021L64.4323 3.04607L64.5185 3.06571L64.6047 3.08913L64.6909 3.11632L64.7771 3.14653L64.8632 3.18127L64.9494 3.21904L65.0356 3.26058L65.1218 3.3059L65.208 3.35499L65.2942 3.4071L65.3804 3.46375L65.4666 3.52342L65.5528 3.58686L65.639 3.65333L65.7251 3.72357L65.8113 3.7991L65.8975 3.87463L65.9837 3.95544L66.0699 4.03928L66.1561 4.12689L66.2423 4.21752L66.3285 4.31193L66.4147 4.40937L66.5009 4.50982L66.587 4.61329L66.6732 4.72055L66.7594 4.83082L66.8456 4.94336L66.9318 5.05967L67.018 5.17901L67.1042 5.30137L67.1904 5.42674L67.2766 5.55439L67.3628 5.68505L67.4489 5.81874L67.5351 5.95544L67.6213 6.09442L67.7075 6.23566L67.7937 6.37991L67.8799 6.52644L67.9661 6.6775L68.0523 6.82855L68.1385 6.97961L68.2246 7.13595L68.3108 7.29456L68.397 7.45544L68.4832 7.61858L68.5694 7.78324L68.6556 7.95091L68.7418 8.12009L68.828 8.29079L68.9142 8.46375L69.0004 8.63822L69.0865 8.81495L69.1727 8.99321L69.2589 9.17221L69.3451 9.35347L69.4313 9.53626L69.5175 9.72055L69.6037 9.90635L69.6899 10.0929L69.7761 10.281L69.8623 10.4698L69.9484 10.6601L70.0346 10.8512L70.1208 11.043L70.207 11.2364L70.2932 11.4305L70.3794 11.6246L70.4656 11.8202L70.5518 12.0159L70.638 12.2122L70.7242 12.4086L70.8103 12.6065L70.8965 12.8036L70.9827 13.0015L71.0689 13.1994L71.1551 13.3973L71.2413 13.5952L71.3275 13.7938L71.4137 13.9917L71.4999 14.1896L71.5861 14.3867L71.6722 14.5838L71.7584 14.781L71.8446 14.9773L71.9308 15.173L72.017 15.3686L72.1032 15.5627L72.1894 15.7568L72.2756 15.9494L72.3618 16.142L72.448 16.3331L72.5341 16.5234L72.6203 16.7122L72.7065 16.9003L72.7927 17.0876L72.8789 17.2727L72.9651 17.4569L73.0513 17.6397L73.1375 17.821L73.2237 18.0008L73.3099 18.179L73.396 18.3557L73.4822 18.5302L73.5684 18.7032L73.6546 18.8746L73.7408 19.0438L73.827 19.2107L73.9132 19.3761L73.9994 19.5393L74.0856 19.7002L74.1717 19.8588L74.2579 20.0151L74.3441 20.1662L74.4303 20.3172L74.5165 20.4683L74.6027 20.6148L74.6889 20.7598L74.7751 20.9011L74.8613 21.0408L74.9475 21.1767L75.0336 21.3104L75.1198 21.4418L75.206 21.5695L75.2922 21.6949L75.3784 21.8172L75.4646 21.9366L75.5508 22.0529L75.637 22.1662L75.7232 22.2764L75.8094 22.3837L75.8955 22.4872L75.9817 22.5884L76.0679 22.6858L76.1541 22.7802L76.2403 22.8708L76.3265 22.9585L76.4127 23.0423L76.4989 23.1231L76.5851 23.1986L76.6713 23.2742L76.7574 23.3444L76.8436 23.4116L76.9298 23.4751L77.016 23.5347L77.1022 23.5906L77.1884 23.6435L77.2746 23.6926L77.3608 23.7379L77.447 23.7802L77.5332 23.818L77.6193 23.8527L77.7055 23.8837L77.7917 23.9109L77.8779 23.9343L77.9641 23.9539L78.0503 23.9698L78.1365 23.9819L78.2227 23.9902L78.3089 23.9955H78.3951H78.4812L78.5674 23.9894L78.6536 23.9789L78.7398 23.9653L78.826 23.9479L78.9122 23.926L78.9984 23.9011L79.0846 23.8724L79.1708 23.8399L79.257 23.8036L79.3431 23.7636L79.4293 23.7205L79.5155 23.6737L79.6017 23.6224L79.6879 23.568L79.7741 23.5106L79.8603 23.4486L79.9465 23.3837L80.0327 23.315L80.1188 23.2394L80.205 23.1639L80.2912 23.0884L80.3774 23.006L80.4636 22.9199L80.5498 22.8308L80.636 22.7387L80.7222 22.6428L80.8084 22.5438L80.8946 22.4418L80.9807 22.3361L81.0669 22.2281L81.1531 22.1163L81.2393 22.0015L81.3255 21.8837L81.4117 21.7628L81.4979 21.6397L81.5841 21.5128L81.6703 21.3837L81.7565 21.2515L81.8426 21.1163L81.9288 20.9789L82.015 20.8384L82.1012 20.6956L82.1874 20.5499L82.2736 20.3988L82.3598 20.2477L82.446 20.0967L82.5322 19.9411L82.6184 19.7832L82.7045 19.6239L82.7907 19.4622L82.8769 19.2976L82.9631 19.1314L83.0493 18.9637L83.1355 18.7938L83.2217 18.6216L83.3079 18.4479L83.3941 18.2719L83.4803 18.0952L83.5664 17.9162L83.6526 17.7357L83.7388 17.5536L83.825 17.3701L83.9112 17.1858L83.9974 16.9992L84.0836 16.8119L84.1698 16.6231L84.256 16.4335L84.3422 16.2432L84.4283 16.0514L84.5145 15.8588L84.6007 15.6654L84.6869 15.4713L84.7731 15.2764L84.8593 15.0808L84.9455 14.8844L85.0317 14.6881L85.1179 14.4909L85.2041 14.2938L85.2902 14.0959L85.3764 13.898L85.4626 13.7002L85.5488 13.5023L85.635 13.3044L85.7212 13.1065L85.8074 12.9086L85.8936 12.7107L85.9798 12.5136L86.0659 12.3165L86.1521 12.1193L86.2383 11.9237L86.3245 11.7281L86.4107 11.5332L86.4969 11.3391L86.5831 11.145L86.6693 10.9524L86.7555 10.7613L86.8417 10.5702L86.9278 10.3807L87.014 10.1918L87.1002 10.0045L87.1864 9.81873L87.2726 9.63369L87.3588 9.45015L87.445 9.26813L87.5312 9.08762L87.6174 8.90862L87.7036 8.73112L87.7897 8.5559L87.8759 8.38142L87.9621 8.20998L88.0483 8.03928L88.1345 7.87084L88.2207 7.70469L88.3069 7.54078L88.3931 7.37841L88.4793 7.21903L88.5655 7.06118L88.6516 6.9056L88.7378 6.75454L88.824 6.60348L88.9102 6.45242L88.9964 6.30665L89.0826 6.1639L89.1688 6.02342L89.255 5.88596L89.3412 5.75076L89.4273 5.61783L89.5135 5.48868L89.5997 5.36178L89.6859 5.23792L89.7721 5.11707L89.8583 4.99925L89.9445 4.88445L90.0307 4.77267L90.1169 4.6639L90.2031 4.55891L90.2893 4.4562L90.3754 4.35726L90.4616 4.26134L90.5478 4.16844L90.634 4.07931L90.7202 3.9932L90.8064 3.91088L90.8926 3.83535L90.9788 3.75982L91.065 3.68429L91.1511 3.61556L91.2373 3.54985L91.3235 3.48868L91.4097 3.43052L91.4959 3.37539L91.5821 3.32478L91.6683 3.27719L91.7545 3.23415L91.8407 3.19411L91.9269 3.15786L92.013 3.12462L92.0992 3.09592L92.1854 3.07025L92.2716 3.0491L92.3578 3.03097L92.444 3.01738L92.5302 3.0068L92.6164 3H92.7026H92.7888L92.8749 3.00454L92.9611 3.01284L93.0473 3.02493L93.1335 3.04079L93.2197 3.06043L93.3059 3.08384L93.3921 3.11028L93.4783 3.14124L93.5645 3.17523L93.6507 3.213L93.7368 3.25529L93.823 3.30061L93.9092 3.34894L93.9954 3.40182L94.0816 3.45771L94.1678 3.51738L94.254 3.58082L94.3402 3.64729L94.4264 3.71752L94.5126 3.79305L94.5987 3.86858L94.6849 3.9494L94.7711 4.03324L94.8573 4.12085L94.9435 4.21148L95.0297 4.30589L95.1159 4.40257L95.2021 4.50378L95.2883 4.60725L95.3745 4.71451L95.4606 4.82402L95.5468 4.93731L95.633 5.05363L95.7192 5.17296L95.8054 5.29456L95.8916 5.41994L95.9778 5.54759L96.064 5.67901L96.1502 5.81194L96.2364 5.94864L96.3225 6.08761L96.4087 6.22885L96.4949 6.37311L96.5811 6.52417L96.6673 6.67523L96.7535 6.82629L96.8397 6.97734L96.9259 7.13369L97.0121 7.2923L97.0982 7.45318L97.1844 7.61631L97.2706 7.78097L97.3568 7.94864L97.443 8.11783L97.5292 8.28852L97.6154 8.46148L97.7016 8.63595L97.7878 8.81269L97.874 8.99019L97.9601 9.16994L98.0463 9.35121L98.1325 9.53399L98.2187 9.71828L98.3049 9.90332L98.3911 10.0906L98.4773 10.2787L98.5635 10.4675L98.6497 10.6579L98.7359 10.8489L98.822 11.0408L98.9082 11.2341L98.9944 11.4275L99.0806 11.6224L99.1668 11.8172L99.253 12.0136L99.3392 12.21L99.4254 12.4063L99.5116 12.6035L99.5978 12.8014L99.6839 12.9992L99.7701 13.1971L99.8563 13.395L99.9425 13.5929L100.029 13.7908L100.115 13.9887L100.201 14.1866L100.287 14.3844L100.373 14.5816L100.46 14.7779L100.546 14.9743L100.632 15.1707L100.718 15.3656L100.804 15.5604L100.891 15.7545L100.977 15.9471L101.063 16.1397L101.149 16.3308L101.235 16.5211L101.322 16.71L101.408 16.898L101.494 17.0846L101.58 17.2704L101.666 17.4547L101.753 17.6375L101.839 17.8187L101.925 17.9985L102.011 18.1767L102.097 18.3535L102.183 18.5279L102.27 18.7009L102.356 18.8724L102.442 19.0415L102.528 19.2085L102.614 19.3739L102.701 19.537L102.787 19.6979L102.873 19.8565L102.959 20.0128L103.045 20.1639L103.132 20.315L103.218 20.466L103.304 20.6171L103.39 20.7613L103.476 20.9033L103.562 21.0423L103.649 21.179L103.735 21.3127L103.821 21.4434L103.907 21.5718L103.993 21.6971L104.08 21.8195L104.166 21.9388L104.252 22.0551L104.338 22.1684L104.424 22.2787L104.511 22.386L104.597 22.4894L104.683 22.5906L104.769 22.6881L104.855 22.7817L104.942 22.8731L105.028 22.9607L105.114 23.0446L105.2 23.1254L105.286 23.2009L105.372 23.2764L105.459 23.3467L105.545 23.4139L105.631 23.4773L105.717 23.537L105.803 23.5937L105.89 23.6465L105.976 23.6956L106.062 23.7409L106.148 23.7825L106.234 23.821L106.321 23.8557L106.407 23.886L106.493 23.9131L106.579 23.9366L106.665 23.9562L106.752 23.9728L106.838 23.9849L106.924 23.9932L107.01 23.9985H107.096H107.182L107.269 23.9924L107.355 23.9819L107.441 23.9683L107.527 23.9509L107.613 23.9298L107.7 23.9041L107.786 23.8754L107.872 23.8429L107.958 23.8074L108.044 23.7674L108.131 23.7236L108.217 23.6767L108.303 23.6261L108.389 23.5718L108.475 23.5136L108.561 23.4524L108.648 23.3875L108.734 23.3187L108.82 23.2432L108.906 23.1677L108.992 23.0921L109.079 23.0098L109.165 22.9237L109.251 22.8346L109.337 22.7424L109.423 22.6465L109.51 22.5476L109.596 22.4456L109.682 22.3399L109.768 22.2319L109.854 22.1201L109.941 22.0053L110.027 21.8875L110.113 21.7674L110.199 21.6435L110.285 21.5174L110.371 21.3875L110.458 21.2553L110.544 21.1208L110.63 20.9826L110.716 20.8429L110.802 20.6994L110.889 20.5544L110.975 20.4033L111.061 20.2523L111.147 20.1012L111.233 19.9502L111.32 19.7923L111.406 19.6329L111.492 19.4705L111.578 19.3066L111.664 19.1405L111.751 18.9728L111.837 18.8029L111.923 18.6307L112.009 18.4569L112.095 18.281L112.181 18.1042L112.268 17.9252L112.354 17.7447L112.44 17.5627L112.526 17.3792L112.612 17.1949L112.699 17.0083L112.785 16.821L112.871 16.6329L112.957 16.4434L113.043 16.2523L113.13 16.0604L113.216 15.8678L113.302 15.6745L113.388 15.4804L113.474 15.2855L113.561 15.0899L113.647 14.8943L113.733 14.6971L113.819 14.5008L113.905 14.3029L113.991 14.1057L114.078 13.9079L114.164 13.71L114.25 13.5113L114.336 13.3134L114.422 13.1156L114.509 12.9177L114.595 12.7198L114.681 12.5227L114.767 12.3255L114.853 12.1292L114.94 11.9328L115.026 11.7372L115.112 11.5423L115.198 11.3482L115.284 11.1548L115.37 10.9622L115.457 10.7704L115.543 10.5793L115.629 10.3897L115.715 10.2009L115.801 10.0136L115.888 9.8278L115.974 9.64275L116.06 9.45922L116.146 9.27719L116.232 9.09668L116.319 8.91768L116.405 8.74018L116.491 8.56496L116.577 8.39048L116.663 8.21904L116.75 8.04834L116.836 7.87991L116.922 7.71375L117.008 7.54985L117.094 7.38747L117.18 7.2281L117.267 7.07024L117.353 6.91466L117.439 6.7636L117.525 6.61254L117.611 6.46149L117.698 6.31571L117.784 6.17296L117.87 6.03248L117.956 5.89426L118.042 5.75907L118.129 5.62689L118.215 5.49698L118.301 5.37085L118.387 5.24698L118.473 5.12613L118.56 5.00831L118.646 4.89351L118.732 4.78173L118.818 4.67296L118.904 4.56722L118.99 4.4645L119.077 4.36557L119.163 4.26964L119.249 4.17674L119.335 4.08762L119.421 4.00151L119.508 3.91919L119.594 3.84366L119.68 3.76813L119.766 3.6926L119.852 3.62387L119.939 3.55891L120.025 3.49699L120.111 3.43883L120.197 3.38445L120.283 3.33384L120.37 3.28626L120.456 3.24245L120.542 3.20242L120.628 3.16617L120.714 3.13369L120.8 3.10423L120.887 3.07931L120.973 3.0574L121.059 3.04003L121.145 3.02569L121.231 3.01511L121.318 3.00831H121.404H121.49L121.576 3.01284L121.662 3.02115L121.749 3.03324L121.835 3.0491L121.921 3.06873L122.007 3.0914L122.093 3.11859L122.179 3.1488L122.266 3.18354L122.352 3.2213L122.438 3.26285L122.524 3.30816L122.61 3.35726L122.697 3.40937L122.783 3.46526L122.869 3.52493L122.955 3.58837L123.041 3.65484L123.128 3.72508L123.214 3.80061L123.3 3.87614L123.386 3.95695L123.472 4.04079L123.559 4.1284L123.645 4.21903L123.731 4.31269L123.817 4.41012L123.903 4.51057L123.989 4.6148L124.076 4.7213L124.162 4.83157L124.248 4.94486L124.334 5.06118L124.42 5.17976L124.507 5.30212L124.593 5.42749L124.679 5.55514L124.765 5.68581L124.851 5.81949L124.938 5.95544L125.024 6.09442L125.11 6.23641L125.196 6.38067L125.282 6.5272L125.369 6.67825L125.455 6.82931L125.541 6.98037L125.627 7.13671L125.713 7.29532L125.799 7.45619L125.886 7.61934L125.972 7.78475L126.058 7.95167L126.144 8.12085L126.23 8.29154L126.317 8.46451L126.403 8.63897L126.489 8.81571L126.575 8.99321L126.661 9.17297L126.748 9.35423L126.834 9.53701L126.92 9.7213L127.006 9.90635L127.092 10.0937L127.179 10.281L127.265 10.4705L127.351 10.6601L127.437 10.852L127.523 11.0438L127.609 11.2364L127.696 11.4305L127.782 11.6254L127.868 11.8202L127.954 12.0159L128.04 12.2122L128.127 12.4094L128.213 12.6065L128.299 12.8036L128.385 13.0015L128.471 13.1994L128.558 13.398L128.644 13.5959L128.73 13.7938L128.816 13.9917L128.902 14.1896L128.988 14.3867L129.075 14.5846L129.161 14.781L129.247 14.9773L129.333 15.173L129.419 15.3686L129.506 15.5634L129.592 15.7568L129.678 15.9502L129.764 16.142L129.85 16.3338L129.937 16.5234L130.023 16.713L130.109 16.9011L130.195 17.0876L130.281 17.2734L130.368 17.4577L130.454 17.6405L130.54 17.8218L130.626 18.0015L130.712 18.1798L130.798 18.3557L130.885 18.531L130.971 18.7039L131.057 18.8754L131.143 19.0446L131.229 19.2115L131.316 19.3769L131.402 19.54L131.488 19.7009L131.574 19.8595L131.66 20.0166L131.747 20.1677L131.833 20.3187L131.919 20.4698L132.005 20.6163L132.091 20.7606" stroke="black" stroke-width="1.5" stroke-linecap="round" stroke-linejoin="round"/>
</g>
<path d="M256 15.3641L255.913 15.5476L255.826 15.7289L255.739 15.9094L255.652 16.0884L255.565 16.2659L255.478 16.4418L255.391 16.6156L255.304 16.787L255.217 16.9577L255.13 17.1254L255.043 17.2915L254.956 17.4562L254.87 17.6178L254.783 17.778L254.696 17.935L254.609 18.0906L254.522 18.2417L254.435 18.3928L254.348 18.5438L254.261 18.6896L254.174 18.8323L254.087 18.9728L254 19.1103L253.913 19.2455L253.826 19.3776L253.739 19.5076L253.652 19.6337L253.565 19.7576L253.478 19.8784L253.391 19.9962L253.304 20.111L253.217 20.2228L253.13 20.3308L253.043 20.4366L252.956 20.5385L252.869 20.6382L252.783 20.7334L252.696 20.8263L252.609 20.9154L252.522 21.0015L252.435 21.0838L252.348 21.1594L252.261 21.2349L252.174 21.3104L252.087 21.3792L252 21.4441L251.913 21.506L251.826 21.5635L251.739 21.6178L251.652 21.6692L251.565 21.716L251.478 21.7598L251.391 21.7999L251.304 21.8361L251.217 21.8686L251.13 21.8973L251.043 21.9222L250.956 21.9441L250.869 21.9615L250.782 21.9758L250.695 21.9857L250.609 21.9924L250.522 21.9924L250.435 21.9924L250.348 21.9872L250.261 21.9789L250.174 21.9668L250.087 21.9509L250 21.9313L249.913 21.9079L249.826 21.8814L249.739 21.8505L249.652 21.8165L249.565 21.778L249.478 21.7364L249.391 21.6911L249.304 21.642L249.217 21.5891L249.13 21.5332L249.043 21.4736L248.956 21.4101L248.869 21.3429L248.782 21.2727L248.695 21.1971L248.608 21.1216L248.521 21.0408L248.435 20.957L248.348 20.8693L248.261 20.7787L248.174 20.6843L248.087 20.5869L248 20.4864L247.913 20.3822L247.826 20.2757L247.739 20.1654L247.652 20.0521L247.565 19.9358L247.478 19.8165L247.391 19.6941L247.304 19.5695L247.217 19.4411L247.13 19.3104L247.043 19.1767L246.956 19.04L246.869 18.9011L246.782 18.7598L246.695 18.6156L246.608 18.4683L246.521 18.3172L246.434 18.1662L246.348 18.0151L246.261 17.858L246.174 17.6994L246.087 17.5385L246 17.3754L245.913 17.2107L245.826 17.0431L245.739 16.8739L245.652 16.7032L245.565 16.5302L245.478 16.3557L245.391 16.179L245.304 16.0008L245.217 15.821L245.13 15.6397L245.043 15.457L244.956 15.2734L244.869 15.0876L244.782 14.9011L244.695 14.713L244.608 14.5234L244.521 14.3338L244.434 14.142L244.347 13.9502L244.26 13.7576L244.174 13.5634L244.087 13.3686L244 13.1737L243.913 12.9781L243.826 12.7817L243.739 12.5846L243.652 12.3875L243.565 12.1896L243.478 11.9925L243.391 11.7938L243.304 11.5959L243.217 11.398L243.13 11.2002L243.043 11.0023L242.956 10.8044L242.869 10.6065L242.782 10.4094L242.695 10.213L242.608 10.0166L242.521 9.82025L242.434 9.62538L242.347 9.43052L242.26 9.23716L242.173 9.04381L242.086 8.85197L242 8.66012L241.913 8.47054L241.826 8.28097L241.739 8.0929L241.652 7.90635L241.565 7.72054L241.478 7.53701L241.391 7.35423L241.304 7.17296L241.217 6.9932L241.13 6.81495L241.043 6.63822L240.956 6.46374L240.869 6.29079L240.782 6.11933L240.695 5.95015L240.608 5.78323L240.521 5.61783L240.434 5.45544L240.347 5.29381L240.26 5.1352L240.173 4.97885L240.086 4.82779L239.999 4.67674L239.913 4.52568L239.826 4.3784L239.739 4.23414L239.652 4.09215L239.565 3.95317L239.478 3.81722L239.391 3.68353L239.304 3.55211L239.217 3.42447L239.13 3.29909L239.043 3.17674L238.956 3.0574L238.869 2.94109L238.782 2.82779L238.695 2.71828L238.608 2.61103L238.521 2.5068L238.434 2.40634L238.347 2.30891L238.26 2.2145L238.173 2.12387L238.086 2.03625L237.999 1.95241L237.912 1.8716L237.825 1.79607L237.739 1.72054L237.652 1.64954L237.565 1.58308L237.478 1.51964L237.391 1.45997L237.304 1.40332L237.217 1.35121L237.13 1.30211L237.043 1.2568L236.956 1.2145L236.869 1.17673L236.782 1.14199L236.695 1.11178L236.608 1.08459L236.521 1.06118L236.434 1.04154L236.347 1.02568L236.26 1.01359L236.173 1.00529L236.086 0.999999L235.999 0.999999L235.912 0.999998L235.825 1.00604L235.738 1.01661L235.652 1.03021L235.565 1.04834L235.478 1.06948L235.391 1.09517L235.304 1.12387L235.217 1.15634L235.13 1.1926L235.043 1.23263L234.956 1.27568L234.869 1.32326L234.782 1.37387L234.695 1.42824L234.608 1.4864L234.521 1.54758L234.434 1.61254L234.347 1.68127L234.26 1.7568L234.173 1.83233L234.086 1.90786L233.999 1.99018L233.912 2.07628L233.825 2.16541L233.738 2.25755L233.651 2.35347L233.564 2.45241L233.478 2.55513L233.391 2.66012L233.304 2.76888L233.217 2.88067L233.13 2.99547L233.043 3.11329L232.956 3.23414L232.869 3.35725L232.782 3.48414L232.695 3.61329L232.608 3.74547L232.521 3.88066L232.434 4.01813L232.347 4.15861L232.26 4.30211L232.173 4.44713L232.086 4.59819L231.999 4.74925L231.912 4.9003L231.825 5.05589L231.738 5.21299L231.651 5.37311L231.564 5.53474L231.477 5.69939L231.39 5.86556L231.304 6.03323L231.217 6.20317L231.13 6.37538L231.043 6.54909L230.956 6.72507L230.869 6.90181L230.782 7.08082L230.695 7.26133L230.608 7.44335L230.521 7.62689L230.434 7.81193L230.347 7.99774L230.26 8.18505L230.173 8.37387L230.086 8.56345L229.999 8.75453L229.912 8.94562L229.825 9.13822L229.738 9.33157L229.651 9.52644L229.564 9.7213L229.477 9.91691L229.39 10.1125L229.303 10.3089L229.217 10.506L229.13 10.7039L229.043 10.9011L228.956 11.0989L228.869 11.2968L228.782 11.4955L228.695 11.6934L228.608 11.8912L228.521 12.0891L228.434 12.287L228.347 12.4841L228.26 12.6813L228.173 12.8776L228.086 13.074L227.999 13.2696L227.912 13.4645L227.825 13.6586L227.738 13.852L227.651 14.0446L227.564 14.2364L227.477 14.4267L227.39 14.6171L227.303 14.8051L227.216 14.9925L227.129 15.179L227.043 15.3633L226.956 15.5468L226.869 15.7289L226.782 15.9094L226.695 16.0884L226.608 16.2659L226.521 16.4418L226.434 16.6156L226.347 16.787L226.26 16.9577L226.173 17.1254L226.086 17.2923L225.999 17.4562L225.912 17.6178L225.825 17.778L225.738 17.9358L225.651 18.0906L225.564 18.2417L225.477 18.3928L225.39 18.5438L225.303 18.6896L225.216 18.8323L225.129 18.9728L225.042 19.111L224.955 19.2455L224.869 19.3784L224.782 19.5076L224.695 19.6344L224.608 19.7583L224.521 19.8784L224.434 19.9962L224.347 20.111L224.26 20.2228L224.173 20.3316L224.086 20.4373L223.999 20.5393L223.912 20.6382L223.825 20.7341L223.738 20.827L223.651 20.9162L223.564 21.0023L223.477 21.0846L223.39 21.1601L223.303 21.2357L223.216 21.3112L223.129 21.3799L223.042 21.4449L222.955 21.5068L222.868 21.565L222.782 21.6193L222.695 21.6699L222.608 21.7175L222.521 21.7606L222.434 21.8006L222.347 21.8369L222.26 21.8693L222.173 21.8988L222.086 21.9237L221.999 21.9456L221.912 21.963L221.825 21.9773L221.738 21.9872L221.651 21.994L221.564 21.994L221.477 21.994L221.39 21.9887L221.303 21.9804L221.216 21.9683L221.129 21.9524L221.042 21.9335L220.955 21.9101L220.868 21.8829L220.781 21.852L220.694 21.818L220.608 21.7802L220.521 21.7379L220.434 21.6926L220.347 21.6443L220.26 21.5914L220.173 21.5355L220.086 21.4751L219.999 21.4124L219.912 21.3452L219.825 21.2749L219.738 21.1994L219.651 21.1239L219.564 21.0431L219.477 20.9592L219.39 20.8716L219.303 20.781L219.216 20.6866L219.129 20.5891L219.042 20.4887L218.955 20.3852L218.868 20.2779L218.781 20.1677L218.694 20.0544L218.607 19.9381L218.52 19.8187L218.434 19.6971L218.347 19.5718L218.26 19.4441L218.173 19.3127L218.086 19.179L217.999 19.0431L217.912 18.9041L217.825 18.7621L217.738 18.6178L217.651 18.4713L217.564 18.3202L217.477 18.1692L217.39 18.0181L217.303 17.8618L217.216 17.7032L217.129 17.5423L217.042 17.3792L216.955 17.2145L216.868 17.0468L216.781 16.8776L216.694 16.7069L216.607 16.534L216.52 16.3595L216.433 16.1828L216.347 16.0045L216.26 15.8248L216.173 15.6435L216.086 15.4615L215.999 15.2772L215.912 15.0914L215.825 14.9048L215.738 14.7168L215.651 14.5279L215.564 14.3376L215.477 14.1465L215.39 13.9539L215.303 13.7613L215.216 13.5672L215.129 13.3731L215.042 13.1775L214.955 12.9819L214.868 12.7855L214.781 12.5884L214.694 12.3912L214.607 12.1941L214.52 11.9962L214.433 11.7983L214.346 11.6005L214.259 11.4018L214.173 11.2039L214.086 11.006L213.999 10.8082L213.912 10.611L213.825 10.4139L213.738 10.2168L213.651 10.0204L213.564 9.82477L213.477 9.62915L213.39 9.43504L213.303 9.24093L213.216 9.04758L213.129 8.85574L213.042 8.66465L212.955 8.47432L212.868 8.28474L212.781 8.09743L212.694 7.91012L212.607 7.72507L212.52 7.54078L212.433 7.358L212.346 7.17673L212.259 6.99698L212.172 6.81873L212.086 6.64199L211.999 6.46752L211.912 6.29456L211.825 6.12311L211.738 5.95392L211.651 5.78701L211.564 5.6216L211.477 5.45845L211.39 5.29758L211.303 5.13897L211.216 4.98262L211.129 4.83157L211.042 4.68051L210.955 4.52945L210.868 4.38293L210.781 4.23867L210.694 4.09667L210.607 3.9577L210.52 3.82099L210.433 3.68731L210.346 3.55664L210.259 3.42825L210.172 3.30362L210.085 3.18127L209.998 3.06193L209.912 2.94562L209.825 2.83232L209.738 2.72205L209.651 2.6148L209.564 2.51057L209.477 2.41012L209.39 2.31269L209.303 2.21828L209.216 2.12764L209.129 2.04003L209.042 1.95619L208.955 1.87537L208.868 1.79984L208.781 1.72431L208.694 1.65407L208.607 1.58761L208.52 1.52417L208.433 1.46374L208.346 1.40785L208.259 1.35498L208.172 1.30589L208.085 1.26057L207.998 1.21903L207.911 1.18051L207.824 1.14652L207.738 1.11555L207.651 1.08836L207.564 1.06495L207.477 1.04531L207.39 1.02945L207.303 1.01737L207.216 1.00906L207.129 1.00377L207.042 1.00377L206.955 1.00377L206.868 1.00982L206.781 1.02039L206.694 1.03399L206.607 1.05211L206.52 1.07326L206.433 1.09818L206.346 1.12688L206.259 1.15936L206.172 1.19561L206.085 1.23565L205.998 1.27945L205.911 1.32628L205.824 1.37688L205.737 1.43127L205.651 1.48942L205.564 1.5506L205.477 1.61631L205.39 1.68429L205.303 1.75982L205.216 1.83534L205.129 1.91087L205.042 1.9932L204.955 2.0793L204.868 2.16842L204.781 2.26057L204.694 2.35649L204.607 2.45544L204.52 2.5574L204.433 2.66314L204.346 2.7719L204.259 2.88368L204.172 2.99773L204.085 3.11556L203.998 3.2364L203.911 3.36027L203.824 3.4864L203.737 3.61631L203.65 3.74849L203.563 3.88368L203.477 4.02115L203.39 4.16163L203.303 4.30438L203.216 4.45015L203.129 4.60121L203.042 4.75226L202.955 4.90332L202.868 5.05891L202.781 5.21601L202.694 5.37613L202.607 5.53776L202.52 5.70242L202.433 5.86858L202.346 6.03625L202.259 6.20619L202.172 6.3784L202.085 6.55211L201.998 6.72809L201.911 6.90483L201.824 7.08383L201.737 7.26435L201.65 7.44637L201.563 7.62991L201.476 7.81495L201.389 8.00075L201.303 8.18806L201.216 8.37689L201.129 8.56646L201.042 8.7568L200.955 8.94864L200.868 9.14124L200.781 9.33459L200.694 9.5287L200.607 9.72356L200.52 9.91918L200.433 10.1156L200.346 10.3119L200.259 10.5091L200.172 10.7062L200.085 10.9041L199.998 11.102L199.911 11.2998L199.824 11.4977L199.737 11.6964L199.65 11.8943L199.563 12.0921L199.476 12.2893L199.389 12.4872L199.302 12.6843L199.216 12.8807L199.129 13.077L199.042 13.2719L198.955 13.4675L198.868 13.6616L198.781 13.855L198.694 14.0476L198.607 14.2394L198.52 14.4298L198.433 14.6193L198.346 14.8082L198.259 14.9955L198.172 15.182L198.085 15.3663L197.998 15.5499L197.911 15.7319L197.824 15.9124L197.737 16.0914L197.65 16.2689L197.563 16.4449L197.476 16.6186L197.389 16.79L197.302 16.9607L197.215 17.1292L197.128 17.2953L197.042 17.4592L196.955 17.6208L196.868 17.781L196.781 17.9388L196.694 18.0899L196.607 18.2409L196.52 18.392L196.433 18.5431L196.346 18.6888L196.259 18.8323L196.172 18.9728L196.085 19.1103L195.998 19.2455L195.911 19.3776L195.824 19.5076L195.737 19.6337L195.65 19.7576L195.563 19.8784L195.476 19.9962L195.389 20.111L195.302 20.2228L195.215 20.3316L195.128 20.4373L195.041 20.5393L194.954 20.6382L194.868 20.7341L194.781 20.827L194.694 20.9162L194.607 21.0023L194.52 21.0846L194.433 21.1601L194.346 21.2357L194.259 21.3112L194.172 21.3799L194.085 21.4456L193.998 21.5068L193.911 21.565L193.824 21.6193L193.737 21.6707L193.65 21.7175L193.563 21.7613L193.476 21.8014L193.389 21.8376L193.302 21.8701L193.215 21.8988L193.128 21.9245L193.041 21.9456L192.954 21.9637L192.867 21.9781L192.781 21.9879L192.694 21.9947L192.607 21.9947L192.52 21.9947L192.433 21.9902L192.346 21.9819L192.259 21.9698L192.172 21.9539L192.085 21.9343L191.998 21.9109L191.911 21.8837L191.824 21.8535L191.737 21.8187L191.65 21.781L191.563 21.7394L191.476 21.6941L191.389 21.645L191.302 21.5929L191.215 21.5363L191.128 21.4766L191.041 21.4131L190.954 21.3467L190.867 21.2764L190.78 21.2009L190.693 21.1254L190.607 21.0446L190.52 20.9607L190.433 20.8731L190.346 20.7825L190.259 20.6881L190.172 20.5906L190.085 20.4902L189.998 20.3867L189.911 20.2795L189.824 20.1692L189.737 20.0566L189.65 19.9403L189.563 19.821L189.476 19.6986L189.389 19.5733L189.302 19.4456L189.215 19.315L189.128 19.1813L189.041 19.0446L188.954 18.9056L188.867 18.7643L188.78 18.6201L188.693 18.4736L188.606 18.3225L188.52 18.1714L188.433 18.0204L188.346 17.8641L188.259 17.7054L188.172 17.5446L188.085 17.3814L187.998 17.2168L187.911 17.0491L187.824 16.8799L187.737 16.7092L187.65 16.5363L187.563 16.3618L187.476 16.185L187.389 16.0068L187.302 15.8278L187.215 15.6465L187.128 15.4637L187.041 15.2795L186.954 15.0937L186.867 14.9071L186.78 14.719L186.693 14.5302L186.606 14.3399L186.519 14.1488L186.432 13.957L186.346 13.7636L186.259 13.5695L186.172 13.3754L186.085 13.1798L185.998 12.9841L185.911 12.7878L185.824 12.5914L185.737 12.3935L185.65 12.1964L185.563 11.9985L185.476 11.8006L185.389 11.6027L185.302 11.4048L185.215 11.2062L185.128 11.0083L185.041 10.8104L184.954 10.6133L184.867 10.4162L184.78 10.219L184.693 10.0227L184.606 9.82704L184.519 9.63142L184.432 9.43731L184.345 9.2432L184.258 9.0506L184.172 8.858L184.085 8.66692L183.998 8.47658L183.911 8.28776L183.824 8.09969L183.737 7.91239L183.65 7.72734L183.563 7.54305L183.476 7.36027L183.389 7.179L183.302 6.99924L183.215 6.82099L183.128 6.64425L183.041 6.46978L182.954 6.29682L182.867 6.12537L182.78 5.95619L182.693 5.78927L182.606 5.62386L182.519 5.46072L182.432 5.29984L182.345 5.14124L182.258 4.98489L182.171 4.83383L182.085 4.68278L181.998 4.53172L181.911 4.38519L181.824 4.24018L181.737 4.09894L181.65 3.95921L181.563 3.82326L181.476 3.68957L181.389 3.55815L181.302 3.43051L181.215 3.30513L181.128 3.18278L181.041 3.06344L180.954 2.94712L180.867 2.83383L180.78 2.72356L180.693 2.61631L180.606 2.51283L180.519 2.41163L180.432 2.3142L180.345 2.21979L180.258 2.12915L180.171 2.04153L180.084 1.9577L179.997 1.87688L179.911 1.80135L179.824 1.72582L179.737 1.65558L179.65 1.58836L179.563 1.52492L179.476 1.46525L179.389 1.40936L179.302 1.35649L179.215 1.3074L179.128 1.26208L179.041 1.21978L178.954 1.18202L178.867 1.14728L178.78 1.11631L178.693 1.08912L178.606 1.0657L178.519 1.04607L178.432 1.03021L178.345 1.01812L178.258 1.00981L178.171 1.00453L178.084 1.00453L177.997 1.00453L177.91 1.01057L177.824 1.02114L177.737 1.03474L177.65 1.05211L177.563 1.07401L177.476 1.09894L177.389 1.12764L177.302 1.16011L177.215 1.19637L177.128 1.2364L177.041 1.27945L176.954 1.32628L176.867 1.37764L176.78 1.43202L176.693 1.48942L176.606 1.55135L176.519 1.61631L176.432 1.68504L176.345 1.76057L176.258 1.8361L176.171 1.91163L176.084 1.99395L175.997 2.08005L175.91 2.16918L175.823 2.26132L175.736 2.35724L175.65 2.45619L175.563 2.55815L175.476 2.66389L175.389 2.7719L175.302 2.88368L175.215 2.99849L175.128 3.11631L175.041 3.23715L174.954 3.36027L174.867 3.48715L174.78 3.61631L174.693 3.74849L174.606 3.88368L174.519 4.02114L174.432 4.16163L174.345 4.30438L174.258 4.45015L174.171 4.6012L174.084 4.75226L173.997 4.90332L173.91 5.05891L173.823 5.21676L173.736 5.37613L173.649 5.53776L173.562 5.70241L173.476 5.86858L173.389 6.03625L173.302 6.20619L173.215 6.3784L173.128 6.55211L173.041 6.72809L172.954 6.90483L172.867 7.08383L172.78 7.26435L172.693 7.44637L172.606 7.6299L172.519 7.81419L172.432 8.00075L172.345 8.18806L172.258 8.37688L172.171 8.56646L172.084 8.75679L171.997 8.94864L171.91 9.14123L171.823 9.33459L171.736 9.5287L171.649 9.72356L171.562 9.91918L171.475 10.1156L171.389 10.3119L171.302 10.5091L171.215 10.7062L171.128 10.9041L171.041 11.102L170.954 11.2998L170.867 11.4977L170.78 11.6956L170.693 11.8935L170.606 12.0914L170.519 12.2893L170.432 12.4864L170.345 12.6835L170.258 12.8807L170.171 13.0763L170.084 13.2719L169.997 13.4668L169.91 13.6609L169.823 13.855L169.736 14.0476L169.649 14.2387L169.562 14.4298L169.475 14.6193L169.388 14.8082L169.301 14.9955L169.215 15.1813L169.128 15.3663L169.041 15.5498L168.954 15.7319L168.867 15.9124L168.78 16.0914L168.693 16.2689L168.606 16.4441L168.519 16.6186L168.432 16.79L168.345 16.9607L168.258 17.1292L168.171 17.2953L168.084 17.4592L167.997 17.6216L167.91 17.781L167.823 17.9388L167.736 18.0944L167.649 18.2455L167.562 18.3965L167.475 18.5476L167.388 18.6934L167.301 18.8361L167.214 18.9766L167.127 19.114L167.041 19.2492L166.954 19.3822L166.867 19.5113L166.78 19.6382L166.693 19.7621L166.606 19.8829L166.519 20.0008L166.432 20.1156L166.345 20.2273L166.258 20.3361L166.171 20.4411L166.084 20.5438L165.997 20.6427L165.91 20.7387L165.823 20.8316L165.736 20.9207L165.649 21.0068L165.562 21.0891L165.475 21.1647L165.388 21.2402L165.301 21.3157L165.214 21.3844L165.127 21.4502L165.04 21.5113L164.954 21.5695L164.867 21.6246L164.78 21.6752L164.693 21.7228L164.606 21.7659L164.519 21.8059L164.432 21.8421L164.345 21.8754L164.258 21.9041L164.171 21.9298L164.084 21.9509L163.997 21.969L163.91 21.9826L163.823 21.9932L163.736 22L163.649 22L163.562 22L163.475 21.9955L163.388 21.9872L163.301 21.9751L163.214 21.9592L163.127 21.9396L163.04 21.9162L162.953 21.8897L162.866 21.8588L162.78 21.8248L162.693 21.787L162.606 21.7447L162.519 21.6994L162.432 21.6511L162.345 21.5982L162.258 21.5423L162.171 21.4826L162.084 21.4192L161.997 21.3527L161.91 21.2825L161.823 21.207L161.736 21.1314L161.649 21.0506L161.562 20.9668L161.475 20.8791L161.388 20.7885L161.301 20.6941L161.214 20.5974L161.127 20.4962L161.04 20.3927L160.953 20.2855L160.866 20.176L160.779 20.0627L160.692 19.9464L160.606 19.827L160.519 19.7054L160.432 19.5801L160.345 19.4524L160.258 19.321L160.171 19.1881L160.084 19.0514L159.997 18.9124L159.91 18.7711L159.823 18.6269L159.736 18.4758L159.649 18.3248L159.562 18.1737L159.475 18.0227L159.388 17.8663L159.301 17.7077L159.214 17.5468L159.127 17.3837L159.04 17.219L158.953 17.0514L158.866 16.8822L158.779 16.7115L158.692 16.5385L158.605 16.364L158.519 16.1873L158.432 16.0098L158.345 15.8301L158.258 15.6488L158.171 15.466L158.084 15.2817L157.997 15.0967L157.91 14.9094L157.823 14.7213L157.736 14.5325L157.649 14.3421L157.562 14.1511L157.475 13.9592L157.388 13.7659L157.301 13.5725L157.214 13.3776L157.127 13.1828L157.04 12.9864L156.953 12.79L156.866 12.5937L156.779 12.3965L156.692 12.1986L156.605 12.0008L156.518 11.8029L156.431 11.605L156.345 11.4071L156.258 11.2092L156.171 11.0113L156.084 10.8134L155.997 10.6155L155.91 10.4184L155.823 10.222L155.736 10.0257L155.649 9.8293L155.562 9.63444L155.475 9.43957L155.388 9.24546L155.301 9.05286L155.214 8.86027L155.127 8.66918L155.04 8.47885L154.953 8.29003L154.866 8.10196L154.779 7.9154L154.692 7.7296L154.605 7.54531L154.518 7.36253L154.431 7.18126L154.344 7.00151L154.258 6.82326L154.171 6.64652L154.084 6.47205L153.997 6.29909L153.91 6.12764L153.823 5.95846L153.736 5.79153L153.649 5.62613L153.562 5.46298L153.475 5.30211L153.388 5.1435L153.301 4.98715L153.214 4.83609L153.127 4.68504L153.04 4.53398L152.953 4.38292L152.866 4.23866L152.779 4.09667L152.692 3.9577L152.605 3.82099L152.518 3.68731L152.431 3.55664L152.344 3.42824L152.257 3.30286L152.17 3.18051L152.084 3.06117L151.997 2.94486L151.91 2.83156L151.823 2.72129L151.736 2.61404L151.649 2.51057L151.562 2.40936L151.475 2.31193L151.388 2.21827L151.301 2.12688L151.214 2.03927L151.127 1.95543L151.04 1.87462L150.953 1.79909L150.866 1.72356L150.779 1.65332L150.692 1.5861L150.605 1.52265L150.518 1.46298L150.431 1.40634L150.344 1.35347L150.257 1.30437L150.17 1.25906L150.083 1.21752L149.996 1.17899L149.91 1.14425L149.823 1.11404L149.736 1.08685L149.649 1.06343L149.562 1.0438L149.475 1.02718L149.388 1.0151L149.301 1.00679L149.214 1.0015L149.127 1.0015L149.04 1.0015L148.953 1.00754L148.866 1.01812L148.779 1.03171L148.692 1.04909L148.605 1.07023L148.518 1.09591L148.431 1.12462L148.344 1.15709L148.257 1.19259L148.17 1.23262L148.083 1.27643L147.996 1.32325L147.909 1.37386L147.823 1.42824L147.736 1.4864L147.649 1.54758L147.562 1.61253L147.475 1.68126L147.388 1.75679L147.301 1.83232L147.214 1.90785L147.127 1.99017L147.04 2.07628L146.953 2.1654L146.866 2.25755L146.779 2.35347L146.692 2.45241L146.605 2.55437L146.518 2.66011L146.431 2.76812L146.344 2.8799L146.257 2.9947L146.17 3.11253L146.083 3.23262L145.996 3.35649L145.909 3.48262L145.822 3.61253L145.735 3.7447L145.649 3.87915L145.562 4.01737L145.475 4.15709L145.388 4.3006L145.301 4.44561L145.214 4.59667L145.127 4.74773L145.04 4.89878L144.953 5.04984L144.866 5.2077L144.779 5.36706L144.692 5.52945L144.605 5.69335L144.518 5.85951L144.431 6.02718L144.344 6.19712L144.257 6.36933L144.17 6.54305L144.083 6.71902L143.996 6.89576L143.909 7.07477L143.822 7.25528L143.735 7.4373L143.648 7.62084L143.561 7.80513L143.475 7.99169L143.388 8.179L143.301 8.36706L143.214 8.55664L143.127 8.74773L143.04 8.93957L142.953 9.13217L142.866 9.32552L142.779 9.51963L142.692 9.7145L142.605 9.91011L142.518 10.1057L142.431 10.3029L142.344 10.4992L142.257 10.6971L142.17 10.8943L142.083 11.0921L141.996 11.29L141.909 11.4887L141.822 11.6866L141.735 11.8844L141.648 12.0823L141.561 12.2802L141.474 12.4773L141.388 12.6745L141.301 12.8708L141.214 13.0672L141.127 13.2628L141.04 13.4577L140.953 13.6518L140.866 13.8452L140.779 14.0378L140.692 14.2296L140.605 14.4207L140.518 14.6103L140.431 14.7991L140.344 14.9864L140.257 15.1722L140.17 15.3572L140.083 15.5408L139.996 15.7228L139.909 15.9033L139.822 16.0823L139.735 16.2598L139.648 16.435L139.561 16.6095L139.474 16.781L139.387 16.9517L139.3 17.1201L139.214 17.2863L139.127 17.4502L139.04 17.6125L138.953 17.7719L138.866 17.9298L138.779 18.0853L138.692 18.2364L138.605 18.3875L138.518 18.5385L138.431 18.6843L138.344 18.827L138.257 18.9675L138.17 19.1057L138.083 19.2409L137.996 19.3731L137.909 19.503L137.822 19.6292L137.735 19.753L137.648 19.8739L137.561 19.9917L137.474 20.1065L137.387 20.2183L137.3 20.327L137.213 20.4328L137.126 20.5355L137.04 20.6344L136.953 20.7304L136.866 20.8233L136.779 20.9124L136.692 20.9985L136.605 21.0808L136.518 21.1563L136.431 21.2319L136.344 21.3074L136.257 21.3761L136.17 21.4411L136.083 21.503L135.996 21.5612L135.909 21.6156L135.822 21.6662L135.735 21.7137L135.648 21.7575L135.561 21.7976L135.474 21.8338L135.387 21.8663L135.3 21.8958L135.213 21.9207L135.126 21.9426L135.039 21.96L134.953 21.9743L134.866 21.9849L134.779 21.9917L134.692 21.9917L134.605 21.9917L134.518 21.9872L134.431 21.9789L134.344 21.9668L134.257 21.9509L134.17 21.9313L134.083 21.9086L133.996 21.8814L133.909 21.8512L133.822 21.8165L133.735 21.7787L133.648 21.7372L133.561 21.6918L133.474 21.6427L133.387 21.5906L133.3 21.5347L133.213 21.4751L133.126 21.4116L133.039 21.3452L132.952 21.2749L132.865 21.1994L132.779 21.1239L132.692 21.043L132.605 20.9592L132.518 20.8716L132.431 20.781L132.344 20.6873L132.257 20.5899L132.17 20.4894L132.083 20.3852L131.996 20.2787L131.909 20.1684L131.822 20.0551L131.735 19.9388L131.648 19.8202L131.561 19.6979L131.474 19.5725L131.387 19.4449L131.3 19.3142L131.213 19.1805L131.126 19.0446L131.039 18.9056L130.952 18.7636L130.865 18.6193L130.778 18.4728L130.692 18.3217L130.605 18.1707L130.518 18.0196L130.431 17.8633L130.344 17.7047L130.257 17.5438L130.17 17.3807L130.083 17.2152L129.996 17.0483L129.909 16.8791L129.822 16.7085L129.735 16.5355L129.648 16.361L129.561 16.1843L129.474 16.0068L129.387 15.827L129.3 15.6458L129.213 15.463L129.126 15.2787L129.039 15.0936L128.952 14.9063L128.865 14.719L128.778 14.5295L128.691 14.3399L128.604 14.148L128.518 13.9562L128.431 13.7636L128.344 13.5695L128.257 13.3746L128.17 13.1798L128.083 12.9841L127.996 12.7878L127.909 12.5906L127.822 12.3935L127.735 12.1964L127.648 11.9985L127.561 11.8006L127.474 11.602L127.387 11.4041L127.3 11.2062L127.213 11.0083L127.126 10.8104L127.039 10.6133L126.952 10.4154L126.865 10.219L126.778 10.0226L126.691 9.82703L126.604 9.63141L126.517 9.43655L126.43 9.2432L126.344 9.04984L126.257 8.858L126.17 8.66616L126.083 8.47658L125.996 8.287L125.909 8.09893L125.822 7.91238L125.735 7.72658L125.648 7.54229L125.561 7.35951L125.474 7.17824L125.387 6.99848L125.3 6.82023L125.213 6.64425L125.126 6.46902L125.039 6.29606L124.952 6.12461L124.865 5.95543L124.778 5.78851L124.691 5.62311L124.604 5.45996L124.517 5.29908L124.43 5.14048L124.343 4.98337L124.257 4.83232L124.17 4.68126L124.083 4.5302L123.996 4.38368L123.909 4.23942" stroke="black" stroke-opacity="0.85" stroke-width="1.3" stroke-linecap="round" stroke-linejoin="round"/>
<defs>
<clipPath id="clip0_425_4578">
<rect width="151.963" height="24.9674" fill="white" transform="matrix(1 0 0 -1 0 27.9675)"/>
</clipPath>
</defs>
</svg>
