<svg width="354" height="268" viewBox="0 0 354 268" fill="none" xmlns="http://www.w3.org/2000/svg">
<path d="M343.175 95.3049C338.31 89.4587 331.414 100.807 323.794 114.539C319.618 122.065 310.371 128.479 306.333 137.933C302.407 147.137 303.828 159.027 300.685 167.422C296.044 179.803 292.23 179.7 288.545 186.114C286.918 182.412 285.488 177.986 285.747 173.431C286.082 167.646 295.519 162.101 295.734 154.757C295.898 148.506 286.875 140.757 286.918 133.869C286.918 127.317 296.079 121.359 295.958 114.643C295.838 107.927 286.487 100.643 286.143 94.1253C285.79 87.1082 294.443 80.4613 293.814 74.2019C293.057 66.6682 283.052 60.5121 281.812 54.8639C279.522 44.4545 280.193 32.7966 275.862 32.9947C271.781 33.1841 274.14 45.8321 272.272 56.7323C271.248 62.7593 261.424 68.1663 260.907 76.1994C260.476 82.9324 269.362 91.4045 269.216 98.9555C269.078 106.007 259.891 112.421 259.943 119.731C259.994 127.041 269.284 134.979 269.465 142.117C269.663 149.659 260.752 156.461 261.028 163.306C261.174 166.802 263.051 170.246 265.152 173.543C262.526 170.013 259.125 166.38 257.816 162.204C255.905 156.229 258.875 148.6 256.464 142.78C253.881 136.469 246.175 132.732 243.05 127.79C238.874 121.204 237.161 112.421 232.176 110.82C224.496 108.34 225.658 117.983 228.637 130.003C230.213 136.374 227.681 145.311 230.987 153.456C233.82 160.448 242.111 165.915 245.624 173.113C249.137 180.311 248.147 189.816 251.824 196.308C254.889 201.707 259.917 205.409 264.024 208.758L264.265 209.421C264.398 209.563 264.562 209.673 264.744 209.743C264.926 209.813 265.121 209.841 265.315 209.826C266.7 210.945 267.961 212.21 269.078 213.597C271.161 216.352 268.837 221.733 270.171 223.068C273.839 226.761 274.029 223.739 273.805 220.545C273.676 218.694 277.955 215.715 277.696 212.951C277.886 212.637 278.165 212.385 278.497 212.228C279.944 211.901 286.556 217.497 287.451 215.672C288.114 214.346 280.099 208.784 280.564 207.062C280.891 205.848 286.513 206.261 289.173 205.727C289.252 205.782 289.322 205.849 289.38 205.925C290.164 206.941 290.56 211.453 292.824 210.618C295.838 209.499 299.901 195.507 308.374 182.11C313.479 174.034 323.734 167.706 328.676 158.097C333.618 148.488 333.119 135.901 336.304 126.886C341.221 112.947 347.626 100.677 343.175 95.3049ZM271.187 185.365C271.549 192.193 269.233 194.836 267.02 197.221C265.66 189.472 270.972 189.472 268.337 179.312C268.087 178.411 267.729 177.544 267.27 176.729C269.284 179.811 271.05 182.722 271.187 185.365ZM274.571 208.422C274.703 208.628 274.792 208.859 274.832 209.1C274.872 209.341 274.862 209.588 274.803 209.826C273.942 209.335 273.081 208.861 272.289 208.371C273.409 208.147 274.278 208.078 274.571 208.422Z" fill="#04A4A8"/>
<path opacity="0.5" d="M343.175 95.3049C338.31 89.4587 331.414 100.807 323.794 114.539C319.618 122.065 310.371 128.479 306.333 137.933C302.407 147.137 303.828 159.027 300.685 167.422C296.044 179.803 292.23 179.7 288.545 186.114C286.918 182.412 285.488 177.986 285.747 173.431C286.082 167.646 295.519 162.101 295.734 154.757C295.898 148.506 286.875 140.757 286.918 133.869C286.918 127.317 296.079 121.359 295.958 114.643C295.838 107.927 286.487 100.643 286.143 94.1253C285.79 87.1082 294.443 80.4613 293.814 74.2019C293.057 66.6682 283.052 60.5121 281.812 54.8639C279.522 44.4545 280.193 32.7966 275.862 32.9947C271.781 33.1841 274.14 45.8321 272.272 56.7323C271.248 62.7593 261.424 68.1663 260.907 76.1994C260.476 82.9324 269.362 91.4045 269.216 98.9555C269.078 106.007 259.891 112.421 259.943 119.731C259.994 127.041 269.284 134.979 269.465 142.117C269.663 149.659 260.752 156.461 261.028 163.306C261.174 166.802 263.051 170.246 265.152 173.543C262.526 170.013 259.125 166.38 257.816 162.204C255.905 156.229 258.875 148.6 256.464 142.78C253.881 136.469 246.175 132.732 243.05 127.79C238.874 121.204 237.161 112.421 232.176 110.82C224.496 108.34 225.658 117.983 228.637 130.003C230.213 136.374 227.681 145.311 230.987 153.456C233.82 160.448 242.111 165.915 245.624 173.113C249.137 180.311 248.147 189.816 251.824 196.308C254.889 201.707 259.917 205.409 264.024 208.758L264.265 209.421C264.398 209.563 264.562 209.673 264.744 209.743C264.926 209.813 265.121 209.841 265.315 209.826C266.7 210.945 267.961 212.21 269.078 213.597C271.161 216.352 268.837 221.733 270.171 223.068C273.839 226.761 274.029 223.739 273.805 220.545C273.676 218.694 277.955 215.715 277.696 212.951C277.886 212.637 278.165 212.385 278.497 212.228C279.944 211.901 286.556 217.497 287.451 215.672C288.114 214.346 280.099 208.784 280.564 207.062C280.891 205.848 286.513 206.261 289.173 205.727C289.252 205.782 289.322 205.849 289.38 205.925C290.164 206.941 290.56 211.453 292.824 210.618C295.838 209.499 299.901 195.507 308.374 182.11C313.479 174.034 323.734 167.706 328.676 158.097C333.618 148.488 333.119 135.901 336.304 126.886C341.221 112.947 347.626 100.677 343.175 95.3049ZM271.187 185.365C271.549 192.193 269.233 194.836 267.02 197.221C265.66 189.472 270.972 189.472 268.337 179.312C268.087 178.411 267.729 177.544 267.27 176.729C269.284 179.811 271.05 182.722 271.187 185.365ZM274.571 208.422C274.703 208.628 274.792 208.859 274.832 209.1C274.872 209.341 274.862 209.588 274.803 209.826C273.942 209.335 273.081 208.861 272.289 208.371C273.409 208.147 274.278 208.078 274.571 208.422Z" fill="white"/>
<g opacity="0.2">
<path d="M284.351 178.175L283.49 177.771L280.907 186.407L281.011 165.906L285.703 152.561L284.834 152.191L281.028 163.031L281.123 143.951L288.656 131.398L287.856 130.872L281.131 142.091L281.235 121.203L288.209 110.691L287.434 110.14L281.243 119.464L281.329 101.745L285.772 92.4635L284.946 91.9986L281.347 99.5667L281.441 79.8586L287.262 67.9424L286.435 67.4861L281.45 77.6802L281.545 59.0397L280.632 58.9536L280.537 77.3961L270.67 62.5526L269.921 63.0175L280.529 78.9717L280.417 100.643L270.584 90.3282L269.956 90.9309L280.417 101.9L280.322 120.093L270.808 111.767L270.24 112.439L280.313 121.247L280.21 142.367L270.403 131.053L269.74 131.622L280.201 143.701L280.098 165.674L280.021 165.88L270.489 151.7L269.749 152.165L280.081 167.542L279.978 188.688L272.108 172.855L271.29 173.208L279.969 190.651L279.84 216.507L280.752 216.593L280.89 189.033L284.351 178.175Z" fill="#039EA2"/>
<path d="M333.317 131.889L332.904 131.036L323.407 134.962L328.185 125.138L338.87 119.111L338.371 118.302L328.917 123.632L336.847 107.333L336.02 106.877L328.969 121.35L330.76 105.224L329.847 105.034L327.764 123.83L322.658 134.325L323.252 117.699L322.339 117.587L321.668 136.366L315.865 148.291L314.22 136.512L313.316 136.555L315.159 149.746L308.52 163.392L307.952 149.065L307.039 149.022L307.677 165.132L300.272 180.345L299.488 174.508L298.576 174.525L299.523 181.878L287.633 206.322L288.468 206.787L299.721 183.652L299.764 184.073L310.38 179.803L309.975 178.942L300.53 182.739L300.47 182.119L308.4 165.812L318.542 162.678L318.206 161.8L308.959 164.649L316.123 149.926L327.729 145.019L327.307 144.166L316.76 148.635L322.778 136.245L333.317 131.889Z" fill="#039EA2"/>
<path d="M264.411 183.118L263.499 182.98L262.87 192.072L258.135 181.878L260.485 170.211L259.581 169.953L257.472 180.457L251.057 166.656L252.771 152.346L251.867 152.165L250.317 165.063L244.987 153.594L245.521 153.818L246.287 139.732L245.375 139.603L244.669 152.501L244.436 152.406L238.435 139.491L239.589 126.292L238.676 126.129L237.652 137.812L231.332 124.208L230.505 124.536L237.23 139L229.868 134.472L229.446 135.246L237.901 140.447L243.222 151.907L236.222 149.022L235.947 149.866L243.782 153.095L249.301 164.977L241.035 160.267L240.639 161.059L249.938 166.354L256.525 180.526L249.146 177.805L248.905 178.666L257.058 181.671L262.741 193.906L262.698 194.569L255.612 190.798L255.242 191.599L263.524 196.015L263.55 195.637L274.407 219.004L275.234 218.677L263.671 193.803L264.411 183.118Z" fill="#039EA2"/>
</g>
<path d="M271.79 217.807C271.79 217.807 272.599 215.147 266.934 211.978C264.658 210.626 262.313 209.393 259.908 208.285C259.908 208.285 261.243 212.271 264.17 214.389C267.098 216.507 268.346 217.472 268.346 217.472C265.982 216.319 263.406 215.665 260.778 215.552C258.407 215.488 256.074 216.149 254.088 217.446C256.557 218.745 259.101 219.895 261.708 220.89C264.816 221.985 268.082 222.567 271.377 222.612C271.377 222.612 263.99 221.751 262.543 223.189C261.194 224.762 259.997 226.46 258.97 228.26C262.016 228.001 265.079 228.016 268.122 228.303C272.04 228.819 277.223 226.848 277.223 226.848L281.649 229.043L283.508 226.279C283.508 226.279 284.55 226.185 288.072 228.001C291.32 229.521 294.672 230.81 298.102 231.859L291.516 223.412L298.171 224.979C301.503 225.763 306.867 224.85 306.867 224.85C306.867 224.85 306.359 223.171 302.708 221.768C299.058 220.364 292.084 218.178 292.084 218.178C292.084 218.178 297.827 219.392 301.641 216.895C303.973 215.351 306.08 213.491 307.9 211.367C307.9 211.367 302.459 208.164 297.327 209.283C293.84 210.193 290.576 211.808 287.736 214.028C287.736 214.028 291.094 211.35 292.17 207.794C292.784 205.855 293.216 203.863 293.461 201.844C293.461 201.844 287.236 203.919 285.652 205.788C284.068 207.656 281.399 213.08 281.399 213.08C281.399 213.08 284.068 207.656 280.951 204.471C277.834 201.285 275.208 198.805 275.208 198.805C275.208 198.805 272.582 202.619 272.04 205.693C271.497 208.767 275.441 214.251 275.441 214.251L271.928 212.409L271.79 217.807Z" fill="#04A4A8"/>
<path opacity="0.3" d="M271.79 217.807C271.79 217.807 272.599 215.147 266.934 211.978C264.658 210.626 262.313 209.393 259.908 208.285C259.908 208.285 261.243 212.271 264.17 214.389C267.098 216.507 268.346 217.472 268.346 217.472C265.982 216.319 263.406 215.665 260.778 215.552C258.407 215.488 256.074 216.149 254.088 217.446C256.557 218.745 259.101 219.895 261.708 220.89C264.816 221.985 268.082 222.567 271.377 222.612C271.377 222.612 263.99 221.751 262.543 223.189C261.194 224.762 259.997 226.46 258.97 228.26C262.016 228.001 265.079 228.016 268.122 228.303C272.04 228.819 277.223 226.848 277.223 226.848L281.649 229.043L283.508 226.279C283.508 226.279 284.55 226.185 288.072 228.001C291.32 229.521 294.672 230.81 298.102 231.859L291.516 223.412L298.171 224.979C301.503 225.763 306.867 224.85 306.867 224.85C306.867 224.85 306.359 223.171 302.708 221.768C299.058 220.364 292.084 218.178 292.084 218.178C292.084 218.178 297.827 219.392 301.641 216.895C303.973 215.351 306.08 213.491 307.9 211.367C307.9 211.367 302.459 208.164 297.327 209.283C293.84 210.193 290.576 211.808 287.736 214.028C287.736 214.028 291.094 211.35 292.17 207.794C292.784 205.855 293.216 203.863 293.461 201.844C293.461 201.844 287.236 203.919 285.652 205.788C284.068 207.656 281.399 213.08 281.399 213.08C281.399 213.08 284.068 207.656 280.951 204.471C277.834 201.285 275.208 198.805 275.208 198.805C275.208 198.805 272.582 202.619 272.04 205.693C271.497 208.767 275.441 214.251 275.441 214.251L271.928 212.409L271.79 217.807Z" fill="white"/>
<path d="M126.627 107.066C126.627 107.066 121.073 102.615 119.644 99.7479C118.439 97.3112 117.56 93.8673 118.783 91.2757C119.048 90.6582 119.442 90.1043 119.938 89.6509C120.434 89.1975 121.021 88.8552 121.66 88.6466C122.298 88.438 122.974 88.368 123.642 88.4413C124.31 88.5146 124.955 88.7294 125.533 89.0715C128.977 91.2326 129.322 98.6027 128.452 102.15C128.4 102.46 126.687 107.118 126.627 107.066Z" fill="#04A4A8"/>
<path d="M177.994 144.2C177.761 144.416 173.801 147.335 173.775 147.266C173.749 147.197 171.562 140.429 171.932 137.244C172.242 134.532 173.379 131.165 175.833 129.701C176.398 129.338 177.035 129.099 177.699 129.002C178.364 128.904 179.043 128.949 179.689 129.134C180.335 129.319 180.934 129.639 181.447 130.074C181.959 130.509 182.373 131.048 182.66 131.656C184.339 135.393 180.646 141.747 177.994 144.2Z" fill="#04A4A8"/>
<path d="M61.5783 113.825C61.5783 113.825 81.915 135.16 81.8117 161.369C81.7084 187.577 61.1478 208.724 61.1478 208.724C61.1478 208.724 40.8111 187.388 40.9231 161.179C41.035 134.971 61.5783 113.825 61.5783 113.825Z" fill="#04A4A8"/>
<path d="M90.5769 177.065C90.308 176.772 90.0633 176.458 89.845 176.126C88.3641 173.845 87.0985 170.53 88.0542 167.8C88.2473 167.156 88.5751 166.561 89.0159 166.053C89.4568 165.545 90.0005 165.137 90.6112 164.855C91.2218 164.573 91.8854 164.424 92.5578 164.419C93.2303 164.413 93.8963 164.55 94.5116 164.821C97.2754 166.147 98.6272 170.65 98.9199 174.335C100.022 174.077 101.012 173.879 101.865 173.733C102.235 172.872 102.596 172.062 102.967 171.21C103.337 170.358 103.655 169.488 104.008 168.584C104.491 167.275 104.93 165.898 105.369 164.529C103.759 163.797 99.0749 161.567 97.3271 159.604C95.5793 157.641 93.7884 154.489 94.3222 151.657C94.4166 150.99 94.6512 150.35 95.0106 149.781C95.3699 149.211 95.8459 148.724 96.4072 148.351C96.9684 147.979 97.6022 147.729 98.2668 147.619C98.9314 147.509 99.6118 147.541 100.263 147.713C104.12 148.884 106.393 155.901 106.471 159.552C106.471 159.673 106.411 160.413 106.333 161.36C106.721 160.008 107.117 158.665 107.461 157.279C108.46 153.353 109.347 149.323 110.259 145.294C110.449 144.433 110.647 143.615 110.845 142.78C109.484 142.169 104.387 139.801 102.562 137.752C100.737 135.703 99.0146 132.637 99.5484 129.796C99.6439 129.13 99.8793 128.491 100.239 127.923C100.599 127.354 101.075 126.868 101.636 126.496C102.197 126.124 102.831 125.876 103.495 125.766C104.159 125.657 104.839 125.689 105.489 125.861C109.355 127.024 111.62 134.041 111.706 137.691C111.706 137.829 111.628 138.75 111.533 139.784C112.059 137.597 112.61 135.427 113.255 133.292C114.285 129.622 115.553 126.024 117.052 122.521C116.57 122.314 110.543 119.654 108.511 117.355C106.712 115.331 104.973 112.24 105.498 109.408C105.593 108.74 105.829 108.101 106.189 107.531C106.55 106.961 107.026 106.474 107.588 106.102C108.15 105.729 108.785 105.48 109.45 105.37C110.115 105.26 110.796 105.292 111.447 105.464C115.305 106.635 117.578 113.653 117.655 117.303C117.655 117.561 117.362 120.902 117.216 122.09L117.268 121.97C118.82 118.571 120.673 115.318 122.804 112.249C124.683 109.5 126.721 106.864 128.908 104.354C130.914 102.012 132.895 99.9885 134.651 98.2063C135.616 97.2592 136.511 96.3982 137.355 95.6233H137.269C137.2 95.6233 139.154 91.06 139.309 90.7845C141.117 87.616 146.43 82.5878 150.364 83.4574C151.019 83.6277 151.631 83.9329 152.161 84.3535C152.691 84.7741 153.128 85.3008 153.442 85.8999C153.757 86.499 153.942 87.1572 153.988 87.8323C154.033 88.5074 153.937 89.1845 153.705 89.8202C152.844 92.5668 149.831 94.4179 147.299 95.3047C144.768 96.1915 139.008 95.7783 137.596 95.6491C136.735 96.5101 135.822 97.3711 134.841 98.4129C133.119 100.221 131.19 102.287 129.244 104.664C128.728 105.301 128.194 106.007 127.669 106.678C128.788 105.731 130.346 104.457 130.51 104.354C133.549 102.391 140.549 100.41 143.649 103.028C144.153 103.481 144.557 104.033 144.837 104.65C145.116 105.268 145.264 105.936 145.271 106.614C145.279 107.292 145.145 107.963 144.879 108.587C144.613 109.21 144.22 109.771 143.726 110.234C141.703 112.266 138.207 112.507 135.547 112.111C132.886 111.715 127.798 108.547 126.739 107.849C125.594 109.348 124.448 110.923 123.346 112.637C121.309 115.715 119.548 118.968 118.086 122.357C118 122.555 117.939 122.762 117.862 122.96C118.335 122.4 121.159 119.516 121.383 119.318C124.19 117.028 130.932 114.281 134.298 116.537C134.849 116.932 135.311 117.437 135.656 118.021C136 118.604 136.22 119.252 136.301 119.925C136.382 120.598 136.322 121.28 136.126 121.928C135.929 122.577 135.6 123.177 135.159 123.692C133.368 125.93 129.916 126.559 127.229 126.464C124.138 126.352 118.043 123.227 117.819 123.106C116.447 126.527 115.297 130.033 114.375 133.602C113.677 136.245 113.083 138.949 112.506 141.669C113.144 140.946 115.77 138.225 115.95 138.079C118.757 135.789 125.499 133.042 128.865 135.298C129.416 135.693 129.878 136.198 130.223 136.782C130.568 137.365 130.787 138.013 130.868 138.686C130.949 139.359 130.89 140.041 130.693 140.689C130.496 141.338 130.167 141.938 129.726 142.453C127.935 144.691 124.483 145.328 121.805 145.225C118.783 145.113 112.928 142.143 112.438 141.893C112.171 143.124 111.912 144.364 111.654 145.604C110.793 149.651 110.027 153.706 109.071 157.658C108.752 159.036 108.391 160.379 108.029 161.739C109.019 160.689 110.845 158.812 111.026 158.674C113.824 156.384 120.574 153.637 123.94 155.884C124.491 156.28 124.953 156.786 125.298 157.37C125.643 157.954 125.863 158.604 125.944 159.277C126.025 159.95 125.965 160.633 125.769 161.282C125.572 161.931 125.243 162.533 124.801 163.048C123.002 165.286 119.558 165.915 116.872 165.82C114.185 165.725 109.2 163.332 107.805 162.634C107.194 164.882 106.54 167.094 105.791 169.247C105.455 170.16 105.162 171.124 104.783 171.985L104.215 173.362C104.714 173.302 104.999 173.285 104.999 173.285C104.999 173.285 105.05 174.559 104.93 176.643C107.891 174.499 112.153 172.656 114.934 173.948C115.537 174.257 116.069 174.688 116.497 175.214C116.924 175.74 117.238 176.349 117.417 177.002C117.597 177.655 117.639 178.339 117.541 179.009C117.442 179.679 117.206 180.322 116.846 180.896C116.664 181.201 116.457 181.489 116.226 181.757C115.704 184.918 114.389 187.896 112.403 190.41C112.248 190.591 110.242 192.477 109.192 193.415C110.208 192.855 111.215 192.304 112.257 191.693C113.772 190.832 115.339 189.894 116.863 188.981L119.214 187.457C120.014 186.958 120.729 186.381 121.504 185.838C122.623 185.02 123.734 184.116 124.844 183.255C123.897 181.749 121.202 177.228 120.806 174.645C120.41 172.062 120.626 168.386 122.614 166.32C123.061 165.818 123.609 165.417 124.223 165.144C124.837 164.872 125.502 164.733 126.173 164.738C126.845 164.743 127.508 164.891 128.118 165.173C128.727 165.454 129.27 165.863 129.709 166.371C132.292 169.505 130.381 176.626 128.461 179.725C128.4 179.82 127.927 180.431 127.359 181.154C128.418 180.242 129.477 179.338 130.518 178.382C133.48 175.661 136.408 172.803 139.361 169.953L141.212 168.179C140.411 166.914 137.441 162.083 137.036 159.345C136.631 156.608 136.855 153.086 138.836 151.02C139.282 150.518 139.831 150.117 140.444 149.845C141.058 149.572 141.723 149.433 142.395 149.438C143.066 149.443 143.729 149.591 144.339 149.873C144.949 150.155 145.491 150.563 145.93 151.071C148.513 154.205 146.602 161.326 144.69 164.425C144.622 164.537 144.053 165.286 143.416 166.07C145.043 164.546 146.679 163.039 148.35 161.601C151.196 159.105 154.208 156.804 157.364 154.713C157.071 154.266 153.481 148.686 153.059 145.63C152.655 142.935 152.878 139.379 154.859 137.313C155.305 136.81 155.853 136.409 156.466 136.136C157.079 135.862 157.744 135.723 158.416 135.727C159.087 135.731 159.75 135.878 160.36 136.159C160.97 136.44 161.514 136.848 161.953 137.356C164.536 140.498 162.625 147.619 160.713 150.71C160.576 150.934 158.509 153.551 157.743 154.464L157.855 154.386C160.997 152.424 164.307 150.747 167.748 149.375C170.797 148.169 173.913 147.14 177.081 146.293C180.034 145.432 182.772 144.881 185.209 144.39C186.526 144.132 187.74 143.916 188.877 143.736L188.808 143.684C188.747 143.632 192.854 140.929 193.113 140.791C196.341 139.164 203.505 137.941 206.312 140.877C206.767 141.379 207.113 141.969 207.328 142.612C207.543 143.254 207.622 143.935 207.559 144.609C207.497 145.284 207.295 145.938 206.966 146.53C206.637 147.122 206.189 147.64 205.649 148.049C203.419 149.849 199.923 149.72 197.323 149.039C194.723 148.359 190.151 144.786 189.04 143.873C187.869 144.089 186.621 144.33 185.243 144.631C182.824 145.174 180.077 145.811 177.184 146.706C176.409 146.947 175.583 147.231 174.774 147.498C176.229 147.343 178.218 147.154 178.416 147.154C182.006 147.223 188.92 149.496 190.091 153.413C190.263 154.063 190.299 154.741 190.195 155.406C190.092 156.07 189.851 156.705 189.49 157.272C189.128 157.838 188.652 158.324 188.093 158.697C187.534 159.07 186.904 159.323 186.242 159.44C183.452 159.991 180.404 158.235 178.398 156.409C176.392 154.584 173.887 149.108 173.37 147.92C171.596 148.531 169.788 149.203 167.937 150.012C164.567 151.439 161.334 153.168 158.277 155.178C158.096 155.299 157.932 155.437 157.752 155.557C158.458 155.359 162.392 154.515 162.677 154.489C166.258 154.154 173.37 155.643 174.954 159.414C175.203 160.044 175.317 160.718 175.29 161.394C175.263 162.07 175.094 162.732 174.796 163.339C174.498 163.947 174.076 164.485 173.558 164.919C173.039 165.354 172.436 165.675 171.786 165.863C169.074 166.724 165.854 165.321 163.667 163.728C161.153 161.903 157.76 155.876 157.64 155.643C154.641 157.737 151.78 160.02 149.073 162.48C147.058 164.288 145.095 166.208 143.141 168.153C144.062 167.912 147.721 167.137 147.988 167.112C151.57 166.776 158.69 168.265 160.266 172.028C160.514 172.657 160.629 173.331 160.601 174.007C160.574 174.683 160.406 175.346 160.108 175.953C159.809 176.56 159.387 177.098 158.869 177.533C158.351 177.967 157.747 178.289 157.097 178.477C154.385 179.338 151.165 177.934 148.987 176.35C146.524 174.559 143.253 168.799 142.96 168.317L140.299 170.969C137.424 173.888 134.539 176.824 131.612 179.631C130.605 180.603 129.571 181.525 128.538 182.446C129.924 182.127 132.473 181.585 132.697 181.585C136.278 181.249 143.39 182.739 144.975 186.51C145.223 187.139 145.337 187.813 145.31 188.489C145.283 189.165 145.115 189.828 144.816 190.435C144.518 191.042 144.096 191.58 143.578 192.015C143.059 192.449 142.456 192.771 141.806 192.959C139.094 193.82 135.874 192.416 133.687 190.823C131.5 189.231 128.641 184.452 127.849 183.074C126.127 184.607 124.405 186.079 122.589 187.457C121.805 188.025 121.039 188.662 120.255 189.179L117.948 190.755C116.329 191.771 114.831 192.718 113.299 193.63C112.532 194.095 111.792 194.491 111.043 194.956C112.403 194.414 114.573 193.596 114.779 193.544C118.275 192.683 125.525 193.036 127.651 196.515C127.995 197.102 128.212 197.754 128.288 198.43C128.364 199.106 128.297 199.791 128.093 200.439C127.889 201.088 127.551 201.687 127.101 202.197C126.651 202.708 126.1 203.118 125.482 203.403C122.899 204.668 119.541 203.773 117.139 202.542C114.495 201.181 110.526 196.179 110.035 195.568C108.193 196.635 106.385 197.66 104.671 198.59C100.108 201.069 96.1217 203.05 93.0307 204.53C82.9829 213.356 68.8454 214.329 68.8454 214.329C68.8454 214.329 68.1049 197.109 78.0752 185.795C81.547 181.998 85.8163 179.016 90.5769 177.065ZM108.511 193.846C108.201 193.14 105.791 187.672 105.627 184.59C105.067 184.487 104.508 184.366 103.965 184.237C102.946 189.663 100.821 194.821 97.7231 199.39C99.5485 198.529 101.529 197.531 103.63 196.446C105.188 195.645 106.832 194.767 108.511 193.846Z" fill="#04A4A8"/>
<path d="M16.4964 173.776C16.4964 173.776 33.4322 174.301 43.8072 185.253C54.1822 196.205 54.0444 213.425 54.0444 213.425C54.0444 213.425 37.1086 212.899 26.7337 201.948C16.3587 190.996 16.4964 173.776 16.4964 173.776Z" fill="#04A4A8"/>
<g opacity="0.5">
<path d="M126.626 107.066C126.626 107.066 121.073 102.614 119.643 99.7474C118.438 97.3108 117.56 93.8668 118.782 91.2752C119.047 90.6577 119.441 90.1038 119.937 89.6504C120.433 89.197 121.02 88.8547 121.659 88.6461C122.298 88.4375 122.973 88.3675 123.641 88.4408C124.309 88.5141 124.954 88.7289 125.533 89.071C128.976 91.2321 129.321 98.6023 128.451 102.15C128.4 102.46 126.686 107.117 126.626 107.066Z" fill="white"/>
<path d="M177.993 144.2C177.761 144.416 173.8 147.335 173.774 147.266C173.748 147.197 171.561 140.429 171.932 137.244C172.242 134.532 173.378 131.165 175.832 129.701C176.397 129.338 177.034 129.099 177.699 129.002C178.364 128.904 179.042 128.949 179.688 129.134C180.334 129.319 180.933 129.639 181.446 130.074C181.958 130.509 182.372 131.048 182.66 131.656C184.339 135.393 180.645 141.747 177.993 144.2Z" fill="white"/>
<path d="M61.5781 113.825C61.5781 113.825 81.9148 135.16 81.8114 161.369C81.7081 187.577 61.1476 208.724 61.1476 208.724C61.1476 208.724 40.8109 187.388 40.9228 161.179C41.0348 134.971 61.5781 113.825 61.5781 113.825Z" fill="white"/>
<path d="M90.5762 177.065C90.3073 176.772 90.0625 176.458 89.8443 176.126C88.3634 173.845 87.0977 170.53 88.0534 167.8C88.2465 167.156 88.5744 166.561 89.0152 166.053C89.456 165.545 89.9998 165.137 90.6104 164.855C91.2211 164.573 91.8846 164.424 92.5571 164.419C93.2295 164.413 93.8955 164.55 94.5109 164.821C97.2747 166.147 98.6265 170.65 98.9192 174.335C100.021 174.077 101.011 173.879 101.864 173.733C102.234 172.872 102.596 172.062 102.966 171.21C103.336 170.358 103.655 169.488 104.008 168.584C104.49 167.275 104.929 165.898 105.368 164.529C103.758 163.797 99.0742 161.567 97.3263 159.604C95.5785 157.641 93.7877 154.489 94.3215 151.657C94.4159 150.99 94.6505 150.35 95.0098 149.781C95.3692 149.211 95.8452 148.724 96.4064 148.351C96.9677 147.979 97.6015 147.729 98.2661 147.619C98.9307 147.509 99.611 147.541 100.262 147.713C104.12 148.884 106.393 155.901 106.47 159.552C106.47 159.673 106.41 160.413 106.332 161.36C106.72 160.008 107.116 158.665 107.46 157.279C108.459 153.353 109.346 149.323 110.258 145.294C110.448 144.433 110.646 143.615 110.844 142.78C109.484 142.169 104.387 139.801 102.561 137.752C100.736 135.703 99.0139 132.637 99.5477 129.796C99.6432 129.13 99.8786 128.491 100.238 127.923C100.598 127.354 101.074 126.868 101.635 126.496C102.197 126.124 102.83 125.876 103.494 125.766C104.158 125.657 104.838 125.689 105.489 125.861C109.354 127.024 111.619 134.041 111.705 137.691C111.705 137.829 111.627 138.75 111.533 139.784C112.058 137.597 112.609 135.427 113.255 133.292C114.284 129.622 115.552 126.024 117.052 122.521C116.57 122.314 110.543 119.654 108.511 117.355C106.711 115.331 104.972 112.24 105.497 109.408C105.593 108.74 105.828 108.101 106.189 107.531C106.549 106.961 107.026 106.474 107.588 106.102C108.149 105.729 108.784 105.48 109.449 105.37C110.114 105.26 110.795 105.292 111.447 105.464C115.304 106.635 117.577 113.653 117.654 117.303C117.654 117.561 117.362 120.902 117.215 122.09L117.267 121.97C118.819 118.571 120.672 115.318 122.803 112.249C124.682 109.5 126.72 106.864 128.908 104.354C130.914 102.012 132.894 99.9885 134.65 98.2063C135.615 97.2592 136.51 96.3982 137.354 95.6233H137.268C137.199 95.6233 139.153 91.06 139.308 90.7845C141.117 87.616 146.429 82.5878 150.364 83.4574C151.018 83.6277 151.631 83.9329 152.161 84.3535C152.691 84.7741 153.127 85.3008 153.441 85.8999C153.756 86.499 153.942 87.1572 153.987 87.8323C154.032 88.5074 153.936 89.1845 153.704 89.8202C152.843 92.5668 149.83 94.4179 147.298 95.3047C144.767 96.1915 139.007 95.7783 137.595 95.6491C136.734 96.5101 135.821 97.3711 134.84 98.4129C133.118 100.221 131.189 102.287 129.243 104.664C128.727 105.301 128.193 106.007 127.668 106.678C128.787 105.731 130.345 104.457 130.509 104.354C133.548 102.391 140.548 100.41 143.648 103.028C144.152 103.481 144.557 104.033 144.836 104.65C145.115 105.268 145.263 105.936 145.271 106.614C145.278 107.292 145.144 107.963 144.878 108.587C144.612 109.21 144.22 109.771 143.725 110.234C141.702 112.266 138.206 112.507 135.546 112.111C132.885 111.715 127.797 108.547 126.738 107.849C125.593 109.348 124.448 110.923 123.346 112.637C121.308 115.715 119.547 118.968 118.085 122.357C117.999 122.555 117.939 122.762 117.861 122.96C118.335 122.4 121.159 119.516 121.383 119.318C124.189 117.028 130.931 114.281 134.297 116.537C134.848 116.932 135.31 117.437 135.655 118.021C136 118.604 136.22 119.252 136.301 119.925C136.381 120.598 136.322 121.28 136.125 121.928C135.929 122.577 135.599 123.177 135.158 123.692C133.368 125.93 129.915 126.559 127.229 126.464C124.138 126.352 118.042 123.227 117.818 123.106C116.447 126.527 115.296 130.033 114.374 133.602C113.677 136.245 113.083 138.949 112.506 141.669C113.143 140.946 115.769 138.225 115.95 138.079C118.757 135.789 125.498 133.042 128.865 135.298C129.415 135.693 129.877 136.198 130.222 136.782C130.567 137.365 130.787 138.013 130.868 138.686C130.949 139.359 130.889 140.041 130.692 140.689C130.496 141.338 130.166 141.938 129.726 142.453C127.935 144.691 124.482 145.328 121.804 145.225C118.782 145.113 112.928 142.143 112.437 141.893C112.17 143.124 111.912 144.364 111.653 145.604C110.792 149.651 110.026 153.706 109.07 157.658C108.752 159.036 108.39 160.379 108.029 161.739C109.019 160.689 110.844 158.812 111.025 158.674C113.823 156.384 120.573 153.637 123.94 155.884C124.49 156.28 124.953 156.786 125.298 157.37C125.642 157.954 125.862 158.604 125.943 159.277C126.024 159.95 125.964 160.633 125.768 161.282C125.571 161.931 125.242 162.533 124.801 163.048C123.001 165.286 119.557 165.915 116.871 165.82C114.185 165.725 109.199 163.332 107.805 162.634C107.193 164.882 106.539 167.094 105.79 169.247C105.454 170.16 105.161 171.124 104.783 171.985L104.214 173.362C104.714 173.302 104.998 173.285 104.998 173.285C104.998 173.285 105.049 174.559 104.929 176.643C107.891 174.499 112.153 172.656 114.934 173.948C115.537 174.257 116.068 174.688 116.496 175.214C116.923 175.74 117.237 176.349 117.417 177.002C117.596 177.655 117.638 178.339 117.54 179.009C117.441 179.679 117.205 180.322 116.845 180.896C116.664 181.201 116.456 181.489 116.225 181.757C115.703 184.918 114.388 187.896 112.402 190.41C112.247 190.591 110.241 192.477 109.191 193.415C110.207 192.855 111.214 192.304 112.256 191.693C113.771 190.832 115.338 189.894 116.862 188.981L119.213 187.457C120.014 186.958 120.728 186.381 121.503 185.838C122.622 185.02 123.733 184.116 124.844 183.255C123.897 181.749 121.202 177.228 120.806 174.645C120.41 172.062 120.625 168.386 122.614 166.32C123.06 165.818 123.609 165.417 124.222 165.144C124.836 164.872 125.501 164.733 126.173 164.738C126.844 164.743 127.507 164.891 128.117 165.173C128.727 165.454 129.269 165.863 129.708 166.371C132.291 169.505 130.38 176.626 128.46 179.725C128.4 179.82 127.926 180.431 127.358 181.154C128.417 180.242 129.476 179.338 130.518 178.382C133.479 175.661 136.407 172.803 139.36 169.953L141.211 168.179C140.41 166.914 137.44 162.083 137.035 159.345C136.631 156.608 136.855 153.086 138.835 151.02C139.281 150.518 139.83 150.117 140.444 149.845C141.057 149.572 141.722 149.433 142.394 149.438C143.065 149.443 143.728 149.591 144.338 149.873C144.948 150.155 145.49 150.563 145.929 151.071C148.512 154.205 146.601 161.326 144.69 164.425C144.621 164.537 144.053 165.286 143.415 166.07C145.043 164.546 146.679 163.039 148.349 161.601C151.195 159.105 154.207 156.804 157.363 154.713C157.071 154.266 153.48 148.686 153.059 145.63C152.654 142.935 152.878 139.379 154.858 137.313C155.304 136.81 155.852 136.409 156.465 136.136C157.079 135.862 157.743 135.723 158.415 135.727C159.087 135.731 159.75 135.878 160.36 136.159C160.97 136.44 161.513 136.848 161.953 137.356C164.536 140.498 162.624 147.619 160.713 150.71C160.575 150.934 158.509 153.551 157.742 154.464L157.854 154.386C160.996 152.424 164.307 150.747 167.747 149.375C170.796 148.169 173.912 147.14 177.08 146.293C180.033 145.432 182.771 144.881 185.208 144.39C186.525 144.132 187.739 143.916 188.876 143.736L188.807 143.684C188.747 143.632 192.854 140.929 193.112 140.791C196.341 139.164 203.504 137.941 206.311 140.877C206.767 141.379 207.113 141.969 207.328 142.612C207.542 143.254 207.621 143.935 207.559 144.609C207.496 145.284 207.294 145.938 206.965 146.53C206.636 147.122 206.188 147.64 205.648 148.049C203.418 149.849 199.922 149.72 197.322 149.039C194.722 148.359 190.15 144.786 189.039 143.873C187.869 144.089 186.62 144.33 185.242 144.631C182.823 145.174 180.077 145.811 177.184 146.706C176.409 146.947 175.582 147.231 174.773 147.498C176.228 147.343 178.217 147.154 178.415 147.154C182.005 147.223 188.919 149.496 190.09 153.413C190.262 154.063 190.298 154.741 190.194 155.406C190.091 156.07 189.851 156.705 189.489 157.272C189.127 157.838 188.652 158.324 188.093 158.697C187.534 159.07 186.903 159.323 186.241 159.44C183.452 159.991 180.404 158.235 178.398 156.409C176.391 154.584 173.886 149.108 173.369 147.92C171.596 148.531 169.788 149.203 167.937 150.012C164.567 151.439 161.333 153.168 158.276 155.178C158.095 155.299 157.932 155.437 157.751 155.557C158.457 155.359 162.392 154.515 162.676 154.489C166.258 154.154 173.369 155.643 174.954 159.414C175.202 160.044 175.316 160.718 175.289 161.394C175.262 162.07 175.094 162.732 174.795 163.339C174.497 163.947 174.075 164.485 173.557 164.919C173.038 165.354 172.435 165.675 171.785 165.863C169.073 166.724 165.853 165.321 163.666 163.728C161.152 161.903 157.76 155.876 157.639 155.643C154.64 157.737 151.779 160.02 149.072 162.48C147.057 164.288 145.094 166.208 143.14 168.153C144.061 167.912 147.72 167.137 147.987 167.112C151.569 166.776 158.689 168.265 160.265 172.028C160.514 172.657 160.628 173.331 160.601 174.007C160.573 174.683 160.405 175.346 160.107 175.953C159.809 176.56 159.387 177.098 158.868 177.533C158.35 177.967 157.746 178.289 157.097 178.477C154.384 179.338 151.164 177.934 148.986 176.35C146.524 174.559 143.252 168.799 142.959 168.317L140.299 170.969C137.423 173.888 134.539 176.824 131.611 179.631C130.604 180.603 129.571 181.525 128.537 182.446C129.924 182.127 132.472 181.585 132.696 181.585C136.278 181.249 143.39 182.739 144.974 186.51C145.222 187.139 145.337 187.813 145.309 188.489C145.282 189.165 145.114 189.828 144.816 190.435C144.517 191.042 144.095 191.58 143.577 192.015C143.059 192.449 142.455 192.771 141.805 192.959C139.093 193.82 135.873 192.416 133.686 190.823C131.499 189.231 128.641 184.452 127.849 183.074C126.127 184.607 124.405 186.079 122.588 187.457C121.804 188.025 121.038 188.662 120.255 189.179L117.947 190.755C116.329 191.771 114.83 192.718 113.298 193.63C112.532 194.095 111.791 194.491 111.042 194.956C112.402 194.414 114.572 193.596 114.779 193.544C118.274 192.683 125.524 193.036 127.651 196.515C127.994 197.102 128.211 197.754 128.287 198.43C128.363 199.106 128.297 199.791 128.092 200.439C127.888 201.088 127.55 201.687 127.1 202.197C126.65 202.708 126.099 203.118 125.481 203.403C122.898 204.668 119.54 203.773 117.138 202.542C114.495 201.181 110.525 196.179 110.035 195.568C108.192 196.635 106.384 197.66 104.671 198.59C100.107 201.069 96.121 203.05 93.03 204.53C82.9822 213.356 68.8447 214.329 68.8447 214.329C68.8447 214.329 68.1042 197.109 78.0745 185.795C81.5462 181.998 85.8156 179.016 90.5762 177.065ZM108.511 193.846C108.201 193.14 105.79 187.672 105.626 184.59C105.067 184.487 104.507 184.366 103.965 184.237C102.946 189.663 100.821 194.821 97.7224 199.39C99.5477 198.529 101.528 197.531 103.629 196.446C105.187 195.645 106.832 194.767 108.511 193.846Z" fill="white"/>
<path d="M16.4964 173.776C16.4964 173.776 33.4322 174.301 43.8072 185.253C54.1822 196.205 54.0444 213.425 54.0444 213.425C54.0444 213.425 37.1086 212.899 26.7337 201.948C16.3587 190.996 16.4964 173.776 16.4964 173.776Z" fill="white"/>
</g>
<g opacity="0.2">
<path d="M60.7427 184.865L44.0997 169.66L44.8144 168.851L60.7514 183.419L60.8375 163.487L60.7514 163.547L46.6741 142.634L47.5523 142.022L60.8461 161.765L61.0441 113.825H62.1117L61.974 146.37L72.5642 137.054L73.2702 137.872L61.9654 147.808L61.8707 171.081L77.9282 156.642L78.6342 157.451L61.862 172.527L61.7759 193.716L73.8385 184.09L74.5014 184.943L61.7673 195.103L61.7071 208.741L60.6394 208.732L60.7427 184.865Z" fill="#039EA2"/>
<path d="M76.0687 190.738L77.1277 190.608L78.4709 202.654L85.6171 194.535H85.6085L87.4166 179.958L88.4756 180.096L86.8569 193.131L104.611 172.958L105.411 173.681L93.3574 187.371L100.986 187.466L100.977 188.551L92.419 188.439L83.964 198.039L95.8974 198.056V199.141L83.0169 199.124L75.3282 207.854L83.7488 208.371L83.6799 209.447L74.4242 208.887L69.3099 214.699L68.5092 213.976L77.5238 203.739L76.0687 190.738Z" fill="#039EA2"/>
<path d="M35.8603 195.025L21.697 192.106L21.9122 191.039L34.5861 193.656L16.1091 174.155L16.8754 173.397L29.4115 186.63L30.0745 178.907L31.1335 179.002L30.393 187.672L39.1838 196.945L40.0878 184.857L41.1555 184.943L40.1739 197.996L48.1639 206.433L49.3005 197.944L50.3509 198.09L49.111 207.432L54.432 213.046L53.6657 213.803L44.2895 203.902L31.4262 204.41L31.3832 203.325L43.2993 202.86L35.8689 195.008L35.8603 195.025Z" fill="#039EA2"/>
</g>
<path d="M105.506 216.834L0 233.666L194.378 267.34L353.585 239.788L105.506 216.834Z" fill="#067A7D"/>
<path opacity="0.15" d="M172.638 243.051C202.301 243.051 226.347 240.187 226.347 236.654C226.347 233.121 202.301 230.257 172.638 230.257C142.975 230.257 118.929 233.121 118.929 236.654C118.929 240.187 142.975 243.051 172.638 243.051Z" fill="#039EA2"/>
<path d="M168.161 167.275C168.161 167.275 163.684 168.558 149.942 168.24C136.201 167.921 116.363 161.524 108.701 161.524C101.038 161.524 92.7033 164.4 89.5176 170.797C86.332 177.194 83.439 185.184 101.985 192.537C120.531 199.89 134.591 202.128 161.127 208.836C187.662 215.543 198.21 215.87 211.925 212.357C225.641 208.844 234.94 199.89 233.665 187.388C232.391 174.887 229.507 167.25 222.8 165.33C216.092 163.41 168.161 167.275 168.161 167.275Z" fill="#263238" stroke="#263238" stroke-width="0.919183" stroke-linecap="round" stroke-linejoin="round"/>
<path d="M189.608 65.4455C189.608 65.4455 190.09 71.5241 188.394 74.9164C186.698 78.3087 179.879 81.7269 174.041 84.8867C168.204 88.0466 159.938 87.5644 156.537 92.9112C153.136 98.258 153.377 107.255 153.377 107.255C153.377 107.255 148.022 115.53 143.648 122.822C139.274 130.115 136.838 137.657 142.434 141.764C148.031 145.871 154.833 139.818 158.483 134.015C162.134 128.212 165.535 121.617 165.535 121.617C165.535 121.617 170.193 144.201 168.936 150.305C167.679 156.41 164.803 162.221 164.803 164.942C164.803 167.663 166.99 169.566 170.399 170.289C173.809 171.012 185.475 172.011 193.5 171.511C201.524 171.012 224.384 169.566 225.357 166.397C226.33 163.229 227.785 141.351 227.785 141.351C227.785 141.351 242.129 146.215 246.511 137.468C250.894 128.72 251.126 109.055 247.966 99.2826C244.806 89.5103 236.773 85.9113 231.917 83.4833C227.061 81.0553 213.682 74.727 211.254 72.0493C208.826 69.3716 208.076 56.1984 208.076 51.8245C208.076 47.4507 207.594 51.5835 202.971 54.9844C198.347 58.3853 189.608 65.4455 189.608 65.4455Z" fill="white"/>
<path d="M247.966 99.2395C244.807 89.5189 236.773 85.8683 231.917 83.4403C227.061 81.0122 213.682 74.6839 211.254 72.0062C208.826 69.3286 208.077 56.1984 208.077 51.8245C208.077 47.4507 207.594 51.5835 202.971 54.9844C198.347 58.3853 189.6 65.4455 189.6 65.4455C189.69 66.8245 189.69 68.2079 189.6 69.5869C192.363 70.7836 196.023 72.1698 198.063 72.1698C201.619 72.1698 202.687 74.6581 204.09 77.1464C205.494 79.6347 203.023 82.4759 203.023 82.4759C203.023 82.4759 214.396 83.1906 218.305 84.2496C222.214 85.3086 232.52 86.7379 238.917 92.076C243.971 96.2777 247.467 104.018 249.766 109.02C249.517 105.705 248.914 102.426 247.966 99.2395Z" fill="white"/>
<path opacity="0.6" d="M247.966 99.2395C244.807 89.5189 236.773 85.8683 231.917 83.4403C227.061 81.0122 213.682 74.6839 211.254 72.0062C208.826 69.3286 208.077 56.1984 208.077 51.8245C208.077 47.4507 207.594 51.5835 202.971 54.9844C198.347 58.3853 189.6 65.4455 189.6 65.4455C189.69 66.8245 189.69 68.2079 189.6 69.5869C192.363 70.7836 196.023 72.1698 198.063 72.1698C201.619 72.1698 202.687 74.6581 204.09 77.1464C205.494 79.6347 203.023 82.4759 203.023 82.4759C203.023 82.4759 214.396 83.1906 218.305 84.2496C222.214 85.3086 232.52 86.7379 238.917 92.076C243.971 96.2777 247.467 104.018 249.766 109.02C249.517 105.705 248.914 102.426 247.966 99.2395Z" fill="white"/>
<path d="M189.608 65.4455C189.608 65.4455 190.09 71.5241 188.394 74.9164C186.698 78.3087 179.879 81.7269 174.041 84.8867C168.204 88.0466 159.938 87.5644 156.537 92.9112C153.136 98.258 153.377 107.255 153.377 107.255C153.377 107.255 148.022 115.53 143.648 122.822C139.274 130.115 136.838 137.657 142.434 141.764C148.031 145.871 154.833 139.818 158.483 134.015C162.134 128.212 165.535 121.617 165.535 121.617C165.535 121.617 170.193 144.201 168.936 150.305C167.679 156.41 164.803 162.221 164.803 164.942C164.803 167.663 166.99 169.566 170.399 170.289C173.809 171.012 185.475 172.011 193.5 171.511C201.524 171.012 224.384 169.566 225.357 166.397C226.33 163.229 227.785 141.351 227.785 141.351C227.785 141.351 242.129 146.215 246.511 137.468C250.894 128.72 251.126 109.055 247.966 99.2826C244.806 89.5103 236.773 85.9113 231.917 83.4833C227.061 81.0553 213.682 74.727 211.254 72.0493C208.826 69.3716 208.076 56.1984 208.076 51.8245C208.076 47.4507 207.594 51.5835 202.971 54.9844C198.347 58.3853 189.608 65.4455 189.608 65.4455Z" stroke="#263238" stroke-width="0.919183" stroke-linecap="round" stroke-linejoin="round"/>
<path d="M223.652 36.9896C225.597 33.3476 228.516 27.0193 224.625 22.6454C220.733 18.2715 218.305 20.9234 217.814 16.5668C217.323 12.2101 216.359 7.56939 211.977 7.56939C207.594 7.56939 204.443 9.29137 201.765 7.56939C199.087 5.8474 196.9 1 190.09 1C183.28 1 183.288 11.4611 182.066 12.6751C181.464 13.1088 180.791 13.4323 180.077 13.6308C179.823 13.5676 179.587 13.4491 179.384 13.2839C179.182 13.1187 179.018 12.9108 178.906 12.6751C177.692 10.2471 181.093 10.4882 182.556 6.83754C184.02 3.18693 179.879 0.758923 176.96 2.94585C174.041 5.13278 180.12 4.8917 176.719 8.54231C173.318 12.1929 171.372 16.5668 174.497 21.9394C177.623 27.312 181.308 24.1263 181.308 24.1263C182.031 23.6441 182.685 26.3821 189.169 27.5703C195.342 28.6982 199.561 26.7093 200.052 33.4939C200.542 40.2786 206.595 44.0756 208.3 45.0485C210.005 46.0214 205.622 51.3768 206.578 53.8048C207.534 56.2328 210.711 55.9917 212.657 55.7506C214.603 55.5096 213.389 52.5908 217.521 52.1C221.654 51.6093 223.109 50.378 224.814 45.7803C226.519 41.1826 221.706 40.6402 223.652 36.9896Z" fill="#263238" stroke="#263238" stroke-width="0.919183" stroke-linecap="round" stroke-linejoin="round"/>
<path d="M222.817 30.4371C223.559 30.5243 224.307 30.3342 224.917 29.9033" stroke="white" stroke-width="0.919183" stroke-linecap="round" stroke-linejoin="round"/>
<path d="M207.878 20.5362C207.878 20.5362 212.183 17.0922 214.698 21.3972C216.239 23.9801 218.245 27.4241 220.432 29.2666" stroke="white" stroke-width="0.919183" stroke-linecap="round" stroke-linejoin="round"/>
<path d="M205.752 32.4608C208.419 31.962 211.14 31.8173 213.845 32.0303C217.676 32.4608 217.289 35.4743 221.508 35.4743" stroke="white" stroke-width="0.919183" stroke-linecap="round" stroke-linejoin="round"/>
<path d="M187.972 16.3169C188.33 16.7547 188.734 17.153 189.177 17.5051" stroke="white" stroke-width="0.919183" stroke-linecap="round" stroke-linejoin="round"/>
<path d="M205.579 16.3603C205.579 16.3603 204.477 20.1056 200.215 14.9999C195.953 9.89425 193 3.97921 188.161 9.05047C187.582 9.57033 187.134 10.2194 186.853 10.9449C186.572 11.6704 186.465 12.452 186.543 13.2263" stroke="white" stroke-width="0.919183" stroke-linecap="round" stroke-linejoin="round"/>
<path d="M177.218 17.7466C176.798 16.8783 176.508 15.9528 176.357 15" stroke="white" stroke-width="0.919183" stroke-linecap="round" stroke-linejoin="round"/>
<path d="M184.881 21.81C184.881 21.81 180.791 22.2921 178.217 19.27" stroke="white" stroke-width="0.919183" stroke-linecap="round" stroke-linejoin="round"/>
<path d="M231.918 83.4402C228.129 81.5374 219.158 77.2755 214.241 74.2275C212.623 79.0835 207.87 90.242 198.365 90.242C189.6 90.242 187.025 82.0454 186.311 77.4563C183.401 80.0393 178.467 82.5189 174.076 84.8953C168.247 88.0551 159.973 87.573 156.572 92.9197C153.171 98.2665 153.412 107.264 153.412 107.264C153.412 107.264 151.604 110.062 149.236 113.825C159.06 113.334 165.595 121.617 165.595 121.617C165.595 121.617 170.193 144.201 168.936 150.305C167.679 156.409 164.803 162.221 164.803 164.942C164.803 167.663 166.99 169.565 170.4 170.289C173.809 171.012 185.476 172.011 193.5 171.511C201.525 171.012 224.384 169.565 225.357 166.397C226.33 163.229 227.785 141.351 227.785 141.351L226.33 122.142C238.547 114.066 247.088 119.722 249.887 122.142C250.489 113.885 249.8 104.922 247.967 99.2739C244.807 89.5188 236.782 85.8682 231.918 83.4402Z" fill="white"/>
<path opacity="0.15" d="M247.966 99.2395C244.806 89.5189 236.773 85.8683 231.917 83.4403C227.061 81.0122 213.681 74.6839 211.253 72.0062C208.825 69.3286 208.076 56.1984 208.076 51.8245C208.076 47.4507 207.594 51.5835 202.971 54.9844C198.347 58.3853 189.599 65.4455 189.599 65.4455C189.69 66.8245 189.69 68.2079 189.599 69.5869C192.363 70.7836 196.022 72.1698 198.063 72.1698C201.619 72.1698 202.687 74.6581 204.09 77.1464C205.493 79.6347 203.022 82.4759 203.022 82.4759C203.022 82.4759 214.396 83.1906 218.305 84.2496C222.214 85.3086 232.52 86.7379 238.917 92.076C243.971 96.2777 247.467 104.018 249.766 109.02C249.517 105.705 248.914 102.426 247.966 99.2395Z" fill="#039EA2"/>
<path opacity="0.15" d="M214.766 83.9312C214.766 83.9312 211.21 90.6814 204.434 92.8166C200.546 94.0973 196.392 94.3436 192.38 93.5312C192.38 93.5312 197.357 96.3725 204.822 94.5989C212.286 92.8252 214.766 83.9312 214.766 83.9312Z" fill="#039EA2"/>
<path opacity="0.15" d="M224.719 117.329C224.719 117.329 225.072 128.703 220.81 131.544C216.548 134.385 203.039 136.873 197.71 135.453C192.38 134.032 187.378 126.567 182.427 127.988C177.476 129.409 168.918 138.656 168.918 138.656L169.271 145.053L184.554 137.588C184.554 137.588 194.886 143.615 206.234 151.088C217.582 158.562 206.948 160.335 206.948 160.335L192.733 165.665C192.733 165.665 201.972 162.109 209.092 162.109C216.213 162.109 211.58 163.53 211.58 163.53H225.081L225.365 166.354L227.948 148.962L227.233 127.988C227.233 127.988 226.501 113.773 224.719 117.329Z" fill="#039EA2"/>
<path d="M231.918 83.4402C228.129 81.5374 219.158 77.2755 214.241 74.2275C212.623 79.0835 207.87 90.242 198.365 90.242C189.6 90.242 187.025 82.0454 186.311 77.4563C183.401 80.0393 178.467 82.5189 174.076 84.8953C168.247 88.0551 159.973 87.573 156.572 92.9197C153.171 98.2665 153.412 107.264 153.412 107.264C153.412 107.264 151.604 110.062 149.236 113.825C159.06 113.334 165.595 121.617 165.595 121.617C165.595 121.617 170.193 144.201 168.936 150.305C167.679 156.409 164.803 162.221 164.803 164.942C164.803 167.663 166.99 169.565 170.4 170.289C173.809 171.012 185.476 172.011 193.5 171.511C201.525 171.012 224.384 169.565 225.357 166.397C226.33 163.229 227.785 141.351 227.785 141.351L226.33 122.142C238.547 114.066 247.088 119.722 249.887 122.142C250.489 113.885 249.8 104.922 247.967 99.2739C244.807 89.5188 236.782 85.8682 231.918 83.4402Z" stroke="#263238" stroke-width="0.919183" stroke-linecap="round" stroke-linejoin="round"/>
<path d="M165.535 121.617C165.535 121.617 161.772 110.054 163.365 103.975" stroke="#263238" stroke-width="0.919183" stroke-linecap="round" stroke-linejoin="round"/>
<path d="M226.329 122.099C225.434 117.564 225.659 112.88 226.984 108.452" stroke="#263238" stroke-width="0.919183" stroke-linecap="round" stroke-linejoin="round"/>
<path d="M170.4 170.246C170.4 170.246 182.23 168.524 190.202 166.638" stroke="#263238" stroke-width="0.919183" stroke-linecap="round" stroke-linejoin="round"/>
<path d="M142.107 127.842C142.107 127.842 139.705 129.116 137.802 133.757C135.899 138.398 133.497 147.016 135.882 149.737C138.267 152.458 143.717 150.055 148.797 149.418C153.877 148.781 175.169 136.314 178.682 134.23C182.195 132.147 185.079 131.355 186.198 129.435C187.318 127.515 186.999 120.644 187.154 117.286C187.309 113.928 186.517 98.9037 186.517 98.9037C186.517 98.9037 185.398 95.2273 183.478 95.5458C183.478 95.5458 181.239 94.2716 180.765 95.5458L179.801 98.1288C179.801 98.1288 177.726 97.4917 177.218 98.611C176.871 99.7005 176.657 100.828 176.581 101.969C176.581 101.969 174.187 103.088 174.187 104.552C174.187 106.016 174.661 114.625 174.661 117.019C174.661 119.413 174.342 123.098 175.143 124.69C175.944 126.283 176.745 127.73 176.745 127.73C176.745 127.73 165.07 129.331 160.119 129.331C155.168 129.331 146.532 129.486 144.931 130.287" fill="white"/>
<path d="M186.224 129.392C186.784 128.427 186.991 126.206 187.085 123.804L179.405 125.474C179.405 125.474 180.189 128.987 175.884 131.725C171.579 134.463 148.151 142.272 146.61 142.659C145.069 143.047 161.462 135.634 155.22 136.021C148.978 136.409 141.539 143.056 137.243 143.056C136.555 143.06 135.87 142.965 135.211 142.771C134.737 145.716 134.771 148.385 135.925 149.659C138.319 152.38 143.76 149.978 148.84 149.341C153.92 148.704 175.212 136.236 178.725 134.153C182.238 132.069 185.105 131.286 186.224 129.392Z" fill="white"/>
<path opacity="0.6" d="M186.224 129.392C186.784 128.427 186.991 126.206 187.085 123.804L179.405 125.474C179.405 125.474 180.189 128.987 175.884 131.725C171.579 134.463 148.151 142.272 146.61 142.659C145.069 143.047 161.462 135.634 155.22 136.021C148.978 136.409 141.539 143.056 137.243 143.056C136.555 143.06 135.87 142.965 135.211 142.771C134.737 145.716 134.771 148.385 135.925 149.659C138.319 152.38 143.76 149.978 148.84 149.341C153.92 148.704 175.212 136.236 178.725 134.153C182.238 132.069 185.105 131.286 186.224 129.392Z" fill="white"/>
<path d="M142.107 127.842C142.107 127.842 139.705 129.116 137.802 133.757C135.899 138.398 133.497 147.016 135.882 149.737C138.267 152.458 143.717 150.055 148.797 149.418C153.877 148.781 175.169 136.314 178.682 134.23C182.195 132.147 185.079 131.355 186.198 129.435C187.318 127.515 186.999 120.644 187.154 117.286C187.309 113.928 186.517 98.9037 186.517 98.9037C186.517 98.9037 185.398 95.2273 183.478 95.5458C183.478 95.5458 181.239 94.2716 180.765 95.5458L179.801 98.1288C179.801 98.1288 177.726 97.4917 177.218 98.611C176.871 99.7005 176.657 100.828 176.581 101.969C176.581 101.969 174.187 103.088 174.187 104.552C174.187 106.016 174.661 114.625 174.661 117.019C174.661 119.413 174.342 123.098 175.143 124.69C175.944 126.283 176.745 127.73 176.745 127.73C176.745 127.73 165.07 129.331 160.119 129.331C155.168 129.331 146.532 129.486 144.931 130.287" stroke="#263238" stroke-width="0.919183" stroke-linecap="round" stroke-linejoin="round"/>
<path d="M239.296 135.591C231.624 130.64 215.636 134.471 210.521 134.153C205.407 133.834 191.183 125.999 191.183 125.999C191.183 125.999 194.059 123.123 194.214 121.367C194.369 119.61 194.214 114.815 194.214 112.094C194.214 109.373 195.015 106.661 195.178 104.586C195.342 102.511 192.595 103.94 192.139 104.586C191.683 105.232 190.538 111.612 190.538 111.612C190.538 111.612 189.1 107.307 189.1 106.825C189.1 106.343 188.781 100.428 187.981 98.0254C187.18 95.6232 185.268 98.0254 185.268 98.0254C185.105 96.5875 184.623 95.4424 183.503 95.4424C182.384 95.4424 181.428 99.446 181.428 99.446C181.428 97.0438 180.628 97.2074 179.827 97.9995C179.026 98.7917 179.035 104.078 179.035 104.078L178.07 102.64C176.951 102.322 176.349 104.078 176.349 105.68C176.349 107.281 176.986 112.068 176.986 116.063C176.939 118.101 177.1 120.137 177.468 122.142C178.168 124.94 179.358 127.592 180.981 129.977C183.701 133.972 192.811 138.923 198.407 143.236C204.004 147.55 220.466 154.748 228.619 156.031C236.773 157.313 242.395 160.336 244.281 156.831C246.167 153.327 249.714 136.047 247.957 130.295" fill="white"/>
<path d="M228.585 156.091C236.739 157.365 242.361 160.396 244.247 156.892C245.607 154.403 247.751 145.061 248.285 137.76C246.658 140.989 242.163 149.453 239.296 150.029C235.74 150.735 220.458 146.473 218.675 146.12C216.893 145.767 241.061 145.053 232.184 142.918C223.307 140.782 216.549 142.203 205.493 139.009C194.438 135.814 185.484 133.498 180.912 130.037C183.633 134.032 192.742 138.983 198.339 143.296C203.935 147.61 220.432 154.808 228.585 156.091Z" fill="white"/>
<path opacity="0.6" d="M228.585 156.091C236.739 157.365 242.361 160.396 244.247 156.892C245.607 154.403 247.751 145.061 248.285 137.76C246.658 140.989 242.163 149.453 239.296 150.029C235.74 150.735 220.458 146.473 218.675 146.12C216.893 145.767 241.061 145.053 232.184 142.918C223.307 140.782 216.549 142.203 205.493 139.009C194.438 135.814 185.484 133.498 180.912 130.037C183.633 134.032 192.742 138.983 198.339 143.296C203.935 147.61 220.432 154.808 228.585 156.091Z" fill="white"/>
<path d="M239.296 135.591C231.624 130.64 215.636 134.471 210.521 134.153C205.407 133.834 191.183 125.999 191.183 125.999C191.183 125.999 194.059 123.123 194.214 121.367C194.369 119.61 194.214 114.815 194.214 112.094C194.214 109.373 195.015 106.661 195.178 104.586C195.342 102.511 192.595 103.94 192.139 104.586C191.683 105.232 190.538 111.612 190.538 111.612C190.538 111.612 189.1 107.307 189.1 106.825C189.1 106.343 188.781 100.428 187.981 98.0254C187.18 95.6232 185.268 98.0254 185.268 98.0254C185.105 96.5875 184.623 95.4424 183.503 95.4424C182.384 95.4424 181.428 99.446 181.428 99.446C181.428 97.0438 180.628 97.2074 179.827 97.9995C179.026 98.7917 179.035 104.078 179.035 104.078L178.07 102.64C176.951 102.322 176.349 104.078 176.349 105.68C176.349 107.281 176.986 112.068 176.986 116.063C176.939 118.101 177.1 120.137 177.468 122.142C178.168 124.94 179.358 127.592 180.981 129.977C183.701 133.972 192.811 138.923 198.407 143.236C204.004 147.55 220.466 154.748 228.619 156.031C236.773 157.313 242.395 160.336 244.281 156.831C246.167 153.327 249.714 136.047 247.957 130.295" stroke="#263238" stroke-width="0.919183" stroke-linecap="round" stroke-linejoin="round"/>
<path d="M190.538 111.646C191.4 113.725 191.837 115.956 191.82 118.207" stroke="#263238" stroke-width="0.919183" stroke-linecap="round" stroke-linejoin="round"/>
<path d="M185.268 98.0601C185.751 100.109 186.071 102.194 186.224 104.294C186.224 106.377 186.542 111.182 186.542 111.182" stroke="#263238" stroke-width="0.919183" stroke-linecap="round" stroke-linejoin="round"/>
<path d="M181.429 99.5063C181.429 99.5063 182.066 103.183 182.384 105.533C182.583 107.55 182.637 109.579 182.548 111.603" stroke="#263238" stroke-width="0.919183" stroke-linecap="round" stroke-linejoin="round"/>
<path d="M179.035 104.139C179.035 104.139 179.509 107.014 179.827 108.297C180.063 109.992 180.172 111.701 180.154 113.412" stroke="#263238" stroke-width="0.919183" stroke-linecap="round" stroke-linejoin="round"/>
<path d="M168.798 196.721C167.041 195.915 165.422 194.837 164.002 193.527C162.09 191.607 164.002 186.811 161.419 184.917C158.836 183.023 153.747 182.334 152.809 185.244C151.87 188.154 151.207 190.04 149.287 190.677C147.367 191.314 145.137 191.314 141.616 192.916C138.095 194.517 138.103 200.268 138.103 200.268C144.854 201.17 151.491 202.777 157.906 205.064C167.179 208.577 171.329 206.657 171.329 206.657C171.329 206.657 171.682 200.208 168.798 196.721Z" fill="white"/>
<path d="M164.932 200.096C164.932 200.096 159.465 199.313 158.294 197.358C157.123 195.404 159.069 191.891 155.943 191.891C152.818 191.891 153.214 194.233 150.476 195.017C147.738 195.8 143.442 194.62 145.396 196.971C147.35 199.321 155.168 203.997 159.852 204.78C164.536 205.564 168.057 202.826 164.932 200.096Z" fill="white"/>
<path opacity="0.6" d="M164.932 200.096C164.932 200.096 159.465 199.313 158.294 197.358C157.123 195.404 159.069 191.891 155.943 191.891C152.818 191.891 153.214 194.233 150.476 195.017C147.738 195.8 143.442 194.62 145.396 196.971C147.35 199.321 155.168 203.997 159.852 204.78C164.536 205.564 168.057 202.826 164.932 200.096Z" fill="white"/>
<path d="M168.798 196.721C167.041 195.915 165.422 194.837 164.002 193.527C162.09 191.607 164.002 186.811 161.419 184.917C158.836 183.023 153.747 182.334 152.809 185.244C151.87 188.154 151.207 190.04 149.287 190.677C147.367 191.314 145.137 191.314 141.616 192.916C138.095 194.517 138.103 200.268 138.103 200.268C144.854 201.17 151.491 202.777 157.906 205.064C167.179 208.577 171.329 206.657 171.329 206.657C171.329 206.657 171.682 200.208 168.798 196.721Z" stroke="#263238" stroke-width="0.919183" stroke-linecap="round" stroke-linejoin="round"/>
<path d="M192.578 206.132C197.44 204.88 202.208 203.286 206.845 201.362C212.958 198.883 219.14 196.446 225.038 193.493C233.992 189.016 237.186 182.3 234.948 173.991C232.709 165.683 228.878 159.285 212.562 162.161C196.246 165.037 191.08 174.852 184.149 182.3C175.582 191.469 168.522 196.188 165.285 195.731C161.591 195.215 160.808 202.12 165.922 204.686C174.187 208.818 183.615 208.336 192.578 206.132Z" fill="#263238" stroke="#263238" stroke-width="0.919183" stroke-linecap="round" stroke-linejoin="round"/>
<path d="M168.057 195.404C168.057 195.404 175.866 193.846 184.072 184.47C192.277 175.093 193.439 173.526 193.439 173.526" stroke="white" stroke-width="0.919183" stroke-linecap="round" stroke-linejoin="round"/>
<path d="M226.726 192.89C228.113 191.76 229.398 190.509 230.566 189.153" stroke="white" stroke-width="0.919183" stroke-linecap="round" stroke-linejoin="round"/>
<path d="M201.266 205.564C201.266 205.564 213.371 202.068 223.032 195.628" stroke="white" stroke-width="0.919183" stroke-linecap="round" stroke-linejoin="round"/>
<path d="M104.223 162.282C101.387 161.741 98.4877 161.608 95.6135 161.885C87.942 162.523 82.8277 167.318 81.5534 171.477C80.2791 175.636 84.7477 186.183 94.6578 193.217C104.568 200.251 114.796 201.827 128.546 205.684C140.73 209.085 153.515 213.089 152.654 212.865C151.784 212.014 151.095 210.995 150.629 209.87C150.163 208.746 149.93 207.539 149.942 206.321C150.123 203.377 152.103 201.078 153.756 199.649C151.173 198.46 146.929 195.774 140.351 189.696C129.76 179.932 118.946 170.16 112.601 165.665" fill="#263238"/>
<path d="M104.223 162.282C101.387 161.741 98.4877 161.608 95.6135 161.885C87.942 162.523 82.8277 167.318 81.5534 171.477C80.2791 175.636 84.7477 186.183 94.6578 193.217C104.568 200.251 114.796 201.827 128.546 205.684C140.73 209.085 153.515 213.089 152.654 212.865C151.784 212.014 151.095 210.995 150.629 209.87C150.163 208.746 149.93 207.539 149.942 206.321C150.123 203.377 152.103 201.078 153.756 199.649C151.173 198.46 146.929 195.774 140.351 189.696C129.76 179.932 118.946 170.16 112.601 165.665" stroke="#263238" stroke-width="0.919183" stroke-linecap="round" stroke-linejoin="round"/>
<path d="M109.191 166.242C107.418 165.381 106.333 164.934 106.333 164.934" stroke="white" stroke-width="0.919183" stroke-linecap="round" stroke-linejoin="round"/>
<path d="M142.27 189.936C142.27 189.936 125.472 176.651 118.834 171.967C116.732 170.484 114.55 169.115 112.299 167.869" stroke="white" stroke-width="0.919183" stroke-linecap="round" stroke-linejoin="round"/>
<path d="M192.139 204.685C187.981 203.721 187.662 204.685 177.752 204.358C167.842 204.031 156.976 200.527 156.976 200.527C156.976 200.527 156.047 200.664 153.756 199.605C152.103 201.035 150.123 203.334 149.942 206.278C149.929 207.495 150.163 208.703 150.629 209.827C151.095 210.952 151.784 211.97 152.654 212.822C154.376 213.278 156.038 213.683 157.614 213.95C164.648 215.233 173.275 218.427 177.752 220.347C181.362 222.018 185.286 222.899 189.264 222.93C192.777 222.93 191.408 223.455 193.973 222.809C196.539 222.164 195.652 220.373 195.652 220.373C196.745 220.317 197.824 220.103 198.855 219.736C200.767 219.09 200.13 216.533 200.13 216.533C201.385 216.578 202.637 216.376 203.815 215.939C205.769 214.914 205.769 212.761 204.925 210.773C203.651 207.759 196.298 205.641 192.139 204.685Z" fill="white"/>
<path d="M193.973 222.783C195.566 222.387 195.824 221.535 195.798 220.95C194.892 221.091 193.977 221.172 193.06 221.191C187.981 221.191 182.126 216.886 172.353 215.327C167.007 214.466 158.5 213.037 151.896 211.883C152.146 212.21 152.396 212.52 152.654 212.805C154.376 213.261 156.038 213.666 157.613 213.932C164.648 215.215 173.275 218.41 177.752 220.33C181.361 222.001 185.286 222.882 189.263 222.913C192.776 222.904 191.407 223.412 193.973 222.783Z" fill="white"/>
<path opacity="0.6" d="M193.973 222.783C195.566 222.387 195.824 221.535 195.798 220.95C194.892 221.091 193.977 221.172 193.06 221.191C187.981 221.191 182.126 216.886 172.353 215.327C167.007 214.466 158.5 213.037 151.896 211.883C152.146 212.21 152.396 212.52 152.654 212.805C154.376 213.261 156.038 213.666 157.613 213.932C164.648 215.215 173.275 218.41 177.752 220.33C181.361 222.001 185.286 222.882 189.263 222.913C192.776 222.904 191.407 223.412 193.973 222.783Z" fill="white"/>
<path d="M192.139 204.685C187.981 203.721 187.662 204.685 177.752 204.358C167.842 204.031 156.976 200.527 156.976 200.527C156.976 200.527 156.047 200.664 153.756 199.605C152.103 201.035 150.123 203.334 149.942 206.278C149.929 207.495 150.163 208.703 150.629 209.827C151.095 210.952 151.784 211.97 152.654 212.822C154.376 213.278 156.038 213.683 157.614 213.95C164.648 215.233 173.275 218.427 177.752 220.347C181.362 222.018 185.286 222.899 189.264 222.93C192.777 222.93 191.408 223.455 193.973 222.809C196.539 222.164 195.652 220.373 195.652 220.373C196.745 220.317 197.824 220.103 198.855 219.736C200.767 219.09 200.13 216.533 200.13 216.533C201.385 216.578 202.637 216.376 203.815 215.939C205.769 214.914 205.769 212.761 204.925 210.773C203.651 207.759 196.298 205.641 192.139 204.685Z" stroke="#263238" stroke-width="0.919183" stroke-linecap="round" stroke-linejoin="round"/>
<path d="M200.13 216.524C198.66 215.213 197.038 214.083 195.3 213.158" stroke="#263238" stroke-width="0.919183" stroke-linecap="round" stroke-linejoin="round"/>
<path d="M195.653 220.347C195.653 220.347 192.777 218.427 192.14 217.153" stroke="#263238" stroke-width="0.919183" stroke-linecap="round" stroke-linejoin="round"/>
<path d="M191.183 222.551C189.962 221.902 188.952 220.916 188.273 219.71" stroke="#263238" stroke-width="0.919183" stroke-linecap="round" stroke-linejoin="round"/>
<path d="M187.344 222.904C185.847 222.614 184.493 221.825 183.504 220.666" stroke="#263238" stroke-width="0.919183" stroke-linecap="round" stroke-linejoin="round"/>
<path d="M184.011 20.2176C184.011 20.2176 177.933 25.8055 178.423 31.8841C178.914 37.9627 176.96 41.355 177.692 45.7461C178.423 50.1372 179.414 58.661 181.136 60.8221C182.858 62.9832 183.081 65.4457 184.786 66.6597C186.491 67.8737 192.329 67.8737 193.543 65.9278C194.757 63.982 207.646 56.4569 208.619 53.7706C209.591 51.0843 209.35 50.3696 209.35 50.3696C209.35 50.3696 217.857 45.264 216.643 40.8987C215.429 36.5335 212.019 34.8201 210.074 36.2838C208.128 37.7475 207.887 38.4707 207.887 38.4707C207.887 38.4707 202.798 35.1214 203.771 31.9616C204.744 28.8017 207.783 27.7169 206.81 24.0663C205.838 20.4157 198.562 22.241 190.822 22.835C184.717 23.2828 186.723 17.979 184.011 20.2176Z" fill="white"/>
<path d="M216.6 40.8814C215.386 36.5075 211.977 34.8027 210.031 36.2664C208.085 37.7301 207.844 38.4533 207.844 38.4533C207.844 38.4533 202.755 35.1041 203.728 31.9442C204.701 28.7844 207.74 27.6995 206.768 24.0489C205.795 20.3983 200.999 16.4549 193.258 17.049C191.476 17.1868 190.185 17.3245 189.177 17.5054C192.406 17.2471 197.985 17.2643 200.904 19.9334C205.209 23.8423 201.266 27.7512 200.198 31.6687C199.13 35.5862 201.619 40.9072 200.904 44.8161C200.19 48.725 196.642 51.5663 196.642 56.5428C196.642 61.5194 196.995 63.3016 192.337 66.4959L191.425 67.1503C192.228 66.998 192.952 66.5646 193.465 65.9277C194.679 63.9818 207.568 56.4567 208.541 53.7704C209.514 51.0841 209.273 50.3695 209.273 50.3695C209.273 50.3695 217.814 45.2638 216.6 40.8814Z" fill="white"/>
<path opacity="0.6" d="M216.6 40.8814C215.386 36.5075 211.977 34.8027 210.031 36.2664C208.085 37.7301 207.844 38.4533 207.844 38.4533C207.844 38.4533 202.755 35.1041 203.728 31.9442C204.701 28.7844 207.74 27.6995 206.768 24.0489C205.795 20.3983 200.999 16.4549 193.258 17.049C191.476 17.1868 190.185 17.3245 189.177 17.5054C192.406 17.2471 197.985 17.2643 200.904 19.9334C205.209 23.8423 201.266 27.7512 200.198 31.6687C199.13 35.5862 201.619 40.9072 200.904 44.8161C200.19 48.725 196.642 51.5663 196.642 56.5428C196.642 61.5194 196.995 63.3016 192.337 66.4959L191.425 67.1503C192.228 66.998 192.952 66.5646 193.465 65.9277C194.679 63.9818 207.568 56.4567 208.541 53.7704C209.514 51.0841 209.273 50.3695 209.273 50.3695C209.273 50.3695 217.814 45.2638 216.6 40.8814Z" fill="white"/>
<path d="M184.011 20.2176C184.011 20.2176 177.933 25.8055 178.423 31.8841C178.914 37.9627 176.96 41.355 177.692 45.7461C178.423 50.1372 179.414 58.661 181.136 60.8221C182.858 62.9832 183.081 65.4457 184.786 66.6597C186.491 67.8737 192.329 67.8737 193.543 65.9278C194.757 63.982 207.646 56.4569 208.619 53.7706C209.591 51.0843 209.35 50.3696 209.35 50.3696C209.35 50.3696 217.857 45.2639 216.643 40.8987C215.429 36.5335 212.019 34.8201 210.074 36.2838C208.128 37.7475 207.887 38.4707 207.887 38.4707C207.887 38.4707 202.798 35.1214 203.771 31.9616C204.744 28.8017 207.783 27.7169 206.81 24.0663C205.838 20.4157 198.562 22.241 190.822 22.835C184.717 23.2828 186.723 17.979 184.011 20.2176Z" stroke="#263238" stroke-width="0.919183" stroke-linecap="round" stroke-linejoin="round"/>
<path d="M189.996 41.6304C189.996 41.6304 192.656 45.2724 197.021 41.6304" stroke="#263238" stroke-width="0.919183" stroke-linecap="round" stroke-linejoin="round"/>
<path d="M179.147 41.1226C179.371 41.4166 179.656 41.6591 179.982 41.8337C180.307 42.0082 180.667 42.1108 181.036 42.1345C181.405 42.1582 181.775 42.1024 182.12 41.9709C182.466 41.8394 182.779 41.6352 183.039 41.3723" stroke="#263238" stroke-width="0.919183" stroke-linecap="round" stroke-linejoin="round"/>
<path d="M187.903 52.0743C185.957 52.5651 183.288 51.8332 183.039 51.1014C182.789 50.3695 184.261 40.8814 184.261 40.8814L182.539 37.9626C182.539 37.9626 181.076 35.7757 179.095 37.2394" stroke="#263238" stroke-width="0.919183" stroke-linecap="round" stroke-linejoin="round"/>
<path d="M183.53 56.4482L189.281 56.4224" stroke="#263238" stroke-width="0.919183" stroke-linecap="round" stroke-linejoin="round"/>
<path d="M198.605 37.7212C196.98 36.6781 195.099 36.1037 193.168 36.0611C191.237 36.0186 189.332 36.5096 187.662 37.4801" stroke="#263238" stroke-width="0.919183" stroke-linecap="round" stroke-linejoin="round"/>
<path d="M214.714 41.7425C214.714 41.7425 213.698 39.1078 211.667 39.9172C209.635 40.7265 209.23 43.3611 209.23 43.3611C209.23 43.3611 210.857 42.7498 210.857 44.7818C210.857 46.8137 209.032 45.9958 209.032 45.9958" stroke="#263238" stroke-width="0.919183" stroke-linecap="round" stroke-linejoin="round"/>
</svg>
