<svg width="298" height="165" viewBox="0 0 298 165" fill="none" xmlns="http://www.w3.org/2000/svg">
<path fill-rule="evenodd" clip-rule="evenodd" d="M135.41 56.0753C131.825 47.3817 137.971 43.9179 144.917 41.9238C145.941 49.422 144.814 55.7465 135.41 56.0753Z" fill="url(#paint0_linear_79_4559)"/>
<path fill-rule="evenodd" clip-rule="evenodd" d="M135.245 58.1858C142.291 56.5558 144.117 61.6986 144.73 67.2217C138.931 67.0369 134.299 65.3553 135.245 58.1858Z" fill="url(#paint1_linear_79_4559)"/>
<path fill-rule="evenodd" clip-rule="evenodd" d="M132.868 56.6297C133.074 50.2835 128.362 49.5663 123.486 49.9765C124.633 54.9454 126.866 58.6836 132.868 56.6297Z" fill="url(#paint2_linear_79_4559)"/>
<path fill-rule="evenodd" clip-rule="evenodd" d="M114.839 119.788C106.834 114.37 100.279 107.064 95.7491 98.5116C91.2196 89.9595 88.8543 80.4231 88.8612 70.7402C88.8612 50.612 98.9613 29.5818 118.446 22.0021C132.194 16.642 149.069 17.5847 160.467 27.1992H160.426C180.423 43.4045 178.68 76.2878 154.32 87.027C123.075 100.79 97.2188 62.533 118.833 40.7122C140.554 18.7937 173.456 45.2302 159.117 68.5424C155.429 74.5192 150.573 77.6625 145.657 78.6486C130.885 81.6072 122.178 64.8477 134.367 56.9393C128.036 62.9568 130.947 74.2937 140.903 74.6632C145.163 74.8289 149.692 73.2478 153.543 69.2297C164.925 57.3794 154.117 32.0975 132.259 37.6423C106.625 44.1625 111.541 84.5385 140.418 84.9759C173.282 85.4894 180.165 37.1397 146.239 27.1096C121.53 19.7961 101.021 41.8967 103.151 65.2905L103.132 65.2715L103.173 65.497C103.381 67.7993 103.821 70.0747 104.484 72.2888C106.212 78.7466 109.284 84.7647 113.498 89.9475V89.972C114.113 90.7299 114.75 91.4499 115.394 92.1698C120.6 97.7147 120.701 103.156 119.842 109.421C119.3 113.224 117.465 116.734 114.842 119.794L114.839 119.788Z" fill="url(#paint3_linear_79_4559)"/>
<path fill-rule="evenodd" clip-rule="evenodd" d="M147.887 11.5672C180.482 11.5672 206.913 38.0634 206.913 70.7403C206.913 99.3528 186.669 123.219 159.759 128.723C159.597 128.639 159.431 128.539 159.269 128.452C154.662 123.543 155.356 115.368 160.15 109.081C163.943 105.199 169.821 106.31 174.697 105.941C180.117 105.816 184.263 104.911 184.222 98.8774C184.2 95.0985 184.181 91.2353 186.989 88.2822C187.336 87.8285 187.685 85.9186 185.287 85.6307C185.677 85.3237 186.1 85.3237 186.864 84.9325C187.891 84.419 188.545 84.0088 187.726 82.9221C187.295 82.3787 186.661 81.7702 186.723 81.4224C186.517 80.352 185.658 76.7578 186.352 75.5462C187.461 73.677 191.352 73.0413 191.046 70.656C188.935 65.2226 183.135 61.7207 181.019 56.2981C183.786 28.6527 163.38 9.57041 134.657 13.2081C134.164 13.2706 133.692 13.3304 133.221 13.4146C138.02 12.181 142.956 11.5594 147.911 11.5645L147.887 11.5672Z" fill="url(#paint4_linear_79_4559)"/>
<path fill-rule="evenodd" clip-rule="evenodd" d="M87.7122 90.6838C84.0479 79.8696 83.3262 68.2715 85.6216 57.0846C87.9169 45.8977 93.1462 35.5267 100.771 27.0404C108.395 18.5541 118.139 12.2593 128.998 8.80478C139.857 5.35028 151.438 4.86099 162.549 7.38734C173.659 9.91369 183.897 15.3643 192.206 23.1775C200.516 30.9906 206.597 40.8838 209.823 51.8374C213.049 62.791 213.304 74.4088 210.56 85.4938C207.816 96.5787 202.174 106.73 194.214 114.901C203.035 106.692 209.455 96.2256 212.782 84.6294C216.108 73.0332 216.215 60.7469 213.091 49.0943C209.967 37.4417 203.73 26.8646 195.053 18.5028C186.376 10.141 175.587 4.31152 163.849 1.64248C152.111 -1.02656 139.869 -0.433954 128.442 3.35644C117.015 7.14684 106.837 13.9913 99.0032 23.1524C91.1699 32.3134 85.9787 43.4437 83.9891 55.3438C81.9994 67.244 83.2867 79.4628 87.7122 90.6838Z" fill="url(#paint5_linear_79_4559)"/>
<g clip-path="url(#clip0_79_4559)">
<path d="M20.3101 156.04C20.3101 159.489 20.31 161.588 20.4484 162.448C20.5867 163.308 20.9372 163.955 21.6105 164.047C22.0466 164.12 22.4876 164.161 22.9296 164.168C23.0864 164.168 23.1692 164.232 23.1692 164.352C23.1692 164.473 23.0034 164.574 22.6806 164.574C22.0349 164.574 21.2509 164.574 20.3286 164.574H19.0741H17.9211C17.1187 164.574 16.547 164.574 16.1965 164.574C15.846 164.574 15.7353 164.5 15.7353 164.352C15.7353 164.205 15.8091 164.168 15.9567 164.168C16.2678 164.164 16.5774 164.124 16.879 164.047C17.3125 163.955 17.5984 163.419 17.7367 162.448C17.8751 161.477 17.875 159.489 17.875 156.04V152.952C17.875 152.831 17.8105 152.776 17.6906 152.776H5.24815C5.12825 152.776 5.06373 152.831 5.06373 152.952V156.04C5.06373 159.489 5.10976 161.588 5.21122 162.448C5.31268 163.308 5.69084 163.955 6.36415 164.047C6.80025 164.12 7.24126 164.16 7.68327 164.168C7.84006 164.168 7.92308 164.232 7.92308 164.352C7.92308 164.473 7.76626 164.574 7.43422 164.574C6.78857 164.574 6.00455 164.574 5.09143 164.574H3.82771H2.67478C1.88156 164.574 1.3006 164.574 0.950111 164.574C0.599621 164.574 0.488939 164.5 0.488939 164.352C0.488939 164.205 0.562718 164.168 0.710293 164.168C1.02136 164.164 1.33091 164.123 1.63264 164.047C2.05691 163.955 2.34277 163.419 2.48112 162.448C2.61947 161.477 2.61961 159.489 2.61961 156.04V150.862C2.61961 147.25 2.60111 145.123 2.56421 144.482C2.56886 144.084 2.47028 143.692 2.27823 143.345C2.15786 143.197 2.0096 143.074 1.84183 142.983C1.67406 142.893 1.49003 142.837 1.30049 142.817C0.976584 142.745 0.645542 142.711 0.313748 142.716C0.147726 142.716 0.0646973 142.66 0.0646973 142.549C0.0646973 142.392 0.221505 142.309 0.535102 142.309C1.07928 142.309 1.78029 142.309 2.63807 142.309L3.8554 142.374L5.03603 142.309C5.82002 142.309 6.38273 142.309 6.73322 142.309C7.08372 142.309 7.20363 142.392 7.20363 142.549C7.20363 142.706 7.12985 142.716 6.98228 142.716C6.72861 142.737 6.47611 142.771 6.22589 142.817C5.57103 142.938 5.21139 143.492 5.15605 144.482C5.15605 145.12 5.09143 147.256 5.09143 150.862V151.472C5.08846 151.497 5.09109 151.522 5.09931 151.546C5.10753 151.57 5.12118 151.592 5.13894 151.609C5.1567 151.627 5.17826 151.641 5.20199 151.649C5.22572 151.657 5.25091 151.66 5.27585 151.657H17.7183C17.7432 151.66 17.7686 151.657 17.7923 151.649C17.8161 151.641 17.8376 151.627 17.8554 151.609C17.8732 151.592 17.8866 151.57 17.8948 151.546C17.903 151.522 17.9056 151.497 17.9027 151.472V150.862C17.9027 147.25 17.8813 145.123 17.8383 144.482C17.8449 144.085 17.7496 143.694 17.5615 143.345C17.3171 143.047 16.966 142.858 16.5838 142.817C16.2599 142.745 15.9286 142.711 15.5968 142.716C15.4308 142.716 15.3478 142.66 15.3478 142.549C15.3478 142.392 15.5046 142.309 15.8182 142.309C16.3531 142.309 17.0541 142.309 17.9211 142.309L19.1387 142.374L20.3101 142.309C21.0941 142.309 21.6658 142.309 22.0163 142.309C22.3668 142.309 22.4867 142.392 22.4867 142.549C22.4867 142.706 22.4129 142.716 22.2561 142.716C22.0993 142.716 21.915 142.716 21.5092 142.817C20.8451 142.938 20.4945 143.492 20.4391 144.482C20.3961 145.098 20.3747 147.225 20.3747 150.862L20.3101 156.04Z" fill="white"/>
<path d="M29.4318 152.896C29.4318 149.836 29.432 148.033 29.3674 147.487C29.3618 147.167 29.2862 146.851 29.1461 146.563C29.0432 146.441 28.9163 146.342 28.7734 146.272C28.6306 146.202 28.4747 146.163 28.3158 146.156C27.8731 146.156 27.5687 146.091 27.3935 146.091C27.3661 146.094 27.3386 146.091 27.3127 146.082C27.2867 146.072 27.263 146.057 27.2435 146.038C27.2241 146.018 27.2092 145.995 27.2001 145.969C27.1909 145.943 27.1877 145.915 27.1906 145.888C27.1906 145.758 27.3289 145.684 27.5964 145.684H29.4872H30.594H36.7829C37.0118 145.67 37.2397 145.642 37.4654 145.601L37.9543 145.546L38.2957 145.416C38.3787 145.416 38.4247 145.499 38.4247 145.647C38.4057 145.784 38.3782 145.92 38.3418 146.054C38.2877 146.307 38.2475 146.564 38.2218 146.821C38.2218 146.886 38.1758 147.164 38.1389 147.635C38.1306 147.92 38.1028 148.205 38.0558 148.486C38.0558 148.662 37.9452 148.754 37.8345 148.754C37.7238 148.754 37.6316 148.643 37.6316 148.43C37.64 148.114 37.5833 147.799 37.4654 147.506C37.3178 147.127 36.7091 146.877 35.6207 146.757C34.3934 146.661 33.1621 146.627 31.9314 146.655C31.8391 146.655 31.7931 146.738 31.7931 146.914V153.756C31.7931 153.932 31.8391 154.025 31.9314 154.025C34.4217 154.025 35.8607 154.024 36.2481 153.96C36.6904 153.97 37.126 153.851 37.5024 153.618C37.7237 153.396 37.853 153.294 37.8899 153.294C37.9268 153.294 38.0558 153.359 38.0558 153.497L37.9728 153.941C37.9026 154.245 37.8564 154.554 37.8345 154.866C37.7607 155.707 37.7329 156.253 37.7329 156.493C37.7329 156.734 37.6499 156.956 37.4839 156.956C37.3179 156.956 37.2995 156.882 37.2995 156.734C37.3092 156.453 37.2751 156.172 37.1981 155.902C37.0782 155.485 36.6353 155.227 35.8606 155.134C35.2703 155.06 33.9698 155.032 31.9498 155.032C31.9285 155.029 31.9068 155.031 31.8863 155.038C31.8659 155.045 31.8475 155.056 31.8323 155.072C31.8171 155.087 31.8055 155.105 31.7987 155.126C31.7919 155.146 31.79 155.168 31.7931 155.19V161.551C31.7607 161.854 31.7989 162.16 31.9046 162.446C32.0102 162.731 32.1803 162.988 32.4018 163.197C33.185 163.514 34.0323 163.641 34.8738 163.567C35.7464 163.613 36.6206 163.522 37.4654 163.299C37.7981 163.138 38.0821 162.892 38.288 162.584C38.4939 162.277 38.6143 161.92 38.6368 161.551C38.6829 161.311 38.766 161.181 38.9043 161.181C39.0427 161.181 39.0705 161.311 39.0705 161.551C39.0601 162.37 38.9422 163.185 38.7199 163.974C38.6369 164.279 38.5078 164.473 38.3141 164.538C37.9752 164.612 37.6275 164.64 37.281 164.621L32.7801 164.538C32.0514 164.538 31.3411 164.482 30.6309 164.482C30.2712 164.482 29.9023 164.482 29.5242 164.482C29.146 164.482 28.5187 164.538 28.0206 164.538C27.7532 164.538 27.6149 164.473 27.6149 164.334C27.612 164.307 27.6151 164.279 27.6243 164.253C27.6335 164.227 27.6485 164.203 27.668 164.184C27.6875 164.164 27.711 164.149 27.7369 164.14C27.7628 164.131 27.7904 164.128 27.8177 164.131C28.0842 164.106 28.3492 164.066 28.6111 164.011C28.9431 163.955 29.1737 163.52 29.2751 162.688C29.4294 160.887 29.4848 159.078 29.4411 157.27L29.4318 152.896Z" fill="white"/>
<path d="M49.6591 146.147C49.9173 145.53 50.1202 145.207 50.2677 145.176C50.3969 145.176 50.6089 145.481 50.8949 146.1L53.5698 152.656C55.3776 157.132 56.5519 160.01 57.093 161.292C57.7386 162.858 58.4766 163.783 59.3067 164.066C59.6355 164.166 59.9778 164.213 60.3212 164.205C60.5333 164.205 60.6441 164.279 60.6441 164.408C60.6441 164.538 60.4413 164.612 60.0539 164.612C58.5228 164.612 57.1668 164.612 55.977 164.556C55.3621 164.556 55.0546 164.501 55.0546 164.39C55.0546 164.325 55.1192 164.261 55.2391 164.205C55.5342 164.082 55.608 163.86 55.4604 163.539L53.1546 157.788C53.1322 157.742 53.0964 157.704 53.0519 157.679C53.0073 157.655 52.9564 157.644 52.9057 157.649H46.9472C46.8869 157.646 46.8274 157.665 46.7799 157.702C46.7324 157.74 46.7 157.793 46.6889 157.853L45.2133 161.847C44.9834 162.383 44.8522 162.956 44.826 163.539C44.826 163.983 45.1334 164.205 45.7483 164.205H45.9789C46.1542 164.205 46.237 164.279 46.237 164.408C46.237 164.538 46.1172 164.612 45.8774 164.612C45.6376 164.612 45.1949 164.612 44.5769 164.612H43.5438H42.5294C41.8837 164.612 41.3486 164.612 40.9335 164.612C40.5184 164.612 40.4264 164.547 40.4264 164.408C40.4264 164.27 40.5002 164.205 40.6662 164.205C40.9225 164.208 41.1784 164.189 41.4316 164.15C42.3539 164.039 43.0366 163.271 43.6084 161.847L49.6591 146.147ZM52.5367 156.567C52.6289 156.567 52.6566 156.512 52.6197 156.392L50.0648 149.522C49.9265 149.161 49.7882 149.161 49.6406 149.522L47.2239 156.392C47.2239 156.512 47.224 156.567 47.307 156.567H52.5367Z" fill="white"/>
<path d="M66.5747 157.363C66.5747 160.778 66.7531 162.655 67.1097 162.994C67.4971 163.382 68.6408 163.585 70.5316 163.585C72.1918 163.585 73.2342 163.327 73.6492 162.809C73.9848 162.412 74.2021 161.928 74.2764 161.413C74.2764 161.191 74.3963 161.08 74.5439 161.08C74.6915 161.08 74.7098 161.209 74.7098 161.468C74.6982 162.313 74.5742 163.153 74.341 163.965C74.3205 164.08 74.2753 164.189 74.2084 164.285C74.1415 164.381 74.0544 164.461 73.9535 164.519C73.5378 164.624 73.1086 164.665 72.6807 164.64C70.7623 164.64 69.2587 164.64 68.1796 164.556C67.1004 164.473 66.0674 164.501 65.4125 164.501C65.0436 164.501 64.6932 164.501 64.3519 164.501C63.8231 164.538 63.325 164.556 62.8576 164.556C62.5809 164.556 62.4519 164.492 62.4519 164.353C62.449 164.325 62.4521 164.298 62.4613 164.272C62.4705 164.246 62.4853 164.222 62.5048 164.203C62.5242 164.183 62.548 164.168 62.5739 164.159C62.5998 164.15 62.6274 164.147 62.6547 164.15C62.9233 164.145 63.1902 164.105 63.4481 164.029C63.7801 163.946 64.0014 163.511 64.1121 162.707C64.2664 160.905 64.3218 159.097 64.2781 157.289V152.878C64.2781 149.818 64.278 148.014 64.2135 147.469C64.2078 147.148 64.1322 146.833 63.9921 146.544C63.8892 146.423 63.7625 146.324 63.6196 146.254C63.4768 146.184 63.321 146.144 63.1621 146.137C62.7101 146.137 62.415 146.073 62.2397 146.073C62.212 146.078 62.1835 146.076 62.1566 146.067C62.1298 146.059 62.1054 146.044 62.0855 146.024C62.0656 146.004 62.0507 145.979 62.0423 145.953C62.0338 145.926 62.032 145.897 62.0368 145.869C62.0368 145.74 62.1751 145.666 62.4426 145.666H64.2873H65.3664L68.2165 145.601C68.4932 145.601 68.6223 145.675 68.6223 145.804C68.6223 145.934 68.5577 145.99 68.4194 145.99C68.1354 145.991 67.8518 146.012 67.5709 146.054C67.4235 146.068 67.2808 146.114 67.1521 146.187C67.0233 146.26 66.9114 146.36 66.8238 146.479C66.6836 146.768 66.6081 147.083 66.6024 147.404C66.6024 147.953 66.6024 149.756 66.6024 152.813L66.5747 157.363Z" fill="white"/>
<path d="M103.137 160.876H103.256C105.507 153.725 106.798 149.549 107.13 148.347C107.292 147.846 107.394 147.328 107.435 146.803C107.435 146.303 106.973 146.044 106.042 146.044C105.885 146.044 105.811 145.971 105.811 145.823C105.811 145.675 105.959 145.638 106.263 145.638H107.979H108.901H109.713H110.995C111.226 145.638 111.336 145.693 111.336 145.786C111.336 145.878 111.262 146.044 111.115 146.044C110.804 146.048 110.494 146.088 110.192 146.165C109.63 146.377 109.076 147.256 108.532 148.828C108.157 149.876 107.352 152.249 106.116 155.948C104.917 159.535 104.142 161.8 103.791 162.744C103.275 164.186 102.869 164.898 102.675 164.898C102.482 164.898 102.131 164.473 101.827 163.622L96.7815 149.91C96.5048 150.588 95.6256 152.85 94.1437 156.696C92.6864 160.469 91.7824 162.771 91.4503 163.585C91.1183 164.399 90.777 164.898 90.528 164.898C90.279 164.898 89.9379 164.242 89.532 162.929L84.9203 148.079C84.579 147.025 84.1271 146.396 83.5553 146.23C83.177 146.108 82.7809 146.052 82.3839 146.063C82.2178 146.063 82.144 145.989 82.144 145.841C82.144 145.693 82.2824 145.656 82.5683 145.656H84.4868H85.6305H86.5529H88.296C88.6004 145.656 88.7572 145.721 88.7572 145.841C88.7572 145.961 88.6741 146.063 88.4989 146.063C88.1826 146.043 87.8661 146.1 87.5765 146.23C87.4633 146.258 87.3648 146.328 87.3 146.425C87.2352 146.523 87.2089 146.641 87.2262 146.756C87.3294 147.542 87.4928 148.317 87.715 149.077C88.8956 153.479 90.0239 157.418 91.1 160.894H91.1646L96.5694 146.895C96.8738 146.128 97.1044 145.74 97.2796 145.74C97.4549 145.74 97.6855 146.137 97.9714 146.923L103.137 160.876Z" fill="white"/>
<path d="M117.894 157.307C117.894 160.229 117.894 162.041 118.014 162.726C118.035 163.042 118.103 163.354 118.217 163.65C118.296 163.774 118.403 163.877 118.53 163.951C118.656 164.025 118.799 164.068 118.945 164.075C119.335 164.145 119.73 164.186 120.126 164.196C120.153 164.193 120.181 164.196 120.207 164.205C120.233 164.214 120.257 164.229 120.276 164.249C120.295 164.268 120.31 164.292 120.319 164.318C120.329 164.344 120.332 164.372 120.329 164.399C120.329 164.538 120.191 164.603 119.923 164.603C119.324 164.603 118.623 164.603 117.811 164.603H116.676H115.643C114.952 164.603 114.444 164.603 114.122 164.603C113.799 164.603 113.716 164.538 113.716 164.399C113.713 164.372 113.716 164.344 113.725 164.318C113.734 164.292 113.749 164.268 113.769 164.249C113.788 164.229 113.812 164.214 113.838 164.205C113.864 164.196 113.891 164.193 113.919 164.196C114.187 164.192 114.454 164.151 114.712 164.075C115.062 163.992 115.284 163.558 115.376 162.753C115.468 161.949 115.542 160.026 115.542 157.335V152.924C115.542 149.864 115.542 148.061 115.477 147.515C115.431 146.72 115.155 146.276 114.647 146.174C114.39 146.114 114.127 146.08 113.863 146.073C113.836 146.078 113.807 146.076 113.78 146.067C113.753 146.059 113.729 146.044 113.709 146.024C113.689 146.004 113.674 145.979 113.666 145.953C113.657 145.926 113.656 145.897 113.66 145.869C113.66 145.74 113.789 145.666 114.066 145.666H115.643H116.676L119.268 145.601C119.545 145.601 119.674 145.675 119.674 145.804C119.679 145.832 119.677 145.861 119.669 145.888C119.66 145.915 119.645 145.939 119.625 145.959C119.606 145.979 119.581 145.994 119.554 146.002C119.527 146.011 119.499 146.013 119.471 146.008C119.254 146.01 119.038 146.031 118.826 146.073C118.687 146.084 118.553 146.126 118.433 146.197C118.313 146.267 118.211 146.364 118.134 146.479C117.994 146.768 117.918 147.083 117.912 147.404C117.912 147.95 117.912 149.753 117.912 152.813L117.894 157.307Z" fill="white"/>
<path d="M132.624 157.307C132.624 160.229 132.624 162.041 132.753 162.725C132.882 163.409 133.159 163.955 133.74 164.047C134.129 164.12 134.524 164.16 134.92 164.168C134.948 164.165 134.975 164.168 135.001 164.177C135.027 164.186 135.051 164.201 135.07 164.221C135.09 164.24 135.105 164.264 135.114 164.29C135.123 164.316 135.126 164.344 135.123 164.371C135.123 164.51 134.985 164.575 134.718 164.575C134.136 164.575 133.435 164.575 132.624 164.575H131.508H130.419C129.672 164.575 129.146 164.575 128.833 164.575C128.519 164.575 128.427 164.51 128.427 164.371C128.427 164.232 128.501 164.214 128.63 164.214C128.892 164.201 129.151 164.16 129.405 164.094C129.811 163.992 130.06 163.539 130.152 162.725C130.244 161.912 130.272 160.229 130.272 157.307V146.803H126.582C125.162 146.803 124.295 147.117 123.972 147.617C123.813 147.869 123.677 148.135 123.566 148.412C123.555 148.475 123.522 148.532 123.473 148.572C123.424 148.613 123.362 148.635 123.299 148.634C123.179 148.634 123.114 148.569 123.114 148.43C123.114 148.292 123.207 147.875 123.382 147.053C123.557 146.23 123.668 145.767 123.668 145.73C123.797 145.416 123.889 145.259 123.926 145.259C124.058 145.282 124.187 145.315 124.313 145.36C124.562 145.457 124.823 145.519 125.088 145.545C125.759 145.624 126.433 145.664 127.108 145.666H136.857C137.474 145.672 138.091 145.632 138.702 145.545L139.431 145.425C139.514 145.425 139.56 145.527 139.56 145.73C139.56 145.934 139.56 146.563 139.514 147.33V148.569C139.514 148.791 139.431 148.893 139.265 148.893C139.099 148.893 139.08 148.754 139.062 148.467V148.208C138.97 147.284 137.936 146.858 135.963 146.803H132.716L132.624 157.307Z" fill="white"/>
<path d="M160.801 157.307C160.801 159.998 160.848 161.81 160.958 162.726C160.974 163.043 161.042 163.356 161.161 163.65C161.24 163.774 161.347 163.877 161.474 163.951C161.601 164.025 161.743 164.068 161.89 164.075C162.27 164.149 162.656 164.189 163.043 164.196C163.199 164.196 163.273 164.27 163.273 164.399C163.273 164.529 163.126 164.603 162.821 164.603C162.259 164.603 161.567 164.603 160.755 164.603H159.621H158.588C157.887 164.603 157.38 164.603 157.066 164.603C156.752 164.603 156.66 164.538 156.66 164.399C156.657 164.372 156.66 164.344 156.67 164.318C156.679 164.292 156.694 164.268 156.713 164.249C156.733 164.229 156.756 164.214 156.782 164.205C156.808 164.196 156.836 164.193 156.863 164.196C157.125 164.187 157.385 164.147 157.638 164.075C157.997 163.992 158.237 163.548 158.348 162.735C158.459 161.921 158.449 160.266 158.449 157.39V154.894C158.449 154.801 158.403 154.755 158.302 154.755H147.52C147.501 154.752 147.481 154.753 147.463 154.759C147.445 154.765 147.428 154.775 147.415 154.789C147.401 154.802 147.391 154.819 147.385 154.837C147.379 154.855 147.378 154.875 147.381 154.894V157.39C147.381 160.275 147.381 162.069 147.501 162.753C147.522 163.07 147.59 163.382 147.704 163.678C147.783 163.802 147.89 163.905 148.017 163.979C148.144 164.053 148.286 164.096 148.433 164.103C148.823 164.173 149.217 164.213 149.613 164.224C149.641 164.221 149.668 164.224 149.694 164.233C149.72 164.242 149.744 164.257 149.763 164.277C149.783 164.296 149.798 164.32 149.807 164.346C149.816 164.372 149.819 164.4 149.816 164.427C149.816 164.566 149.678 164.63 149.41 164.63C148.811 164.63 148.119 164.63 147.317 164.63H146.21H145.149C144.439 164.63 143.922 164.63 143.609 164.63C143.295 164.63 143.203 164.566 143.203 164.427C143.2 164.4 143.203 164.372 143.213 164.346C143.222 164.32 143.237 164.296 143.256 164.277C143.275 164.257 143.299 164.242 143.325 164.233C143.351 164.224 143.379 164.221 143.406 164.224C143.675 164.22 143.942 164.179 144.199 164.103C144.541 164.02 144.762 163.586 144.873 162.781C145.017 160.979 145.069 159.17 145.029 157.363V152.952C145.029 149.891 145.029 148.088 144.965 147.543C144.967 147.221 144.891 146.904 144.743 146.618C144.64 146.497 144.513 146.398 144.371 146.328C144.228 146.258 144.072 146.218 143.913 146.212C143.471 146.212 143.175 146.147 142.991 146.147C142.963 146.152 142.935 146.15 142.908 146.141C142.881 146.133 142.857 146.118 142.837 146.098C142.817 146.078 142.802 146.054 142.793 146.027C142.785 146 142.783 145.971 142.788 145.943C142.788 145.814 142.917 145.74 143.185 145.74H145.029H146.145L148.691 145.675C148.968 145.675 149.097 145.749 149.097 145.879C149.102 145.906 149.1 145.935 149.091 145.962C149.083 145.989 149.068 146.013 149.048 146.033C149.028 146.053 149.004 146.068 148.977 146.077C148.95 146.085 148.922 146.087 148.894 146.082C148.677 146.084 148.461 146.105 148.248 146.147C148.111 146.162 147.978 146.206 147.859 146.276C147.74 146.346 147.637 146.441 147.557 146.554C147.416 146.842 147.341 147.157 147.335 147.478C147.335 148.024 147.335 149.845 147.335 152.943V153.479C147.332 153.498 147.333 153.517 147.339 153.536C147.345 153.554 147.355 153.571 147.368 153.584C147.382 153.598 147.399 153.608 147.417 153.614C147.435 153.62 147.455 153.621 147.473 153.618H158.256C158.357 153.618 158.403 153.572 158.403 153.479V152.943C158.403 150.114 158.403 148.32 158.339 147.478C158.333 147.159 158.264 146.845 158.136 146.554C158.038 146.431 157.914 146.331 157.774 146.261C157.634 146.191 157.481 146.152 157.324 146.147C156.918 146.147 156.623 146.082 156.402 146.082C156.374 146.087 156.346 146.085 156.319 146.077C156.292 146.068 156.268 146.053 156.248 146.033C156.228 146.013 156.213 145.989 156.204 145.962C156.196 145.935 156.194 145.906 156.199 145.879C156.199 145.749 156.328 145.675 156.596 145.675H158.44H159.51L162.083 145.61C162.369 145.61 162.508 145.684 162.508 145.814C162.508 145.943 162.434 146.017 162.286 146.017C162.07 146.02 161.854 146.042 161.641 146.082C161.097 146.193 160.801 146.655 160.718 147.46C160.681 148.008 160.663 149.811 160.663 152.869L160.801 157.307Z" fill="white"/>
<path d="M176.02 164.214C175.734 164.048 175.596 163.669 175.596 163.077C175.596 162.088 175.642 161.052 175.734 159.961C175.734 159.656 175.817 159.498 175.956 159.498C176.094 159.498 176.177 159.6 176.177 159.804C176.17 160.172 176.197 160.541 176.26 160.904C176.346 161.382 176.533 161.837 176.81 162.236C177.087 162.635 177.447 162.969 177.865 163.216C178.702 163.708 179.662 163.948 180.632 163.909C181.221 163.935 181.808 163.836 182.356 163.619C182.904 163.403 183.401 163.073 183.814 162.652C184.154 162.299 184.42 161.881 184.597 161.424C184.775 160.967 184.859 160.479 184.847 159.989C184.864 159.058 184.604 158.144 184.1 157.363C183.351 156.348 182.463 155.446 181.462 154.681L180.152 153.609C177.597 151.491 176.315 149.364 176.315 147.21C176.291 146.487 176.425 145.768 176.709 145.104C176.993 144.439 177.419 143.845 177.957 143.363C179.205 142.343 180.785 141.823 182.393 141.902C183.324 141.893 184.252 141.989 185.161 142.189C185.499 142.274 185.845 142.327 186.193 142.346C186.396 142.346 186.498 142.42 186.498 142.55C186.498 142.448 186.498 142.726 186.442 143.41C186.387 144.094 186.378 144.852 186.378 145.666C186.378 146.119 186.314 146.35 186.175 146.35C186.037 146.35 185.954 146.221 185.935 145.971C185.912 145.453 185.78 144.946 185.548 144.482C184.921 143.456 183.703 142.938 181.858 142.938C180.921 142.909 180.007 143.24 179.304 143.863C178.955 144.176 178.679 144.562 178.495 144.993C178.31 145.424 178.221 145.89 178.234 146.359C178.226 147.179 178.481 147.98 178.962 148.643C179.786 149.652 180.741 150.545 181.803 151.297L182.633 151.953C183.992 152.937 185.158 154.162 186.074 155.569C186.657 156.572 186.954 157.718 186.931 158.879C186.965 159.84 186.754 160.794 186.316 161.651C185.879 162.507 185.23 163.236 184.432 163.77C183.116 164.634 181.566 165.066 179.995 165.009C178.627 165.05 177.268 164.778 176.02 164.214Z" fill="white"/>
<path d="M194.578 162.217C193.608 161.31 192.83 160.217 192.291 159.003C191.752 157.788 191.463 156.477 191.441 155.148C191.418 153.819 191.663 152.499 192.161 151.267C192.659 150.035 193.399 148.916 194.338 147.978C196.183 146.196 198.811 145.302 202.224 145.296C203.478 145.29 204.73 145.385 205.969 145.583C206.846 145.763 207.733 145.893 208.625 145.971C208.846 145.971 208.948 146.054 208.948 146.23L208.828 147.654L208.763 150.215C208.763 150.567 208.671 150.742 208.487 150.742C208.348 150.742 208.284 150.567 208.284 150.215C208.309 149.741 208.222 149.267 208.032 148.832C207.841 148.396 207.551 148.012 207.186 147.709C206.079 146.785 204.419 146.313 202.104 146.313C199.466 146.313 197.526 146.896 196.284 148.061C194.722 149.491 193.944 151.67 193.951 154.598C193.932 155.774 194.153 156.942 194.6 158.029C195.048 159.117 195.712 160.101 196.552 160.923C197.419 161.827 198.465 162.541 199.622 163.019C200.78 163.496 202.024 163.727 203.275 163.697C205.341 163.697 206.762 163.308 207.527 162.522C208.075 161.949 208.43 161.218 208.542 160.433C208.597 160.201 208.689 160.081 208.809 160.081C208.929 160.081 209.031 160.201 209.031 160.433C208.979 161.531 208.774 162.618 208.422 163.66C208.377 163.823 208.295 163.973 208.184 164.1C208.072 164.226 207.932 164.326 207.776 164.39C206.256 164.833 204.672 165.017 203.091 164.936C199.475 164.911 196.638 164.005 194.578 162.217Z" fill="white"/>
<path d="M217.544 157.307C217.544 160.229 217.544 162.041 217.664 162.726C217.685 163.042 217.753 163.354 217.867 163.65C217.946 163.774 218.053 163.877 218.18 163.951C218.306 164.025 218.449 164.068 218.595 164.075C218.985 164.145 219.38 164.186 219.776 164.196C219.803 164.193 219.831 164.196 219.857 164.205C219.883 164.214 219.907 164.229 219.926 164.249C219.945 164.268 219.96 164.292 219.969 164.318C219.979 164.344 219.982 164.372 219.979 164.399C219.979 164.538 219.841 164.603 219.573 164.603C218.974 164.603 218.273 164.603 217.461 164.603H216.326H215.293C214.602 164.603 214.094 164.603 213.772 164.603C213.449 164.603 213.366 164.538 213.366 164.399C213.363 164.372 213.366 164.344 213.375 164.318C213.384 164.292 213.399 164.268 213.419 164.249C213.438 164.229 213.462 164.214 213.488 164.205C213.514 164.196 213.541 164.193 213.569 164.196C213.837 164.192 214.104 164.151 214.362 164.075C214.712 163.992 214.934 163.558 215.026 162.753C215.118 161.949 215.192 160.026 215.192 157.335V152.924C215.192 149.864 215.192 148.061 215.127 147.515C215.081 146.72 214.805 146.276 214.297 146.174C214.04 146.114 213.777 146.08 213.513 146.073C213.486 146.078 213.457 146.076 213.43 146.067C213.403 146.059 213.379 146.044 213.359 146.024C213.339 146.004 213.324 145.979 213.316 145.953C213.307 145.926 213.306 145.897 213.31 145.869C213.31 145.74 213.439 145.666 213.716 145.666H215.293H216.326L218.918 145.601C219.195 145.601 219.324 145.675 219.324 145.804C219.329 145.832 219.327 145.861 219.318 145.888C219.31 145.915 219.295 145.939 219.275 145.959C219.256 145.979 219.231 145.994 219.204 146.002C219.177 146.011 219.149 146.013 219.121 146.008C218.904 146.01 218.688 146.031 218.475 146.073C218.337 146.084 218.203 146.126 218.083 146.197C217.963 146.267 217.861 146.364 217.784 146.479C217.644 146.768 217.568 147.083 217.562 147.404C217.562 147.95 217.562 149.753 217.562 152.813L217.544 157.307Z" fill="white"/>
<path d="M226.638 152.896C226.638 149.814 226.62 148.011 226.583 147.487C226.577 147.167 226.502 146.851 226.361 146.563C226.259 146.441 226.132 146.342 225.989 146.272C225.846 146.202 225.69 146.163 225.531 146.156C225.08 146.156 224.784 146.091 224.609 146.091C224.581 146.096 224.553 146.094 224.526 146.086C224.499 146.077 224.475 146.062 224.455 146.042C224.435 146.022 224.42 145.998 224.412 145.971C224.403 145.944 224.401 145.915 224.406 145.888C224.406 145.758 224.545 145.684 224.812 145.684H226.657H227.773H233.952C234.184 145.67 234.415 145.643 234.644 145.601L235.133 145.546C235.243 145.494 235.357 145.45 235.474 145.416C235.557 145.416 235.594 145.499 235.594 145.647C235.575 145.784 235.548 145.92 235.511 146.054C235.465 146.304 235.419 146.563 235.391 146.821C235.391 146.886 235.391 147.164 235.317 147.635C235.309 147.92 235.282 148.205 235.235 148.486C235.235 148.662 235.115 148.754 235.004 148.754C234.893 148.754 234.81 148.643 234.81 148.43C234.819 148.114 234.762 147.799 234.644 147.506C234.497 147.127 233.879 146.877 232.799 146.757C231.572 146.661 230.341 146.627 229.11 146.655C229.009 146.655 228.963 146.738 228.963 146.914V153.756C228.963 153.932 228.962 154.025 229.11 154.025C231.591 154.025 233.03 154.024 233.427 153.96C233.869 153.968 234.304 153.85 234.681 153.618C234.893 153.396 235.022 153.294 235.069 153.294C235.115 153.294 235.225 153.359 235.225 153.497L235.151 153.941C235.078 154.245 235.029 154.554 235.004 154.866C234.939 155.707 234.902 156.253 234.902 156.493C234.902 156.734 234.819 156.956 234.663 156.956C234.506 156.956 234.478 156.882 234.478 156.734C234.483 156.453 234.449 156.173 234.377 155.902C234.257 155.485 233.814 155.227 233.039 155.134C232.449 155.06 231.139 155.032 229.129 155.032C229.018 155.032 228.963 155.088 228.963 155.19V161.551C228.93 161.854 228.968 162.16 229.074 162.446C229.179 162.731 229.35 162.988 229.571 163.197C230.355 163.513 231.202 163.64 232.043 163.567C232.919 163.613 233.796 163.523 234.644 163.299C234.976 163.137 235.259 162.89 235.464 162.583C235.67 162.276 235.791 161.92 235.816 161.551C235.816 161.311 235.945 161.181 236.083 161.181C236.221 161.181 236.24 161.311 236.24 161.551C236.233 162.37 236.118 163.185 235.899 163.974C235.881 164.094 235.836 164.208 235.765 164.306C235.694 164.404 235.601 164.483 235.493 164.538C235.154 164.612 234.806 164.64 234.46 164.621L229.959 164.538C229.23 164.538 228.511 164.482 227.81 164.482C227.45 164.482 227.072 164.482 226.694 164.482C226.315 164.482 225.697 164.538 225.199 164.538C224.923 164.538 224.794 164.473 224.794 164.334C224.791 164.307 224.794 164.279 224.803 164.253C224.812 164.227 224.827 164.203 224.846 164.184C224.866 164.164 224.89 164.149 224.916 164.14C224.942 164.131 224.969 164.128 224.996 164.131C225.26 164.106 225.522 164.066 225.781 164.011C226.122 163.955 226.343 163.52 226.454 162.688C226.603 160.886 226.655 159.078 226.611 157.27L226.638 152.896Z" fill="white"/>
<path d="M244.015 161.153C243.995 161.874 244.082 162.594 244.273 163.289C244.325 163.465 244.42 163.625 244.551 163.753C244.682 163.881 244.844 163.973 245.02 164.02C245.441 164.118 245.871 164.165 246.303 164.159C246.45 164.159 246.524 164.232 246.524 164.362C246.524 164.491 246.358 164.565 246.035 164.565C245.445 164.565 244.836 164.565 244.19 164.565H243.268H242.346C241.746 164.565 241.22 164.565 240.741 164.565C240.473 164.565 240.335 164.501 240.335 164.362C240.332 164.335 240.335 164.307 240.344 164.281C240.354 164.255 240.368 164.231 240.388 164.212C240.407 164.192 240.431 164.177 240.457 164.168C240.483 164.159 240.511 164.156 240.538 164.159C240.896 164.167 241.254 164.121 241.599 164.02C241.762 163.96 241.906 163.856 242.016 163.722C242.126 163.587 242.199 163.425 242.226 163.252C242.331 162.471 242.371 161.682 242.346 160.895V146.544C242.346 145.703 242.456 145.287 242.687 145.287C242.917 145.287 243.185 145.536 243.683 146.035L246.45 148.92C248.47 151.075 250.278 152.97 251.855 154.588C252.87 155.636 254.099 156.937 255.544 158.491L257.933 161.033L257.666 148.495C257.694 147.915 257.625 147.333 257.463 146.775C257.407 146.61 257.305 146.464 257.169 146.355C257.034 146.245 256.87 146.176 256.697 146.156C256.283 146.083 255.864 146.043 255.443 146.035C255.305 146.035 255.24 145.961 255.24 145.814C255.24 145.666 255.397 145.629 255.72 145.629H257.408H258.441H259.252H260.627C260.949 145.629 261.115 145.693 261.115 145.814C261.115 145.934 261.014 146.035 260.811 146.035C260.607 146.038 260.403 146.059 260.202 146.1C260.03 146.12 259.868 146.187 259.732 146.295C259.597 146.403 259.494 146.547 259.437 146.71C259.305 147.226 259.255 147.76 259.289 148.292L259.234 162.966C259.234 164.159 259.16 164.75 259.031 164.75C258.291 164.363 257.625 163.847 257.066 163.225C256.058 162.374 253.807 160.112 250.315 156.438C246.152 152.036 243.923 149.676 243.628 149.355L244.015 161.153Z" fill="white"/>
<path d="M267.766 162.217C266.794 161.311 266.015 160.219 265.474 159.005C264.934 157.79 264.643 156.479 264.62 155.15C264.597 153.82 264.841 152.5 265.339 151.268C265.837 150.035 266.577 148.916 267.517 147.977C269.361 146.196 271.99 145.302 275.403 145.296C276.66 145.289 277.915 145.385 279.156 145.582C280.031 145.762 280.915 145.891 281.804 145.971C282.025 145.971 282.136 146.054 282.136 146.23L282.007 147.653L281.951 150.215C281.951 150.566 281.84 150.742 281.665 150.742C281.49 150.742 281.462 150.566 281.462 150.215C281.489 149.74 281.404 149.265 281.214 148.83C281.023 148.394 280.732 148.01 280.365 147.709C279.258 146.784 277.598 146.313 275.283 146.313C272.645 146.313 270.705 146.895 269.463 148.06C267.913 149.491 267.138 151.669 267.138 154.598C267.118 155.773 267.338 156.94 267.783 158.028C268.229 159.115 268.891 160.1 269.73 160.922C270.598 161.827 271.643 162.541 272.801 163.018C273.958 163.496 275.203 163.727 276.454 163.696C278.52 163.696 279.941 163.308 280.715 162.522C281.256 161.944 281.609 161.215 281.73 160.432C281.776 160.201 281.868 160.081 281.988 160.081C282.108 160.081 282.209 160.201 282.209 160.432C282.157 161.531 281.953 162.617 281.601 163.659C281.557 163.823 281.476 163.974 281.364 164.101C281.252 164.228 281.112 164.326 280.955 164.39C279.438 164.832 277.857 165.017 276.279 164.935C272.657 164.911 269.819 164.004 267.766 162.217Z" fill="white"/>
<path d="M288.371 152.896C288.371 149.814 288.352 148.011 288.315 147.487C288.31 147.167 288.234 146.851 288.094 146.563C287.99 146.443 287.862 146.345 287.72 146.275C287.577 146.205 287.422 146.165 287.264 146.156C286.812 146.156 286.517 146.091 286.342 146.091C286.314 146.096 286.285 146.094 286.258 146.086C286.232 146.077 286.207 146.062 286.187 146.042C286.167 146.022 286.153 145.998 286.144 145.971C286.136 145.944 286.134 145.915 286.139 145.888C286.139 145.758 286.277 145.684 286.544 145.684H288.389H289.505H295.685C295.917 145.67 296.148 145.643 296.377 145.601L296.866 145.546C296.976 145.494 297.09 145.45 297.207 145.416C297.29 145.416 297.327 145.499 297.327 145.647C297.308 145.784 297.28 145.92 297.244 146.054C297.19 146.307 297.149 146.564 297.124 146.821C297.124 146.886 297.124 147.164 297.041 147.635C297.033 147.92 297.009 148.204 296.967 148.486C296.921 148.662 296.847 148.754 296.736 148.754C296.626 148.754 296.533 148.643 296.533 148.43C296.545 148.115 296.491 147.8 296.377 147.506C296.229 147.127 295.611 146.877 294.532 146.757C293.305 146.661 292.073 146.627 290.843 146.655C290.741 146.655 290.695 146.738 290.695 146.914V153.756C290.695 153.932 290.741 154.025 290.843 154.025C293.324 154.025 294.763 154.024 295.159 153.96C295.601 153.968 296.036 153.85 296.413 153.618C296.626 153.396 296.755 153.294 296.801 153.294C296.847 153.294 296.958 153.359 296.958 153.497L296.875 153.941C296.809 154.246 296.763 154.555 296.736 154.866C296.672 155.707 296.635 156.253 296.635 156.493C296.635 156.734 296.552 156.956 296.395 156.956C296.238 156.956 296.211 156.882 296.211 156.734C296.216 156.453 296.182 156.173 296.109 155.902C295.989 155.485 295.537 155.227 294.772 155.134C294.172 155.06 292.872 155.032 290.861 155.032C290.75 155.032 290.695 155.088 290.695 155.19V161.551C290.663 161.854 290.701 162.16 290.806 162.446C290.912 162.731 291.082 162.988 291.304 163.197C292.087 163.514 292.934 163.641 293.776 163.567C294.648 163.615 295.523 163.524 296.368 163.299C296.701 163.139 296.986 162.892 297.194 162.585C297.401 162.278 297.524 161.921 297.548 161.551C297.548 161.311 297.677 161.181 297.806 161.181C297.935 161.181 297.972 161.311 297.972 161.551C297.965 162.37 297.85 163.185 297.631 163.974C297.614 164.094 297.568 164.208 297.497 164.306C297.427 164.404 297.333 164.483 297.225 164.538C296.886 164.612 296.539 164.64 296.192 164.621L291.691 164.538C290.963 164.538 290.243 164.482 289.542 164.482C289.173 164.482 288.804 164.482 288.426 164.482C288.048 164.482 287.43 164.538 286.932 164.538C286.655 164.538 286.526 164.473 286.526 164.334C286.523 164.307 286.526 164.279 286.536 164.253C286.545 164.227 286.56 164.203 286.579 164.184C286.599 164.164 286.622 164.149 286.648 164.14C286.674 164.131 286.701 164.128 286.729 164.131C286.992 164.106 287.254 164.066 287.513 164.011C287.854 163.955 288.076 163.52 288.186 162.688C288.33 160.886 288.383 159.078 288.343 157.27L288.371 152.896Z" fill="white"/>
</g>
<defs>
<linearGradient id="paint0_linear_79_4559" x1="139.791" y1="41.9238" x2="139.791" y2="56.0753" gradientUnits="userSpaceOnUse">
<stop stop-color="white"/>
<stop offset="1" stop-color="white"/>
</linearGradient>
<linearGradient id="paint1_linear_79_4559" x1="139.926" y1="57.8794" x2="139.926" y2="67.2217" gradientUnits="userSpaceOnUse">
<stop stop-color="white"/>
<stop offset="1" stop-color="white"/>
</linearGradient>
<linearGradient id="paint2_linear_79_4559" x1="128.181" y1="49.8828" x2="128.181" y2="57.2045" gradientUnits="userSpaceOnUse">
<stop stop-color="white"/>
<stop offset="1" stop-color="white"/>
</linearGradient>
<linearGradient id="paint3_linear_79_4559" x1="131.499" y1="18.7466" x2="131.499" y2="119.794" gradientUnits="userSpaceOnUse">
<stop stop-color="white"/>
<stop offset="1" stop-color="white"/>
</linearGradient>
<linearGradient id="paint4_linear_79_4559" x1="170.067" y1="11.5645" x2="170.067" y2="128.723" gradientUnits="userSpaceOnUse">
<stop stop-color="white"/>
<stop offset="1" stop-color="white"/>
</linearGradient>
<linearGradient id="paint5_linear_79_4559" x1="149.219" y1="0" x2="149.219" y2="114.901" gradientUnits="userSpaceOnUse">
<stop stop-color="white"/>
<stop offset="1" stop-color="white"/>
</linearGradient>
<clipPath id="clip0_79_4559">
<rect width="298" height="23.0976" fill="white" transform="translate(0 141.902)"/>
</clipPath>
</defs>
</svg>
