<svg width="260" height="21" viewBox="0 0 260 21" fill="none" xmlns="http://www.w3.org/2000/svg">
<g clip-path="url(#clip0_425_4620)">
<path d="M20.906 19.684C20.906 19.8113 20.8515 19.9334 20.7544 20.0235C20.6574 20.1135 20.5257 20.1641 20.3885 20.1641H0.517475C0.381061 20.1616 0.250974 20.1103 0.154497 20.0207C0.0580196 19.9312 0.00264955 19.8105 0 19.684C0 19.5567 0.0545196 19.4345 0.151565 19.3445C0.24861 19.2545 0.380232 19.2039 0.517475 19.2039H19.871V0.480097C19.871 0.352767 19.9255 0.230653 20.0226 0.140617C20.1196 0.0505812 20.2513 0 20.3885 0H40.2595C40.3968 0 40.5284 0.0505812 40.6254 0.140617C40.7225 0.230653 40.777 0.352767 40.777 0.480097V19.2039H59.6131V0.480097C59.6131 0.352767 59.6676 0.230653 59.7647 0.140617C59.8617 0.0505812 59.9933 0 60.1306 0H80.0016C80.1388 0 80.2704 0.0505812 80.3675 0.140617C80.4645 0.230653 80.5191 0.352767 80.5191 0.480097V19.2039H99.8726C100.01 19.2039 100.141 19.2545 100.239 19.3445C100.336 19.4345 100.39 19.5567 100.39 19.684C100.39 19.8113 100.336 19.9334 100.239 20.0235C100.141 20.1135 100.01 20.1641 99.8726 20.1641H80.0016C79.8652 20.1616 79.7351 20.1103 79.6386 20.0207C79.5421 19.9312 79.4868 19.8105 79.4841 19.684V0.960194H60.648V19.684C60.648 19.8113 60.5935 19.9334 60.4965 20.0235C60.3994 20.1135 60.2678 20.1641 60.1306 20.1641H40.2595C40.1231 20.1616 39.993 20.1103 39.8966 20.0207C39.8001 19.9312 39.7447 19.8105 39.7421 19.684V0.960194H20.906V19.684Z" fill="black"/>
<path d="M100.835 19.684C100.832 19.8105 100.777 19.9312 100.681 20.0207C100.584 20.1103 100.454 20.1616 100.318 20.1641H80.4155C80.2783 20.1641 80.1467 20.1135 80.0496 20.0235C79.9526 19.9334 79.8981 19.8113 79.8981 19.684C79.8981 19.5567 79.9526 19.4345 80.0496 19.3445C80.1467 19.2545 80.2783 19.2039 80.4155 19.2039H99.7691V0.480097C99.7691 0.352767 99.8236 0.230653 99.9207 0.140617C100.018 0.0505812 100.149 0 100.287 0H120.158C120.295 0 120.426 0.0505812 120.524 0.140617C120.621 0.230653 120.675 0.352767 120.675 0.480097V19.2039H139.511V0.480097C139.511 0.352767 139.566 0.230653 139.663 0.140617C139.76 0.0505812 139.891 0 140.029 0H159.9C160.037 0 160.169 0.0505812 160.266 0.140617C160.363 0.230653 160.417 0.352767 160.417 0.480097V19.2039H179.771C179.908 19.2039 180.04 19.2545 180.137 19.3445C180.234 19.4345 180.288 19.5567 180.288 19.684C180.286 19.8105 180.23 19.9312 180.134 20.0207C180.037 20.1103 179.907 20.1616 179.771 20.1641H159.9C159.762 20.1641 159.631 20.1135 159.534 20.0235C159.437 19.9334 159.382 19.8113 159.382 19.684V0.960194H140.546V19.684C140.543 19.8105 140.488 19.9312 140.392 20.0207C140.295 20.1103 140.165 20.1616 140.029 20.1641H120.158C120.02 20.1641 119.889 20.1135 119.792 20.0235C119.695 19.9334 119.64 19.8113 119.64 19.684V0.960194H100.835V19.684Z" fill="#C5F1F2"/>
</g>
<g clip-path="url(#clip1_425_4620)">
<path d="M100.597 19.684C100.597 19.8113 100.543 19.9334 100.446 20.0235C100.349 20.1135 100.217 20.1641 100.08 20.1641H80.2086C80.0722 20.1616 79.9421 20.1103 79.8457 20.0207C79.7492 19.9312 79.6938 19.8105 79.6912 19.684C79.6912 19.5567 79.7457 19.4345 79.8427 19.3445C79.9398 19.2545 80.0714 19.2039 80.2086 19.2039H99.5622V0.480097C99.5622 0.352767 99.6167 0.230653 99.7138 0.140617C99.8108 0.0505812 99.9424 0 100.08 0H119.951C120.088 0 120.22 0.0505812 120.317 0.140617C120.414 0.230653 120.468 0.352767 120.468 0.480097V19.2039H139.304V0.480097C139.304 0.352767 139.359 0.230653 139.456 0.140617C139.553 0.0505812 139.684 0 139.822 0H159.693C159.83 0 159.962 0.0505812 160.059 0.140617C160.156 0.230653 160.21 0.352767 160.21 0.480097V19.2039H179.564C179.701 19.2039 179.833 19.2545 179.93 19.3445C180.027 19.4345 180.081 19.5567 180.081 19.684C180.081 19.8113 180.027 19.9334 179.93 20.0235C179.833 20.1135 179.701 20.1641 179.564 20.1641H159.693C159.556 20.1616 159.426 20.1103 159.33 20.0207C159.233 19.9312 159.178 19.8105 159.175 19.684V0.960194H140.339V19.684C140.339 19.8113 140.285 19.9334 140.188 20.0235C140.091 20.1135 139.959 20.1641 139.822 20.1641H119.951C119.814 20.1616 119.684 20.1103 119.588 20.0207C119.491 19.9312 119.436 19.8105 119.433 19.684V0.960194H100.597V19.684Z" fill="black"/>
<path d="M180.526 19.684C180.524 19.8105 180.468 19.9312 180.372 20.0207C180.275 20.1103 180.145 20.1616 180.009 20.1641H160.107C159.969 20.1641 159.838 20.1135 159.741 20.0235C159.644 19.9334 159.589 19.8113 159.589 19.684C159.589 19.5567 159.644 19.4345 159.741 19.3445C159.838 19.2545 159.969 19.2039 160.107 19.2039H179.46V0.480097C179.46 0.352767 179.515 0.230653 179.612 0.140617C179.709 0.0505812 179.84 0 179.978 0H199.849C199.986 0 200.118 0.0505812 200.215 0.140617C200.312 0.230653 200.366 0.352767 200.366 0.480097V19.2039H219.202V0.480097C219.202 0.352767 219.257 0.230653 219.354 0.140617C219.451 0.0505812 219.583 0 219.72 0H239.591C239.728 0 239.86 0.0505812 239.957 0.140617C240.054 0.230653 240.108 0.352767 240.108 0.480097V19.2039H259.462C259.599 19.2039 259.731 19.2545 259.828 19.3445C259.925 19.4345 259.979 19.5567 259.979 19.684C259.977 19.8105 259.921 19.9312 259.825 20.0207C259.728 20.1103 259.598 20.1616 259.462 20.1641H239.591C239.454 20.1641 239.322 20.1135 239.225 20.0235C239.128 19.9334 239.073 19.8113 239.073 19.684V0.960194H220.237V19.684C220.235 19.8105 220.179 19.9312 220.083 20.0207C219.986 20.1103 219.856 20.1616 219.72 20.1641H199.849C199.712 20.1641 199.58 20.1135 199.483 20.0235C199.386 19.9334 199.331 19.8113 199.331 19.684V0.960194H180.526V19.684Z" fill="black"/>
</g>
<defs>
<clipPath id="clip0_425_4620">
<rect width="180.309" height="20.1641" fill="white"/>
</clipPath>
<clipPath id="clip1_425_4620">
<rect width="180.309" height="20.1641" fill="white" transform="translate(79.6912)"/>
</clipPath>
</defs>
</svg>
