<svg width="263" height="22" viewBox="0 0 263 22" fill="none" xmlns="http://www.w3.org/2000/svg">
<g clip-path="url(#clip0_425_4611)">
<path d="M47.034 21.2071L31.6298 3.08137L16.2257 21.2071L0 2.08446L1.64311 0.996915L16.2257 18.1257L31.6298 0L47.034 18.1257L62.4381 0L78.6638 19.1226L77.0207 20.2102L62.4381 3.08137L47.034 21.2071Z" fill="black"/>
<path d="M108.62 21.2071L93.2155 3.08137L77.8114 21.2071L61.5857 2.08446L63.2288 0.996915L77.8114 18.1257L93.2155 0L108.62 18.1257L124.024 0L140.25 19.1226L138.606 20.2102L124.024 3.08137L108.62 21.2071Z" fill="black"/>
<path d="M169.795 21.2071L154.391 3.08137L138.986 21.2071L122.75 2.08446L124.404 0.996915L138.986 18.1257L154.391 0L169.795 18.1257L185.199 0L201.414 19.1226L199.771 20.2102L185.199 3.08137L169.795 21.2071Z" fill="black"/>
<path d="M231.37 21.2071L215.966 3.08137L200.562 21.2071L184.336 2.08446L185.979 0.996915L200.562 18.1257L215.966 0L231.37 18.1257L246.774 0L263 19.1226L261.357 20.2102L246.774 3.08137L231.37 21.2071Z" fill="black"/>
</g>
<defs>
<clipPath id="clip0_425_4611">
<rect width="263" height="21.2071" fill="white"/>
</clipPath>
</defs>
</svg>
