<svg width="14" height="16" viewBox="0 0 14 16" fill="none" xmlns="http://www.w3.org/2000/svg">
<path d="M7.08464 8.08333C6.38416 8.08333 5.69942 7.87562 5.11699 7.48646C4.53457 7.09729 4.08062 6.54416 3.81256 5.89701C3.5445 5.24985 3.47437 4.53774 3.61102 3.85072C3.74768 3.16371 4.08499 2.53264 4.5803 2.03733C5.07561 1.54202 5.70668 1.20471 6.39369 1.06805C7.08071 0.931398 7.79282 1.00153 8.43997 1.26959C9.08713 1.53766 9.64026 1.9916 10.0294 2.57402C10.4186 3.15645 10.6263 3.84119 10.6263 4.54167C10.6263 5.48098 10.2532 6.38181 9.58897 7.046C8.92478 7.7102 8.02395 8.08333 7.08464 8.08333Z" stroke="#8391A1" stroke-linecap="round" stroke-linejoin="round"/>
<path d="M13.1692 15.1668C13.1692 12.4256 10.4421 10.2085 7.08458 10.2085C3.72708 10.2085 1 12.4256 1 15.1668" stroke="#8391A1" stroke-linecap="round" stroke-linejoin="round"/>
</svg>
