<svg width="29" height="10" viewBox="0 0 29 10" fill="none" xmlns="http://www.w3.org/2000/svg">
<g clip-path="url(#clip0_408_8974)">
<path d="M27.8822 4.43008C27.8039 4.40948 27.7221 4.40383 27.6415 4.41345C27.5608 4.42307 27.483 4.44778 27.4124 4.48615C27.3418 4.52453 27.2798 4.57583 27.23 4.6371C27.1802 4.69838 27.1435 4.76844 27.122 4.84327C26.7666 6.08286 25.648 8.68008 24.4583 8.73616C24.0319 8.76862 22.8793 8.42331 21.3095 4.77539C19.8819 1.45803 18.5284 -0.0294695 17.0328 0.0856346C14.9933 0.247961 13.9612 3.54171 13.6738 4.64553C13.6523 4.6828 13.6357 4.72245 13.6244 4.76358C13.2659 6.00317 12.1349 8.60039 10.936 8.65647C10.5064 8.68303 9.34145 8.34657 7.7593 4.69275C6.3224 1.37834 4.95347 -0.109158 3.45476 0.00594587C1.23915 0.183029 0.203954 4.01983 0.0216372 4.7872C-0.0152426 4.93983 0.0128737 5.10021 0.0998003 5.23305C0.186727 5.36589 0.325343 5.46031 0.485156 5.49553C0.644968 5.53076 0.812887 5.5039 0.95197 5.42088C1.09105 5.33785 1.18991 5.20546 1.22679 5.05282C1.60378 3.49449 2.57717 1.26029 3.55983 1.18355C3.94918 1.15404 5.02764 1.47869 6.61905 5.14432C8.02506 8.39084 9.46196 9.91966 11.0163 9.83407C13.1794 9.70716 14.4154 6.31307 14.7492 5.30959C14.7861 5.25454 14.8123 5.19354 14.8264 5.12956C15.1911 3.61549 16.1768 1.33702 17.1378 1.26029C17.5241 1.23372 18.5902 1.55542 20.1661 5.22105C21.5227 8.37904 22.9133 9.91671 24.4058 9.91671H24.5356C26.9242 9.778 28.1819 5.62834 28.3179 5.15612C28.3394 5.08112 28.3452 5.0028 28.3349 4.92566C28.3246 4.84852 28.2985 4.77408 28.258 4.70661C28.2175 4.63914 28.1635 4.57999 28.099 4.53253C28.0345 4.48507 27.9608 4.45026 27.8822 4.43008Z" fill="#F9FFFF"/>
</g>
<defs>
<clipPath id="clip0_408_8974">
<rect width="28.3333" height="9.91667" fill="white"/>
</clipPath>
</defs>
</svg>
