<svg width="19" height="19" viewBox="0 0 19 19" fill="none" xmlns="http://www.w3.org/2000/svg">
<path d="M14.2115 2.29097C14.1195 2.19882 14.0103 2.1257 13.8901 2.07581C13.7699 2.02592 13.641 2.00024 13.5108 2.00024C13.3807 2.00024 13.2518 2.02592 13.1316 2.07581C13.0113 2.1257 12.9021 2.19882 12.8102 2.29097L6.23146 8.86972C6.15807 8.94296 6.09984 9.02996 6.06011 9.12573C6.02039 9.2215 5.99994 9.32416 5.99994 9.42785C5.99994 9.53153 6.02039 9.63419 6.06011 9.72997C6.09984 9.82574 6.15807 9.91273 6.23146 9.98597L12.8102 16.5647C13.1981 16.9526 13.8235 16.9526 14.2115 16.5647C14.5994 16.1768 14.5994 15.5514 14.2115 15.1635L8.47979 9.42389L14.2194 3.6843C14.5994 3.3043 14.5994 2.67097 14.2115 2.29097Z" fill="white" stroke="#1E232C" stroke-width="0.2"/>
</svg>
